<svg width="105" height="44" viewBox="0 0 105 44" fill="none" xmlns="http://www.w3.org/2000/svg">
<path d="M90.5872 19.2187C88.8156 19.6222 84.1368 19.8464 84.1368 19.8464L83.5614 21.6696C83.5614 21.6696 85.8781 21.4754 87.574 21.6397C87.574 21.6397 88.1191 21.5949 88.1796 22.2375C88.2099 22.8951 88.1342 23.5825 88.1342 23.5825C88.1342 23.5825 88.0888 23.986 87.5285 24.0906C86.8774 24.1953 82.4864 24.3895 82.4864 24.3895L81.7747 26.7508C81.7747 26.7508 81.5173 27.2888 82.1078 27.1393C82.6529 26.9899 87.256 26.1231 87.8617 26.2427C88.4976 26.3921 89.2244 27.2589 89.0124 28.036C88.7701 28.9775 84.1671 31.8767 81.381 31.6825C81.381 31.6825 79.9123 31.7721 78.6858 29.8144C77.5047 27.9463 79.0946 24.4344 79.0946 24.4344C79.0946 24.4344 78.3829 22.7905 78.9129 22.1927C78.9129 22.1927 79.2157 21.9386 80.1242 21.8639L81.2599 19.5625C81.2599 19.5625 79.9728 19.6372 79.2157 18.7106C78.5192 17.814 78.4587 17.4254 79.0038 17.1863C79.5791 16.8874 84.909 15.9459 88.5733 16.0654C88.5733 16.0654 89.8604 15.916 90.996 18.1128C90.996 18.1128 91.5108 19.0095 90.6023 19.2187M76.7779 28.0659C76.3237 29.1568 75.0669 30.3076 73.5527 29.6052C72.0083 28.8878 69.5705 23.986 69.5705 23.986C69.5705 23.986 68.662 22.1628 68.4803 22.2226C68.4803 22.2226 68.2834 21.8639 68.1775 23.8665C68.026 25.8541 68.2077 29.7247 67.3749 30.3374C66.6179 30.9352 65.7094 30.6812 65.1945 29.9788C64.7706 29.2764 64.5889 27.5877 64.8311 24.6436C65.1037 21.6995 65.7851 18.5612 66.6481 17.5898C67.5566 16.6034 68.2834 17.3208 68.556 17.5898C68.556 17.5898 69.7219 18.6359 71.6903 21.7294L72.0234 22.2973C72.0234 22.2973 73.8102 25.2414 73.9919 25.2264C73.9919 25.2264 74.1433 25.3759 74.2644 25.2563C74.4461 25.2115 74.3855 24.255 74.3855 24.255C74.3855 24.255 74.0524 21.0719 72.3868 15.6918C72.3868 15.6918 72.1446 15.0044 72.3111 14.3468C72.4625 13.749 73.1136 14.0479 73.1136 14.0479C73.1136 14.0479 75.6272 15.2435 76.8536 19.2785C78.065 23.3135 77.2473 26.9749 76.7931 28.0659M64.4526 17.7093C64.2103 18.1278 64.1043 18.7106 63.0596 18.875C63.0596 18.875 52.9146 19.5774 52.4149 20.2798C52.4149 20.2798 52.0818 20.6982 52.6269 20.8029C53.2023 20.9224 55.5039 21.2213 56.5941 21.2811C57.7751 21.2811 61.7422 21.311 63.1958 23.0744C63.1958 23.0744 64.0286 23.9113 63.9983 25.8093C63.9681 27.752 63.6198 28.4395 62.8476 29.1419C62.0451 29.7994 55.1707 32.8481 50.7342 28.1854C50.7342 28.1854 48.7052 25.9438 51.4459 24.2401C51.4459 24.2401 53.4143 23.0445 58.4565 24.4344C58.4565 24.4344 59.9706 24.9724 59.9101 25.5253C59.8192 26.1231 58.6533 26.7209 56.9575 26.691C55.3222 26.6462 54.1108 25.869 54.3531 26.0035C54.5802 26.0783 52.5815 25.0471 51.9607 25.7495C51.355 26.407 51.5064 26.7956 52.1121 27.1991C53.6263 28.0659 59.577 27.752 61.3485 25.7943C61.3485 25.7943 62.0602 25.0023 60.9851 24.3596C59.9252 23.7619 56.8363 23.3883 55.6401 23.3434C54.5045 23.2836 50.2497 23.3434 49.6137 22.2525C49.6137 22.2525 49.0081 21.4754 49.6743 19.3532C50.3708 17.1116 55.3222 16.2448 57.4723 16.0654C57.4723 16.0654 63.3775 15.8263 64.4829 17.0219C64.4829 17.0219 64.6343 17.2909 64.4526 17.6944M47.7059 30.8456C46.9942 31.3686 45.48 31.1444 45.0409 30.5467C44.617 30.0236 44.4656 27.9613 44.5413 24.7183C44.6473 21.4006 44.6927 17.3357 45.4498 16.6782C46.2069 16.0356 46.6611 16.6034 46.9639 17.0368C47.2668 17.4852 47.6605 17.9783 47.721 19.0095C47.8119 20.0556 48.0693 25.4356 48.0693 25.4356C48.0693 25.4356 48.4024 30.3374 47.721 30.8456M49.22 13.3605C47.1305 14.0629 45.7072 13.8387 44.4958 13.3157C43.9659 14.2572 43.6479 14.5411 43.2542 14.6009C42.6486 14.6607 42.1186 13.7042 42.0429 13.4053C41.9218 13.1812 41.6341 12.7777 41.9823 11.866C40.8013 10.8199 40.7104 9.41514 40.9224 8.47364C41.195 7.36774 43.1937 3.21317 49.2503 2.72C49.2503 2.72 52.2181 2.51078 52.7329 4.06501H52.8238C52.8238 4.06501 55.7007 4.06501 55.6401 6.60557C55.6401 9.14614 52.4604 12.3144 49.22 13.4053M51.9153 6.12735C50.0074 6.42624 47.0699 8.93692 45.6618 11.0142C47.827 11.4028 51.6124 11.2533 53.3083 7.87586C53.3083 7.87586 54.1108 5.75374 51.9153 6.12735ZM43.5419 7.77125C42.9362 8.74264 42.906 9.32547 43.1937 9.71403C43.9053 8.66792 45.1621 7.02402 47.0548 5.73879C45.6012 5.88824 44.3747 6.48602 43.5419 7.77125ZM95.1297 30.7409C93.7366 34.1184 92.5556 37.5407 91.8742 42.6667C91.8742 42.6667 91.7228 43.6679 90.89 43.3392C90.0572 43.0403 88.6944 41.6953 88.3916 39.7973C88.0888 37.3165 89.2093 33.1321 91.4957 28.3199C90.8294 27.2738 90.36 25.7196 90.7386 23.5377C90.7386 23.5377 91.3442 19.5027 95.4325 15.8562C95.4325 15.8562 95.917 15.4527 96.1896 15.5872C96.5227 15.7367 96.3864 17.0219 96.1139 17.6795C95.8716 18.3071 94.0546 21.4156 94.0546 21.4156C94.0546 21.4156 92.919 23.5377 93.237 25.1965C95.3871 21.9386 100.278 15.3332 103.306 17.4254C105.229 18.7704 105.229 23.1043 103.791 25.615C102.655 27.6026 99.4451 31.7123 95.16 30.7559M101.459 20.5936C100.338 21.7892 98.3397 24.0608 96.765 27.1393C98.4305 26.96 100.051 26.0484 100.55 25.5851C101.353 24.8827 103.2 22.9848 102.912 20.4741C102.912 20.4741 102.731 19.159 101.459 20.5936ZM33.6241 32.5044C28.2639 34.1184 23.2066 33.3712 20.4508 32.6538C20.3751 33.7597 20.254 34.223 20.0723 34.4024C19.8603 34.6415 18.1039 35.6278 17.1348 34.223C16.7108 33.5505 16.4988 32.34 16.3777 31.2341C10.1696 28.4544 7.2927 24.3596 7.20185 24.2102C7.05043 24.0608 5.64225 22.6111 7.05043 20.8178C8.36776 19.2038 12.7286 17.5748 16.6351 16.9322C16.7865 13.6444 17.1499 11.1039 17.6193 9.98303C18.1796 8.63803 18.8912 9.83359 19.5272 10.7303C20.042 11.4028 20.36 14.287 20.3903 16.5885C22.9341 16.4689 24.4785 16.6483 27.31 17.1863C31.0349 17.814 33.5181 19.697 33.3213 21.8191C33.1396 23.9113 31.2014 24.7781 30.4443 24.8379C29.6873 24.8976 28.4759 24.3447 28.4759 24.3447C27.628 23.9561 28.4002 23.5975 29.3844 23.179C30.4746 22.656 30.2324 22.1329 30.2324 22.1329C29.8387 20.9374 25.0085 20.1453 20.2086 20.1453C20.2086 22.7606 20.3146 27.0945 20.3903 29.6201C23.7517 30.2478 26.2652 30.1133 26.2652 30.1133C26.2652 30.1133 38.53 29.7696 38.8783 22.0432C39.2568 14.302 26.6135 6.88952 17.3014 4.55818C8.00435 2.15211 2.73505 3.85579 2.28079 4.07995C1.78112 4.31906 2.23537 4.40873 2.23537 4.40873C2.23537 4.40873 2.73505 4.48345 3.64355 4.78234C4.55205 5.08123 3.82525 5.52957 3.82525 5.52957C2.23537 6.06757 0.463792 5.75374 0.115533 5.0364C-0.232726 4.33401 0.342658 3.6914 1.02403 2.74989C1.65999 1.7785 2.38679 1.80839 2.38679 1.80839C13.8945 -2.15191 27.946 4.94673 27.946 4.94673C41.089 11.4924 43.3299 19.1888 43.0877 22.1777C42.8757 25.1218 41.7249 30.0983 33.6241 32.5193M8.33747 21.8191C7.03529 22.4169 7.94379 23.3733 7.94379 23.3733C10.3967 25.9587 13.3948 27.5877 16.2717 28.6039C16.6048 24.1205 16.5746 22.5215 16.5746 20.2649C12.1229 20.5637 9.54881 21.2811 8.33747 21.8191Z" fill="black"/>
</svg>
