<svg xmlns="http://www.w3.org/2000/svg" width="63" height="21" viewBox="0 0 63 21" fill="none">
  <path d="M62.0132 4.99982C61.9742 5.15849 61.9352 5.32325 61.8897 5.48192C61.4804 6.98313 60.1616 7.89241 58.4464 7.84969C57.7902 7.83138 57.147 7.73984 56.5168 7.55067C56.3024 7.48354 56.0361 7.57508 55.7957 7.59338C55.4773 7.61779 55.1525 7.67272 54.8341 7.67272C51.8261 7.67882 48.818 7.67882 45.8035 7.67882C45.7061 7.67882 45.6021 7.67882 45.4722 7.67882C45.5501 7.21503 45.6151 6.77565 45.6866 6.34847C46.947 6.34847 48.1879 6.34847 49.4677 6.34847C49.4417 6.37288 49.4612 6.36678 49.4612 6.35458C49.4482 5.48802 49.4353 4.61536 49.4028 3.74881C49.3963 3.59014 49.3248 3.42538 49.2533 3.26671C49.013 2.71749 48.5647 2.43067 47.928 2.43067C47.4277 2.43067 46.9275 2.43067 46.4207 2.43067C46.3298 2.43067 46.2388 2.43067 46.1219 2.43067C46.1868 1.99129 46.2453 1.58852 46.3168 1.19186C46.3233 1.14304 46.4142 1.06981 46.4597 1.06981C47.3108 1.08201 48.1684 1.0393 49 1.14914C50.2539 1.31391 51.1569 2.25369 51.3713 3.50471C51.4493 3.9685 51.4558 4.43839 51.4753 4.90828C51.4948 5.35987 51.4818 5.81756 51.4818 6.28745C51.5727 6.29355 51.6442 6.30576 51.7157 6.30576C52.8006 6.30576 53.8921 6.29965 54.9771 6.31186C55.2045 6.31186 55.2889 6.22032 55.3084 6.04335C55.3214 5.9152 55.3279 5.78704 55.3279 5.65889C55.3279 4.80454 55.3279 3.95019 55.3279 3.09584C55.3279 2.10113 55.7632 1.5275 56.7767 1.22847C57.1795 1.11253 57.6018 1.0576 58.0176 0.978271C58.31 0.978271 58.5958 0.978271 58.8882 0.978271C58.9532 0.996579 59.0181 1.01489 59.0831 1.02709C60.4669 1.20406 61.4804 2.034 61.8508 3.30333C61.9092 3.50471 61.9547 3.70609 62.0002 3.90137C62.0132 4.26142 62.0132 4.63367 62.0132 4.99982ZM57.2185 2.81512C57.238 3.06533 57.2705 3.27892 57.2705 3.4864C57.277 4.29193 57.2835 5.09746 57.2705 5.90299C57.264 6.09827 57.3419 6.1715 57.5368 6.18371C57.8747 6.20201 58.2125 6.24473 58.5504 6.25083C59.2845 6.26304 59.7653 5.9335 59.9602 5.27443C60.1421 4.67029 60.1356 4.06004 59.9667 3.45589C59.8627 3.09584 59.6548 2.77851 59.265 2.66256C58.5503 2.44897 57.8617 2.57713 57.2185 2.81512Z" fill="black"/>
  <path d="M44.7638 1.08837C44.6923 1.53386 44.6209 1.96714 44.5429 2.43093C44.4389 2.43093 44.335 2.43093 44.2375 2.43093C42.9642 2.43093 41.6843 2.43093 40.4109 2.43093C40.2355 2.43093 40.0536 2.43093 39.8781 2.45534C39.3584 2.51636 39.079 2.82149 39.105 3.29748C39.131 3.76737 39.4429 4.0786 39.9431 4.09081C40.5863 4.10911 41.236 4.09081 41.8792 4.10301C42.165 4.10911 42.4574 4.12742 42.7368 4.18845C43.8087 4.40203 44.4844 5.20756 44.4714 6.23279C44.4649 6.49519 44.4389 6.7637 44.374 7.01391C44.1596 7.83774 43.5164 8.23441 42.6848 8.38697C42.2625 8.4663 41.8272 8.50292 41.3919 8.50292C38.5593 8.50902 35.7266 8.51512 32.9005 8.49071C31.1334 8.4724 29.9639 7.39836 29.8665 5.74459C29.8145 4.93295 29.7755 4.11522 30.0159 3.31579C30.4122 1.99765 31.5102 1.19212 32.972 1.16771C33.8621 1.1555 34.7521 1.16771 35.6682 1.16771C35.5967 1.6254 35.5253 2.06478 35.4538 2.53467C35.1095 2.53467 34.7716 2.53467 34.4338 2.53467C34.1024 2.53467 33.7711 2.52857 33.4398 2.54077C32.842 2.56518 32.3938 2.83369 32.1664 3.3524C32.0364 3.63922 31.952 3.96265 31.939 4.27388C31.9195 4.85362 31.913 5.44556 32.004 6.0131C32.1079 6.67217 32.5952 7.06273 33.2968 7.10544C34.1284 7.15426 34.96 7.14206 35.7916 7.14206C37.6172 7.14816 39.4494 7.14816 41.275 7.14816C41.4114 7.14816 41.5478 7.14816 41.6778 7.12375C42.23 7.02611 42.5484 6.64165 42.5029 6.14125C42.4574 5.64084 42.0741 5.31741 41.5089 5.31131C40.7097 5.2991 39.9106 5.31741 39.1115 5.27469C38.163 5.22587 37.4808 4.73157 37.2339 3.96876C36.9481 3.09 37.2079 2.15631 37.8901 1.65591C38.4358 1.25925 39.079 1.09448 39.7482 1.08227C41.3789 1.05176 43.0161 1.07007 44.6468 1.06396C44.6923 1.06396 44.7118 1.07617 44.7638 1.08837Z" fill="black"/>
  <path d="M62.0131 20.1401C61.3764 20.0302 60.7462 19.9143 60.1095 19.8227C59.9341 19.7983 59.7392 19.8411 59.5573 19.8716C58.7842 20.0058 58.0111 20.0913 57.2379 19.9021C56.3154 19.6763 55.7891 19.066 55.7567 18.1812C55.7242 17.2658 56.1724 16.6128 57.1145 16.3626C57.6732 16.2162 58.2644 16.1796 58.8427 16.1307C59.239 16.0941 59.6353 16.1246 60.0316 16.1246C60.22 15.3679 59.8497 14.8919 59.0441 14.8797C58.1605 14.8675 57.3094 15.0506 56.4778 15.3191C56.3998 15.3435 56.3154 15.3679 56.2114 15.3984C56.14 14.9468 56.0685 14.5075 55.997 14.0498C57.3744 13.6348 58.7387 13.2626 60.194 13.5372C61.2595 13.7385 61.8182 14.3122 61.9547 15.313C61.9611 15.374 61.9871 15.435 62.0001 15.4961C62.0131 17.0461 62.0131 18.5961 62.0131 20.1401ZM59.3299 17.2231C59.3299 17.2109 59.3234 17.2048 59.3234 17.1926C58.9596 17.2414 58.5828 17.2536 58.2255 17.3451C57.8616 17.4428 57.6862 17.7662 57.7252 18.1385C57.7512 18.4619 57.9591 18.7182 58.3294 18.7548C58.7062 18.7853 59.1025 18.7609 59.4793 18.6938C60.1095 18.59 60.1095 18.5656 60.1031 17.9615C60.1031 17.7235 60.168 17.4123 60.0381 17.278C59.9211 17.156 59.5768 17.2292 59.3299 17.2231Z" fill="black"/>
  <path d="M39.6966 19.933C39.0079 19.933 38.3647 19.933 37.6955 19.933C37.6955 19.8293 37.6955 19.7316 37.6955 19.6401C37.6955 18.444 37.6955 17.2418 37.6955 16.0457C37.6955 15.9176 37.6955 15.7894 37.676 15.6612C37.6306 15.3012 37.3772 15.051 37.0004 15.0144C36.5456 14.9656 36.1038 15.0388 35.74 15.2158C35.753 15.7406 35.7725 16.241 35.779 16.7414C35.7854 17.7178 35.779 18.6881 35.779 19.6645C35.779 19.7499 35.779 19.8354 35.779 19.933C35.1098 19.933 34.4666 19.933 33.7844 19.933C33.7844 19.8415 33.7844 19.7499 33.7844 19.6584C33.7844 18.4623 33.7714 17.2601 33.7909 16.064C33.8039 15.1303 33.3556 14.8862 32.4266 15.0449C31.8678 15.1364 31.8743 15.1486 31.8743 15.6735C31.8743 16.9916 31.8743 18.3097 31.8743 19.6279C31.8743 19.7194 31.8743 19.8171 31.8743 19.9269C31.1922 19.9269 30.536 19.9269 29.8408 19.9269C29.8408 19.8232 29.8408 19.7316 29.8408 19.6401C29.8408 18.09 29.8408 16.54 29.8408 14.99C29.8408 14.2028 30.0552 13.9403 30.8673 13.7329C31.8678 13.4766 32.8879 13.3484 33.9144 13.5437C34.1937 13.5986 34.4601 13.7084 34.72 13.8305C34.8564 13.8976 34.9539 13.9098 35.0903 13.8549C36.0713 13.4643 37.0848 13.3484 38.1308 13.5864C39.0469 13.7939 39.6186 14.4041 39.6511 15.2829C39.6966 16.5095 39.6836 17.7422 39.6901 18.9688C39.6966 19.28 39.6966 19.5974 39.6966 19.933Z" fill="black"/>
  <path d="M52.6124 13.7265C52.6124 13.6167 52.6124 13.5312 52.6124 13.4458C52.6124 12.6647 52.6124 11.8836 52.6124 11.0963C52.6124 10.9682 52.6319 10.8828 52.7878 10.8583C53.392 10.7668 53.9897 10.6692 54.6329 10.5654C54.6329 10.6631 54.6329 10.7485 54.6329 10.8339C54.6329 13.4031 54.6329 15.9722 54.6329 18.5475C54.6329 19.2859 54.464 19.5117 53.7168 19.7253C52.7423 20.006 51.7483 20.0731 50.7413 19.9328C49.2925 19.7314 48.3179 18.7062 48.201 17.2721C48.149 16.6557 48.1685 16.0455 48.3439 15.4413C48.6883 14.233 49.6043 13.5129 50.9297 13.4885C51.378 13.4824 51.8328 13.5801 52.2875 13.635C52.3785 13.6594 52.4759 13.6899 52.6124 13.7265ZM52.6124 16.79C52.6124 16.4788 52.6124 16.1675 52.6124 15.8563C52.6124 15.0019 52.6124 15.0019 51.6898 14.9226C50.9752 14.8616 50.4619 15.185 50.28 15.8319C50.1111 16.4299 50.1111 17.0341 50.2865 17.626C50.4749 18.2851 50.9557 18.6207 51.6898 18.6085C51.9107 18.6024 52.1251 18.5597 52.346 18.5414C52.5539 18.5292 52.6319 18.4438 52.6189 18.2363C52.5994 17.7603 52.6124 17.2721 52.6124 16.79Z" fill="black"/>
  <path d="M45.1215 16.1245C45.1865 15.1664 44.8746 14.8491 43.9001 14.8735C43.0945 14.8918 42.3214 15.0627 41.5612 15.3129C41.4833 15.3373 41.3988 15.3617 41.2819 15.3983C41.2169 14.9711 41.1519 14.5562 41.0934 14.1412C41.0869 14.1046 41.1519 14.0313 41.1974 14.013C42.2954 13.6835 43.3933 13.3967 44.5628 13.4516C44.7382 13.4577 44.9201 13.476 45.0955 13.5065C46.4079 13.7201 47.0316 14.3975 47.0446 15.6607C47.0576 17.1009 47.0446 18.535 47.0446 19.9752C47.0446 20.024 47.0381 20.0728 47.0381 20.1461C46.8172 20.1094 46.5963 20.0911 46.3884 20.0423C45.5698 19.847 44.7642 19.8104 43.9261 19.9752C43.3284 20.0972 42.7047 20.0545 42.1135 19.8653C41.2884 19.5968 40.8401 19.0171 40.8141 18.1872C40.7881 17.3389 41.1779 16.747 41.9835 16.4235C42.5358 16.2038 43.114 16.1489 43.7052 16.1367C44.173 16.1123 44.6407 16.1245 45.1215 16.1245ZM45.1605 17.2657C44.5758 17.2657 44.043 17.2352 43.5103 17.2779C43.0295 17.3145 42.7502 17.6684 42.7761 18.1078C42.7956 18.5106 43.1075 18.8157 43.5947 18.7913C44.082 18.7669 44.5628 18.657 45.0435 18.5716C45.089 18.5655 45.154 18.4862 45.154 18.4435C45.167 18.0529 45.1605 17.6623 45.1605 17.2657Z" fill="black"/>
  <path d="M26.7091 0.972656L0.838623 0.972656V9.02186H26.7091V0.972656Z" fill="#319BD6"/>
  <path d="M26.7091 11.9504H0.838623V19.9996H26.7091V11.9504Z" fill="#8BB525"/>
</svg>