<svg xmlns="http://www.w3.org/2000/svg" width="41" height="23" viewBox="0 0 41 23" fill="none">
  <path d="M24.5881 11.5221C24.5881 17.7588 19.2087 22.8117 12.5689 22.8117C5.92908 22.8117 0.549683 17.7588 0.549683 11.5221C0.549683 5.28529 5.92908 0.232422 12.5689 0.232422C19.2087 0.232422 24.5881 5.28529 24.5881 11.5221Z" fill="#E40520"/>
  <path d="M28.7074 0.232178C25.6019 0.232178 22.7693 1.33673 20.6383 3.15528C20.203 3.52753 19.8002 3.92419 19.4234 4.35137H21.8532C22.1846 4.72972 22.4899 5.13249 22.7693 5.54746H18.5074C18.254 5.93192 18.0201 6.32858 17.8122 6.74355H23.458C23.6529 7.12801 23.8218 7.53077 23.9647 7.93964H17.2989C17.1625 8.3302 17.0456 8.72686 16.9481 9.13573H24.3091C24.4845 9.90465 24.5819 10.7041 24.5819 11.5279C24.5819 12.7789 24.3675 13.9872 23.9647 15.1162H17.2989C17.4419 15.5251 17.6173 15.9217 17.8057 16.3123H23.4515C23.2436 16.7272 23.0162 17.1239 22.7563 17.5084H18.4944C18.7737 17.9233 19.0791 18.3261 19.4104 18.7045H21.8403C21.4699 19.1316 21.0606 19.5283 20.6253 19.9005C22.7563 21.7191 25.5889 22.8236 28.6944 22.8236C35.3342 22.8236 40.7136 17.7708 40.7136 11.534C40.7266 5.28505 35.3472 0.232178 28.7074 0.232178Z" fill="#FAB31E"/>
  <path d="M39.1221 17.814C39.1221 17.6123 39.2978 17.4473 39.5126 17.4473C39.7274 17.4473 39.9032 17.6123 39.9032 17.814C39.9032 18.0156 39.7274 18.1807 39.5126 18.1807C39.2978 18.1807 39.1221 18.0218 39.1221 17.814ZM39.5126 18.0951C39.6754 18.0951 39.8055 17.9729 39.8055 17.8201C39.8055 17.6673 39.6754 17.5451 39.5126 17.5451C39.3499 17.5451 39.2197 17.6673 39.2197 17.8201C39.2197 17.9729 39.3499 18.0951 39.5126 18.0951ZM39.4606 17.979H39.3825V17.6612H39.5257C39.5582 17.6612 39.5842 17.6612 39.6103 17.6795C39.6363 17.6978 39.6558 17.7284 39.6558 17.759C39.6558 17.7956 39.6363 17.8262 39.5972 17.8445L39.6623 17.9851H39.5712L39.5191 17.8567H39.4606V17.979ZM39.4606 17.7956H39.5061C39.5257 17.7956 39.5387 17.7956 39.5517 17.7895C39.5647 17.7834 39.5712 17.7651 39.5712 17.7528C39.5712 17.7406 39.5647 17.7284 39.5517 17.7223C39.5387 17.7162 39.5126 17.7162 39.4996 17.7162H39.454V17.7956H39.4606Z" fill="#FAB31E"/>
  <path d="M9.76235 12.7605C9.62592 12.7483 9.56744 12.7422 9.46998 12.7422C8.72934 12.7422 8.35903 12.9802 8.35903 13.4501C8.35903 13.7369 8.54094 13.9261 8.8268 13.9261C9.35305 13.92 9.73636 13.4501 9.76235 12.7605ZM10.7109 14.8354C10.5355 14.8354 9.6324 14.8354 9.6324 14.8354L9.6584 14.3533C9.32706 14.7317 8.88526 14.9147 8.28755 14.9147C7.57939 14.9147 7.09863 14.396 7.09863 13.6454C7.09863 12.5103 7.94322 11.8513 9.39202 11.8513C9.54145 11.8513 9.72987 11.8635 9.92477 11.8879C9.96375 11.7353 9.97674 11.6682 9.97674 11.5889C9.97674 11.2837 9.74934 11.1678 9.13864 11.1678C8.50194 11.1617 7.9757 11.3081 7.7548 11.3753C7.7678 11.2959 7.93671 10.3256 7.93671 10.3256C8.5864 10.1487 9.01521 10.0815 9.49598 10.0815C10.6199 10.0815 11.2111 10.5514 11.2111 11.4485C11.2111 11.6865 11.1722 11.9855 11.1072 12.37C10.9837 13.0352 10.7434 14.4814 10.7109 14.8354Z" fill="#06326E"/>
  <path d="M6.54674 14.835H5.24086L5.988 10.429L4.31832 14.835H3.42825L3.3178 10.4534L2.53817 14.835H1.31677L2.33676 9.10474H4.20786L4.3248 12.3147L5.46826 9.10474H7.55374L6.54674 14.835Z" fill="#06326E"/>
  <path d="M30.3186 12.7605C30.1822 12.7483 30.1237 12.7422 30.0263 12.7422C29.2856 12.7422 28.9153 12.9802 28.9153 13.4501C28.9153 13.7369 29.0972 13.9261 29.3831 13.9261C29.9158 13.92 30.2991 13.4501 30.3186 12.7605ZM31.2672 14.8354C31.0917 14.8354 30.1887 14.8354 30.1887 14.8354L30.2147 14.3533C29.8833 14.7317 29.4415 14.9147 28.8503 14.9147C28.1422 14.9147 27.6549 14.396 27.6549 13.6454C27.6549 12.5103 28.4995 11.8513 29.9483 11.8513C30.0977 11.8513 30.2861 11.8635 30.481 11.8879C30.52 11.7353 30.533 11.6682 30.533 11.5889C30.533 11.2837 30.3056 11.1678 29.6949 11.1678C29.0582 11.1617 28.532 11.3081 28.3111 11.3753C28.3241 11.2959 28.493 10.3256 28.493 10.3256C29.1427 10.1487 29.5715 10.0815 30.0523 10.0815C31.1762 10.0815 31.7674 10.5514 31.7674 11.4485C31.7674 11.6865 31.7284 11.9855 31.6635 12.37C31.5465 13.0352 31.2996 14.4814 31.2672 14.8354Z" fill="#06326E"/>
  <path d="M16.5076 14.7621C16.1501 14.8658 15.8706 14.9146 15.5717 14.9146C14.9022 14.9146 14.5383 14.5546 14.5383 13.8894C14.5318 13.6819 14.6357 13.1449 14.7202 12.6506C14.7982 12.2173 15.2857 9.47119 15.2857 9.47119H16.5856L16.4361 10.1791H17.2225L17.047 11.2958H16.2606C16.1111 12.1807 15.8966 13.2853 15.8901 13.4317C15.8901 13.6697 16.0266 13.7796 16.3386 13.7796C16.4881 13.7796 16.6051 13.7674 16.6896 13.7368L16.5076 14.7621Z" fill="#06326E"/>
  <path d="M20.4891 14.7255C20.0409 14.8537 19.6121 14.9147 19.1573 14.9147C17.702 14.9147 16.9484 14.2007 16.9484 12.8399C16.9484 11.2471 17.9099 10.0754 19.2158 10.0754C20.2877 10.0754 20.9699 10.7345 20.9699 11.7597C20.9699 12.1015 20.9244 12.4371 20.8075 12.907H18.2217C18.1373 13.5844 18.5921 13.8651 19.3522 13.8651C19.8135 13.8651 20.2358 13.7736 20.7036 13.5722L20.4891 14.7255ZM19.755 11.9611C19.7615 11.8635 19.8914 11.1312 19.1508 11.1312C18.735 11.1312 18.4426 11.4241 18.3192 11.9611H19.755Z" fill="#06326E"/>
  <path d="M11.4908 11.6496C11.4908 12.2355 11.7962 12.6443 12.4848 12.9495C13.0111 13.1814 13.0955 13.2546 13.0955 13.4621C13.0955 13.755 12.8617 13.8832 12.3484 13.8832C11.9586 13.8832 11.5948 13.8282 11.179 13.7001C11.179 13.7001 11.0101 14.7253 10.9971 14.7741C11.2959 14.8351 11.5558 14.8901 12.3549 14.9145C13.7322 14.9145 14.3689 14.4202 14.3689 13.3583C14.3689 12.7176 14.1026 12.3453 13.4464 12.0585C12.9006 11.8205 12.8357 11.7717 12.8357 11.552C12.8357 11.3018 13.0501 11.1736 13.4724 11.1736C13.7258 11.1736 14.0766 11.1981 14.4079 11.2408L14.5963 10.1606C14.2585 10.1118 13.7452 10.0691 13.4464 10.0691C11.9911 10.0691 11.4843 10.7892 11.4908 11.6496Z" fill="#06326E"/>
  <path d="M26.8365 10.1973C27.2004 10.1973 27.5382 10.2888 28.006 10.5085L28.2204 9.26359C28.0255 9.19036 27.3563 8.78149 26.7846 8.78149C25.914 8.78149 25.1733 9.19036 24.6536 9.86164C23.8935 9.62364 23.5816 10.0996 23.2048 10.5756L22.867 10.6489C22.8929 10.4902 22.9189 10.3376 22.9059 10.179H21.704C21.5416 11.6192 21.2492 13.0838 21.0218 14.524L20.9634 14.8352H22.2693C22.4901 13.5048 22.6071 12.6566 22.6785 12.0768L23.1723 11.8205C23.2438 11.5642 23.4777 11.4788 23.9389 11.4849C23.8805 11.79 23.848 12.1074 23.848 12.4369C23.848 13.9625 24.725 14.9084 26.1284 14.9084C26.4922 14.9084 26.804 14.8657 27.2848 14.7436L27.5122 13.4377C27.0769 13.6391 26.7261 13.7306 26.4012 13.7306C25.6411 13.7306 25.1863 13.2058 25.1863 12.3332C25.1798 11.076 25.862 10.1973 26.8365 10.1973Z" fill="#06326E"/>
  <path d="M37.8811 9.10474L37.5887 10.7585C37.2314 10.3191 36.8481 9.9957 36.3413 9.9957C35.6851 9.9957 35.0809 10.4656 34.6911 11.1552C34.1454 11.0514 33.5801 10.8684 33.5801 10.8684V10.8745C33.6256 10.49 33.6451 10.252 33.6386 10.1727H32.4367C32.2743 11.6129 31.9819 13.0775 31.7545 14.5177L31.696 14.8289H33.0019C33.1773 13.7548 33.3138 12.8578 33.4112 12.1499C33.8595 11.7715 34.0804 11.442 34.5287 11.4603C34.3273 11.9119 34.2103 12.4367 34.2103 12.9737C34.2103 14.1393 34.834 14.9082 35.7891 14.9082C36.2698 14.9082 36.6337 14.7557 36.991 14.3956L36.9325 14.8289H38.1669L39.161 9.10474H37.8811ZM36.2504 13.7548C35.8086 13.7548 35.5812 13.4436 35.5812 12.8395C35.5812 11.9241 36.0035 11.2772 36.5947 11.2772C37.043 11.2772 37.2833 11.6007 37.2833 12.1865C37.2833 13.108 36.8546 13.7548 36.2504 13.7548Z" fill="#06326E"/>
  <path d="M6.92397 14.4937H5.61811L6.36525 10.0938L4.69555 14.4937H3.80548L3.69503 10.1182L2.90891 14.4937H1.6875L2.70751 8.76953H4.58511L4.63708 12.3151L5.90398 8.76953H7.93099L6.92397 14.4937Z" fill="white"/>
  <path d="M10.1329 12.4183C9.99649 12.406 9.93803 12.3999 9.84058 12.3999C9.09993 12.3999 8.7296 12.6379 8.7296 13.1078C8.7296 13.3947 8.91151 13.5838 9.19737 13.5838C9.73012 13.5838 10.1134 13.1078 10.1329 12.4183ZM11.088 14.4931C10.9125 14.4931 10.0095 14.4931 10.0095 14.4931L10.0355 14.011C9.70413 14.3894 9.26236 14.5724 8.66465 14.5724C7.95649 14.5724 7.47571 14.0537 7.47571 13.297C7.47571 12.1619 8.3203 11.5029 9.7691 11.5029C9.91853 11.5029 10.1069 11.5151 10.3018 11.5395C10.3408 11.3869 10.3538 11.3198 10.3538 11.2344C10.3538 10.9292 10.1264 10.8133 9.51573 10.8133C8.87904 10.8072 8.35279 10.9537 8.1319 11.0208C8.14489 10.9414 8.31381 9.97115 8.31381 9.97115C8.9635 9.79418 9.39228 9.72705 9.87305 9.72705C10.997 9.72705 11.5882 10.203 11.5882 11.094C11.5882 11.332 11.5493 11.631 11.4843 12.0155C11.3608 12.6929 11.1204 14.1392 11.088 14.4931Z" fill="white"/>
  <path d="M28.5905 8.92195L28.3761 10.1669C27.9084 9.94717 27.5705 9.85563 27.2132 9.85563C26.2387 9.85563 25.5565 10.7405 25.5565 12.0037C25.5565 12.8703 26.0178 13.3951 26.7714 13.3951C27.0897 13.3951 27.4471 13.3035 27.8824 13.1022L27.6485 14.4081C27.1677 14.5301 26.8559 14.579 26.4985 14.579C25.0952 14.579 24.2181 13.627 24.2181 12.1075C24.2181 10.057 25.4265 8.62903 27.1547 8.62903C27.7264 8.62293 28.3956 8.84872 28.5905 8.92195Z" fill="white"/>
  <path d="M30.6958 12.4183C30.5594 12.406 30.5009 12.3999 30.4034 12.3999C29.6628 12.3999 29.2925 12.6379 29.2925 13.1078C29.2925 13.3947 29.4744 13.5838 29.7603 13.5838C30.2865 13.5838 30.6698 13.1078 30.6958 12.4183ZM31.6443 14.4931C31.4689 14.4931 30.5659 14.4931 30.5659 14.4931L30.5919 14.011C30.2605 14.3894 29.8187 14.5724 29.2275 14.5724C28.5194 14.5724 28.0386 14.0537 28.0386 13.297C28.0386 12.1619 28.8832 11.5029 30.332 11.5029C30.4814 11.5029 30.6698 11.5151 30.8647 11.5395C30.9037 11.3869 30.9167 11.3198 30.9167 11.2344C30.9167 10.9292 30.6893 10.8133 30.0786 10.8133C29.4419 10.8072 28.9157 10.9537 28.6948 11.0208C28.7078 10.9414 28.8767 9.97115 28.8767 9.97115C29.5264 9.79418 29.9552 9.72705 30.4359 9.72705C31.5534 9.72705 32.1511 10.203 32.1511 11.094C32.1511 11.332 32.1121 11.631 32.0471 12.0155C31.9172 12.6929 31.6768 14.1392 31.6443 14.4931Z" fill="white"/>
  <path d="M16.8843 14.4205C16.5268 14.5243 16.2473 14.5731 15.9484 14.5731C15.2789 14.5731 14.915 14.213 14.915 13.5479C14.9085 13.3404 15.0125 12.8033 15.0969 12.309C15.1749 11.8758 15.6624 9.12964 15.6624 9.12964H16.9623L16.8128 9.83753H17.4757L17.3002 10.9543H16.6308C16.4813 11.8392 16.2668 12.9437 16.2603 13.0902C16.2603 13.3282 16.3968 13.438 16.7088 13.438C16.8583 13.438 16.9753 13.4258 17.0598 13.3953L16.8843 14.4205Z" fill="white"/>
  <path d="M20.8593 14.3837C20.411 14.5119 19.9822 14.5729 19.5274 14.5729C18.0721 14.5729 17.3185 13.8589 17.3185 12.4981C17.3185 10.9053 18.28 9.73364 19.5859 9.73364C20.6579 9.73364 21.34 10.3927 21.34 11.4179C21.34 11.7597 21.2946 12.0953 21.1776 12.5652H18.5919C18.5009 13.2426 18.9622 13.5233 19.7158 13.5233C20.1771 13.5233 20.5994 13.4318 21.0672 13.2304L20.8593 14.3837ZM20.1316 11.6254C20.1381 11.5278 20.2681 10.7955 19.5274 10.7955C19.1116 10.7955 18.8193 11.0945 18.6958 11.6254H20.1316Z" fill="white"/>
  <path d="M11.868 11.3081C11.868 11.9 12.1734 12.3028 12.8621 12.6079C13.3883 12.8398 13.4728 12.913 13.4728 13.1205C13.4728 13.4135 13.2389 13.5416 12.7256 13.5416C12.3358 13.5416 11.972 13.4867 11.5562 13.3585C11.5562 13.3585 11.3873 14.3838 11.3743 14.4326C11.6731 14.4936 11.933 14.5485 12.7321 14.5729C14.1094 14.5729 14.7461 14.0786 14.7461 13.0168C14.7461 12.376 14.4798 12.0038 13.8236 11.717C13.2779 11.479 13.2129 11.4301 13.2129 11.2104C13.2129 10.9602 13.4273 10.8321 13.8496 10.8321C14.1029 10.8321 14.4538 10.8565 14.7851 10.9053L14.9735 9.82518C14.6357 9.77636 14.1225 9.73364 13.8236 9.73364C12.3683 9.73364 11.8615 10.4476 11.868 11.3081Z" fill="white"/>
  <path d="M38.5506 14.4934H37.3162L37.3747 14.0602C37.0173 14.4202 36.647 14.5728 36.1727 14.5728C35.2242 14.5728 34.594 13.8039 34.594 12.6383C34.594 11.0882 35.5685 9.7823 36.7185 9.7823C37.2252 9.7823 37.6085 9.97758 37.9659 10.417L38.2582 8.76318H39.5446L38.5506 14.4934ZM36.6275 13.4194C37.2382 13.4194 37.6605 12.7725 37.6605 11.851C37.6605 11.2591 37.4201 10.9357 36.9718 10.9357C36.3806 10.9357 35.9583 11.5825 35.9583 12.4979C35.9583 13.1082 36.1792 13.4194 36.6275 13.4194Z" fill="white"/>
  <path d="M32.8201 9.83779C32.6577 11.278 32.3653 12.7365 32.1379 14.1828L32.0795 14.494H33.3853C33.8531 11.6441 33.9636 11.0888 34.6977 11.162C34.8146 10.5762 35.029 10.0697 35.1915 9.81338C34.6457 9.70354 34.3404 9.99646 33.9376 10.5457C33.9701 10.3077 34.0285 10.0758 34.0155 9.83779H32.8201Z" fill="white"/>
  <path d="M22.0746 9.83779C21.9122 11.278 21.6198 12.7365 21.3925 14.1828L21.334 14.494H22.6398C23.1076 11.6441 23.2181 11.0888 23.9522 11.162C24.0692 10.5762 24.29 10.0697 24.446 9.81338C23.9002 9.70354 23.5949 9.99646 23.1921 10.5457C23.2246 10.3077 23.283 10.0758 23.27 9.83779H22.0746Z" fill="white"/>
  <path d="M39.1223 14.1279C39.1223 13.9262 39.2981 13.7612 39.5129 13.7612C39.7277 13.7612 39.9034 13.9262 39.9034 14.1279C39.9034 14.3296 39.7277 14.4946 39.5129 14.4946C39.2981 14.4946 39.1223 14.3296 39.1223 14.1279ZM39.5129 14.4091C39.6756 14.4091 39.8058 14.2868 39.8058 14.134C39.8058 13.9812 39.6756 13.859 39.5129 13.859C39.3501 13.859 39.22 13.9812 39.22 14.134C39.22 14.2807 39.3501 14.4091 39.5129 14.4091ZM39.4608 14.2868H39.3827V13.969H39.5259C39.5584 13.969 39.5845 13.969 39.6105 13.9874C39.6365 14.0057 39.6561 14.0363 39.6561 14.0668C39.6561 14.1035 39.6365 14.134 39.5975 14.1524L39.6626 14.2929H39.5714L39.5194 14.1646H39.4608V14.2868ZM39.4608 14.1096H39.5064C39.5194 14.1096 39.5389 14.1096 39.5519 14.1035C39.5649 14.0974 39.5714 14.079 39.5714 14.0668C39.5714 14.0546 39.5649 14.0424 39.5519 14.0363C39.5389 14.0301 39.5129 14.0301 39.4999 14.0301H39.4543V14.1096H39.4608Z" fill="white"/>
</svg>