<svg xmlns="http://www.w3.org/2000/svg" width="96" height="23" viewBox="0 0 96 23" fill="none">
  <path fill-rule="evenodd" clip-rule="evenodd" d="M8.75692 5.86401H15.2733C18.7686 5.86401 20.0874 7.52389 19.886 9.971C19.5482 14.0048 16.9559 16.2322 13.5126 16.2322H11.7715C11.2972 16.2322 10.9788 16.5251 10.8554 17.3245L10.1083 21.9502C10.0628 22.2492 9.89386 22.4262 9.64048 22.4506H5.55395C5.17063 22.4506 5.0342 22.176 5.13166 21.578L7.62645 6.74277C7.7239 6.15083 8.06825 5.86401 8.75692 5.86401Z" fill="#009FE3"/>
  <path fill-rule="evenodd" clip-rule="evenodd" d="M37.0314 5.59595C39.2273 5.59595 41.2543 6.71271 40.9814 9.50765C40.6501 12.8152 38.753 14.6582 35.771 14.6643H33.1657C32.7889 14.6643 32.607 14.9511 32.5095 15.543L32.0093 18.5516C31.9313 19.0092 31.6844 19.2289 31.3206 19.2289H28.8973C28.5075 19.2289 28.3775 18.997 28.462 18.4783L30.4695 6.40758C30.567 5.81564 30.8074 5.59595 31.2361 5.59595H37.0314ZM33.0813 12.0524H35.0563C36.2907 12.0097 37.1158 11.2041 37.1938 9.75785C37.2458 8.86079 36.6026 8.22002 35.5761 8.22613L33.718 8.23223L33.0813 12.0524ZM47.5758 18.3075C47.7967 18.1183 48.024 18.0206 47.9916 18.2525L47.9136 18.814C47.8746 19.1069 47.9981 19.2595 48.2839 19.2595H50.4409C50.8047 19.2595 50.9801 19.1191 51.0711 18.5943L52.3964 10.7648C52.4614 10.3742 52.3639 10.1789 52.0456 10.1789H49.6742C49.4598 10.1789 49.3559 10.2888 49.3039 10.6L49.213 11.0821C49.1675 11.3323 49.0441 11.375 48.9336 11.1248C48.5308 10.2277 47.5043 9.83108 46.0685 9.85549C42.7421 9.92262 40.5007 12.2904 40.2668 15.3294C40.0784 17.6789 41.8715 19.528 44.2364 19.528C45.945 19.5219 46.7117 19.0398 47.5758 18.3075ZM45.7696 17.0992C44.3403 17.0992 43.3398 16.0251 43.5477 14.7131C43.7556 13.401 45.094 12.327 46.5233 12.327C47.9526 12.327 48.9531 13.401 48.7452 14.7131C48.5373 16.0312 47.2054 17.0992 45.7696 17.0992ZM56.6129 10.1545H54.4365C53.9882 10.1545 53.7998 10.4657 53.9427 10.8563L56.6584 18.3197L53.9882 21.8713C53.7673 22.1703 53.9362 22.4389 54.2545 22.4389H56.7104C57.0742 22.4389 57.2561 22.3534 57.438 22.1032L65.78 10.8624C66.0398 10.5146 65.9164 10.1545 65.4941 10.1545H63.1747C62.7784 10.1545 62.616 10.301 62.3886 10.6122L58.9063 15.3539L57.36 10.6C57.2626 10.301 57.0352 10.1545 56.6129 10.1545Z" fill="#143A84"/>
  <path fill-rule="evenodd" clip-rule="evenodd" d="M74.466 5.59595C76.662 5.59595 78.689 6.71271 78.4162 9.50765C78.0848 12.8152 76.1877 14.6582 73.2057 14.6643H70.6004C70.2236 14.6643 70.0417 14.9511 69.9442 15.543L69.444 18.5516C69.366 19.0093 69.1191 19.2289 68.7553 19.2289H66.332C65.9422 19.2289 65.8122 18.997 65.8967 18.4783L67.9042 6.40758C68.0017 5.81564 68.2421 5.59595 68.6709 5.59595H74.466ZM70.516 12.0524H72.491C73.7254 12.0097 74.5505 11.2041 74.6285 9.75785C74.6804 8.86079 74.0373 8.22002 73.0108 8.22613L71.1526 8.23223L70.516 12.0524ZM85.0105 18.3075C85.2314 18.1183 85.4587 18.0206 85.4263 18.2525L85.3483 18.814C85.3093 19.1069 85.4328 19.2595 85.7186 19.2595H87.8756C88.2394 19.2595 88.4148 19.1191 88.5058 18.5943L89.8311 10.7648C89.8961 10.3742 89.7987 10.1789 89.4803 10.1789H87.1089C86.8945 10.1789 86.7906 10.2888 86.7386 10.6L86.6477 11.0821C86.6022 11.3323 86.4788 11.375 86.3683 11.1248C85.9655 10.2277 84.939 9.83108 83.5032 9.85549C80.1768 9.92262 77.9354 12.2904 77.7015 15.3294C77.5131 17.6789 79.3062 19.528 81.6711 19.528C83.3797 19.5219 84.1464 19.0398 85.0105 18.3075ZM83.2043 17.0992C81.775 17.0992 80.7745 16.0251 80.9824 14.7131C81.1903 13.4011 82.5287 12.327 83.958 12.327C85.3873 12.327 86.3878 13.4011 86.1799 14.7131C85.972 16.0312 84.6336 17.0992 83.2043 17.0992ZM93.1445 19.2717H90.6562C90.4613 19.2717 90.3184 19.1252 90.3509 18.9482L92.5403 5.94379C92.5728 5.76682 92.7547 5.62036 92.9561 5.62036H95.4444C95.6393 5.62036 95.7823 5.76682 95.7498 5.94379L93.5603 18.9482C93.5279 19.1252 93.3459 19.2717 93.1445 19.2717Z" fill="#009FE3"/>
  <path fill-rule="evenodd" clip-rule="evenodd" d="M4.68951 0.762451H11.2124C13.051 0.762451 15.2274 0.817374 16.6827 2.02567C17.6572 2.8312 18.164 4.11883 18.0471 5.49799C17.6443 10.1725 14.6687 12.7905 10.6731 12.7905H7.45718C6.91144 12.7905 6.54761 13.1322 6.39169 14.0537L5.49512 19.4178C5.43664 19.7656 5.27422 19.9731 4.98186 19.9975H0.966803C0.518519 19.9975 0.362595 19.6802 0.479538 18.9845L3.37065 1.78767C3.48759 1.09199 3.8904 0.762451 4.68951 0.762451Z" fill="#143A84"/>
  <path fill-rule="evenodd" clip-rule="evenodd" d="M6.48962 13.5104L7.62657 6.74277C7.72403 6.15083 8.07486 5.86401 8.76353 5.86401H15.2799C16.3584 5.86401 17.2289 6.02268 17.9111 6.3156C17.2549 10.4775 14.3898 12.7904 10.6411 12.7904H7.42517C6.98988 12.7904 6.67803 12.9917 6.48962 13.5104Z" fill="#1B2D70"/>
</svg>