<svg xmlns="http://www.w3.org/2000/svg" width="72" height="23" viewBox="0 0 72 23" fill="none">
  <path d="M31.1998 21.7861H25.4371L29.0364 1.01318H34.7991L31.1998 21.7861Z" fill="#005CA9"/>
  <path d="M20.597 1.01367L15.1072 15.2996L14.4575 12.224L12.5214 2.88104C12.5214 2.88104 12.2876 1.00757 9.79276 1.00757H0.710151L0.606201 1.36151C0.606201 1.36151 3.38036 1.90464 6.62879 3.73539L11.6314 21.7805H17.628L26.7886 1.00757H20.597V1.01367Z" fill="#005CA9"/>
  <path d="M65.887 21.7861H71.1754L66.5626 1.01318H61.9304C59.7929 1.01318 59.2732 2.56322 59.2732 2.56322L50.6908 21.7861H56.6939L57.8958 18.6982H65.2178L65.887 21.7861ZM59.5525 14.4387L62.5801 6.6641L64.2757 14.4387H59.5525Z" fill="#005CA9"/>
  <path d="M51.1389 6.00497L51.9575 1.54404C51.9575 1.54404 49.4237 0.640869 46.7795 0.640869C43.9209 0.640869 37.1382 1.81255 37.1382 7.51839C37.1382 12.8886 45.1033 12.9557 45.1033 15.769C45.1033 18.5822 37.9633 18.0818 35.6049 16.306L34.7473 20.9683C34.7473 20.9683 37.3201 22.14 41.2507 22.14C45.1813 22.14 51.1064 20.2299 51.1064 15.0306C51.1064 9.62986 43.0698 9.12335 43.0698 6.77999C43.0698 4.43052 48.6766 4.72955 51.1389 6.00497Z" fill="#005CA9"/>
  <path d="M14.4575 12.224L12.5214 2.88104C12.5214 2.88104 12.2876 1.00757 9.79277 1.00757H0.710151L0.606201 1.36151C0.606201 1.36151 4.9656 2.20976 9.14958 5.38917C13.1516 8.43432 14.4575 12.224 14.4575 12.224Z" fill="#F7A823"/>
</svg>