<svg width="13" height="9" viewBox="0 0 13 9" fill="none" xmlns="http://www.w3.org/2000/svg">
<path d="M12.5596 4.33498C12.5418 4.29486 12.1117 3.34068 11.1555 2.38447C9.88136 1.11037 8.2721 0.437012 6.50085 0.437012C4.7296 0.437012 3.12034 1.11037 1.84624 2.38447C0.890029 3.34068 0.457881 4.29639 0.442139 4.33498C0.41904 4.38694 0.407104 4.44316 0.407104 4.50002C0.407104 4.55688 0.41904 4.6131 0.442139 4.66506C0.459912 4.70518 0.890029 5.65885 1.84624 6.61506C3.12034 7.88865 4.7296 8.56201 6.50085 8.56201C8.2721 8.56201 9.88136 7.88865 11.1555 6.61506C12.1117 5.65885 12.5418 4.70518 12.5596 4.66506C12.5827 4.6131 12.5946 4.55688 12.5946 4.50002C12.5946 4.44316 12.5827 4.38694 12.5596 4.33498ZM6.50085 7.74951C4.9378 7.74951 3.5723 7.18127 2.4419 6.06104C1.97809 5.59979 1.58349 5.07382 1.27038 4.49951C1.58341 3.92515 1.97802 3.39917 2.4419 2.93799C3.5723 1.81775 4.9378 1.24951 6.50085 1.24951C8.0639 1.24951 9.42941 1.81775 10.5598 2.93799C11.0245 3.39906 11.42 3.92503 11.7339 4.49951C11.3677 5.18303 9.77269 7.74951 6.50085 7.74951ZM6.50085 2.06201C6.01876 2.06201 5.54749 2.20497 5.14665 2.47281C4.7458 2.74064 4.43338 3.12133 4.24889 3.56672C4.0644 4.01212 4.01613 4.50222 4.11019 4.97505C4.20424 5.44787 4.43639 5.88219 4.77728 6.22309C5.11817 6.56398 5.55249 6.79613 6.02532 6.89018C6.49815 6.98423 6.98825 6.93596 7.43364 6.75147C7.87904 6.56698 8.25972 6.25456 8.52756 5.85371C8.79539 5.45287 8.93835 4.9816 8.93835 4.49951C8.93768 3.85325 8.68066 3.23366 8.22368 2.77668C7.76671 2.31971 7.14711 2.06268 6.50085 2.06201ZM6.50085 6.12451C6.17946 6.12451 5.86528 6.02921 5.59805 5.85065C5.33082 5.67209 5.12254 5.4183 4.99955 5.12137C4.87655 4.82444 4.84437 4.49771 4.90707 4.18249C4.96977 3.86727 5.12454 3.57772 5.3518 3.35046C5.57906 3.1232 5.86861 2.96844 6.18383 2.90574C6.49905 2.84303 6.82578 2.87522 7.12271 2.99821C7.41964 3.1212 7.67343 3.32948 7.85199 3.59671C8.03055 3.86394 8.12585 4.17812 8.12585 4.49951C8.12585 4.93049 7.95465 5.34381 7.6499 5.64856C7.34515 5.95331 6.93183 6.12451 6.50085 6.12451Z" fill="black"/>
</svg>
