<svg width="9" height="9" viewBox="0 0 9 9" fill="none" xmlns="http://www.w3.org/2000/svg">
<path d="M3.76377 1.22629C4.06553 0.590586 4.9374 0.590585 5.23916 1.22629L5.76067 2.32495C5.8805 2.57739 6.11213 2.75236 6.38008 2.79284L7.54622 2.96902C8.22097 3.07096 8.49039 3.93309 8.00214 4.42792L7.15831 5.28311C6.96442 5.47961 6.87595 5.76271 6.92172 6.04017L7.12092 7.24772C7.23618 7.94643 6.53082 8.47925 5.92731 8.14937L4.88428 7.57924C4.64462 7.44824 4.35831 7.44824 4.11865 7.57924L3.07563 8.14937C2.47211 8.47925 1.76675 7.94643 1.88201 7.24772L2.08121 6.04017C2.12698 5.76271 2.03851 5.47961 1.84462 5.28311L1.00079 4.42792C0.51254 3.93309 0.781963 3.07096 1.45671 2.96902L2.62286 2.79284C2.8908 2.75236 3.12243 2.57739 3.24226 2.32495L3.76377 1.22629Z" fill="#F39406"/>
</svg>
