<svg width="9" height="9" viewBox="0 0 9 9" fill="none" xmlns="http://www.w3.org/2000/svg">
<path d="M3.76189 1.22629C4.06365 0.590586 4.93553 0.590585 5.23728 1.22629L5.7588 2.32495C5.87863 2.57739 6.11025 2.75236 6.3782 2.79284L7.54434 2.96902C8.21909 3.07096 8.48852 3.93309 8.00026 4.42792L7.15643 5.28311C6.96255 5.47961 6.87407 5.76271 6.91984 6.04017L7.11904 7.24772C7.2343 7.94643 6.52894 8.47925 5.92543 8.14937L4.8824 7.57924C4.64274 7.44824 4.35643 7.44824 4.11678 7.57924L3.07375 8.14937C2.47024 8.47925 1.76487 7.94643 1.88013 7.24772L2.07933 6.04017C2.1251 5.76271 2.03663 5.47961 1.84274 5.28311L0.998916 4.42792C0.510663 3.93309 0.780086 3.07096 1.45484 2.96902L2.62098 2.79284C2.88892 2.75236 3.12055 2.57739 3.24038 2.32495L3.76189 1.22629Z" fill="white" stroke="#F39406" stroke-width="0.837486" stroke-linejoin="round"/>
</svg>
