<svg width="127" height="127" viewBox="0 0 127 127" fill="none" xmlns="http://www.w3.org/2000/svg">
<rect width="127" height="127" rx="63.5" fill="#FFF1F1"/>
<path d="M75.1323 42.137C74.7076 42.137 74.4953 41.9203 74.4953 41.487C74.4953 41.0623 74.7076 40.85 75.1323 40.85C75.5483 40.85 75.7563 41.0623 75.7563 41.487C75.7563 41.9203 75.5483 42.137 75.1323 42.137ZM79.8773 46.947H80.7353V48H79.7473C79.2966 48 78.9066 47.909 78.5773 47.727C78.4733 48.611 78.0876 49.3 77.4203 49.794C76.8223 50.2447 76.0813 50.47 75.1973 50.47C74.0706 50.47 73.1953 50.0713 72.5713 49.274C72.0946 48.6587 71.8563 47.9307 71.8563 47.09C71.8563 46.362 72.0383 45.738 72.4023 45.218L73.4813 44.984C73.0913 45.5993 72.8963 46.2623 72.8963 46.973C72.8963 47.701 73.1216 48.299 73.5723 48.767C73.997 49.2003 74.5386 49.417 75.1973 49.417C75.96 49.417 76.5493 49.196 76.9653 48.754C77.312 48.3813 77.4853 47.896 77.4853 47.298V42.956L78.6033 42.358V45.647C78.6033 46.5137 79.028 46.947 79.8773 46.947ZM82.0828 44.477C82.0828 43.723 82.3082 43.138 82.7588 42.722C83.1575 42.3667 83.6775 42.189 84.3188 42.189C85.1422 42.189 85.7748 42.4923 86.2168 43.099C86.5982 43.6103 86.7888 44.2777 86.7888 45.101C86.7888 46.037 86.5462 46.7693 86.0608 47.298C85.6362 47.766 85.0815 48 84.3968 48C83.6168 48 83.0232 47.7833 82.6158 47.35C82.1998 47.7833 81.6408 48 80.9388 48H79.9508V46.947H80.8088C81.6582 46.947 82.0828 46.5137 82.0828 45.647V44.477ZM83.2008 45.738C83.2008 46.544 83.5952 46.947 84.3838 46.947C84.7912 46.947 85.1075 46.7823 85.3328 46.453C85.5668 46.1237 85.6838 45.6643 85.6838 45.075C85.6838 44.4943 85.5625 44.0437 85.3198 43.723C85.0772 43.3937 84.7435 43.229 84.3188 43.229C83.5735 43.229 83.2008 43.6623 83.2008 44.529V45.738ZM99.9798 46.947H100.838V48H99.8498C99.3818 48 98.9614 47.896 98.5888 47.688C98.4674 48.5807 98.0644 49.2827 97.3798 49.794C96.7731 50.2447 96.0234 50.47 95.1308 50.47C93.9694 50.47 93.0724 50.08 92.4398 49.3C91.9544 48.6933 91.7118 47.9697 91.7118 47.129C91.7118 46.3923 91.8894 45.764 92.2448 45.244L93.3628 44.997C92.9641 45.6123 92.7648 46.284 92.7648 47.012C92.7648 47.7313 92.9944 48.3207 93.4538 48.78C93.8784 49.2047 94.4374 49.417 95.1308 49.417C95.9194 49.417 96.5261 49.183 96.9508 48.715C97.3148 48.3163 97.4968 47.805 97.4968 47.181V40.213L98.6278 39.615V45.647C98.6278 46.5137 99.0784 46.947 99.9798 46.947ZM103.453 40.876C103.029 40.876 102.816 40.6593 102.816 40.226C102.816 39.8013 103.029 39.589 103.453 39.589C103.869 39.589 104.077 39.8013 104.077 40.226C104.077 40.6593 103.869 40.876 103.453 40.876ZM105.104 40.876C104.68 40.876 104.467 40.6593 104.467 40.226C104.467 39.8013 104.68 39.589 105.104 39.589C105.52 39.589 105.728 39.8013 105.728 40.226C105.728 40.6593 105.52 40.876 105.104 40.876ZM100.06 48V46.947H102.4C102.002 46.505 101.802 45.8897 101.802 45.101C101.802 44.1563 102.049 43.4197 102.543 42.891C102.977 42.423 103.553 42.189 104.272 42.189C105.009 42.189 105.581 42.4187 105.988 42.878C106.335 43.2853 106.508 43.8183 106.508 44.477V45.712C106.5 46.4313 106.287 46.999 105.871 47.415C105.464 47.805 104.922 48 104.246 48H100.06ZM105.39 44.529C105.39 43.6623 105.018 43.229 104.272 43.229C103.848 43.229 103.514 43.3937 103.271 43.723C103.029 44.0437 102.907 44.4943 102.907 45.075C102.907 45.647 103.024 46.102 103.258 46.44C103.492 46.778 103.804 46.947 104.194 46.947C104.992 46.947 105.39 46.531 105.39 45.699V44.529ZM108.028 39.433L108.327 38.874H108.678C108.591 38.718 108.548 38.5577 108.548 38.393C108.548 38.133 108.643 37.912 108.834 37.73C109.025 37.5393 109.25 37.444 109.51 37.444C109.727 37.444 109.935 37.5133 110.134 37.652V38.224C109.943 38.0767 109.761 38.003 109.588 38.003C109.267 38.003 109.107 38.146 109.107 38.432C109.107 38.5793 109.168 38.7267 109.289 38.874H110.472L110.173 39.433H108.028ZM108.717 48V40.733L109.835 40.135V48H108.717Z" fill="#383838"/>
<path d="M33.3223 69.676C33.3223 72.0653 32.501 73.988 30.8583 75.444C29.4023 76.7133 27.573 77.348 25.3703 77.348C22.7196 77.348 20.6663 76.4707 19.2103 74.716C18.0903 73.372 17.5303 71.776 17.5303 69.928C17.5303 68.472 17.8663 67.184 18.5383 66.064L22.0103 65.28C21.245 66.4933 20.8623 67.884 20.8623 69.452C20.8623 70.8333 21.2636 71.9253 22.0663 72.728C22.8876 73.5493 23.989 73.96 25.3703 73.96C26.733 73.96 27.8156 73.5773 28.6183 72.812C29.421 72.0467 29.8223 71.0013 29.8223 69.676V55.816L33.3223 53.94V69.676ZM43.504 72C41.8054 72 40.4894 71.4587 39.556 70.376C38.7534 69.4427 38.352 68.2387 38.352 66.764V55.788L41.88 53.94V66.596C41.88 67.324 42.0294 67.8467 42.328 68.164C42.6267 68.4627 43.1307 68.612 43.84 68.612H46.36V72H43.504ZM44.6717 72V68.612H47.1917C47.9011 68.612 48.4051 68.4627 48.7037 68.164C49.0024 67.8467 49.1517 67.324 49.1517 66.596V61.416L52.6797 59.568V66.764C52.6797 68.4627 52.1571 69.788 51.1117 70.74C50.1971 71.58 49.0024 72 47.5277 72H44.6717ZM46.1837 78.244C45.6237 78.244 45.1757 78.076 44.8397 77.74C44.5037 77.404 44.3357 76.9467 44.3357 76.368C44.3357 75.1547 44.9517 74.548 46.1837 74.548C46.7437 74.548 47.1824 74.7067 47.4997 75.024C47.8357 75.36 48.0037 75.808 48.0037 76.368C48.0037 77.6187 47.3971 78.244 46.1837 78.244ZM50.4957 78.244C49.9357 78.244 49.4877 78.076 49.1517 77.74C48.8157 77.404 48.6477 76.9467 48.6477 76.368C48.6477 75.1547 49.2637 74.548 50.4957 74.548C51.0557 74.548 51.4944 74.7067 51.8117 75.024C52.1477 75.36 52.3157 75.808 52.3157 76.368C52.3157 77.6187 51.7091 78.244 50.4957 78.244ZM64.5834 70.264C64.5834 72.4293 63.9861 74.184 62.7914 75.528C61.6901 76.7787 60.2341 77.404 58.4234 77.404C57.2474 77.404 56.0994 77.1053 54.9794 76.508V73.428C55.9501 73.9693 56.9021 74.24 57.8354 74.24C58.8621 74.24 59.6554 73.904 60.2154 73.232C60.7941 72.5787 61.0834 71.664 61.0834 70.488V61.444L64.5834 59.568V70.264ZM75.6598 72.42V60.52C75.6598 59.176 76.0705 58.1213 76.8918 57.356C77.7132 56.572 78.8238 56.18 80.2238 56.18H84.7598V59.568H80.5598C79.6452 59.568 79.1878 59.9693 79.1878 60.772V70.516L75.6598 72.42ZM92.8809 72.42V66.12C92.3023 66.3627 91.7049 66.484 91.0889 66.484C90.5663 66.484 90.0716 66.3907 89.6049 66.204C87.4956 65.4947 86.4409 63.8613 86.4409 61.304C86.4409 59.4933 86.9916 58.0933 88.0929 57.104C89.0076 56.2827 90.1649 55.872 91.5649 55.872C93.0396 55.872 94.2343 56.348 95.1489 57.3C95.9889 58.196 96.4089 59.372 96.4089 60.828V70.516L92.8809 72.42ZM92.8809 60.716C92.8809 59.6147 92.4049 59.064 91.4529 59.064C90.9489 59.064 90.5383 59.26 90.2209 59.652C89.9223 60.044 89.7729 60.5573 89.7729 61.192C89.7729 62.536 90.2956 63.2547 91.3409 63.348C91.3969 63.348 91.4343 63.348 91.4529 63.348C91.9569 63.348 92.4329 63.1893 92.8809 62.872V60.716ZM105.65 72.42V66.12C105.072 66.3627 104.474 66.484 103.858 66.484C103.336 66.484 102.841 66.3907 102.374 66.204C100.265 65.4947 99.2105 63.8613 99.2105 61.304C99.2105 59.4933 99.7611 58.0933 100.862 57.104C101.777 56.2827 102.934 55.872 104.334 55.872C105.809 55.872 107.004 56.348 107.918 57.3C108.758 58.196 109.178 59.372 109.178 60.828V70.516L105.65 72.42ZM105.65 60.716C105.65 59.6147 105.174 59.064 104.222 59.064C103.718 59.064 103.308 59.26 102.99 59.652C102.692 60.044 102.542 60.5573 102.542 61.192C102.542 62.536 103.065 63.2547 104.11 63.348C104.166 63.348 104.204 63.348 104.222 63.348C104.726 63.348 105.202 63.1893 105.65 62.872V60.716Z" fill="#383838"/>
</svg>
