<svg width="127" height="127" viewBox="0 0 127 127" fill="none" xmlns="http://www.w3.org/2000/svg">
<rect width="127" height="127" rx="63.5" fill="#FFF1F1"/>
<path d="M78.1323 42.137C77.7076 42.137 77.4953 41.9203 77.4953 41.487C77.4953 41.0623 77.7076 40.85 78.1323 40.85C78.5483 40.85 78.7563 41.0623 78.7563 41.487C78.7563 41.9203 78.5483 42.137 78.1323 42.137ZM82.8773 46.947H83.7353V48H82.7473C82.2966 48 81.9066 47.909 81.5773 47.727C81.4733 48.611 81.0876 49.3 80.4203 49.794C79.8223 50.2447 79.0813 50.47 78.1973 50.47C77.0706 50.47 76.1953 50.0713 75.5713 49.274C75.0946 48.6587 74.8563 47.9307 74.8563 47.09C74.8563 46.362 75.0383 45.738 75.4023 45.218L76.4813 44.984C76.0913 45.5993 75.8963 46.2623 75.8963 46.973C75.8963 47.701 76.1216 48.299 76.5723 48.767C76.997 49.2003 77.5386 49.417 78.1973 49.417C78.96 49.417 79.5493 49.196 79.9653 48.754C80.312 48.3813 80.4853 47.896 80.4853 47.298V42.956L81.6033 42.358V45.647C81.6033 46.5137 82.028 46.947 82.8773 46.947ZM85.0828 44.477C85.0828 43.723 85.3082 43.138 85.7588 42.722C86.1575 42.3667 86.6775 42.189 87.3188 42.189C88.1422 42.189 88.7748 42.4923 89.2168 43.099C89.5982 43.6103 89.7888 44.2777 89.7888 45.101C89.7888 46.037 89.5462 46.7693 89.0608 47.298C88.6362 47.766 88.0815 48 87.3968 48C86.6168 48 86.0232 47.7833 85.6158 47.35C85.1998 47.7833 84.6408 48 83.9388 48H82.9508V46.947H83.8088C84.6582 46.947 85.0828 46.5137 85.0828 45.647V44.477ZM86.2008 45.738C86.2008 46.544 86.5952 46.947 87.3838 46.947C87.7912 46.947 88.1075 46.7823 88.3328 46.453C88.5668 46.1237 88.6838 45.6643 88.6838 45.075C88.6838 44.4943 88.5625 44.0437 88.3198 43.723C88.0772 43.3937 87.7435 43.229 87.3188 43.229C86.5735 43.229 86.2008 43.6623 86.2008 44.529V45.738ZM102.98 46.947H103.838V48H102.85C102.382 48 101.961 47.896 101.589 47.688C101.467 48.5807 101.064 49.2827 100.38 49.794C99.7731 50.2447 99.0234 50.47 98.1308 50.47C96.9694 50.47 96.0724 50.08 95.4398 49.3C94.9544 48.6933 94.7118 47.9697 94.7118 47.129C94.7118 46.3923 94.8894 45.764 95.2448 45.244L96.3628 44.997C95.9641 45.6123 95.7648 46.284 95.7648 47.012C95.7648 47.7313 95.9944 48.3207 96.4538 48.78C96.8784 49.2047 97.4374 49.417 98.1308 49.417C98.9194 49.417 99.5261 49.183 99.9508 48.715C100.315 48.3163 100.497 47.805 100.497 47.181V40.213L101.628 39.615V45.647C101.628 46.5137 102.078 46.947 102.98 46.947ZM106.453 40.876C106.029 40.876 105.816 40.6593 105.816 40.226C105.816 39.8013 106.029 39.589 106.453 39.589C106.869 39.589 107.077 39.8013 107.077 40.226C107.077 40.6593 106.869 40.876 106.453 40.876ZM108.104 40.876C107.68 40.876 107.467 40.6593 107.467 40.226C107.467 39.8013 107.68 39.589 108.104 39.589C108.52 39.589 108.728 39.8013 108.728 40.226C108.728 40.6593 108.52 40.876 108.104 40.876ZM103.06 48V46.947H105.4C105.002 46.505 104.802 45.8897 104.802 45.101C104.802 44.1563 105.049 43.4197 105.543 42.891C105.977 42.423 106.553 42.189 107.272 42.189C108.009 42.189 108.581 42.4187 108.988 42.878C109.335 43.2853 109.508 43.8183 109.508 44.477V45.712C109.5 46.4313 109.287 46.999 108.871 47.415C108.464 47.805 107.922 48 107.246 48H103.06ZM108.39 44.529C108.39 43.6623 108.018 43.229 107.272 43.229C106.848 43.229 106.514 43.3937 106.271 43.723C106.029 44.0437 105.907 44.4943 105.907 45.075C105.907 45.647 106.024 46.102 106.258 46.44C106.492 46.778 106.804 46.947 107.194 46.947C107.992 46.947 108.39 46.531 108.39 45.699V44.529ZM111.028 39.433L111.327 38.874H111.678C111.591 38.718 111.548 38.5577 111.548 38.393C111.548 38.133 111.643 37.912 111.834 37.73C112.025 37.5393 112.25 37.444 112.51 37.444C112.727 37.444 112.935 37.5133 113.134 37.652V38.224C112.943 38.0767 112.761 38.003 112.588 38.003C112.267 38.003 112.107 38.146 112.107 38.432C112.107 38.5793 112.168 38.7267 112.289 38.874H113.472L113.173 39.433H111.028ZM111.717 48V40.733L112.835 40.135V48H111.717Z" fill="#383838"/>
<path d="M30.7442 69.676C30.7442 72.0653 29.9229 73.988 28.2802 75.444C26.8242 76.7133 24.9949 77.348 22.7922 77.348C20.1415 77.348 18.0882 76.4707 16.6322 74.716C15.5122 73.372 14.9522 71.776 14.9522 69.928C14.9522 68.472 15.2882 67.184 15.9602 66.064L19.4322 65.28C18.6669 66.4933 18.2842 67.884 18.2842 69.452C18.2842 70.8333 18.6855 71.9253 19.4882 72.728C20.3095 73.5493 21.4109 73.96 22.7922 73.96C24.1549 73.96 25.2375 73.5773 26.0402 72.812C26.8429 72.0467 27.2442 71.0013 27.2442 69.676V55.816L30.7442 53.94V69.676ZM40.9259 72C39.2272 72 37.9112 71.4587 36.9779 70.376C36.1752 69.4427 35.7739 68.2387 35.7739 66.764V55.788L39.3019 53.94V66.596C39.3019 67.324 39.4512 67.8467 39.7499 68.164C40.0486 68.4627 40.5526 68.612 41.2619 68.612H43.7819V72H40.9259ZM42.0936 72V68.612H44.6136C45.3229 68.612 45.8269 68.4627 46.1256 68.164C46.4243 67.8467 46.5736 67.324 46.5736 66.596V61.416L50.1016 59.568V66.764C50.1016 68.4627 49.5789 69.788 48.5336 70.74C47.6189 71.58 46.4243 72 44.9496 72H42.0936ZM43.6056 78.244C43.0456 78.244 42.5976 78.076 42.2616 77.74C41.9256 77.404 41.7576 76.9467 41.7576 76.368C41.7576 75.1547 42.3736 74.548 43.6056 74.548C44.1656 74.548 44.6043 74.7067 44.9216 75.024C45.2576 75.36 45.4256 75.808 45.4256 76.368C45.4256 77.6187 44.8189 78.244 43.6056 78.244ZM47.9176 78.244C47.3576 78.244 46.9096 78.076 46.5736 77.74C46.2376 77.404 46.0696 76.9467 46.0696 76.368C46.0696 75.1547 46.6856 74.548 47.9176 74.548C48.4776 74.548 48.9163 74.7067 49.2336 75.024C49.5696 75.36 49.7376 75.808 49.7376 76.368C49.7376 77.6187 49.1309 78.244 47.9176 78.244ZM62.0053 70.264C62.0053 72.4293 61.408 74.184 60.2133 75.528C59.112 76.7787 57.656 77.404 55.8453 77.404C54.6693 77.404 53.5213 77.1053 52.4013 76.508V73.428C53.372 73.9693 54.324 74.24 55.2573 74.24C56.284 74.24 57.0773 73.904 57.6373 73.232C58.216 72.5787 58.5053 71.664 58.5053 70.488V61.444L62.0053 59.568V70.264ZM84.4217 56.18H87.6137V59.624C87.6137 60.8 87.2124 61.7613 86.4097 62.508C85.6257 63.236 84.5991 63.6 83.3297 63.6C82.2471 63.6 81.3324 63.3387 80.5857 62.816C79.8577 63.3387 78.9617 63.6 77.8977 63.6C77.4497 63.6 77.0671 63.5627 76.7497 63.488V70.544L73.2217 72.42V56.18H76.7497V59.624C76.7497 60.2773 77.1231 60.604 77.8697 60.604C78.6164 60.604 78.9897 60.2773 78.9897 59.624V57.02H82.1817V59.624C82.1817 60.2773 82.5644 60.604 83.3297 60.604C84.0577 60.604 84.4217 60.2773 84.4217 59.624V56.18ZM95.8809 72.42V66.12C95.3023 66.3627 94.7049 66.484 94.0889 66.484C93.5663 66.484 93.0716 66.3907 92.6049 66.204C90.4956 65.4947 89.4409 63.8613 89.4409 61.304C89.4409 59.4933 89.9916 58.0933 91.0929 57.104C92.0076 56.2827 93.1649 55.872 94.5649 55.872C96.0396 55.872 97.2343 56.348 98.1489 57.3C98.9889 58.196 99.4089 59.372 99.4089 60.828V70.516L95.8809 72.42ZM95.8809 60.716C95.8809 59.6147 95.4049 59.064 94.4529 59.064C93.9489 59.064 93.5383 59.26 93.2209 59.652C92.9223 60.044 92.7729 60.5573 92.7729 61.192C92.7729 62.536 93.2956 63.2547 94.3409 63.348C94.3969 63.348 94.4343 63.348 94.4529 63.348C94.9569 63.348 95.4329 63.1893 95.8809 62.872V60.716ZM108.65 72.42V66.12C108.072 66.3627 107.474 66.484 106.858 66.484C106.336 66.484 105.841 66.3907 105.374 66.204C103.265 65.4947 102.21 63.8613 102.21 61.304C102.21 59.4933 102.761 58.0933 103.862 57.104C104.777 56.2827 105.934 55.872 107.334 55.872C108.809 55.872 110.004 56.348 110.918 57.3C111.758 58.196 112.178 59.372 112.178 60.828V70.516L108.65 72.42ZM108.65 60.716C108.65 59.6147 108.174 59.064 107.222 59.064C106.718 59.064 106.308 59.26 105.99 59.652C105.692 60.044 105.542 60.5573 105.542 61.192C105.542 62.536 106.065 63.2547 107.11 63.348C107.166 63.348 107.204 63.348 107.222 63.348C107.726 63.348 108.202 63.1893 108.65 62.872V60.716Z" fill="#383838"/>
</svg>
