<svg  viewBox="0 0 312 403" fill="none" xmlns="http://www.w3.org/2000/svg" class="sc-kbdlSk eNDhMN active"><path d="M307.416 383.885C312.916 389.385 309.916 395.885 307.416 398.385C304.916 400.885 297.915 404.385 291.916 398.385L92.4157 216.385L291.916 4.38534C296.916 -0.614703 303.416 0.385379 307.416 4.38535C311.416 8.38531 312.916 17.3853 307.416 22.8853L120.416 216.385L307.416 383.885Z" fill="#F39406"></path><path d="M153.5 319.385C159 324.885 156 331.385 153.5 333.885C151 336.385 144 339.885 138 333.885L0.999986 216.385L143.5 72.8853C148.5 67.8853 155 68.8854 159 72.8853C163 76.8853 164.5 85.8853 159 91.3853L28.9999 216.385L153.5 319.385Z" fill="#F39406"></path></svg>