<svg xmlns="http://www.w3.org/2000/svg" width="14" height="14" viewBox="0 0 14 14" fill="none">
  <path fill-rule="evenodd" clip-rule="evenodd" d="M6.63068 13.2843C7.05502 12.9449 7.12382 12.3257 6.78435 11.9013L2.68995 6.78332L6.78435 1.66533C7.12382 1.24098 7.05502 0.621778 6.63068 0.282301C6.20633 -0.0571766 5.58713 0.0116224 5.24765 0.43597L0.661509 6.16864C0.374019 6.52801 0.374019 7.03864 0.661509 7.398L5.24765 13.1307C5.58713 13.555 6.20633 13.6238 6.63068 13.2843Z" fill="white"/>
  <path fill-rule="evenodd" clip-rule="evenodd" d="M13.1307 13.2843C13.555 12.9449 13.6238 12.3257 13.2843 11.9013L9.18995 6.78332L13.2843 1.66533C13.6238 1.24098 13.555 0.621778 13.1307 0.282301C12.7063 -0.0571766 12.0871 0.0116224 11.7476 0.43597L7.16151 6.16864C6.87402 6.52801 6.87402 7.03864 7.16151 7.398L11.7476 13.1307C12.0871 13.555 12.7063 13.6238 13.1307 13.2843Z" fill="white"/>
</svg>