<svg  viewBox="0 0 312 403" fill="none" xmlns="http://www.w3.org/2000/svg" class="sc-gweoQa ktZdgu"><path d="M4.58444 18.813C-0.91555 13.313 2.08444 6.81288 4.58444 4.31288C7.08444 1.81289 14.0845 -1.68707 20.0845 4.31291L219.584 186.313L20.0845 398.313C15.0844 403.313 8.5844 402.313 4.58444 398.313C0.584471 394.313 -0.915597 385.313 4.58444 379.813L191.584 186.313L4.58444 18.813Z" fill="#F39406"></path><path d="M158.5 83.3131C153 77.8131 156 71.313 158.5 68.813C161 66.313 168 62.813 174 68.813L311 186.313L168.5 329.813C163.5 334.813 157 333.813 153 329.813C149 325.813 147.5 316.813 153 311.313L283 186.313L158.5 83.3131Z" fill="#F39406"></path><path d="M4.58444 18.813C-0.91555 13.313 2.08444 6.81288 4.58444 4.31288C7.08444 1.81289 14.0845 -1.68707 20.0845 4.31291L219.584 186.313L20.0845 398.313C15.0844 403.313 8.5844 402.313 4.58444 398.313C0.584471 394.313 -0.915597 385.313 4.58444 379.813L191.584 186.313L4.58444 18.813Z" stroke="black"></path><path d="M158.5 83.3131C153 77.8131 156 71.313 158.5 68.813C161 66.313 168 62.813 174 68.813L311 186.313L168.5 329.813C163.5 334.813 157 333.813 153 329.813C149 325.813 147.5 316.813 153 311.313L283 186.313L158.5 83.3131Z" stroke="black"></path></svg>