<svg xmlns="http://www.w3.org/2000/svg" width="14" height="14" viewBox="0 0 14 14" fill="none">
  <path fill-rule="evenodd" clip-rule="evenodd" d="M7.36932 0.715654C6.94498 1.05513 6.87618 1.67433 7.21565 2.09868L11.3101 7.21668L7.21565 12.3347C6.87618 12.759 6.94498 13.3782 7.36932 13.7177C7.79367 14.0572 8.41287 13.9884 8.75235 13.564L13.3385 7.83136C13.626 7.47199 13.626 6.96136 13.3385 6.602L8.75235 0.869324C8.41287 0.444976 7.79367 0.376176 7.36932 0.715654Z" fill="white"/>
  <path fill-rule="evenodd" clip-rule="evenodd" d="M0.869324 0.715654C0.444976 1.05513 0.376176 1.67433 0.715654 2.09868L4.81005 7.21668L0.715653 12.3347C0.376176 12.759 0.444976 13.3782 0.869323 13.7177C1.29367 14.0572 1.91287 13.9884 2.25235 13.564L6.83849 7.83136C7.12598 7.47199 7.12598 6.96136 6.83849 6.602L2.25235 0.869324C1.91287 0.444976 1.29367 0.376176 0.869324 0.715654Z" fill="white"/>
</svg>