<svg width="19" height="18" viewBox="0 0 19 18" fill="none" xmlns="http://www.w3.org/2000/svg">
<g id="icon / ionicons / logos /  logo-tiktok" clip-path="url(#clip0_363_32056)">
<path id="Vector" d="M15.0452 4.02C14.9334 3.96372 14.8245 3.90203 14.719 3.83515C14.4122 3.63769 14.1309 3.40502 13.8812 3.14216C13.2564 2.44614 13.023 1.74005 12.9371 1.24568H12.9405C12.8687 0.835325 12.8984 0.569824 12.9029 0.569824H10.057V11.2833C10.057 11.4271 10.057 11.5693 10.0508 11.7098C10.0508 11.7273 10.0491 11.7434 10.0481 11.7622C10.0481 11.7699 10.0481 11.778 10.0463 11.7861C10.0463 11.7881 10.0463 11.7901 10.0463 11.7921C10.0163 12.1765 9.88976 12.5479 9.67776 12.8734C9.46575 13.199 9.17481 13.4689 8.83052 13.6594C8.47169 13.8581 8.06585 13.9624 7.65302 13.9618C6.32709 13.9618 5.25247 12.9092 5.25247 11.6093C5.25247 10.3093 6.32709 9.25675 7.65302 9.25675C7.90402 9.25653 8.15346 9.29498 8.39211 9.37068L8.39556 6.54965C7.6711 6.45854 6.93511 6.5146 6.23401 6.71427C5.53292 6.91395 4.88194 7.25292 4.32214 7.70979C3.83163 8.12471 3.41925 8.61979 3.10357 9.17274C2.98343 9.37438 2.53018 10.1847 2.47529 11.4997C2.44077 12.2462 2.67102 13.0195 2.7808 13.3391V13.3458C2.84984 13.534 3.11737 14.1763 3.55337 14.7177C3.90494 15.152 4.32031 15.5335 4.78609 15.8499V15.8432L4.793 15.8499C6.17071 16.7614 7.69824 16.7015 7.69824 16.7015C7.96267 16.6911 8.84847 16.7015 9.8544 16.2374C10.9701 15.7229 11.6053 14.9563 11.6053 14.9563C12.0111 14.4982 12.3337 13.9762 12.5594 13.4127C12.8169 12.7536 12.9029 11.9632 12.9029 11.6473V5.96353C12.9374 5.9837 13.3972 6.27978 13.3972 6.27978C13.3972 6.27978 14.0597 6.69316 15.0932 6.96235C15.8347 7.15392 16.8337 7.19425 16.8337 7.19425V4.44379C16.4837 4.48076 15.7729 4.37321 15.0452 4.02Z" fill="#272727"/>
</g>
<defs>
<clipPath id="clip0_363_32056">
<rect width="17.6745" height="17.2072" fill="white" transform="translate(0.816223 0.0322266)"/>
</clipPath>
</defs>
</svg>
