<svg xmlns="http://www.w3.org/2000/svg" width="32" height="32" viewBox="0 0 32 32" fill="none">
  <path d="M21.5369 4.55236C23.0515 4.55688 24.5028 5.1608 25.5738 6.23222C26.6448 7.30364 27.2485 8.7555 27.253 10.2707V21.7062C27.2485 23.2214 26.6448 24.6733 25.5738 25.7447C24.5028 26.8161 23.0515 27.42 21.5369 27.4246H10.1059C8.59127 27.42 7.13998 26.8161 6.06898 25.7447C4.99798 24.6733 4.3943 23.2214 4.38978 21.7062V10.2707C4.3943 8.7555 4.99798 7.30364 6.06898 6.23222C7.13998 5.1608 8.59127 4.55688 10.1059 4.55236H21.5369ZM21.5369 2.26538H10.1059C5.70459 2.26538 2.1037 5.86769 2.1037 10.2707V21.7062C2.1037 26.1092 5.70459 29.7115 10.1059 29.7115H21.5369C25.9382 29.7115 29.5391 26.1092 29.5391 21.7062V10.2707C29.5391 5.86769 25.9382 2.26538 21.5369 2.26538Z" fill="#403C3C"/>
  <path d="M23.2516 10.2707C22.9125 10.2707 22.5809 10.1701 22.299 9.98161C22.017 9.79312 21.7972 9.52521 21.6674 9.21177C21.5376 8.89832 21.5037 8.55342 21.5698 8.22067C21.636 7.88791 21.7993 7.58226 22.0391 7.34236C22.2789 7.10246 22.5845 6.93909 22.9171 6.8729C23.2497 6.80671 23.5945 6.84068 23.9078 6.97051C24.2211 7.10035 24.4889 7.32021 24.6773 7.6023C24.8657 7.8844 24.9663 8.21605 24.9663 8.55532C24.9668 8.78072 24.9228 9.004 24.8368 9.21234C24.7508 9.42068 24.6245 9.60998 24.4652 9.76936C24.3058 9.92875 24.1166 10.0551 23.9084 10.1411C23.7001 10.2271 23.4769 10.2712 23.2516 10.2707Z" fill="#403C3C"/>
  <path d="M15.8214 11.4139C16.7258 11.4139 17.6099 11.6822 18.3619 12.1848C19.1139 12.6875 19.7 13.4019 20.0461 14.2378C20.3922 15.0737 20.4827 15.9935 20.3063 16.8809C20.1298 17.7683 19.6943 18.5834 19.0548 19.2231C18.4153 19.8629 17.6005 20.2986 16.7135 20.4751C15.8265 20.6516 14.907 20.561 14.0715 20.2148C13.2359 19.8685 12.5217 19.2822 12.0193 18.5299C11.5168 17.7776 11.2486 16.8932 11.2486 15.9884C11.2499 14.7756 11.7321 13.6128 12.5894 12.7552C13.4467 11.8975 14.609 11.4152 15.8214 11.4139ZM15.8214 9.12689C14.4648 9.12689 13.1387 9.52931 12.0108 10.2833C10.8829 11.0372 10.0038 12.1089 9.48464 13.3626C8.96551 14.6164 8.82968 15.996 9.09433 17.3271C9.35898 18.6581 10.0122 19.8807 10.9715 20.8403C11.9307 21.7999 13.1528 22.4534 14.4833 22.7181C15.8138 22.9829 17.1929 22.847 18.4462 22.3277C19.6994 21.8083 20.7706 20.9289 21.5243 19.8005C22.278 18.6721 22.6802 17.3455 22.6802 15.9884C22.6802 14.1686 21.9576 12.4234 20.6713 11.1366C19.385 9.8498 17.6405 9.12689 15.8214 9.12689Z" fill="#403C3C"/>
</svg>