<svg width="19" height="18" viewBox="0 0 19 18" fill="none" xmlns="http://www.w3.org/2000/svg">
<g id="icon / ionicons / logos /  logo-whatsapp">
<path id="Vector" fill-rule="evenodd" clip-rule="evenodd" d="M14.6995 3.29581C13.9846 2.59948 13.1353 2.04769 12.2005 1.6722C11.2657 1.29672 10.2638 1.10495 9.25253 1.10794C5.00858 1.10794 1.55377 4.4546 1.55204 8.56886C1.55016 9.87894 1.90487 11.1661 2.58006 12.2993L1.48749 16.1642L5.56954 15.1267C6.69947 15.7227 7.96434 16.0346 9.24942 16.0342H9.25253C13.4961 16.0342 16.9506 12.6872 16.9527 8.57323C16.9552 7.59207 16.7574 6.62021 16.3705 5.7142C15.9837 4.80819 15.4157 3.98611 14.6995 3.29581ZM9.25253 14.7749H9.24977C8.10416 14.7752 6.97939 14.4767 5.99241 13.9105L5.75871 13.776L3.33641 14.3917L3.98298 12.1034L3.83074 11.8681C3.19017 10.8808 2.85079 9.73666 2.85208 8.56886C2.85208 5.14995 5.72453 2.36824 9.25495 2.36824C10.9485 2.36529 12.5739 3.01738 13.7737 4.18108C14.9735 5.34478 15.6493 6.92478 15.6526 8.57357C15.6512 11.9928 12.7802 14.7749 9.25253 14.7749ZM12.7629 10.1306C12.5706 10.0372 11.6237 9.58617 11.4484 9.524C11.273 9.46182 11.1436 9.43057 11.0155 9.61743C10.8874 9.80429 10.5184 10.2224 10.4062 10.3484C10.294 10.4744 10.1818 10.4882 9.98954 10.3948C9.79726 10.3013 9.17693 10.1047 8.44199 9.46955C7.86998 8.97518 7.48404 8.36487 7.37185 8.17834C7.25966 7.99182 7.35977 7.89066 7.45608 7.7979C7.54273 7.71422 7.64836 7.58012 7.74467 7.47124C7.84099 7.36235 7.87309 7.28438 7.93695 7.16003C8.00082 7.03568 7.96906 6.92679 7.92107 6.8337C7.87309 6.7406 7.48819 5.82278 7.32801 5.44939C7.17163 5.08576 7.01318 5.13516 6.89512 5.12945C6.78293 5.12407 6.65348 5.12273 6.5261 5.12273C6.42872 5.12519 6.33291 5.14718 6.24465 5.18731C6.15639 5.22744 6.07758 5.28485 6.01313 5.35596C5.83673 5.54282 5.33963 5.99451 5.33963 6.91133C5.33963 7.82815 6.03004 8.71539 6.12532 8.83974C6.22059 8.96409 7.48197 10.8471 9.41201 11.6547C9.7704 11.8042 10.1366 11.9352 10.5091 12.0473C10.9699 12.1891 11.3893 12.1693 11.7207 12.1212C12.0905 12.0678 12.8599 11.6702 13.0198 11.2346C13.1796 10.7991 13.1799 10.426 13.1319 10.3484C13.084 10.2708 12.9555 10.2237 12.7629 10.1306Z" fill="#21C706"/>
</g>
</svg>
