<svg xmlns="http://www.w3.org/2000/svg" width="32" height="32" viewBox="0 0 32 32" fill="none">
  <path d="M25.7411 7.57449C25.5427 7.4719 25.3496 7.35945 25.1624 7.23754C24.6182 6.87759 24.1191 6.45346 23.6761 5.97428C22.5677 4.70551 22.1537 3.41836 22.0012 2.51717H22.0074C21.88 1.76914 21.9326 1.28516 21.9406 1.28516H16.892V20.8148C16.892 21.077 16.892 21.3362 16.881 21.5922C16.881 21.6241 16.8779 21.6535 16.8761 21.6878C16.8761 21.7019 16.8761 21.7166 16.873 21.7313C16.873 21.735 16.873 21.7387 16.873 21.7423C16.8198 22.4431 16.5953 23.12 16.2192 23.7135C15.8431 24.307 15.3269 24.799 14.7162 25.1462C14.0796 25.5084 13.3596 25.6985 12.6273 25.6975C10.2751 25.6975 8.36866 23.7787 8.36866 21.4091C8.36866 19.0394 10.2751 17.1206 12.6273 17.1206C13.0725 17.1202 13.5151 17.1903 13.9384 17.3283L13.9445 12.1858C12.6593 12.0197 11.3537 12.1219 10.1099 12.4859C8.86619 12.8499 7.71134 13.4678 6.71825 14.3006C5.84808 15.057 5.11652 15.9595 4.55649 16.9674C4.34338 17.335 3.5393 18.8121 3.44193 21.2093C3.38069 22.57 3.78916 23.9797 3.9839 24.5623V24.5746C4.10638 24.9176 4.58099 26.0884 5.35444 27.0753C5.97813 27.867 6.715 28.5625 7.54131 29.1393V29.1271L7.55356 29.1393C9.99764 30.8008 12.7075 30.6917 12.7075 30.6917C13.1766 30.6728 14.748 30.6917 16.5325 29.8457C18.5118 28.9077 19.6386 27.5103 19.6386 27.5103C20.3585 26.6753 20.9309 25.7238 21.3313 24.6965C21.7881 23.4951 21.9406 22.0542 21.9406 21.4783V11.1174C22.0018 11.1541 22.8176 11.6939 22.8176 11.6939C22.8176 11.6939 23.9927 12.4474 25.8263 12.9381C27.1417 13.2873 28.914 13.3608 28.914 13.3608V8.34703C28.293 8.41442 27.0321 8.21837 25.7411 7.57449Z" fill="#403C3C"/>
</svg>