<svg width="18" height="17" viewBox="0 0 18 17" fill="none" xmlns="http://www.w3.org/2000/svg">
<path id="Vector" d="M4.9584 8.44648C5.00695 8.46432 5.06789 8.48216 5.13232 8.501C5.39141 8.57697 5.783 8.6918 5.90126 8.94949C5.93158 9.03357 5.94167 9.12276 5.93083 9.21082C5.91998 9.29888 5.88846 9.38369 5.83847 9.45932L5.83511 9.46585C5.66534 9.80748 5.44417 10.1252 5.17818 10.4096C4.69495 10.9652 4.01108 11.341 3.25215 11.4681C3.21629 11.4735 3.18387 11.4911 3.16114 11.5173C3.1384 11.5435 3.12695 11.5765 3.12898 11.6101L9.14654 3.30703C8.51411 3.29982 7.89339 3.46493 7.36187 3.78176C6.83034 4.09859 6.41157 4.55311 6.15784 5.08855C5.94204 5.83454 5.89163 6.61315 6.00963 7.3776C6.01762 7.49071 6.02499 7.60385 6.03175 7.71703C5.92991 7.79074 5.80206 7.82685 5.67304 7.81833C5.45596 7.80975 5.24344 7.7579 5.05007 7.66633C5.00265 7.64693 4.95118 7.63743 4.89934 7.6385C4.79257 7.63463 4.68715 7.6617 4.59785 7.71593C4.50855 7.77016 4.43982 7.84884 4.40128 7.94095C4.35099 8.18548 4.7287 8.36264 4.9584 8.44648ZM4.9584 8.44648L4.92942 8.52531C4.92948 8.52533 4.92954 8.52535 4.9296 8.52537M4.9584 8.44648L4.9296 8.52537M4.9296 8.52537C4.81244 8.48261 4.65177 8.41415 4.52531 8.3218C4.40376 8.23304 4.28312 8.09853 4.31902 7.92403L4.32066 7.91605L4.3238 7.90854C4.36952 7.79925 4.45053 7.70713 4.55426 7.64414C4.65726 7.58159 4.77805 7.55051 4.90003 7.55449C4.9624 7.55352 5.02443 7.56509 5.08187 7.58859L5.08607 7.59031L5.08601 7.59042C5.269 7.67707 5.4704 7.72626 5.67636 7.7344L5.67858 7.73449C5.77312 7.74076 5.86637 7.71885 5.94496 7.67334C5.93912 7.57786 5.93283 7.4824 5.92609 7.38697C5.8069 6.6115 5.8583 5.82177 6.07716 5.06522L6.08095 5.05212L6.08194 5.05259C6.34314 4.50139 6.7737 4.03458 7.31886 3.70962C7.86374 3.38482 8.49941 3.2158 9.14666 3.22304L9.39282 3.22092C10.0413 3.21328 10.6782 3.38226 11.2243 3.70738C11.7704 4.03253 12.2018 4.49976 12.4638 5.05156L12.4697 5.06395L12.4686 5.06426C12.6874 5.82145 12.7388 6.61179 12.6195 7.38787L12.6172 7.42136L12.6172 7.42143C12.6112 7.50897 12.6056 7.59243 12.6006 7.67339C12.6701 7.71376 12.7517 7.73507 12.8355 7.7336C13.0291 7.71987 13.2177 7.67114 13.3906 7.59036L13.3948 7.58836L13.3949 7.58848C13.4658 7.5601 13.5421 7.54608 13.6189 7.5472C13.7028 7.54702 13.7861 7.56163 13.8644 7.59037M4.9296 8.52537C4.98112 8.5443 5.04467 8.56288 5.10786 8.58136L5.10868 8.5816C5.23927 8.61989 5.39519 8.6658 5.53293 8.73266C5.67091 8.79964 5.77592 8.8808 5.82346 8.98138C5.8484 9.05215 5.85654 9.12685 5.84747 9.20055C5.83824 9.27544 5.8114 9.34795 5.7684 9.413L5.76798 9.41273L5.76377 9.42093L5.76041 9.42746L5.7604 9.42745L5.7599 9.42847C5.59383 9.76265 5.37738 10.0737 5.11684 10.3523L5.1168 10.3522L5.11481 10.3545C4.64508 10.8946 3.97925 11.2611 3.23881 11.3851C3.18447 11.3936 3.13398 11.4204 3.09769 11.4622C3.06108 11.5044 3.04174 11.5589 3.04515 11.6152L3.04516 11.6153C3.04742 11.6514 3.05654 11.6865 3.07193 11.7193M3.07193 11.7193C3.07189 11.7192 3.07185 11.7191 3.07181 11.719L3.14804 11.6837L3.07209 11.7196C3.07203 11.7195 3.07198 11.7194 3.07193 11.7193ZM3.07193 11.7193C3.10806 11.7972 3.1762 11.8636 3.2633 11.921C3.35123 11.9789 3.46458 12.0317 3.6002 12.0799C3.87148 12.1763 4.24267 12.2581 4.70407 12.3239C4.70431 12.324 4.70449 12.324 4.70466 12.3241C4.70491 12.3241 4.70511 12.3242 4.7054 12.3244C4.70603 12.3247 4.70794 12.3259 4.71101 12.3292C4.71778 12.3363 4.72723 12.3503 4.73832 12.3759C4.7609 12.4282 4.78095 12.5058 4.8064 12.6134L4.80696 12.6158C4.82652 12.6987 4.8476 12.7879 4.8769 12.8804C4.89209 12.9411 4.93031 12.9931 4.9824 13.0276C5.03468 13.0622 5.09794 13.0774 5.16036 13.0714C5.2519 13.0665 5.34285 13.0544 5.4322 13.0352C5.65282 12.9908 5.87781 12.9672 6.10365 12.965C6.26448 12.9654 6.425 12.9779 6.58363 13.0023C6.91746 13.081 7.22752 13.2277 7.49111 13.4313C7.96828 13.8078 8.56697 14.0255 9.19199 14.051L9.19198 14.0511H9.1954C9.21613 14.0511 9.23727 14.0504 9.25826 14.0489C9.28354 14.05 9.31603 14.0511 9.35022 14.0511V14.0511L9.35366 14.051C9.97898 14.0254 10.578 13.8076 11.0554 13.4309C11.3187 13.2275 11.6285 13.0809 11.962 13.0024C12.1207 12.978 12.2813 12.9655 12.4422 12.9651C12.6682 12.9661 12.8934 12.9881 13.1145 13.0309C13.2048 13.0492 13.2968 13.0599 13.3891 13.063L13.3891 13.063H13.3919H13.4035C13.4625 13.0666 13.5217 13.0507 13.5705 13.0171C13.6192 12.9834 13.6547 12.9337 13.6688 12.876C13.6979 12.7842 13.7192 12.6972 13.7396 12.6109L13.7396 12.6109C13.7648 12.5038 13.7847 12.4267 13.8072 12.3748C13.8183 12.3493 13.8277 12.3355 13.8344 12.3284C13.8399 12.3227 13.8418 12.3231 13.8418 12.3231C14.3033 12.2572 14.6745 12.1753 14.9456 12.0791C15.0812 12.0311 15.1945 11.9785 15.2823 11.9207C15.3692 11.8636 15.4373 11.7975 15.4733 11.7199C15.4889 11.687 15.4982 11.6517 15.5006 11.6155L15.5006 11.6149C15.5039 11.5587 15.4846 11.5043 15.448 11.4621C15.4123 11.421 15.3628 11.3943 15.3095 11.3854C14.7538 11.2607 14.2372 11.0192 13.7998 10.6801C13.3618 10.3406 13.0152 9.91259 12.7865 9.42983L12.7865 9.42982L12.7856 9.42806L12.7823 9.42138L12.7828 9.42111L12.7773 9.41274C12.7342 9.34775 12.7074 9.27527 12.6981 9.20042C12.6891 9.12675 12.6972 9.05208 12.7222 8.98135C12.7697 8.88082 12.8747 8.79969 13.0126 8.73273C13.1503 8.66589 13.3062 8.61996 13.4369 8.58163L13.4369 8.58162L13.4409 8.58044C13.5034 8.56213 13.566 8.54375 13.6161 8.52543M13.6161 8.52543C13.616 8.52544 13.616 8.52544 13.616 8.52545L13.5872 8.44655L13.6161 8.52543ZM13.6161 8.52543C14.0899 8.35241 14.2363 8.15554 14.2328 7.97821L14.2337 7.97819L14.2317 7.96604C14.2164 7.8742 14.172 7.78959 14.1052 7.72271C14.0399 7.65724 13.956 7.61157 13.8644 7.59037M13.8644 7.59037C13.865 7.59057 13.8655 7.59078 13.8661 7.59098M13.8644 7.59037C13.8625 7.58994 13.8607 7.58951 13.8588 7.5891L13.8469 7.64334L13.8373 7.6699M13.8661 7.59098L13.6184 7.63119C13.6934 7.63095 13.7677 7.64409 13.8373 7.6699M13.8661 7.59098C13.8662 7.59104 13.8664 7.5911 13.8665 7.59115M13.8661 7.59098L13.8665 7.59115M13.8373 7.6699L13.8464 7.6454M13.8373 7.6699L13.8408 7.67113M13.8464 7.6454L14.1489 7.97984C14.1366 7.9059 14.1007 7.83703 14.0458 7.78204C13.9909 7.72705 13.9195 7.68844 13.8408 7.67113M13.8464 7.6454L13.8408 7.67113M13.8464 7.6454L13.8665 7.59115M13.8408 7.67113L13.8691 7.59209L13.8665 7.59115M17.5588 4.51119L17.5588 4.51196C17.5601 4.61317 17.5746 12.3195 17.5746 12.3551L17.5746 12.446L17.5746 12.447C17.5799 12.896 17.5321 13.3443 17.432 13.7839C17.2714 14.4313 16.8924 15.0161 16.3481 15.4534L16.3481 15.4534L16.3471 15.4543C15.885 15.8374 15.3154 16.0938 14.7025 16.1934L14.7025 16.1934L14.7013 16.1937C14.3741 16.2518 14.0421 16.2844 13.7088 16.2912C12.1409 16.3106 10.5738 16.3079 9.00609 16.3052C8.01792 16.3036 7.02947 16.3019 6.04036 16.3057C5.82638 16.3066 5.61368 16.3039 5.40017 16.3012C5.26249 16.2995 5.12449 16.2977 4.98559 16.2969L4.98448 16.2969C4.43054 16.301 3.87928 16.2262 3.35016 16.0751C2.99342 15.9655 2.66069 15.7987 2.3672 15.5826L2.36628 15.5819C1.95431 15.287 1.61871 14.9117 1.38314 14.4835C1.2161 14.1622 1.10336 13.8194 1.04871 13.4669C0.997705 13.129 0.972629 12.7875 0.973669 12.4463L0.973669 12.4461L0.979199 4.81651H0.979228L0.979171 4.81429C0.966603 4.32557 1.02333 3.83739 1.14795 3.36218C1.29454 2.87561 1.56328 2.42718 1.93299 2.05345C2.30288 1.67954 2.7634 1.39099 3.27747 1.21168C3.59064 1.11045 3.91544 1.04289 4.24547 1.01034C4.54962 0.982924 4.85513 0.970298 5.16072 0.972517L5.24038 0.973095L5.24088 0.964849H13.3273L13.331 0.973835L13.389 0.97248C13.9241 0.959979 14.4586 1.01265 14.9788 1.12911C15.5395 1.26844 16.0513 1.53865 16.4653 1.91313L16.4658 1.91357C16.7401 2.15789 16.9698 2.44128 17.146 2.7527C17.307 3.04912 17.4186 3.36604 17.4772 3.69282L17.4775 3.69418C17.5305 3.9638 17.5577 4.23719 17.5588 4.51119ZM15.2936 11.4679C15.3294 11.4734 15.3618 11.491 15.3846 11.5172C15.4073 11.5434 15.4187 11.5764 15.4168 11.6099C15.4151 11.6356 15.4085 11.6607 15.3973 11.6842C15.29 11.9164 14.7478 12.1089 13.8299 12.2399C13.7438 12.2522 13.7075 12.3809 13.6578 12.5916L15.2936 11.4679ZM17.6586 12.3551C17.6586 12.3198 17.6441 4.61277 17.6428 4.51087L17.5137 13.8033C17.6154 13.3571 17.664 12.9019 17.6586 12.446V12.3551Z" fill="#FFFC00" stroke="black" stroke-width="0.167979"/>
</svg>
