<svg xmlns="http://www.w3.org/2000/svg" width="33" height="32" viewBox="0 0 33 32" fill="none">
  <path fill-rule="evenodd" clip-rule="evenodd" d="M26.0653 6.25365C24.7971 4.98431 23.2904 3.97845 21.632 3.29397C19.9736 2.6095 18.1963 2.25992 16.4023 2.26538C8.8735 2.26538 2.74463 8.36602 2.74157 15.8659C2.73824 18.2541 3.3675 20.6004 4.56529 22.6662L2.62705 29.7115L9.86865 27.8203C11.8732 28.9067 14.117 29.4752 16.3968 29.4744H16.4023C23.9305 29.4744 30.0588 23.3732 30.0624 15.8739C30.067 14.0853 29.716 12.3137 29.0297 10.6622C28.3435 9.01057 27.3358 7.51201 26.0653 6.25365ZM16.4023 27.1789H16.3974C14.3651 27.1795 12.3697 26.6354 10.6188 25.6032L10.2042 25.3581L5.90705 26.4805L7.05407 22.309L6.784 21.8802C5.64763 20.0804 5.04556 17.9947 5.04786 15.8659C5.04786 9.63357 10.1436 4.56277 16.4066 4.56277C19.411 4.55741 22.2945 5.7461 24.4229 7.86741C26.5513 9.98872 27.7503 12.8689 27.7561 15.8745C27.7537 22.1075 22.6604 27.1789 16.4023 27.1789ZM22.6298 18.7129C22.2887 18.5425 20.6089 17.7204 20.2978 17.607C19.9867 17.4937 19.757 17.4367 19.5298 17.7774C19.3026 18.118 18.648 18.8801 18.4489 19.1098C18.2499 19.3396 18.0509 19.3647 17.7098 19.1944C17.3687 19.0241 16.2682 18.6657 14.9644 17.5078C13.9497 16.6066 13.265 15.4941 13.066 15.154C12.8669 14.814 13.0445 14.6296 13.2154 14.4605C13.3691 14.308 13.5565 14.0635 13.7274 13.8651C13.8982 13.6666 13.9552 13.5244 14.0685 13.2978C14.1818 13.0711 14.1254 12.8726 14.0403 12.7029C13.9552 12.5332 13.2723 10.8601 12.9882 10.1794C12.7108 9.51656 12.4297 9.60662 12.2202 9.5962C12.0212 9.5864 11.7916 9.58395 11.5656 9.58395C11.3928 9.58845 11.2229 9.62852 11.0663 9.70168C10.9097 9.77483 10.7699 9.87949 10.6556 10.0091C10.3426 10.3497 9.46079 11.1731 9.46079 12.8444C9.46079 14.5157 10.6856 16.133 10.8546 16.3597C11.0236 16.5864 13.2613 20.019 16.6852 21.4912C17.321 21.7635 17.9706 22.0024 18.6314 22.2067C19.449 22.4653 20.193 22.4291 20.7809 22.3415C21.4368 22.2441 22.8019 21.5193 23.0854 20.7254C23.3689 19.9314 23.3695 19.2514 23.2844 19.1098C23.1993 18.9683 22.9715 18.8826 22.6298 18.7129Z" fill="#403C3C"/>
</svg>