<svg width="19" height="18" viewBox="0 0 19 18" fill="none" xmlns="http://www.w3.org/2000/svg">
<g id="icon / ionicons / logos /  logo-instagram">
<path id="Vector" d="M12.8018 2.36249C13.6556 2.36497 14.4737 2.69627 15.0774 3.28402C15.6811 3.87177 16.0214 4.66823 16.0239 5.49943V11.7727C16.0214 12.6039 15.6811 13.4003 15.0774 13.9881C14.4737 14.5758 13.6556 14.9071 12.8018 14.9096H6.35821C5.50442 14.9071 4.68634 14.5758 4.08262 13.9881C3.47891 13.4003 3.13861 12.6039 3.13606 11.7727V5.49943C3.13861 4.66823 3.47891 3.87177 4.08262 3.28402C4.68634 2.69627 5.50442 2.36497 6.35821 2.36249H12.8018ZM12.8018 1.10791H6.35821C3.87722 1.10791 1.84741 3.08405 1.84741 5.49943V11.7727C1.84741 14.188 3.87722 16.1642 6.35821 16.1642H12.8018C15.2828 16.1642 17.3126 14.188 17.3126 11.7727V5.49943C17.3126 3.08405 15.2828 1.10791 12.8018 1.10791Z" fill="url(#paint0_linear_363_32055)"/>
<path id="Vector_2" d="M13.7683 5.49922C13.5772 5.49922 13.3903 5.44403 13.2313 5.34063C13.0724 5.23723 12.9485 5.09026 12.8753 4.91832C12.8022 4.74637 12.783 4.55716 12.8203 4.37462C12.8576 4.19208 12.9497 4.02441 13.0849 3.89281C13.22 3.7612 13.3923 3.67158 13.5798 3.63527C13.7673 3.59896 13.9616 3.6176 14.1382 3.68882C14.3148 3.76004 14.4658 3.88065 14.572 4.0354C14.6782 4.19015 14.7349 4.37209 14.7349 4.5582C14.7352 4.68186 14.7104 4.80434 14.6619 4.91863C14.6134 5.03292 14.5422 5.13676 14.4524 5.2242C14.3626 5.31163 14.2559 5.38094 14.1385 5.42813C14.0212 5.47533 13.8953 5.49949 13.7683 5.49922Z" fill="url(#paint1_linear_363_32055)"/>
<path id="Vector_3" d="M9.57998 6.12616C10.0898 6.12616 10.5882 6.27334 11.012 6.54908C11.4359 6.82483 11.7663 7.21676 11.9614 7.67531C12.1565 8.13386 12.2076 8.63843 12.1081 9.12523C12.0086 9.61202 11.7631 10.0592 11.4027 10.4101C11.0422 10.7611 10.5829 11.0001 10.0829 11.0969C9.58284 11.1937 9.06456 11.1441 8.59356 10.9541C8.12256 10.7642 7.71998 10.4425 7.43675 10.0298C7.15351 9.61716 7.00234 9.13198 7.00234 8.63565C7.00307 7.97031 7.27487 7.33242 7.75812 6.86196C8.24136 6.39149 8.89657 6.12687 9.57998 6.12616ZM9.57998 4.87158C8.8153 4.87158 8.06779 5.09234 7.43198 5.50594C6.79617 5.91954 6.30062 6.50741 6.00799 7.1952C5.71536 7.883 5.63879 8.63983 5.78798 9.36998C5.93716 10.1001 6.30539 10.7708 6.8461 11.2972C7.38681 11.8237 8.07572 12.1822 8.8257 12.3274C9.57569 12.4726 10.3531 12.3981 11.0595 12.1132C11.766 11.8283 12.3699 11.3459 12.7947 10.7269C13.2195 10.1079 13.4463 9.38011 13.4463 8.63565C13.4463 7.63736 13.0389 6.67995 12.3139 5.97405C11.5888 5.26815 10.6054 4.87158 9.57998 4.87158Z" fill="url(#paint2_linear_363_32055)"/>
</g>
<defs>
<linearGradient id="paint0_linear_363_32055" x1="9.58" y1="1.10791" x2="9.58" y2="16.1642" gradientUnits="userSpaceOnUse">
<stop stop-color="#405DE6"/>
<stop offset="0.155" stop-color="#3B51BD"/>
<stop offset="0.29" stop-color="#833AB4"/>
<stop offset="0.415" stop-color="#C13584"/>
<stop offset="0.51" stop-color="#E1306C"/>
<stop offset="0.625" stop-color="#FD1D1D"/>
<stop offset="0.755" stop-color="#F56040"/>
<stop offset="0.865" stop-color="#FCAF45"/>
<stop offset="0.97" stop-color="#FFDC80"/>
</linearGradient>
<linearGradient id="paint1_linear_363_32055" x1="13.7683" y1="3.61719" x2="13.7683" y2="5.49922" gradientUnits="userSpaceOnUse">
<stop stop-color="#405DE6"/>
<stop offset="0.166667" stop-color="#3B51BD"/>
<stop offset="0.333333" stop-color="#833AB4"/>
<stop offset="0.5" stop-color="#C13584"/>
<stop offset="0.666667" stop-color="#D73274"/>
<stop offset="0.833333" stop-color="#D73274"/>
<stop offset="1" stop-color="#E1306C"/>
</linearGradient>
<linearGradient id="paint2_linear_363_32055" x1="9.57998" y1="4.87158" x2="9.57998" y2="12.3997" gradientUnits="userSpaceOnUse">
<stop stop-color="#405DE6"/>
<stop offset="0.155" stop-color="#3B51BD"/>
<stop offset="0.29" stop-color="#833AB4"/>
<stop offset="0.415" stop-color="#C13584"/>
<stop offset="0.51" stop-color="#E1306C"/>
<stop offset="0.625" stop-color="#FD1D1D"/>
<stop offset="0.755" stop-color="#F56040"/>
<stop offset="0.865" stop-color="#FCAF45"/>
<stop offset="0.97" stop-color="#FFDC80"/>
</linearGradient>
</defs>
</svg>
