<svg xmlns="http://www.w3.org/2000/svg" width="29" height="29" viewBox="0 0 29 29" fill="none">
<path d="M28.9719 6.78716C28.9701 6.26486 28.9221 5.74374 28.8286 5.22986C28.7243 4.60166 28.5258 3.99276 28.2399 3.42365C27.927 2.82557 27.5195 2.2819 27.0331 1.81362C26.2985 1.09511 25.3911 0.577729 24.3983 0.311316C23.4867 0.0904868 22.5499 -0.00937354 21.6122 0.0143116L21.6068 0H7.38801L7.38721 0.0143406C6.85383 0.0101545 6.32059 0.0339914 5.78972 0.0857531C5.20797 0.147731 4.63531 0.276555 4.0831 0.46967C3.17327 0.812508 2.35717 1.3649 1.70105 2.082C1.04492 2.7991 0.567266 3.66069 0.306859 4.59684C0.0874389 5.50047 -0.0124931 6.42894 0.00961693 7.35852L5.44048e-05 21.6239C-0.00176717 22.2699 0.0421557 22.9164 0.131494 23.5562C0.228534 24.2332 0.428807 24.8912 0.725339 25.5075C1.14358 26.3301 1.73911 27.0498 2.46906 27.6148C2.99045 28.03 3.58111 28.3499 4.21383 28.5598C5.14268 28.8467 6.11026 28.9888 7.08245 28.981C7.69099 28.9848 8.2991 29 8.90792 28.9975C13.3289 28.9789 17.7499 29.0294 22.171 28.9702C22.755 28.9574 23.3369 28.8956 23.9106 28.7855C24.995 28.5948 26.0043 28.1042 26.8239 27.3693C27.7893 26.5307 28.4632 25.4075 28.7487 24.1615C28.9246 23.3272 29.0086 22.4762 28.9993 21.6237V21.4538C28.9993 21.3879 28.9742 6.97769 28.9719 6.78716ZM25.0887 20.1994C24.9031 20.6335 23.9655 20.9934 22.3781 21.2384C22.2292 21.2614 22.1664 21.5021 22.0806 21.896C22.0451 22.0586 22.0089 22.2181 21.9595 22.3858C21.9447 22.4563 21.9047 22.5191 21.8469 22.5623C21.7891 22.6055 21.7175 22.6261 21.6456 22.6204H21.6207C21.4688 22.6149 21.3176 22.5958 21.1691 22.5633C20.7776 22.4814 20.3787 22.4392 19.9787 22.4373C19.691 22.4381 19.4039 22.4623 19.1202 22.5098C18.5215 22.6614 17.9646 22.9456 17.4908 23.3415C16.6898 24.0248 15.6834 24.4212 14.6312 24.4678C14.571 24.4678 14.5135 24.4656 14.4699 24.4635C14.4352 24.4665 14.3994 24.4678 14.3635 24.4678C13.3119 24.4215 12.306 24.0253 11.5056 23.3423C11.0313 22.946 10.4739 22.6614 9.87458 22.5097C9.59094 22.4621 9.30388 22.4379 9.01627 22.4372C8.61594 22.4414 8.21708 22.4865 7.82593 22.5718C7.67757 22.6063 7.5265 22.6279 7.37441 22.6365C7.2978 22.6452 7.22066 22.6252 7.15799 22.5803C7.09532 22.5354 7.05159 22.4688 7.03529 22.3935C6.98524 22.2237 6.94937 22.0592 6.91475 21.9007C6.82813 21.5047 6.76529 21.263 6.61698 21.2401C5.0299 20.9954 4.09223 20.635 3.90553 20.1985C3.88649 20.1549 3.87533 20.1083 3.87258 20.0608C3.86906 19.9981 3.88887 19.9363 3.92819 19.8873C3.9675 19.8383 4.02356 19.8055 4.08559 19.7953C5.39803 19.5578 6.58067 18.8551 7.41635 17.8163C7.87634 17.2845 8.25881 16.6904 8.55241 16.0517L8.55821 16.0395C8.64467 15.898 8.69918 15.7395 8.71793 15.5748C8.73669 15.4102 8.71923 15.2434 8.66679 15.0862C8.46229 14.6044 7.7851 14.3897 7.33703 14.2477C7.22562 14.2124 7.12022 14.1791 7.03626 14.1457C6.63904 13.989 5.98585 13.6577 6.07282 13.2005C6.13946 13.0283 6.25832 12.8812 6.41275 12.7798C6.56719 12.6784 6.74949 12.6278 6.93413 12.635C7.02379 12.633 7.11279 12.6508 7.19479 12.687C7.52921 12.8582 7.89672 12.9552 8.27213 12.9712C8.49526 12.9872 8.71634 12.9197 8.89245 12.7818C8.88078 12.5702 8.86803 12.3587 8.8542 12.1472C8.65014 10.7179 8.73732 9.26208 9.11051 7.86728C9.54931 6.86613 10.2735 6.01631 11.1927 5.42392C12.1119 4.83153 13.1853 4.52281 14.279 4.5363L14.7066 4.53232C15.8019 4.51836 16.877 4.82702 17.7978 5.41978C18.7186 6.01254 19.4444 6.86315 19.8844 7.86545C20.2576 9.26153 20.3447 10.7186 20.1404 12.1491L20.1361 12.2184C20.1236 12.415 20.1121 12.6012 20.1022 12.7816C20.2621 12.908 20.4612 12.9745 20.665 12.9698C21.0186 12.9431 21.3634 12.8471 21.6799 12.6873C21.7847 12.6418 21.8981 12.6194 22.0124 12.6213C22.1421 12.6209 22.2706 12.6455 22.391 12.6937L22.3969 12.696C22.5331 12.7284 22.6565 12.8006 22.7515 12.9034C22.8464 13.0062 22.9084 13.135 22.9297 13.2732C22.9337 13.4947 22.7689 13.8259 21.9584 14.1459C21.8754 14.1787 21.7695 14.2122 21.6576 14.2477C21.2093 14.3899 20.5326 14.6045 20.3281 15.0861C20.2755 15.2432 20.258 15.41 20.2768 15.5746C20.2955 15.7392 20.3501 15.8977 20.4366 16.0391L20.4425 16.0515C20.848 16.9773 21.4622 17.7968 22.237 18.4462C23.0119 19.0955 23.9265 19.5572 24.9094 19.795C24.9714 19.8053 25.0274 19.8381 25.0667 19.8871C25.106 19.9361 25.1258 19.9979 25.1223 20.0606C25.1194 20.1085 25.108 20.1555 25.0887 20.1994Z" fill="#403C3C"/>
</svg>