<svg xmlns="http://www.w3.org/2000/svg" width="21" height="20" viewBox="0 0 21 20" fill="none">
  <path d="M5.93677 15.4566V14.5457C5.93677 12.0304 7.9759 9.99121 10.4913 9.99121C13.0066 9.99121 15.0458 12.0304 15.0458 14.5457V15.4566" stroke="#383838" stroke-width="1.5" stroke-linecap="round"/>
  <path d="M10.4913 9.99129C12.0005 9.99129 13.224 8.76786 13.224 7.25859C13.224 5.74936 12.0005 4.52588 10.4913 4.52588C8.98198 4.52588 7.75854 5.74936 7.75854 7.25859C7.75854 8.76786 8.98198 9.99129 10.4913 9.99129Z" stroke="#383838" stroke-width="1.5" stroke-linecap="round" stroke-linejoin="round"/>
  <path d="M10.4914 19.1004C15.5221 19.1004 19.6004 15.0221 19.6004 9.99135C19.6004 4.96057 15.5221 0.882324 10.4914 0.882324C5.46057 0.882324 1.38232 4.96057 1.38232 9.99135C1.38232 15.0221 5.46057 19.1004 10.4914 19.1004Z" stroke="#383838" stroke-width="1.5"/>
</svg>