<svg xmlns="http://www.w3.org/2000/svg" width="20" height="21" viewBox="0 0 20 21" fill="none">
  <g clip-path="url(#clip0_796_56309)">
    <path d="M13.1706 11.6324C12.9702 11.4319 12.6449 11.4319 12.4441 11.6324L11.8179 12.2589C11.6351 12.4417 11.3444 12.46 11.1401 12.3019C11.1401 12.3019 10.5412 11.907 9.56187 10.9277C8.58258 9.94843 8.18785 9.34905 8.18785 9.34905C8.02945 9.14491 8.04808 8.85468 8.2309 8.67159L8.85711 8.04538C9.05793 7.84483 9.05793 7.51952 8.85711 7.31905L7.47664 5.93847C7.27613 5.73796 6.95113 5.73796 6.75031 5.93847C6.74554 5.94335 6.67586 6.01292 5.91793 6.77128C5.03504 7.65386 6.20281 10.358 8.16691 12.3228C10.1313 14.2869 12.8359 15.4542 13.7185 14.5719C14.4761 13.8139 14.546 13.7437 14.5507 13.7391C14.7516 13.5386 14.7516 13.2133 14.5507 13.0131L13.1706 11.6324Z" fill="#383838"/>
    <path d="M10 0.320801C4.47711 0.320801 0 4.79803 0 10.3208C0 15.8436 4.47711 20.3208 10 20.3208C15.5229 20.3208 20 15.8436 20 10.3208C20 4.79803 15.5229 0.320801 10 0.320801ZM10 18.7583C5.34758 18.7583 1.5625 14.9732 1.5625 10.3208C1.5625 5.66838 5.34758 1.8833 10 1.8833C14.6524 1.8833 18.4375 5.66838 18.4375 10.3208C18.4375 14.9732 14.6524 18.7583 10 18.7583Z" fill="#383838"/>
  </g>
  <defs>
    <clipPath id="clip0_796_56309">
      <rect width="20" height="20" fill="white" transform="translate(0 0.320801)"/>
    </clipPath>
  </defs>
</svg>