<svg xmlns="http://www.w3.org/2000/svg" width="26" height="20" viewBox="0 0 26 20" fill="none">
  <g clip-path="url(#clip0_796_56317)">
    <path d="M22.1453 1.1665H11.5895C10.0147 1.1665 8.73474 2.21914 8.73474 3.51177V4.51808H3.62316C2.17474 4.51808 1 5.4865 1 6.67808V13.3391C1 14.5307 2.17474 15.4991 3.62316 15.4991H4.64211L8.09895 18.7202C8.17606 18.7937 8.2787 18.8345 8.38526 18.8339C8.44318 18.8349 8.50063 18.8234 8.55368 18.8002C8.62865 18.7668 8.69237 18.7125 8.73719 18.6438C8.78201 18.5751 8.80602 18.4949 8.80632 18.4128V15.4991H13.1474C14.5958 15.4991 15.7705 14.5307 15.7705 13.3391V13.2423H16.4442V16.5097C16.4443 16.5923 16.4687 16.6731 16.5143 16.742C16.56 16.8109 16.6249 16.8648 16.7011 16.897C16.7525 16.9206 16.8087 16.9322 16.8653 16.9307C16.9722 16.931 17.0756 16.892 17.1558 16.8212L21 13.2423H22.1453C23.72 13.2423 25 12.1897 25 10.8928V3.51177C25 2.21914 23.72 1.1665 22.1453 1.1665ZM14.9284 13.3391C14.9284 14.0549 14.1116 14.657 13.1474 14.657H8.38526C8.27359 14.657 8.1665 14.7014 8.08753 14.7804C8.00857 14.8593 7.96421 14.9664 7.96421 15.0781V17.4444L5.09263 14.7707C5.01498 14.698 4.91269 14.6574 4.80632 14.657H3.62316C2.64211 14.657 1.84211 14.0676 1.84211 13.3391V6.67808C1.84211 5.95387 2.64211 5.36019 3.62316 5.36019H8.73474V10.8928C8.73474 12.1897 10.0147 13.2423 11.5895 13.2423H14.9284V13.3391ZM24.1579 10.8928C24.1579 11.7223 23.2526 12.4002 22.1453 12.4002H20.8316C20.7259 12.4 20.6239 12.439 20.5453 12.5097L17.2863 15.5454V12.8212C17.2869 12.7658 17.2764 12.7108 17.2554 12.6594C17.2345 12.6081 17.2035 12.5615 17.1642 12.5223C17.125 12.483 17.0784 12.4521 17.0271 12.4311C16.9757 12.4101 16.9207 12.3996 16.8653 12.4002H11.5895C10.4821 12.4002 9.57684 11.7223 9.57684 10.8928V3.51177C9.57684 2.68229 10.4821 2.00861 11.5895 2.00861H22.1453C23.2526 2.00861 24.1579 2.68229 24.1579 3.51177V10.8928Z" fill="#383838" stroke="#383838" stroke-width="0.55"/>
    <path d="M12.6253 5.55371C12.3136 5.55413 12.009 5.64691 11.75 5.82033C11.491 5.99376 11.2893 6.24005 11.1702 6.52809C11.0511 6.81614 11.02 7.13301 11.0809 7.43869C11.1418 7.74438 11.292 8.02515 11.5124 8.24555C11.7328 8.46595 12.0136 8.61608 12.3192 8.67699C12.6249 8.7379 12.9418 8.70685 13.2298 8.58777C13.5179 8.46868 13.7642 8.2669 13.9376 8.00791C14.111 7.74892 14.2038 7.44435 14.2042 7.13266C14.2041 6.71393 14.0377 6.31238 13.7416 6.0163C13.4455 5.72021 13.044 5.55382 12.6253 5.55371ZM12.6253 7.86529C12.48 7.86487 12.338 7.82137 12.2174 7.74029C12.0968 7.65921 12.003 7.54419 11.9478 7.40978C11.8925 7.27537 11.8784 7.12759 11.9072 6.98515C11.9359 6.84271 12.0063 6.71199 12.1093 6.60953C12.2124 6.50707 12.3435 6.43747 12.4861 6.40953C12.6287 6.38159 12.7764 6.39656 12.9105 6.45256C13.0446 6.50855 13.1591 6.60305 13.2395 6.72411C13.3198 6.84517 13.3625 6.98734 13.3621 7.13266C13.361 7.32735 13.2829 7.51369 13.1448 7.65096C13.0068 7.78824 12.82 7.86529 12.6253 7.86529Z" fill="#383838"/>
    <path d="M16.8654 5.55371C16.5537 5.55413 16.2491 5.64691 15.9901 5.82033C15.7311 5.99376 15.5294 6.24005 15.4103 6.52809C15.2912 6.81614 15.2601 7.13301 15.3211 7.43869C15.382 7.74437 15.5321 8.02515 15.7525 8.24555C15.9729 8.46595 16.2537 8.61608 16.5593 8.67699C16.865 8.7379 17.1819 8.70685 17.4699 8.58777C17.758 8.46868 18.0043 8.2669 18.1777 8.00791C18.3511 7.74892 18.4439 7.44435 18.4443 7.13266C18.4444 6.92529 18.4036 6.71995 18.3243 6.52836C18.2449 6.33676 18.1286 6.16268 17.982 6.01605C17.8354 5.86942 17.6613 5.75312 17.4697 5.67379C17.2781 5.59446 17.0728 5.55366 16.8654 5.55371ZM16.8654 7.86529C16.7201 7.86487 16.5781 7.82137 16.4575 7.74029C16.337 7.65921 16.2431 7.54419 16.1879 7.40978C16.1327 7.27537 16.1185 7.12759 16.1473 6.98515C16.176 6.84271 16.2464 6.71199 16.3494 6.60953C16.4525 6.50707 16.5836 6.43747 16.7262 6.40953C16.8688 6.38159 17.0165 6.39656 17.1506 6.45256C17.2847 6.50855 17.3992 6.60305 17.4796 6.72411C17.56 6.84517 17.6026 6.98734 17.6022 7.13266C17.6022 7.22921 17.583 7.3248 17.5459 7.41393C17.5088 7.50307 17.4545 7.584 17.386 7.65208C17.3176 7.72015 17.2363 7.77403 17.147 7.81062C17.0576 7.84721 16.9619 7.86579 16.8654 7.86529Z" fill="#383838"/>
    <path d="M21.1096 5.55371C20.798 5.55413 20.4934 5.64691 20.2344 5.82033C19.9754 5.99376 19.7736 6.24005 19.6545 6.52809C19.5355 6.81614 19.5044 7.13301 19.5653 7.43869C19.6262 7.74438 19.7764 8.02515 19.9968 8.24555C20.2172 8.46595 20.4979 8.61608 20.8036 8.67699C21.1093 8.7379 21.4262 8.70685 21.7142 8.58777C22.0023 8.46868 22.2485 8.2669 22.422 8.00791C22.5954 7.74892 22.6882 7.44435 22.6886 7.13266C22.6885 6.71393 22.5221 6.31238 22.226 6.0163C21.9299 5.72021 21.5284 5.55382 21.1096 5.55371ZM21.1096 7.86529C20.9643 7.86487 20.8224 7.82137 20.7018 7.74029C20.5812 7.65921 20.4874 7.54419 20.4321 7.40978C20.3769 7.27537 20.3628 7.12759 20.3916 6.98515C20.4203 6.84271 20.4907 6.71199 20.5937 6.60953C20.6968 6.50707 20.8279 6.43747 20.9705 6.40953C21.1131 6.38159 21.2608 6.39656 21.3949 6.45256C21.529 6.50855 21.6434 6.60305 21.7238 6.72411C21.8042 6.84517 21.8469 6.98734 21.8465 7.13266C21.8463 7.22918 21.8271 7.32471 21.79 7.4138C21.7528 7.50289 21.6985 7.58377 21.63 7.65183C21.5616 7.71988 21.4804 7.77376 21.3911 7.81039C21.3018 7.84702 21.2062 7.86568 21.1096 7.86529Z" fill="#383838"/>
  </g>
  <defs>
    <clipPath id="clip0_796_56317">
      <rect width="26" height="20" fill="white"/>
    </clipPath>
  </defs>
</svg>