<svg xmlns="http://www.w3.org/2000/svg" width="25" height="26" viewBox="0 0 25 26" fill="none">
  <g clip-path="url(#clip0_796_56339)">
    <path d="M25 13.7778C25 10.5083 21.7383 7.84424 17.7266 7.84424C16.3555 7.84424 15.0469 8.14893 13.9023 8.72705C12.7617 6.66846 10.2266 5.22705 7.28125 5.22705C3.26562 5.22705 0 7.88721 0 11.1567C0 12.7114 0.753906 14.2114 2.08594 15.313L2.00391 17.2153C1.99609 17.4185 2.09766 17.606 2.26562 17.7153C2.35547 17.77 2.45703 17.8013 2.5625 17.8013C2.65625 17.8013 2.74609 17.7778 2.82812 17.7349L4.70703 16.7153C5.52344 16.9692 6.38281 17.0981 7.27344 17.0981C8.67188 17.0981 9.97656 16.77 11.0898 16.2075C12.2461 18.3247 14.8242 19.7153 17.7227 19.7153C18.6094 19.7153 19.4688 19.5864 20.2852 19.3364L22.1641 20.356C22.2461 20.4028 22.3398 20.4224 22.4297 20.4224C22.5312 20.4224 22.6367 20.395 22.7266 20.3364C22.8984 20.231 23 20.0396 22.9883 19.8403L22.9102 17.938C24.2422 16.8325 25 15.3325 25 13.7778ZM7.27734 15.9731C6.42578 15.9731 5.60547 15.8403 4.83984 15.5747C4.69141 15.5239 4.52734 15.5356 4.39062 15.6138L3.16797 16.2778L3.21875 15.0786C3.22656 14.895 3.14453 14.7192 2.99609 14.6099C1.78906 13.6958 1.12109 12.4692 1.12109 11.1606C1.12109 8.5083 3.88281 6.34814 7.27734 6.34814C10.0117 6.34814 12.3359 7.75439 13.1328 9.69189C13.1367 9.69971 13.1406 9.70361 13.1406 9.71143C13.3281 10.1685 13.4297 10.6567 13.4297 11.1646C13.4258 13.813 10.668 15.9731 7.27734 15.9731ZM22.0039 17.2231C21.8594 17.3325 21.7734 17.5083 21.7812 17.6919L21.8281 18.8911L20.6055 18.2271C20.4688 18.1528 20.3047 18.1372 20.1562 18.188C19.3867 18.4536 18.5703 18.5864 17.7188 18.5864C15.207 18.5864 12.9922 17.4106 12.043 15.6216C13.5703 14.5317 14.543 12.938 14.543 11.1567C14.543 10.6724 14.4648 10.2075 14.332 9.7583C15.3359 9.23486 16.5 8.95752 17.7227 8.95752C21.1172 8.95752 23.8789 11.1177 23.8789 13.7739C23.8789 15.0864 23.2148 16.3091 22.0039 17.2231Z" fill="#383838" stroke="#383838" stroke-width="0.45"/>
    <path d="M7.45312 12.7153C7.41406 12.6763 7.36328 12.645 7.29688 12.6294C7.23438 12.6099 7.15625 12.6021 7.05859 12.6021C6.95703 12.6021 6.875 12.6099 6.80859 12.6294C6.74609 12.645 6.69531 12.6763 6.65625 12.7153C6.61719 12.7583 6.58984 12.813 6.57422 12.8794C6.5625 12.9458 6.55469 13.0278 6.55469 13.1294C6.55469 13.2271 6.5625 13.313 6.57422 13.3794C6.58984 13.4419 6.61719 13.4966 6.65625 13.5356C6.69531 13.5747 6.74609 13.606 6.80859 13.6216C6.875 13.6411 6.95312 13.6489 7.05859 13.6489C7.15234 13.6489 7.23438 13.6411 7.29688 13.6216C7.36328 13.606 7.41406 13.5747 7.45312 13.5356C7.49219 13.4966 7.51953 13.4419 7.53516 13.3794C7.55078 13.313 7.55859 13.231 7.55859 13.1294C7.55859 13.0317 7.55078 12.9458 7.53516 12.8794C7.52235 12.8186 7.4941 12.7621 7.45312 12.7153ZM8.24609 9.09424C8.12109 8.96533 7.95703 8.85986 7.75781 8.78174C7.55859 8.70752 7.32031 8.66846 7.03906 8.66846C6.91797 8.66846 6.79688 8.67627 6.68359 8.6958C6.57031 8.71533 6.46484 8.73877 6.375 8.76611C6.28125 8.79346 6.19922 8.8208 6.13281 8.85205C6.06641 8.8833 6.02344 8.91064 6 8.93408C5.97656 8.95752 5.96094 8.98877 5.95312 9.02783C5.94531 9.06689 5.94531 9.12549 5.94531 9.21143C5.94531 9.28955 5.94531 9.35596 5.95312 9.41064C5.95703 9.46143 5.96484 9.50439 5.97656 9.53174C5.98437 9.55908 5.99609 9.57861 6.01172 9.59033C6.02344 9.60205 6.03906 9.60596 6.05469 9.60596C6.07812 9.60596 6.11328 9.59424 6.15625 9.5708C6.28303 9.5015 6.41827 9.44898 6.55859 9.41455C6.65234 9.39111 6.76172 9.37939 6.87891 9.37939C7.01172 9.37939 7.12891 9.39893 7.22656 9.43408C7.32422 9.46924 7.41016 9.52393 7.47656 9.59033C7.53906 9.66064 7.58594 9.73877 7.62109 9.83643C7.68285 10.0333 7.68421 10.2442 7.625 10.4419C7.59936 10.5302 7.55406 10.6116 7.4925 10.6799C7.43094 10.7482 7.35471 10.8018 7.26953 10.8364C7.17969 10.8755 7.07031 10.895 6.94531 10.895H6.89453C6.84375 10.895 6.79687 10.9028 6.76172 10.9106C6.72266 10.9224 6.69141 10.9419 6.66797 10.9692C6.64117 11.0017 6.62362 11.0409 6.61719 11.0825C6.60547 11.1294 6.60547 11.1919 6.60547 11.27L6.63672 12.1099C6.64062 12.1333 6.64844 12.1567 6.66406 12.1724C6.67578 12.188 6.69922 12.1997 6.73047 12.2114C6.76172 12.2192 6.80078 12.2271 6.85547 12.231C6.90625 12.2349 6.97266 12.2349 7.05469 12.2349C7.17578 12.2349 7.27344 12.2231 7.33594 12.2036C7.40234 12.1841 7.43359 12.1489 7.4375 12.1099L7.46484 11.4146C7.64063 11.395 7.79297 11.3521 7.93359 11.2817C8.07422 11.2153 8.19531 11.1255 8.29687 11.0083C8.39453 10.895 8.47656 10.7583 8.53125 10.6021C8.58594 10.4497 8.61328 10.27 8.61328 10.0747C8.61328 9.8833 8.58594 9.70752 8.52734 9.53955C8.46484 9.37549 8.37109 9.22314 8.24609 9.09424ZM17.8984 13.2153C17.5859 13.2153 17.3359 13.4653 17.3359 13.7739C17.3359 14.0825 17.5898 14.3325 17.8984 14.3325C18.0466 14.3325 18.1887 14.2737 18.2934 14.1689C18.3982 14.0642 18.457 13.9221 18.457 13.7739C18.457 13.6258 18.3982 13.4837 18.2934 13.3789C18.1887 13.2742 18.0466 13.2153 17.8984 13.2153ZM15.4727 13.2153C15.1602 13.2153 14.9102 13.4653 14.9102 13.7739C14.9102 14.0825 15.1641 14.3325 15.4727 14.3325C15.6208 14.3325 15.7629 14.2737 15.8676 14.1689C15.9724 14.0642 16.0312 13.9221 16.0312 13.7739C16.0312 13.6258 15.9724 13.4837 15.8676 13.3789C15.7629 13.2742 15.6208 13.2153 15.4727 13.2153ZM20.4844 13.2153C20.1719 13.2153 19.9219 13.4653 19.9219 13.7739C19.9219 14.0825 20.1758 14.3325 20.4844 14.3325C20.793 14.3325 21.043 14.0825 21.043 13.7739C21.043 13.4653 20.7969 13.2153 20.4844 13.2153Z" fill="#383838"/>
  </g>
  <defs>
    <clipPath id="clip0_796_56339">
      <rect width="25" height="25" fill="white" transform="translate(0 0.320801)"/>
    </clipPath>
  </defs>
</svg>