<svg xmlns="http://www.w3.org/2000/svg" width="25" height="26" viewBox="0 0 25 26" fill="none">
  <g clip-path="url(#clip0_796_56326)">
    <path d="M22.9141 8.85597H14.5352V6.34034C14.5352 5.19191 13.6016 4.25441 12.4492 4.25441L2.08594 4.2505C0.9375 4.24659 0 5.18409 0 6.33253V12.9692C0 14.1177 0.933594 15.0552 2.08594 15.0552H2.47266V16.2271C2.47266 16.4341 2.58594 16.6216 2.76953 16.7192C2.85935 16.7674 2.96056 16.7903 3.06237 16.7855C3.16419 16.7807 3.26278 16.7483 3.34766 16.6919L5.79688 15.0552H10.4688V17.5747C10.4688 18.7232 11.4023 19.6567 12.5508 19.6567H19.207L21.6562 21.2974C21.7411 21.3538 21.8397 21.3862 21.9415 21.391C22.0433 21.3958 22.1446 21.3729 22.2344 21.3247C22.418 21.2271 22.5312 21.0396 22.5312 20.8325V19.6607H22.918C24.0703 19.6607 25.0039 18.7271 25.0078 17.5786V10.9458C25 9.79347 24.0625 8.85597 22.9141 8.85597ZM11.043 13.9341H5.62109C5.51172 13.9341 5.40234 13.9653 5.30859 14.0278L3.58984 15.1763V14.4927C3.58984 14.1841 3.33984 13.9341 3.03125 13.9341H2.08594C1.55469 13.9341 1.12109 13.5005 1.12109 12.9692V6.33253C1.12109 5.80128 1.55469 5.36769 2.08594 5.36769L12.4492 5.37159C12.9805 5.37159 13.4141 5.80519 13.4141 6.33644V12.9692C13.4141 13.5005 12.9805 13.9341 12.4492 13.9341H11.043ZM23.8789 17.5786C23.8789 18.1099 23.4453 18.5435 22.9102 18.5435H21.9648C21.6562 18.5435 21.4062 18.7935 21.4062 19.1021V19.7857L19.6875 18.6333C19.5938 18.5708 19.4883 18.5396 19.375 18.5396H12.5469C12.0156 18.5396 11.582 18.106 11.582 17.5747V15.0552H12.4453C13.5938 15.0552 14.5312 14.1216 14.5312 12.9692V9.96925H22.9102C23.1671 9.96925 23.4135 10.0713 23.5952 10.253C23.7768 10.4347 23.8789 10.6811 23.8789 10.938V17.5786Z" fill="#383838" stroke="#383838" stroke-width="0.45"/>
    <path d="M5.96172 9.32775C5.95987 9.52125 5.97639 9.71449 6.01106 9.90486C6.03786 10.0735 6.09753 10.2352 6.18667 10.3809L6.18667 10.3809L6.18725 10.3818C6.27442 10.5223 6.39679 10.6353 6.54878 10.7088C6.69952 10.7817 6.87946 10.8161 7.08203 10.8161C7.28369 10.8161 7.46785 10.782 7.6269 10.6931C7.77742 10.6128 7.90119 10.4986 7.99159 10.3558C8.07871 10.2183 8.14059 10.057 8.17551 9.88246L8.17567 9.88166C8.20873 9.71221 8.22942 9.5343 8.23355 9.34414L8.23359 9.34414V9.34033C8.23359 9.13975 8.21725 8.95221 8.18332 8.78257C8.14889 8.61042 8.09132 8.4513 8.00185 8.31474C7.91027 8.17495 7.78928 8.06904 7.64276 7.99342C7.48976 7.91445 7.30773 7.88018 7.10547 7.88018C6.90302 7.88018 6.71821 7.91451 6.55874 8.00421C6.41276 8.08632 6.28804 8.19498 6.19591 8.34045C6.10998 8.47613 6.04737 8.6291 6.01199 8.80601C5.97842 8.97389 5.96177 9.14529 5.96172 9.32775ZM5.96172 9.32775C5.96172 9.32804 5.96172 9.32833 5.96172 9.32861H6.13672L5.96173 9.32689C5.96172 9.32718 5.96172 9.32746 5.96172 9.32775ZM8.97931 11.3603C8.98108 11.3705 8.98338 11.3821 8.98647 11.3945C8.99248 11.4185 8.99687 11.4658 8.99687 11.5513C8.99687 11.612 8.99321 11.6552 8.98798 11.684L8.98782 11.684L8.98765 11.6853C8.95515 11.6791 8.91475 11.6685 8.86584 11.6515C8.77604 11.6204 8.6755 11.5741 8.56282 11.514C8.45479 11.4564 8.34195 11.3838 8.22822 11.2957L8.22825 11.2957L8.22537 11.2935C8.11503 11.2117 8.01094 11.1149 7.91321 11.0027L7.8242 10.9005L7.70299 10.9612C7.63592 10.9947 7.5473 11.0221 7.42496 11.0527C7.31328 11.077 7.18992 11.0911 7.05078 11.0911C6.77932 11.0911 6.54964 11.0576 6.35792 10.9913C6.1675 10.9255 6.01366 10.8273 5.89496 10.699C5.77358 10.5639 5.67658 10.3925 5.61316 10.1775C5.54885 9.95961 5.51484 9.69199 5.51484 9.37549C5.51484 9.09433 5.55178 8.84303 5.61982 8.62409C5.69081 8.40807 5.7921 8.23104 5.92267 8.08283C6.05734 7.93824 6.21909 7.82468 6.41705 7.74481L6.41705 7.74481L6.41805 7.7444C6.61048 7.66536 6.8445 7.62471 7.12109 7.62471C7.38035 7.62471 7.60584 7.65814 7.79348 7.72416C7.98057 7.78999 8.13595 7.88887 8.25976 8.01937L8.25975 8.01938L8.26138 8.02105C8.38775 8.15075 8.48452 8.31707 8.55191 8.52988C8.61965 8.74377 8.65703 8.99884 8.65703 9.30518C8.65703 9.46442 8.64939 9.61035 8.62804 9.74201L8.62798 9.742L8.62736 9.74658C8.60926 9.8805 8.58053 10.002 8.54154 10.1155L8.54147 10.1155L8.54 10.1202C8.50485 10.2326 8.45983 10.3324 8.40565 10.4205L8.40559 10.4205L8.4031 10.4248C8.3525 10.5125 8.2917 10.5902 8.22391 10.658L8.09101 10.7909L8.23304 10.914C8.35542 11.02 8.46883 11.1045 8.56917 11.1656L8.56915 11.1656L8.57198 11.1673C8.66846 11.2236 8.74921 11.2664 8.82048 11.2975C8.884 11.3253 8.93826 11.3465 8.97931 11.3603ZM7.54297 10.5396C7.41797 10.6099 7.26562 10.6411 7.08203 10.6411C6.89844 10.6411 6.74609 10.6099 6.625 10.5513C6.50391 10.4927 6.40625 10.4028 6.33594 10.2896C6.25842 10.1629 6.20665 10.0222 6.18359 9.87549L7.54297 10.5396ZM18.1045 12.468L18.1041 12.4681L18.1081 12.4798L19.3073 15.9329L19.3073 15.9329L19.3087 15.9367C19.3175 15.9601 19.3251 15.9838 19.3316 16.0079C19.2837 16.0107 19.2221 16.013 19.1484 16.013C19.0443 16.013 18.9732 16.0129 18.9218 16.0095C18.8908 16.0074 18.8664 16.0041 18.8473 16.0007L18.5879 15.2225L18.548 15.1028H18.4219H16.957H16.8297L16.7905 15.224L16.5444 15.9858L16.5444 15.9857L16.5431 15.9901C16.5423 15.9925 16.5415 15.995 16.5407 15.9974C16.5281 16.0004 16.509 16.0035 16.4797 16.0056C16.4277 16.0093 16.3617 16.013 16.2812 16.013C16.2067 16.013 16.1558 16.0127 16.1204 16.0104C16.1269 15.9875 16.1354 15.9604 16.1461 15.9279C16.1463 15.9276 16.1464 15.9273 16.1465 15.9269L17.3489 12.4681L17.3489 12.4681L17.3496 12.466C17.3518 12.4593 17.3541 12.454 17.3562 12.4497C17.3816 12.4447 17.4155 12.4397 17.4601 12.4369C17.5159 12.4334 17.5915 12.4333 17.6953 12.4333C17.8185 12.4333 17.9065 12.4334 17.9708 12.4369L17.9707 12.4375L17.9845 12.4372C18.0223 12.4363 18.0601 12.4407 18.0967 12.4501C18.0972 12.4503 18.0976 12.4504 18.0979 12.4505C18.1007 12.4561 18.1029 12.462 18.1045 12.468ZM16.5514 15.9947C16.553 15.9935 16.5533 15.9935 16.5517 15.9943C16.551 15.9947 16.5498 15.9952 16.5483 15.9959L16.5487 15.9968C16.5499 15.9958 16.5509 15.9951 16.5514 15.9947ZM16.9707 14.621L16.8941 14.8513H17.1367H18.2422H18.4848L18.4082 14.621L17.8575 12.9648L17.8176 12.845H17.6914H17.6875H17.5613L17.5214 12.9648L16.9707 14.621Z" fill="#383838" stroke="#383838" stroke-width="0.35"/>
  </g>
  <defs>
    <clipPath id="clip0_796_56326">
      <rect width="25" height="25" fill="white" transform="translate(0 0.320801)"/>
    </clipPath>
  </defs>
</svg>