<svg xmlns="http://www.w3.org/2000/svg" width="21" height="19" viewBox="0 0 21 19" fill="none">
  <path d="M17.6061 18.1384H3.34771C2.22275 18.1384 1.31079 17.2265 1.31079 16.1015V6.93535C1.31079 5.81039 2.22275 4.89844 3.34771 4.89844H17.6061C18.7311 4.89844 19.643 5.81039 19.643 6.93535V16.1015C19.643 17.2265 18.7311 18.1384 17.6061 18.1384Z" stroke="#383838" stroke-width="1.5"/>
  <path d="M5.38452 4.89854V1.43578C5.38452 1.0983 5.65811 0.824707 5.9956 0.824707H14.958C15.2955 0.824707 15.5691 1.0983 15.5691 1.43578V4.89854" stroke="#383838" stroke-width="1.5"/>
  <path d="M8.43994 0.824707V4.89854" stroke="#383838" stroke-width="1.5"/>
  <path d="M10.4768 0.824707V4.89854" stroke="#383838" stroke-width="1.5"/>
  <path d="M15.06 12.0277C14.7788 12.0277 14.5508 11.7997 14.5508 11.5185C14.5508 11.2373 14.7788 11.0093 15.06 11.0093C15.3412 11.0093 15.5692 11.2373 15.5692 11.5185C15.5692 11.7997 15.3412 12.0277 15.06 12.0277Z" fill="#383838" stroke="#383838" stroke-width="1.5" stroke-linecap="round" stroke-linejoin="round"/>
</svg>