<svg xmlns="http://www.w3.org/2000/svg" width="18" height="18" viewBox="0 0 18 18" fill="none">
  <path d="M3.38125 12.086C1.98602 12.5046 1.12305 13.0828 1.12305 13.7215C1.12305 14.999 4.57493 16.0345 8.83305 16.0345C13.0912 16.0345 16.543 14.999 16.543 13.7215C16.543 13.0828 15.6801 12.5046 14.2848 12.086" stroke="black" stroke-width="2" stroke-linecap="round" stroke-linejoin="round"/>
  <path d="M8.83279 12.9505C8.83279 12.9505 13.8443 9.67529 13.8443 5.88883C13.8443 3.18881 11.6006 1 8.83279 1C6.06501 1 3.82129 3.18881 3.82129 5.88883C3.82129 9.67529 8.83279 12.9505 8.83279 12.9505Z" fill="#F39406" stroke="black" stroke-width="2" stroke-linejoin="round"/>
  <path d="M8.83326 7.93898C9.89778 7.93898 10.7608 7.076 10.7608 6.01148C10.7608 4.94696 9.89778 4.08398 8.83326 4.08398C7.76874 4.08398 6.90576 4.94696 6.90576 6.01148C6.90576 7.076 7.76874 7.93898 8.83326 7.93898Z" fill="#F39406" stroke="white" stroke-width="2" stroke-linejoin="round"/>
</svg>