<svg width="34" height="20" viewBox="0 0 34 20" fill="none" xmlns="http://www.w3.org/2000/svg">
<g id="_4">
<g clip-path="url(#clip0_77_89454)">
<g id="OMAN">
<g id="Clip path group">
<mask id="mask0_77_89454" style="mask-type:luminance" maskUnits="userSpaceOnUse" x="0" y="0" width="34" height="20">
<g id="clip-path">
<path id="Vector" d="M33.56 0H0V19.58H33.56V0Z" fill="white"/>
</g>
</mask>
<g mask="url(#mask0_77_89454)">
<g id="Group">
<path id="Vector_2" d="M33.56 0H0V19.58H33.56V0Z" fill="#E8333C"/>
<path id="Vector_3" d="M33.57 13.05H9.78998V19.58H33.57V13.05Z" fill="#3D9546"/>
<path id="Vector_4" d="M33.57 0H9.78998V6.53H33.57V0Z" fill="white"/>
<g id="Clip path group_2">
<mask id="mask1_77_89454" style="mask-type:luminance" maskUnits="userSpaceOnUse" x="0" y="0" width="34" height="20">
<g id="clip-path_2">
<path id="Vector_5" d="M33.56 0H0V19.58H33.56V0Z" fill="white"/>
</g>
</mask>
<g mask="url(#mask1_77_89454)">
<g id="Group_2">
<path id="Vector_6" d="M6.48997 3.37999H7.48997C7.50392 3.37859 7.51801 3.38014 7.53132 3.38453C7.54463 3.38893 7.55687 3.39607 7.56724 3.4055C7.57761 3.41493 7.58589 3.42643 7.59153 3.43927C7.59717 3.4521 7.60004 3.46598 7.59997 3.47999V3.99999C7.60004 4.01401 7.59717 4.02789 7.59153 4.04072C7.58589 4.05355 7.57761 4.06506 7.56724 4.07449C7.55687 4.08392 7.54463 4.09106 7.53132 4.09546C7.51801 4.09985 7.50392 4.1014 7.48997 4.09999H6.48997C6.47645 4.1016 6.46275 4.10012 6.44988 4.09567C6.43702 4.09121 6.42533 4.08389 6.4157 4.07426C6.40608 4.06464 6.39876 4.05295 6.3943 4.04009C6.38985 4.02722 6.38837 4.01351 6.38997 3.99999V3.47999C6.38837 3.46647 6.38985 3.45277 6.3943 3.4399C6.39876 3.42704 6.40608 3.41535 6.4157 3.40572C6.42533 3.3961 6.43702 3.38878 6.44988 3.38432C6.46275 3.37987 6.47645 3.37839 6.48997 3.37999Z" fill="white"/>
<path id="Vector_7" d="M7.54 4.07999H6.54C6.52454 4.08816 6.50735 4.09252 6.48986 4.09271C6.47237 4.09291 6.45509 4.08893 6.43945 4.08111C6.4238 4.07329 6.41025 4.06185 6.39991 4.04774C6.38958 4.03363 6.38275 4.01727 6.38 3.99999V3.47999C6.38 3.45082 6.39159 3.42284 6.41222 3.40221C6.43285 3.38158 6.46083 3.36999 6.49 3.36999H7.49C7.50527 3.3686 7.52065 3.37041 7.53518 3.37531C7.5497 3.38021 7.56304 3.38809 7.57434 3.39845C7.58563 3.40881 7.59464 3.42141 7.60079 3.43545C7.60693 3.4495 7.61007 3.46467 7.61 3.47999V3.99999C7.61007 4.01532 7.60693 4.03049 7.60079 4.04453C7.59464 4.05858 7.58563 4.07118 7.57434 4.08154C7.56304 4.09189 7.5497 4.09977 7.53518 4.10467C7.52065 4.10958 7.50527 4.11139 7.49 4.10999L7.54 4.07999ZM6.54 3.38999C6.51513 3.38987 6.4911 3.39902 6.47261 3.41566C6.45412 3.4323 6.44249 3.45524 6.44 3.47999V3.99999C6.44226 4.02576 6.45352 4.0499 6.47181 4.06819C6.49009 4.08648 6.51424 4.09774 6.54 4.09999H7.54C7.55314 4.09999 7.56614 4.09741 7.57827 4.09238C7.59041 4.08736 7.60143 4.07999 7.61072 4.0707C7.62 4.06142 7.62737 4.05039 7.63239 4.03826C7.63742 4.02613 7.64 4.01313 7.64 3.99999V3.47999C7.64008 3.46728 7.63747 3.4547 7.63233 3.44307C7.6272 3.43145 7.61966 3.42104 7.61021 3.41254C7.60077 3.40404 7.58963 3.39763 7.57752 3.39375C7.56542 3.38986 7.55264 3.38858 7.54 3.38999H6.54Z" fill="#DC1F34"/>
<path id="Vector_8" d="M6.51998 3.41001H7.51998C7.54486 3.40989 7.56889 3.41904 7.58738 3.43568C7.60587 3.45232 7.6175 3.47526 7.61998 3.50001V4.00001C7.6175 4.02476 7.60587 4.0477 7.58738 4.06434C7.56889 4.08098 7.54486 4.09014 7.51998 4.09001H6.51998C6.50735 4.09142 6.49457 4.09015 6.48247 4.08626C6.47036 4.08237 6.45922 4.07597 6.44978 4.06747C6.44033 4.05896 6.43279 4.04856 6.42766 4.03693C6.42252 4.0253 6.41991 4.01272 6.41998 4.00001V3.50001C6.41991 3.4873 6.42252 3.47472 6.42766 3.46309C6.43279 3.45147 6.44033 3.44106 6.44978 3.43256C6.45922 3.42406 6.47036 3.41765 6.48247 3.41376C6.49457 3.40988 6.50735 3.4086 6.51998 3.41001Z" fill="white"/>
<path id="Vector_9" d="M7.51997 4.04999H6.51997C6.49869 4.0548 6.47643 4.05251 6.45657 4.04349C6.43671 4.03446 6.42034 4.01919 6.40997 3.99999V3.49999C6.41247 3.47259 6.42516 3.44711 6.44552 3.4286C6.46589 3.41009 6.49245 3.39988 6.51997 3.39999H7.51997C7.54749 3.39988 7.57406 3.41009 7.59442 3.4286C7.61479 3.44711 7.62747 3.47259 7.62997 3.49999V3.99999C7.63004 4.01401 7.62717 4.02789 7.62153 4.04072C7.61589 4.05356 7.60761 4.06506 7.59724 4.07449C7.58687 4.08392 7.57463 4.09106 7.56132 4.09546C7.54801 4.09985 7.53392 4.1014 7.51997 4.09999V4.04999ZM6.51997 3.41999C6.50866 3.41857 6.49717 3.41958 6.48628 3.42296C6.47539 3.42633 6.46534 3.432 6.45682 3.43957C6.4483 3.44715 6.44149 3.45646 6.43686 3.46688C6.43223 3.4773 6.42988 3.48859 6.42997 3.49999V3.99999C6.44365 4.00789 6.45917 4.01205 6.47497 4.01205C6.49077 4.01205 6.50629 4.00789 6.51997 3.99999H7.51997C7.53393 4.00703 7.54934 4.01069 7.56497 4.01069C7.5806 4.01069 7.59602 4.00703 7.60997 3.99999V3.49999C7.6075 3.4779 7.59694 3.4575 7.58032 3.44273C7.56371 3.42795 7.54221 3.41986 7.51997 3.41999H6.51997Z" fill="#DC1F34"/>
<path id="Vector_10" d="M6.96997 3.57999H7.03997V3.60999L7.08997 3.63999L7.12997 3.59999L7.16997 3.62999L7.12997 3.65999L7.13997 3.68999H7.19997V3.74999L7.14997 3.73999L7.12997 3.76999L7.17997 3.80999L7.13997 3.83999L7.09997 3.80999L7.03997 3.81999V3.86999H6.96997V3.81999L6.90997 3.79999L6.87997 3.82999L6.83997 3.80999L6.85997 3.76999L6.82997 3.74999H6.77997V3.68999H6.82997L6.85997 3.64999L6.81997 3.62999L6.86997 3.58999L6.90997 3.61999L6.96997 3.60999V3.57999Z" fill="white"/>
<path id="Vector_11" d="M6.96997 3.88001L6.95997 3.83001L6.90997 3.81001L6.88997 3.84001L6.82997 3.82001L6.85997 3.77001L6.77997 3.76001V3.69001L6.82997 3.68001L6.85997 3.65001L6.80997 3.63001L6.86997 3.58001L6.90997 3.61001L6.94997 3.60001L6.90997 3.63001L6.86997 3.60001L6.82997 3.63001L6.86997 3.65001L6.82997 3.69001H6.77997L6.78997 3.75001H6.82997L6.86997 3.77001L6.83997 3.82001L6.88997 3.83001L6.90997 3.80001L6.96997 3.82001L6.97997 3.86001H7.03997L7.02997 3.82001L7.09997 3.80001L7.13997 3.83001L7.16997 3.80001L7.11997 3.77001L7.13997 3.74001L7.19997 3.73001L7.18997 3.69001L7.12997 3.70001L7.11997 3.66001L7.16997 3.62001L7.11997 3.61001L7.08997 3.64001L6.98997 3.60001L7.03997 3.57001L7.08997 3.63001L7.11997 3.60001L7.17997 3.62001L7.12997 3.66001L7.19997 3.68001L7.20997 3.75001H7.14997L7.17997 3.80001L7.13997 3.85001L7.08997 3.81001L7.03997 3.83001L7.04997 3.87001L6.96997 3.88001Z" fill="#DC1F34"/>
<path id="Vector_12" d="M6.99999 3.66C7.01591 3.66 7.03117 3.66633 7.04242 3.67758C7.05367 3.68883 7.05999 3.70409 7.05999 3.72C7.05087 3.72527 7.04053 3.72804 7.02999 3.72804C7.01946 3.72804 7.00911 3.72527 6.99999 3.72H6.92999C6.92999 3.72 6.92999 3.66 6.99999 3.66Z" fill="white"/>
<path id="Vector_13" d="M6.99998 3.79001C6.98039 3.79016 6.96142 3.78312 6.94668 3.77022C6.93193 3.75731 6.92243 3.73945 6.91998 3.72001C6.91998 3.65001 7.06998 3.64001 7.06998 3.72001C7.06786 3.73784 7.05981 3.75444 7.04711 3.76714C7.03441 3.77983 7.01781 3.78789 6.99998 3.79001ZM6.99998 3.67001C6.99998 3.67001 6.93998 3.67001 6.93998 3.72001C6.93998 3.77001 7.04998 3.72001 7.04998 3.72001V3.67001H6.99998Z" fill="#DC1F34"/>
<path id="Vector_14" d="M2.24996 3.35001H3.30996C3.33648 3.35001 3.36192 3.36054 3.38067 3.3793C3.39943 3.39805 3.40996 3.42348 3.40996 3.45001V4.00001C3.40748 4.02476 3.39585 4.04769 3.37736 4.06434C3.35887 4.08098 3.33484 4.09013 3.30996 4.09001H2.24996C2.22509 4.09013 2.20106 4.08098 2.18257 4.06434C2.16407 4.04769 2.15245 4.02476 2.14996 4.00001V3.50001C2.14996 3.47348 2.1605 3.44805 2.17925 3.4293C2.19801 3.41054 2.22344 3.40001 2.24996 3.40001V3.35001Z" fill="white"/>
<path id="Vector_15" d="M3.31001 4.05002H2.25001C2.2288 4.05333 2.20708 4.05036 2.18753 4.04147C2.16799 4.03259 2.15147 4.01818 2.14001 4.00002V3.50002C2.14001 3.47084 2.1516 3.44286 2.17223 3.42223C2.19286 3.40161 2.22084 3.39002 2.25001 3.39002H3.31001C3.33919 3.39002 3.36717 3.40161 3.3878 3.42223C3.40843 3.44286 3.42001 3.47084 3.42001 3.50002V4.00002C3.41751 4.02742 3.40483 4.0529 3.38446 4.07141C3.3641 4.08992 3.33754 4.10013 3.31001 4.10002V4.05002ZM2.25001 3.36002C2.22615 3.36002 2.20325 3.3695 2.18637 3.38638C2.1695 3.40325 2.16001 3.42615 2.16001 3.45002V4.00002C2.17397 4.00705 2.18938 4.01071 2.20501 4.01071C2.22064 4.01071 2.23606 4.00705 2.25001 4.00002H3.31001C3.32397 4.00705 3.33938 4.01071 3.35501 4.01071C3.37064 4.01071 3.38606 4.00705 3.40001 4.00002V3.50002C3.40001 3.47615 3.39053 3.45325 3.37365 3.43638C3.35678 3.4195 3.33388 3.41002 3.31001 3.41002L2.25001 3.36002Z" fill="#DC1F34"/>
<path id="Vector_16" d="M2.27999 3.38001H3.27999C3.30487 3.37989 3.3289 3.38904 3.34739 3.40568C3.36588 3.42232 3.37751 3.44526 3.37999 3.47001V3.93001C3.37564 3.95397 3.36345 3.9758 3.34536 3.99208C3.32726 4.00837 3.30427 4.01819 3.27999 4.02001H2.27999C2.25512 4.02014 2.23109 4.01099 2.2126 3.99434C2.19411 3.9777 2.18248 3.95477 2.17999 3.93001V3.47001C2.17992 3.4573 2.18253 3.44472 2.18766 3.43309C2.1928 3.42147 2.20034 3.41106 2.20979 3.40256C2.21923 3.39406 2.23037 3.38765 2.24248 3.38377C2.25458 3.37988 2.26736 3.3786 2.27999 3.38001Z" fill="white"/>
<path id="Vector_17" d="M3.27998 4.00001H2.27998C2.26684 4.00139 2.25355 4.00016 2.24089 3.99637C2.22823 3.99258 2.21644 3.98632 2.20621 3.97796C2.19598 3.96959 2.18751 3.95927 2.1813 3.94761C2.17508 3.93595 2.17123 3.92317 2.16998 3.91001V3.47001C2.17248 3.44261 2.18517 3.41713 2.20553 3.39862C2.2259 3.38011 2.25246 3.3699 2.27998 3.37001H3.27998C3.3065 3.37001 3.33194 3.38055 3.35069 3.3993C3.36945 3.41806 3.37998 3.44349 3.37998 3.47001V3.93001C3.38006 3.94272 3.37745 3.9553 3.37231 3.96693C3.36718 3.97856 3.35964 3.98896 3.35019 3.99747C3.34074 4.00597 3.3296 4.01237 3.3175 4.01626C3.3054 4.02015 3.29261 4.02143 3.27998 4.02001V4.00001ZM2.27998 3.37001C2.26867 3.36859 2.25718 3.3696 2.24629 3.37297C2.2354 3.37635 2.22535 3.38202 2.21683 3.38959C2.20831 3.39717 2.2015 3.40648 2.19687 3.4169C2.19224 3.42732 2.18989 3.43861 2.18998 3.45001V3.91001C2.18998 3.93388 2.19946 3.95677 2.21634 3.97365C2.23322 3.99053 2.25611 4.00001 2.27998 4.00001H3.27998C3.30222 4.00015 3.32371 3.99205 3.34033 3.97728C3.35695 3.96251 3.36751 3.94211 3.36998 3.92001V3.47001C3.37007 3.45861 3.36772 3.44732 3.36309 3.4369C3.35846 3.42648 3.35166 3.41717 3.34313 3.40959C3.33461 3.40202 3.32457 3.39635 3.31368 3.39297C3.30278 3.3896 3.2913 3.38859 3.27998 3.39001L2.27998 3.37001Z" fill="#DC1F34"/>
<path id="Vector_18" d="M2.73998 3.56H2.79998V3.58L2.84998 3.61L2.88998 3.57L2.93998 3.6L2.88998 3.63L2.89998 3.67H2.95998V3.71H2.90998L2.88998 3.75L2.93998 3.78L2.89998 3.81L2.85998 3.78L2.79998 3.79L2.80998 3.84H2.73998L2.72998 3.8L2.66998 3.77L2.64998 3.81L2.59998 3.78L2.61998 3.75L2.58998 3.72H2.53998V3.66H2.58998L2.61998 3.63L2.57998 3.6L2.62998 3.56L2.66998 3.59L2.72998 3.58L2.73998 3.56Z" fill="white"/>
<path id="Vector_19" d="M2.72997 3.84999L2.71997 3.79999L2.66997 3.77999L2.64997 3.80999L2.59997 3.78999L2.61997 3.73999L2.58997 3.72999H2.53997L2.52997 3.65999H2.58997L2.61997 3.61999L2.57997 3.59999L2.62997 3.55999L2.66997 3.57999L2.70997 3.56999L2.66997 3.59999L2.62997 3.56999L2.58997 3.59999L2.62997 3.61999L2.59997 3.66999H2.53997L2.55997 3.71999L2.58997 3.70999L2.62997 3.73999L2.59997 3.78999L2.64997 3.79999L2.66997 3.76999L2.72997 3.78999L2.73997 3.82999H2.80997L2.78997 3.78999L2.85997 3.76999L2.90997 3.79999L2.93997 3.76999L2.87997 3.74999L2.90997 3.70999H2.95997L2.94997 3.66999H2.89997L2.87997 3.62999L2.92997 3.58999L2.87997 3.57999L2.84997 3.60999L2.74997 3.56999L2.79997 3.54999L2.84997 3.59999L2.87997 3.56999L2.93997 3.58999L2.89997 3.63999L2.95997 3.65999V3.70999L2.90997 3.71999L2.94997 3.76999L2.90997 3.81999L2.84997 3.78999L2.79997 3.79999L2.80997 3.83999L2.72997 3.84999Z" fill="#DC1F34"/>
<path id="Vector_20" d="M2.76001 3.63C2.77593 3.63 2.79119 3.63633 2.80244 3.64758C2.81369 3.65883 2.82001 3.67409 2.82001 3.69C2.82001 3.70592 2.81369 3.72118 2.80244 3.73243C2.79119 3.74368 2.77593 3.75 2.76001 3.75C2.7441 3.75 2.72884 3.74368 2.71759 3.73243C2.70633 3.72118 2.70001 3.70592 2.70001 3.69C2.70001 3.67409 2.70633 3.65883 2.71759 3.64758C2.72884 3.63633 2.7441 3.63 2.76001 3.63Z" fill="white"/>
<path id="Vector_21" d="M2.75999 3.75C2.75999 3.75 2.67999 3.75 2.67999 3.69C2.67999 3.63 2.82999 3.62 2.82999 3.69C2.82757 3.70678 2.81914 3.72211 2.80627 3.73315C2.79339 3.74418 2.77695 3.75017 2.75999 3.75ZM2.75999 3.64H2.69999C2.69999 3.64 2.81999 3.7 2.81999 3.64C2.81087 3.63473 2.80052 3.63196 2.78999 3.63196C2.77946 3.63196 2.76911 3.63473 2.75999 3.64Z" fill="#DC1F34"/>
<path id="Vector_22" d="M4.12996 4.79999C2.55996 6.33999 1.88996 6.52999 2.19996 6.65999C2.50996 6.78999 3.52996 5.99999 4.57996 4.92999C5.62996 3.85999 6.27996 2.99999 5.99996 2.81999C5.71996 2.63999 5.83996 3.16999 4.16996 4.81999L4.12996 4.79999Z" fill="white"/>
<path id="Vector_23" d="M2.28 6.67999H2.2C2.15 6.67999 2.12 6.67999 2.12 6.60999C2.12 6.53999 2.23 6.44999 2.51 6.22999C3.07076 5.78117 3.60814 5.30387 4.12 4.79999C4.67373 4.27786 5.16989 3.69788 5.6 3.06999C5.77 2.81999 5.80999 2.74999 5.97 2.80999C5.99032 2.81909 6.00819 2.83291 6.0221 2.8503C6.03601 2.8677 6.04558 2.88816 6.05 2.90999C6.05 3.18999 5.52 4.00999 4.59 4.90999C3.97548 5.67915 3.18254 6.28673 2.28 6.67999ZM5.88 2.80999C5.8 2.80999 5.74 2.88999 5.61 3.08999C5.18086 3.71253 4.68454 4.28598 4.13 4.79999C3.62239 5.30528 3.08474 5.77948 2.52 6.21999C2.27 6.41999 2.13 6.52999 2.13 6.58999C2.15257 6.59842 2.17742 6.59842 2.2 6.58999C2.22572 6.60003 2.25427 6.60003 2.28 6.58999C3.16663 6.23051 3.95254 5.66081 4.57 4.92999C5.5 3.99999 6.09 3.18999 6 2.90999C6.0055 2.89737 6.00834 2.88375 6.00834 2.86999C6.00834 2.85622 6.0055 2.8426 6 2.82999H5.92L5.88 2.80999Z" fill="#DC1F34"/>
<path id="Vector_24" d="M2.80999 5.92001L3.35999 6.06001C2.83999 6.55001 2.25999 6.75001 2.09999 6.67001C1.93999 6.59001 2.38999 6.38001 2.80999 5.92001Z" fill="white"/>
<path id="Vector_25" d="M2.19001 6.69999H2.09001C2.09001 6.63999 2.19001 6.55999 2.33001 6.44999C2.51307 6.30812 2.68369 6.15088 2.84001 5.97999L3.40001 6.11999C3.09623 6.4646 2.68308 6.69413 2.23001 6.76999L2.19001 6.69999ZM2.80001 5.92999C2.64669 6.09723 2.47942 6.25112 2.30001 6.38999C2.17001 6.49999 2.07001 6.57999 2.07001 6.62999C2.23001 6.71999 2.82001 6.49999 3.32001 6.01999L2.80001 5.92999Z" fill="#DC1F34"/>
<path id="Vector_26" d="M2.81001 6L3.26001 6.11C3.1201 6.27502 2.94738 6.40914 2.75285 6.50382C2.55831 6.59851 2.34621 6.65169 2.13001 6.66C2.00001 6.58 2.40001 6.42 2.81001 6Z" fill="white"/>
<path id="Vector_27" d="M2.19999 6.66C2.1741 6.66915 2.14587 6.66915 2.11999 6.66C2.11999 6.66 2.17999 6.57 2.29999 6.48C2.48089 6.33552 2.64825 6.17486 2.79999 6L3.25999 6.12C2.98152 6.42471 2.60773 6.62571 2.19999 6.69V6.66ZM2.79999 6C2.64635 6.17354 2.47547 6.33102 2.28999 6.47C2.17999 6.55 2.10999 6.6 2.10999 6.63C2.13885 6.64168 2.17112 6.64168 2.19999 6.63C2.60325 6.56536 2.97495 6.37249 3.25999 6.08L2.79999 6Z" fill="#DC1F34"/>
<path id="Vector_28" d="M4.28998 4.93001C4.29566 4.90365 4.29566 4.87638 4.28998 4.85001C4.28998 4.85001 4.28998 4.85001 4.35998 4.85001C4.36591 4.82705 4.36591 4.80297 4.35998 4.78001V4.73001C4.35998 4.73001 4.35998 4.73001 4.35998 4.79001H4.30998L4.28998 4.93001Z" fill="#DC1F34"/>
<path id="Vector_29" d="M4.09999 5.08001H3.99999L4.09999 5.00001H4.19999H4.25999C4.23728 4.99239 4.2127 4.99239 4.18999 5.00001H4.08999L3.98999 5.10001L4.09999 5.08001Z" fill="#DC1F34"/>
<path id="Vector_30" d="M3.89996 5.38999H3.99996V5.20999H3.91996V5.28999L3.89996 5.38999Z" fill="#DC1F34"/>
<path id="Vector_31" d="M3.48996 5.77999L3.45996 5.76999L3.54996 5.73999L3.58996 5.69999V5.65999V5.63999V5.62999L3.56996 5.60999L3.58996 5.62999L3.56996 5.61999L3.54996 5.57999L3.60996 5.65999H3.62996L3.63996 5.67999L3.68996 5.64999L3.67996 5.66999L3.63996 5.68999L3.59996 5.65999V5.70999L3.48996 5.77999Z" fill="#DC1F34"/>
<path id="Vector_32" d="M3.19 6.00001V5.92001V5.84001L3.26 5.91001H3.35C3.35 5.86001 3.35 5.85001 3.35 5.83001V5.76001V5.81001H3.27H3.2V6.00001H3.19Z" fill="#DC1F34"/>
<path id="Vector_33" d="M2.35999 6.53001C2.35999 6.53001 2.35999 6.53001 2.40999 6.53001C2.40531 6.51029 2.40531 6.48974 2.40999 6.47001C2.40312 6.4506 2.40312 6.42942 2.40999 6.41001H2.45999C2.48972 6.40434 2.52025 6.40434 2.54999 6.41001C2.54999 6.41001 2.54999 6.41001 2.48999 6.41001H2.41999C2.41472 6.41913 2.41195 6.42948 2.41195 6.44001C2.41195 6.45054 2.41472 6.46089 2.41999 6.47001L2.35999 6.53001ZM2.85999 6.32001C2.85999 6.32001 2.85999 6.32001 2.85999 6.26001C2.85999 6.20001 2.85999 6.26001 2.85999 6.20001C2.83741 6.20845 2.81256 6.20845 2.78999 6.20001H2.72999H2.77999C2.77431 6.22638 2.77431 6.25365 2.77999 6.28001H2.99999C3.02256 6.28845 3.04741 6.28845 3.06999 6.28001C3.06999 6.28001 3.06999 6.28001 3.06999 6.22001C3.05037 6.21445 3.0296 6.21445 3.00999 6.22001H2.84999C2.84999 6.22001 2.84999 6.22001 2.89999 6.22001H2.95999C2.95999 6.22001 2.95999 6.22001 3.01999 6.22001L2.99999 6.20001H2.93999V6.27001L2.85999 6.32001Z" fill="#DC1F34"/>
<path id="Vector_34" d="M5.91996 3.42C6.43414 2.73939 6.80186 1.95969 6.99996 1.13C6.35651 1.71683 5.83345 2.42331 5.45996 3.21L5.91996 3.42Z" fill="white"/>
<path id="Vector_35" d="M5.91996 3.43L5.45996 3.21C5.82719 2.43209 6.32812 1.72469 6.93996 1.12C6.73727 1.92772 6.39915 2.69526 5.93996 3.39L5.91996 3.43ZM6.99996 1.16C6.36682 1.74215 5.84793 2.4374 5.46996 3.21L5.91996 3.41C6.39144 2.71879 6.75557 1.9602 6.99996 1.16Z" fill="#DC1F34"/>
<path id="Vector_36" d="M5.86997 3.38999C6.32121 2.72343 6.65911 1.98682 6.86997 1.20999C6.29636 1.79502 5.82333 2.47079 5.46997 3.20999L5.86997 3.38999Z" fill="white"/>
<path id="Vector_37" d="M5.87998 3.39999C6.30544 2.72633 6.64159 2.00025 6.87998 1.23999C6.30072 1.8203 5.82697 2.49708 5.47998 3.23999C5.8314 2.49966 6.30465 1.82359 6.87998 1.23999C6.67014 2.02341 6.33225 2.76676 5.87998 3.43999V3.39999Z" fill="#DC1F34"/>
<path id="Vector_38" d="M5.76001 2.79001L5.51001 3.23001L5.87001 3.39001L6.13001 3.00001L5.76001 2.79001Z" fill="white"/>
<path id="Vector_39" d="M5.88 3.41001L5.5 3.23001L5.59 3.07001C5.59 2.97001 5.7 2.87001 5.75 2.79001L6.13 3.00001C6.09078 3.09193 6.0474 3.18202 6 3.27001L5.93 3.41001H5.88ZM5.76 2.80001C5.76 2.88001 5.65 2.98001 5.6 3.08001L5.51 3.23001L5.87 3.39001L5.94 3.27001C6 3.16001 6.06 3.05001 6.12 2.96001L5.76 2.80001Z" fill="#DC1F34"/>
<path id="Vector_40" d="M5.79001 2.84C5.70001 2.97 5.65001 3.08 5.57001 3.22L5.84001 3.35C5.93001 3.2 6.00001 3.1 6.06001 3L5.79001 2.84Z" fill="white"/>
<path id="Vector_41" d="M5.85 3.35999L5.56 3.22999L5.64 3.06999L5.78 2.82999L6.07 2.99999C6.07 3.08999 5.98 3.15999 5.94 3.23999L5.85 3.39999V3.35999ZM5.79 2.83999C5.79 2.92999 5.7 2.99999 5.66 3.07999L5.57 3.22999L5.84 3.33999L5.92 3.19999L6.06 2.99999L5.79 2.87999V2.83999Z" fill="#DC1F34"/>
<path id="Vector_42" d="M5.99001 3L5.81001 2.91L5.64001 3.19L5.83001 3.28L5.99001 3Z" fill="white"/>
<path id="Vector_43" d="M5.83001 3.29L5.64001 3.2L5.80001 2.91L6.00001 3L5.84001 3.31L5.83001 3.29ZM5.83001 2.92L5.68001 3.2L5.85001 3.27L6.00001 3L5.80001 2.92H5.83001Z" fill="#DC1F34"/>
<path id="Vector_44" d="M5.64996 3.19999L5.97996 2.98999L5.99996 2.99999L5.64996 3.19999Z" fill="#DC1F34"/>
<path id="Vector_45" d="M5.81999 3.28L5.79999 2.91L5.83999 3.28H5.81999Z" fill="#DC1F34"/>
<path id="Vector_46" d="M6.81 1.57001L6.63 1.48001L6.83 1.55001L6.81 1.57001Z" fill="#DC1F34"/>
<path id="Vector_47" d="M6.79999 1.33999C6.79999 1.33999 6.79999 1.33999 6.85999 1.33999C6.91999 1.33999 6.85999 1.33999 6.85999 1.27999C6.85999 1.21999 6.85999 1.27999 6.79999 1.27999V1.33999Z" fill="#DB001E"/>
<path id="Vector_48" d="M5.64997 4.77001C7.21997 6.31001 7.88997 6.50001 7.56997 6.63001C7.24997 6.76001 6.24997 6.00001 5.18997 4.91001C4.12997 3.82001 3.49997 2.91001 3.81997 2.79001C4.13997 2.67001 3.97997 3.14001 5.64997 4.79001V4.77001Z" fill="white"/>
<path id="Vector_49" d="M7.50001 6.64C6.59888 6.26309 5.80522 5.6687 5.19001 4.91C4.26001 3.98 3.67001 3.16 3.73001 2.91C3.73424 2.88928 3.74386 2.87004 3.75791 2.85424C3.77196 2.83843 3.78993 2.82662 3.81001 2.82C3.97001 2.75 4.01001 2.82 4.18001 3.08C4.61085 3.69219 5.10343 4.25849 5.65001 4.77C6.16282 5.27036 6.7037 5.74112 7.27001 6.18C7.54001 6.39 7.67001 6.49 7.66001 6.56C7.65001 6.63 7.66001 6.61 7.58001 6.64H7.50001ZM3.90001 2.78H3.82001C3.7845 2.79603 3.75605 2.82448 3.74001 2.86C3.69001 3.14 4.27001 3.95 5.20001 4.86C6.35001 6.05 7.29001 6.73 7.57001 6.62C7.57001 6.62 7.64001 6.62 7.64001 6.56C7.64001 6.5 7.51002 6.39 7.26002 6.19C6.69115 5.75422 6.1501 5.28331 5.64001 4.78C5.08818 4.25887 4.59523 3.67872 4.17001 3.05C4.00001 2.86 4.00001 2.78 3.90001 2.78Z" fill="#DC1F34"/>
<path id="Vector_50" d="M6.99998 5.89001L6.41998 6.00001C6.93998 6.48001 7.51998 6.69001 7.67998 6.60001C7.83998 6.51001 7.38998 6.35001 6.99998 5.89001Z" fill="white"/>
<path id="Vector_51" d="M7.57997 6.67C7.12797 6.57857 6.7176 6.34357 6.40997 6L6.99997 5.88C7.15845 6.04565 7.32891 6.1994 7.50997 6.34C7.65997 6.46 7.75997 6.54 7.74997 6.6C7.7142 6.61148 7.67574 6.61148 7.63997 6.6L7.57997 6.67ZM6.99997 5.89L6.41997 6C6.73531 6.31698 7.1401 6.52985 7.57997 6.61H7.67997C7.67997 6.61 7.57997 6.48 7.43997 6.37C7.28072 6.22201 7.13358 6.0615 6.99997 5.89Z" fill="#DC1F34"/>
<path id="Vector_52" d="M6.99999 6L6.54999 6.11C6.68823 6.27695 6.86059 6.41239 7.05548 6.50725C7.25038 6.60211 7.46331 6.65419 7.67999 6.66C7.77999 6.55 7.37999 6.39 6.99999 6Z" fill="white"/>
<path id="Vector_53" d="M7.57001 6.63C7.1655 6.56262 6.79365 6.36617 6.51001 6.07L7.00001 5.94C7.16438 6.10696 7.34159 6.26076 7.53001 6.4C7.65001 6.49 7.72001 6.54 7.71001 6.59L7.57001 6.63ZM7.00001 6L6.56001 6.12C7.08001 6.59 7.56001 6.71 7.68001 6.65C7.80001 6.59 7.68001 6.55 7.53001 6.46C7.33882 6.32425 7.16132 6.17018 7.00001 6Z" fill="#DC1F34"/>
<path id="Vector_54" d="M5.88996 5.36001H5.82996L5.88996 5.26001H5.80996H5.64996V5.32001L5.77996 5.40001V5.46001L5.88996 5.36001Z" fill="#DC1F34"/>
<path id="Vector_55" d="M6.11 5.57C6.11 5.57 6.11 5.57 6.11 5.52V5.47H6H6.06C6.06472 5.48633 6.06472 5.50367 6.06 5.52V5.57H6.11Z" fill="#DC1F34"/>
<path id="Vector_56" d="M6.31001 5.74001H6.25001L6.20001 5.70001L6.17001 5.64001L6.15001 5.65001L6.14001 5.64001L6.20001 5.57001L6.19001 5.59001H6.20001L6.19001 5.61001H6.20001L6.18001 5.64001L6.20001 5.67001L6.25001 5.73001L6.29001 5.74001L6.41001 5.69001L6.42001 5.71001L6.39001 5.70001V5.71001L6.31001 5.74001Z" fill="#DC1F34"/>
<path id="Vector_57" d="M6.59998 6V5.89L6.49998 5.95H6.40998L6.34998 5.88V5.99H6.41998H6.48998V6.04V6H6.59998Z" fill="#DC1F34"/>
<path id="Vector_58" d="M7.41997 6.49999C7.3974 6.50842 7.37254 6.50842 7.34997 6.49999C7.3447 6.49087 7.34193 6.48052 7.34193 6.46999C7.34193 6.45945 7.3447 6.44911 7.34997 6.43999C7.35553 6.42037 7.35553 6.3996 7.34997 6.37999C7.33735 6.37448 7.32373 6.37164 7.30997 6.37164C7.2962 6.37164 7.28258 6.37448 7.26997 6.37999H7.07997L7.13997 6.27999V6.21999V6.26999C7.13997 6.26999 7.13997 6.26999 7.13997 6.32999H6.85997V6.22999C6.85997 6.22999 6.85997 6.22999 6.85997 6.17999H6.77997C6.77997 6.17999 6.77997 6.17999 6.83997 6.17999C6.84781 6.17639 6.85634 6.17453 6.86497 6.17453C6.8736 6.17453 6.88212 6.17639 6.88997 6.17999H6.94997C6.94997 6.17999 6.89997 6.17999 6.87997 6.17999H6.81997C6.81997 6.17999 6.81997 6.17999 6.88997 6.17999H6.94997C6.94997 6.17999 6.94997 6.17999 6.94997 6.23999C6.94997 6.23999 6.94997 6.18999 6.94997 6.17999H6.99997V6.32999H7.06997H7.12997C7.13683 6.3494 7.13683 6.37058 7.12997 6.38999C7.13729 6.40019 7.14123 6.41243 7.14123 6.42499C7.14123 6.43755 7.13729 6.44979 7.12997 6.45999H7.18997L7.41997 6.49999Z" fill="#DC1F34"/>
<path id="Vector_59" d="M3.85999 3.39001C3.3742 2.70273 3.03391 1.92347 2.85999 1.10001C3.46846 1.69932 3.96314 2.40407 4.31999 3.18001L3.85999 3.39001Z" fill="white"/>
<path id="Vector_60" d="M3.84999 3.40002C3.37934 2.7016 3.02477 1.93166 2.79999 1.12002C3.4217 1.71003 3.93604 2.40371 4.31999 3.17002L3.84999 3.40002ZM2.84999 1.11002C3.04154 1.92152 3.3805 2.69095 3.84999 3.38002L4.29999 3.17002C3.92905 2.40825 3.43585 1.71237 2.83999 1.11002H2.84999Z" fill="#DC1F34"/>
<path id="Vector_61" d="M3.89996 3.36999C3.4474 2.70055 3.10944 1.96043 2.89996 1.17999C3.47002 1.76797 3.94262 2.44312 4.29996 3.17999L3.89996 3.36999Z" fill="white"/>
<path id="Vector_62" d="M3.89996 3.37C3.46781 2.69286 3.13129 1.95926 2.89996 1.19C3.11882 1.96079 3.45618 2.69287 3.89996 3.36V3.37ZM4.27996 3.19C3.90973 2.50782 3.48149 1.85876 2.99996 1.25C3.48927 1.85309 3.91801 2.50289 4.27996 3.19Z" fill="#DC1F34"/>
<path id="Vector_63" d="M4 2.76001L4.25 3.20001L3.88 3.37001L3.63 2.93001L4 2.76001Z" fill="white"/>
<path id="Vector_64" d="M3.90001 3.38L3.80001 3.21C3.74001 3.12 3.69001 3.02 3.64001 2.93L4.00001 2.75L4.18001 3.06L4.26001 3.19L3.88001 3.38H3.90001ZM4.00001 2.77L3.64001 2.94C3.70001 3.02 3.75001 3.11 3.81001 3.2L3.90001 3.36L4.26001 3.19L4.18001 3.07C4.12001 2.97 4.06001 2.86 4.00001 2.77Z" fill="#DC1F34"/>
<path id="Vector_65" d="M3.99997 2.81L4.21997 3.19L3.93997 3.32L3.71997 2.93L3.99997 2.81Z" fill="white"/>
<path id="Vector_66" d="M3.92997 3.32999L3.84997 3.18999L3.69997 2.93999L3.99997 2.79999C4.04675 2.86435 4.09014 2.93111 4.12997 2.99999L4.21997 3.14999L3.92997 3.28999V3.32999ZM3.92997 2.80999L3.65997 2.93999C3.71705 3.01534 3.76725 3.09566 3.80997 3.17999L3.88997 3.30999L4.15997 3.18999L4.06997 3.04999L3.99997 2.80999H3.92997Z" fill="#DC1F34"/>
<path id="Vector_67" d="M3.77997 2.96L3.96997 2.88L4.12997 3.16L3.94997 3.25L3.77997 2.96Z" fill="white"/>
<path id="Vector_68" d="M3.99997 3.26L3.77997 3L3.99997 2.87L4.17997 3.16L3.99997 3.26ZM3.99997 2.88L3.78997 3L3.99997 3.24L4.17997 3.16L3.99997 2.88Z" fill="#DC1F34"/>
<path id="Vector_69" d="M4.13997 3.15999L3.77997 2.96999L3.78997 2.95999L4.13997 3.15999Z" fill="#DC1F34"/>
<path id="Vector_70" d="M2.99998 1.29999C2.99998 1.29999 2.99998 1.29999 2.99998 1.35999C3.00387 1.37304 3.00387 1.38694 2.99998 1.39999C2.99219 1.38075 2.99219 1.35923 2.99998 1.33999C2.99609 1.32694 2.99609 1.31304 2.99998 1.29999Z" fill="#DB001E"/>
<path id="Vector_71" d="M3 1.41001C3 1.41001 2.95 1.41001 3 1.34001C3.00254 1.34985 3.00254 1.36017 3 1.37001C2.99063 1.37446 2.98038 1.37676 2.97 1.37676C2.95963 1.37676 2.94938 1.37446 2.94 1.37001L3 1.41001Z" fill="#DC1F34"/>
<path id="Vector_72" d="M4.41998 2.76999C4.41998 3.76999 4.41998 4.15999 4.34998 4.20999C4.27998 4.25999 2.34998 4.20999 2.34998 4.49999C2.34998 4.78999 3.96998 5.07999 4.45998 5.07999C4.94998 5.07999 5.45998 4.78999 5.45998 4.20999V2.76999H4.41998Z" fill="white"/>
<path id="Vector_73" d="M4.41999 5.08999C3.93999 5.08999 2.29999 4.79999 2.29999 4.49999C2.29999 4.19999 3.29999 4.25999 3.86999 4.23999C4.02634 4.25412 4.18364 4.25412 4.33999 4.23999C4.40999 4.23999 4.40999 3.83999 4.40999 2.99999V2.79999H5.40999V4.20999C5.40999 4.79999 5.07999 5.08999 4.40999 5.08999H4.41999ZM5.41999 2.76999H4.41999V2.99999C4.41999 3.86999 4.41999 4.19999 4.34999 4.25999C4.19027 4.27335 4.02971 4.27335 3.86999 4.25999C3.28999 4.25999 2.31999 4.31999 2.31999 4.50999C2.31999 4.69999 3.88999 5.07999 4.41999 5.07999C4.94999 5.07999 5.41999 4.79999 5.41999 4.21999V2.76999Z" fill="#DC1F34"/>
<path id="Vector_74" d="M4.41998 3.06V3.21C4.7519 3.25347 5.08807 3.25347 5.41998 3.21V3.06C5.08886 3.11429 4.75111 3.11429 4.41998 3.06Z" fill="white"/>
<path id="Vector_75" d="M4.89998 3.25C4.74015 3.26025 4.57982 3.26025 4.41998 3.25V3.06C4.75196 3.10258 5.08801 3.10258 5.41998 3.06V3.22C5.25697 3.23447 5.093 3.23447 4.92998 3.22L4.89998 3.25ZM4.41998 3.07V3.21C4.75191 3.25336 5.08806 3.25336 5.41998 3.21V3.06C5.08933 3.11979 4.75064 3.11979 4.41998 3.06V3.07Z" fill="#DC1F34"/>
<path id="Vector_76" d="M4.41998 2.76999V2.91999C4.7519 2.96346 5.08807 2.96346 5.41998 2.91999V2.76999C5.08886 2.82428 4.75111 2.82428 4.41998 2.76999Z" fill="white"/>
<path id="Vector_77" d="M4.89998 2.99999C4.74015 3.01024 4.57982 3.01024 4.41998 2.99999V2.76999C4.75196 2.81246 5.088 2.81246 5.41998 2.76999V2.91999C5.24958 2.96309 5.07546 2.98988 4.89998 2.99999ZM4.41998 2.81999V2.95999C4.75191 3.00335 5.08806 3.00335 5.41998 2.95999V2.76999C5.08984 2.83521 4.75013 2.83521 4.41998 2.76999V2.81999Z" fill="#DC1F34"/>
<path id="Vector_78" d="M4.41998 2.92001V3.06001C4.75111 3.11431 5.08886 3.11431 5.41998 3.06001V2.92001C5.08807 2.96349 4.7519 2.96349 4.41998 2.92001Z" fill="white"/>
<path id="Vector_79" d="M4.89998 3.11001C4.74015 3.12032 4.57982 3.12032 4.41998 3.11001V2.92001C4.75196 2.9626 5.08801 2.9626 5.41998 2.92001V3.07001C5.25696 3.08428 5.093 3.08428 4.92998 3.07001L4.89998 3.11001ZM4.41998 2.93001V3.06001C4.75191 3.10337 5.08806 3.10337 5.41998 3.06001V2.92001C5.08886 2.97431 4.75111 2.97431 4.41998 2.92001V2.93001Z" fill="#DC1F34"/>
<path id="Vector_80" d="M4.41998 3.20999V3.34999C4.75111 3.40429 5.08886 3.40429 5.41998 3.34999V3.20999C5.08807 3.25347 4.7519 3.25347 4.41998 3.20999Z" fill="white"/>
<path id="Vector_81" d="M4.89998 3.38999C4.74015 3.40024 4.57982 3.40024 4.41998 3.38999V3.20999C4.75196 3.25257 5.08801 3.25257 5.41998 3.20999V3.35999C5.25697 3.37447 5.093 3.37447 4.92998 3.35999L4.89998 3.38999ZM4.41998 3.21999V3.34999C4.75191 3.39335 5.08806 3.39335 5.41998 3.34999V3.20999C5.08933 3.26978 4.75064 3.26978 4.41998 3.20999V3.21999Z" fill="#DC1F34"/>
<path id="Vector_82" d="M5.38997 4.26999L4.40997 3.49999L4.41997 3.48999L5.38997 4.26999Z" fill="#DC1F34"/>
<path id="Vector_83" d="M5.39001 4.17999L4.51001 3.49999L4.52001 3.48999L5.39001 4.17999Z" fill="#DC1F34"/>
<path id="Vector_84" d="M5.39 4.08999L4.63 3.52999L4.65 3.51999L5.39 4.08999Z" fill="#DC1F34"/>
<path id="Vector_85" d="M5.38998 4.00999L4.72998 3.52999L4.73998 3.51999L5.38998 4.00999Z" fill="#DC1F34"/>
<path id="Vector_86" d="M5.39002 3.91999L4.83002 3.52999L4.84002 3.51999L5.39002 3.91999Z" fill="#DC1F34"/>
<path id="Vector_87" d="M5.38999 3.82999L4.92999 3.52999L4.93999 3.51999L5.38999 3.82999Z" fill="#DC1F34"/>
<path id="Vector_88" d="M5.38996 3.74999L5.01996 3.52999L5.02996 3.51999L5.38996 3.74999Z" fill="#DC1F34"/>
<path id="Vector_89" d="M5.38997 4.35001L4.40997 3.59001L4.41997 3.57001L5.38997 4.35001Z" fill="#DC1F34"/>
<path id="Vector_90" d="M4.32001 4.36999L5.38001 3.48999L5.39001 3.49999L4.32001 4.36999Z" fill="#DC1F34"/>
<path id="Vector_91" d="M4.35999 4.24999L5.27999 3.48999L5.28999 3.49999L4.35999 4.24999Z" fill="#DC1F34"/>
<path id="Vector_92" d="M4.41998 4.10999L5.14998 3.51999L5.15998 3.52999L4.41998 4.10999Z" fill="#DC1F34"/>
<path id="Vector_93" d="M4.41998 4.01999L5.05998 3.51999V3.52999L4.41998 4.01999Z" fill="#DC1F34"/>
<path id="Vector_94" d="M4.41998 3.92999L4.95998 3.51999L4.96998 3.52999L4.41998 3.92999Z" fill="#DC1F34"/>
<path id="Vector_95" d="M4.41998 3.84999L4.85998 3.51999L4.86998 3.52999L4.41998 3.84999Z" fill="#DC1F34"/>
<path id="Vector_96" d="M4.41998 3.75999L4.76998 3.51999V3.52999L4.41998 3.75999Z" fill="#DC1F34"/>
<path id="Vector_97" d="M4.32001 4.45001L5.38001 3.57001L5.39001 3.59001L4.32001 4.45001Z" fill="#DC1F34"/>
<path id="Vector_98" d="M4.32001 4.54L5.38001 3.66L5.39001 3.67L4.32001 4.54Z" fill="#DC1F34"/>
<path id="Vector_99" d="M4.32001 4.63L5.38001 3.75L5.39001 3.76L4.32001 4.63Z" fill="#DC1F34"/>
<path id="Vector_100" d="M4.32001 4.71L5.38001 3.84L5.39001 3.85L4.32001 4.71Z" fill="#DC1F34"/>
<path id="Vector_101" d="M4.32001 4.80001L5.38001 3.92001L5.39001 3.93001L4.32001 4.80001Z" fill="#DC1F34"/>
<path id="Vector_102" d="M4.32001 4.88001L5.38001 4.01001L5.39001 4.02001L4.32001 4.88001Z" fill="#DC1F34"/>
<path id="Vector_103" d="M4.32001 4.97L5.38001 4.09L5.39001 4.11L4.32001 4.97Z" fill="#DC1F34"/>
<path id="Vector_104" d="M4.32001 5.05999L5.38001 4.17999L5.39001 4.18999L4.32001 5.05999Z" fill="#DC1F34"/>
<path id="Vector_105" d="M4.39001 5.08999L5.38001 4.26999L5.39001 4.27999L4.39001 5.08999Z" fill="#DC1F34"/>
<path id="Vector_106" d="M4.47998 5.09001L5.37998 4.35001L5.38998 4.37001L4.47998 5.09001Z" fill="#DC1F34"/>
<path id="Vector_107" d="M4.64996 5.06L5.34996 4.47L5.35996 4.48L4.64996 5.06Z" fill="#DC1F34"/>
<path id="Vector_108" d="M4.73999 5.06L5.30999 4.59L5.31999 4.6L4.73999 5.06Z" fill="#DC1F34"/>
<path id="Vector_109" d="M5.35997 4.41L4.40997 3.67L4.41997 3.66L5.35997 4.41Z" fill="#DC1F34"/>
<path id="Vector_110" d="M5.35997 4.5L4.40997 3.76L4.41997 3.75L5.35997 4.5Z" fill="#DC1F34"/>
<path id="Vector_111" d="M5.31997 4.55999L4.40997 3.84999L4.41997 3.82999L5.31997 4.55999Z" fill="#DC1F34"/>
<path id="Vector_112" d="M5.31997 4.64001L4.40997 3.93001L4.41997 3.92001L5.31997 4.64001Z" fill="#DC1F34"/>
<path id="Vector_113" d="M5.28997 4.70001L4.40997 4.02001L4.41997 4.01001L5.28997 4.70001Z" fill="#DC1F34"/>
<path id="Vector_114" d="M5.26 4.76001L4.38 4.08001L4.39 4.07001L5.26 4.76001Z" fill="#DC1F34"/>
<path id="Vector_115" d="M5.19 4.78999L4.38 4.15999L4.39 4.14999L5.19 4.78999Z" fill="#DC1F34"/>
<path id="Vector_116" d="M5.15998 4.83999L4.34998 4.22999L4.35998 4.20999L5.15998 4.83999Z" fill="#DC1F34"/>
<path id="Vector_117" d="M5.1 4.87999L4.31 4.27999L4.32 4.26999L5.1 4.87999Z" fill="#DC1F34"/>
<path id="Vector_118" d="M5.06 4.93001L4.31 4.37001L4.32 4.35001L5.06 4.93001Z" fill="#DC1F34"/>
<path id="Vector_119" d="M4.97 4.96L4.31 4.45L4.32 4.44L4.97 4.96Z" fill="#DC1F34"/>
<path id="Vector_120" d="M4.41998 3.35001V3.50001C4.7519 3.54348 5.08807 3.54348 5.41998 3.50001V3.35001C5.08886 3.4043 4.75111 3.4043 4.41998 3.35001Z" fill="white"/>
<path id="Vector_121" d="M4.89998 3.54001C4.74035 3.55528 4.57962 3.55528 4.41998 3.54001V3.35001C4.75196 3.39259 5.08801 3.39259 5.41998 3.35001V3.50001C5.25697 3.51448 5.093 3.51448 4.92998 3.50001L4.89998 3.54001ZM4.41998 3.36001V3.50001C4.75224 3.53792 5.08773 3.53792 5.41998 3.50001V3.35001C5.08984 3.41522 4.75013 3.41522 4.41998 3.35001V3.36001Z" fill="#DC1F34"/>
<path id="Vector_122" d="M4.9 4.99L4.31 4.54L4.32 4.53L4.9 4.99Z" fill="#DC1F34"/>
<path id="Vector_123" d="M4.84 5.02002L4.31 4.63002L4.32 4.61002L4.84 5.02002Z" fill="#DC1F34"/>
<path id="Vector_124" d="M4.77 5.05001L4.31 4.71001L4.32 4.70001L4.77 5.05001Z" fill="#DC1F34"/>
<path id="Vector_125" d="M4.65 5.05001L4.31 4.80001L4.32 4.79001L4.65 5.05001Z" fill="#DC1F34"/>
<path id="Vector_126" d="M3.01996 4.85999V4.83999L4.17996 4.23999L3.01996 4.85999Z" fill="#DC1F34"/>
<path id="Vector_127" d="M2.95996 4.82999V4.80999L4.04996 4.23999L2.95996 4.82999Z" fill="#DC1F34"/>
<path id="Vector_128" d="M2.92998 4.76999L2.91998 4.75999L3.92998 4.23999L2.92998 4.76999Z" fill="#DC1F34"/>
<path id="Vector_129" d="M2.90001 4.70999L2.89001 4.69999L3.76001 4.23999L2.90001 4.70999Z" fill="#DC1F34"/>
<path id="Vector_130" d="M2.83002 4.65999V4.63999L3.63002 4.23999L2.83002 4.65999Z" fill="#DC1F34"/>
<path id="Vector_131" d="M2.85998 4.56999L2.84998 4.54999L3.40998 4.26999L2.85998 4.56999Z" fill="#DC1F34"/>
<path id="Vector_132" d="M2.83002 4.50999V4.49999L3.25002 4.26999L2.83002 4.50999Z" fill="#DC1F34"/>
<path id="Vector_133" d="M3.13 4.88999L3.12 4.86999L4.22 4.29999L3.13 4.88999Z" fill="#DC1F34"/>
<path id="Vector_134" d="M3.21996 4.91001L3.20996 4.90001L4.24996 4.35001L3.21996 4.91001Z" fill="#DC1F34"/>
<path id="Vector_135" d="M3.32 4.95L3.31 4.93L4.28 4.41L3.32 4.95Z" fill="#DC1F34"/>
<path id="Vector_136" d="M3.40997 4.98V4.96L4.21997 4.53L3.40997 4.98Z" fill="#DC1F34"/>
<path id="Vector_137" d="M3.53997 4.97999L3.52997 4.95999L4.24997 4.57999L3.53997 4.97999Z" fill="#DC1F34"/>
<path id="Vector_138" d="M3.64 5.00001L3.63 4.99001L4.25 4.67001L3.64 5.00001Z" fill="#DC1F34"/>
<path id="Vector_139" d="M3.73998 5.03001L3.72998 5.02001L4.21998 4.76001L3.73998 5.03001Z" fill="#DC1F34"/>
<path id="Vector_140" d="M3.86999 5.03L3.85999 5.02L4.24999 4.81L3.86999 5.03Z" fill="#DC1F34"/>
<path id="Vector_141" d="M4.34997 4.20999H4.18997C4.13012 4.4969 4.13012 4.79308 4.18997 5.07999H4.34997C4.29012 4.79308 4.29012 4.4969 4.34997 4.20999Z" fill="white"/>
<path id="Vector_142" d="M4.36001 5.09001H4.19001C4.13507 4.79925 4.13507 4.50077 4.19001 4.21001H4.36001C4.3049 4.49739 4.3049 4.79263 4.36001 5.08001V5.09001ZM4.36001 4.21001H4.21001C4.16007 4.49115 4.16007 4.77888 4.21001 5.06001H4.36001C4.30992 4.77553 4.30992 4.48449 4.36001 4.20001V4.21001Z" fill="#DC1F34"/>
<path id="Vector_143" d="M2.44 4.62999V4.60999L2.83 4.32999L2.44 4.62999Z" fill="#DC1F34"/>
<path id="Vector_144" d="M2.83 4.76L2.44 4.43L2.45 4.41L2.83 4.76Z" fill="#DC1F34"/>
<path id="Vector_145" d="M2.99996 4.26999H2.80996C2.75996 4.43972 2.75996 4.62026 2.80996 4.78999L2.99996 4.87999C2.96008 4.67861 2.96008 4.47137 2.99996 4.26999Z" fill="white"/>
<path id="Vector_146" d="M3.00002 4.88999L2.80002 4.82999C2.75514 4.65618 2.75514 4.47381 2.80002 4.29999H3.00002C2.96492 4.50181 2.96492 4.70817 3.00002 4.90999V4.88999ZM3.00002 4.26999H2.81002C2.77006 4.43765 2.77006 4.61234 2.81002 4.77999H2.99002C2.94501 4.58253 2.94501 4.37746 2.99002 4.17999L3.00002 4.26999Z" fill="#DC1F34"/>
<path id="Vector_147" d="M5.37998 2.83001V2.68001C5.32569 2.68874 5.27013 2.67583 5.22525 2.64404C5.18038 2.61225 5.14976 2.56413 5.13998 2.51001H4.65998C4.65018 2.56481 4.61996 2.61386 4.57542 2.64726C4.53088 2.68067 4.47534 2.69594 4.41998 2.69001V2.83001H5.37998Z" fill="white"/>
<path id="Vector_148" d="M5.39001 2.84001H4.39001V2.69001C4.54001 2.69001 4.63001 2.59001 4.63001 2.51001H5.12001C5.12736 2.55741 5.15237 2.60028 5.19001 2.63001C5.23725 2.67046 5.29786 2.69185 5.36001 2.69001V2.85001L5.39001 2.84001ZM5.13001 2.51001H4.66001C4.66001 2.59001 4.57001 2.69001 4.42001 2.69001V2.82001H5.42001V2.68001C5.39189 2.69335 5.36115 2.70027 5.33001 2.70027C5.29888 2.70027 5.26814 2.69335 5.24001 2.68001C5.21932 2.665 5.20228 2.64551 5.19016 2.62301C5.17805 2.6005 5.17116 2.57555 5.17001 2.55001L5.13001 2.51001Z" fill="#DC1F34"/>
<path id="Vector_149" d="M5.1 2.34H4.69V2.51H5.1V2.34Z" fill="white"/>
<path id="Vector_150" d="M5.12 2.52H4.69V2.34H5.1V2.53L5.12 2.52ZM5.12 2.34H4.69V2.5H5.09V2.34H5.12Z" fill="#DC1F34"/>
<path id="Vector_151" d="M5.06997 2.17001H4.71997V2.34001H5.06997V2.17001Z" fill="white"/>
<path id="Vector_152" d="M5.07997 2.35001H4.71997V2.17001H5.06997V2.36001L5.07997 2.35001ZM5.07997 2.17001H4.71997V2.33001H5.04997V2.17001H5.07997Z" fill="#DC1F34"/>
<path id="Vector_153" d="M5.06997 2H4.71997V2.17H5.06997V2Z" fill="white"/>
<path id="Vector_154" d="M5.07997 2.18H4.71997V2H5.06997V2.2L5.07997 2.18ZM5.07997 2H4.71997V2.17H5.04997V2H5.07997Z" fill="#DC1F34"/>
<path id="Vector_155" d="M5.04001 1.76999H4.76001V1.99999H5.04001V1.76999Z" fill="white"/>
<path id="Vector_156" d="M5.00001 1.99999H4.76001V1.76999H5.00001V1.99999ZM5.00001 1.76999H4.76001V1.99999H5.00001V1.76999Z" fill="#DC1F34"/>
<path id="Vector_157" d="M5.05 1.56H4.75V1.77H5.05V1.56Z" fill="white"/>
<path id="Vector_158" d="M5.06 1.77H4.75V1.56H5.06V1.78V1.77ZM5.06 1.56H4.75V1.76H5V1.56H5.06Z" fill="#DC1F34"/>
<path id="Vector_159" d="M4.92001 1.10001C5.14001 1.10001 5.32001 1.22001 5.32001 1.38001C5.32001 1.54001 5.14001 1.65001 4.92001 1.65001C4.70001 1.65001 4.51001 1.53001 4.51001 1.38001C4.51001 1.23001 4.69001 1.10001 4.92001 1.10001Z" fill="white"/>
<path id="Vector_160" d="M4.92001 1.66C4.69001 1.66 4.51001 1.53 4.51001 1.38C4.51001 1.23 4.69001 1.09 4.92001 1.09C5.15001 1.09 5.32001 1.22 5.32001 1.38C5.32001 1.54 5.14001 1.66 4.92001 1.66ZM4.92001 1.11C4.70001 1.11 4.52001 1.23 4.52001 1.38C4.52001 1.53 4.70001 1.64 4.92001 1.64C5.14001 1.64 5.31001 1.52 5.31001 1.38C5.31001 1.24 5.13001 1.11 4.92001 1.11Z" fill="#DC1F34"/>
<path id="Vector_161" d="M5.12 1.35999C5.13843 1.43312 5.17255 1.50137 5.22 1.55999C5.12935 1.61518 5.02605 1.64616 4.92 1.64999C4.86649 1.65654 4.8122 1.65192 4.76056 1.63643C4.70893 1.62094 4.66106 1.59492 4.62 1.55999C4.66744 1.50137 4.70156 1.43312 4.72 1.35999C4.72 1.28999 4.62 1.18999 4.62 1.18999C4.70864 1.13046 4.81321 1.09909 4.92 1.09999C5.02605 1.10383 5.12935 1.13481 5.22 1.18999C5.22 1.18999 5.12 1.28999 5.12 1.35999Z" fill="white"/>
<path id="Vector_162" d="M4.91999 1.66002C4.80936 1.6667 4.69983 1.6349 4.60999 1.57002C4.60999 1.57002 4.69999 1.43002 4.69999 1.36002C4.69999 1.29002 4.60999 1.20002 4.60999 1.19002C4.70078 1.13105 4.80672 1.09967 4.91499 1.09967C5.02325 1.09967 5.12919 1.13105 5.21999 1.19002C5.21999 1.19002 5.11999 1.30002 5.11999 1.37002C5.13786 1.44035 5.17213 1.50546 5.21999 1.56002C5.13548 1.62987 5.02961 1.66869 4.91999 1.67002V1.66002ZM4.61999 1.19002C4.67216 1.23326 4.70754 1.29341 4.71999 1.36002C4.71999 1.44002 4.61999 1.56002 4.61999 1.57002C4.71128 1.62145 4.81536 1.64574 4.91999 1.64002C5.02384 1.64219 5.1256 1.61061 5.20999 1.55002C5.15357 1.50181 5.11778 1.43381 5.10999 1.36002C5.10999 1.28002 5.20999 1.18002 5.20999 1.18002C5.11739 1.13772 5.01678 1.11583 4.91499 1.11583C4.81319 1.11583 4.71258 1.13772 4.61999 1.18002V1.19002Z" fill="#DC1F34"/>
<path id="Vector_163" d="M5.04999 1.36C5.06981 1.44187 5.10364 1.51968 5.14999 1.59C5.08233 1.63547 5.00124 1.65662 4.91999 1.65C4.79999 1.65 4.72999 1.65 4.67999 1.59C4.72634 1.51968 4.76018 1.44187 4.77999 1.36C4.76156 1.28687 4.72743 1.21863 4.67999 1.16C4.75039 1.11228 4.83542 1.09103 4.91999 1.1C5.00124 1.09339 5.08233 1.11454 5.14999 1.16C5.10255 1.21863 5.06843 1.28687 5.04999 1.36Z" fill="white"/>
<path id="Vector_164" d="M4.84996 1.66001C4.81891 1.66402 4.78735 1.66068 4.75782 1.65025C4.72829 1.63983 4.70162 1.62262 4.67996 1.60001C4.72013 1.52421 4.75038 1.44354 4.76996 1.36001C4.75396 1.28789 4.72333 1.21982 4.67996 1.16001C4.71258 1.13177 4.75091 1.1109 4.79232 1.09882C4.83374 1.08674 4.87728 1.08374 4.91996 1.09001C5.00142 1.08075 5.08341 1.10214 5.14996 1.15001C5.10898 1.21478 5.07859 1.28567 5.05996 1.36001C5.07739 1.44102 5.10778 1.51869 5.14996 1.59001C5.11886 1.61745 5.08224 1.63789 5.04256 1.64997C5.00288 1.66205 4.96108 1.66547 4.91996 1.66001H4.84996ZM4.68996 1.16001C4.73741 1.21864 4.77153 1.28688 4.78996 1.36001C4.76977 1.44488 4.736 1.52592 4.68996 1.60001C4.68996 1.60001 4.77996 1.60001 4.84996 1.60001C4.93465 1.6262 5.02528 1.6262 5.10996 1.60001C5.05676 1.52868 5.01927 1.44688 4.99996 1.36001C4.99996 1.28001 5.09996 1.16001 5.09996 1.15001C5.02762 1.13298 4.95231 1.13298 4.87996 1.15001C4.80524 1.12558 4.72468 1.12558 4.64996 1.15001L4.68996 1.16001Z" fill="#DC1F34"/>
<path id="Vector_165" d="M4.50998 1.30002C4.52313 1.29864 4.53641 1.29987 4.54908 1.30366C4.56174 1.30745 4.57353 1.3137 4.58375 1.32207C4.59398 1.33044 4.60245 1.34076 4.60867 1.35242C4.61489 1.36408 4.61873 1.37686 4.61998 1.39002C4.61873 1.40317 4.61489 1.41595 4.60867 1.42761C4.60245 1.43928 4.59398 1.44959 4.58375 1.45796C4.57353 1.46633 4.56174 1.47259 4.54908 1.47637C4.53641 1.48016 4.52313 1.4814 4.50998 1.48002C4.48611 1.48002 4.46322 1.47053 4.44634 1.45366C4.42947 1.43678 4.41998 1.41389 4.41998 1.39002C4.41998 1.36615 4.42947 1.34325 4.44634 1.32638C4.46322 1.3095 4.48611 1.30002 4.50998 1.30002Z" fill="white"/>
<path id="Vector_166" d="M4.50998 1.48C4.49734 1.48141 4.48456 1.48013 4.47246 1.47625C4.46035 1.47236 4.44921 1.46596 4.43977 1.45745C4.43032 1.44895 4.42278 1.43854 4.41765 1.42692C4.41251 1.41529 4.4099 1.40271 4.40997 1.39C4.40997 1.29 4.61997 1.29 4.61997 1.39C4.61873 1.40316 4.61488 1.41594 4.60866 1.4276C4.60244 1.43926 4.59398 1.44957 4.58375 1.45794C4.57352 1.46631 4.56173 1.47257 4.54907 1.47636C4.53641 1.48014 4.52312 1.48138 4.50998 1.48ZM4.50998 1.31C4.48774 1.30986 4.46624 1.31796 4.44963 1.33273C4.43301 1.3475 4.42245 1.3679 4.41998 1.39C4.41998 1.48 4.59997 1.48 4.59997 1.39C4.5975 1.3679 4.58694 1.3475 4.57032 1.33273C4.55371 1.31796 4.53221 1.30986 4.50998 1.31Z" fill="#DC1F34"/>
<path id="Vector_167" d="M5.31998 1.29999C5.34486 1.29986 5.36889 1.30902 5.38738 1.32566C5.40587 1.3423 5.41749 1.36524 5.41998 1.38999C5.41749 1.41474 5.40587 1.43768 5.38738 1.45432C5.36889 1.47096 5.34486 1.48011 5.31998 1.47999C5.29611 1.47999 5.27322 1.47051 5.25634 1.45363C5.23946 1.43675 5.22998 1.41386 5.22998 1.38999C5.22998 1.36612 5.23946 1.34323 5.25634 1.32635C5.27322 1.30947 5.29611 1.29999 5.31998 1.29999Z" fill="white"/>
<path id="Vector_168" d="M5.31996 1.48C5.30682 1.48138 5.29353 1.48014 5.28087 1.47636C5.2682 1.47257 5.25642 1.46631 5.24619 1.45794C5.23596 1.44957 5.22749 1.43926 5.22127 1.4276C5.21506 1.41594 5.21121 1.40316 5.20996 1.39C5.20996 1.29 5.42996 1.29 5.42996 1.39C5.42871 1.40316 5.42487 1.41594 5.41865 1.4276C5.41243 1.43926 5.40396 1.44957 5.39373 1.45794C5.3835 1.46631 5.37172 1.47257 5.35905 1.47636C5.34639 1.48014 5.33311 1.48138 5.31996 1.48ZM5.31996 1.31C5.29773 1.30986 5.27623 1.31796 5.25961 1.33273C5.24299 1.3475 5.23243 1.3679 5.22996 1.39C5.22996 1.48 5.40996 1.48 5.40996 1.39C5.40749 1.3679 5.39693 1.3475 5.38031 1.33273C5.36369 1.31796 5.34219 1.30986 5.31996 1.31Z" fill="#DC1F34"/>
<path id="Vector_169" d="M4.92 1.30002C4.94487 1.29989 4.9689 1.30904 4.9874 1.32569C5.00589 1.34233 5.01751 1.36526 5.02 1.39002C5.01751 1.41477 5.00589 1.43771 4.9874 1.45435C4.9689 1.47099 4.94487 1.48014 4.92 1.48002C4.90685 1.4814 4.89357 1.48016 4.8809 1.47637C4.86824 1.47259 4.85646 1.46633 4.84623 1.45796C4.836 1.44959 4.82753 1.43928 4.82131 1.42761C4.81509 1.41595 4.81125 1.40317 4.81 1.39002C4.81125 1.37686 4.81509 1.36408 4.82131 1.35242C4.82753 1.34076 4.836 1.33044 4.84623 1.32207C4.85646 1.3137 4.86824 1.30745 4.8809 1.30366C4.89357 1.29987 4.90685 1.29864 4.92 1.30002Z" fill="white"/>
<path id="Vector_170" d="M4.92 1.47999C4.85 1.47999 4.81 1.47999 4.81 1.38999C4.81 1.29999 5.02 1.28999 5.02 1.38999C5.02008 1.4027 5.01746 1.41528 5.01233 1.42691C5.00719 1.43853 4.99965 1.44894 4.99021 1.45744C4.98076 1.46594 4.96962 1.47235 4.95752 1.47623C4.94542 1.48012 4.93263 1.4814 4.92 1.47999ZM4.92 1.30999C4.8966 1.30952 4.87378 1.31726 4.85551 1.33188C4.83724 1.3465 4.82467 1.36706 4.82 1.38999C4.82 1.47999 5.01 1.47999 5.01 1.38999C5.00753 1.36789 4.99697 1.34749 4.98035 1.33272C4.96373 1.31795 4.94223 1.30985 4.92 1.30999Z" fill="#DC1F34"/>
<path id="Vector_171" d="M4.91996 1C4.94289 1.00468 4.96345 1.01724 4.97807 1.03552C4.99269 1.05379 5.00044 1.07661 4.99996 1.1C4.99748 1.12475 4.98585 1.14769 4.96736 1.16433C4.94887 1.18097 4.92484 1.19013 4.89996 1.19C4.88682 1.19138 4.87353 1.19014 4.86087 1.18636C4.84821 1.18257 4.83642 1.17631 4.82619 1.16794C4.81596 1.15958 4.8075 1.14926 4.80128 1.1376C4.79506 1.12594 4.79121 1.11316 4.78996 1.1C4.78922 1.08392 4.79237 1.06789 4.79914 1.05328C4.80592 1.03867 4.81612 1.02592 4.82889 1.0161C4.84165 1.00628 4.85659 0.99969 4.87245 0.996888C4.88831 0.994085 4.90461 0.995153 4.91996 1Z" fill="white"/>
<path id="Vector_172" d="M4.92 1.2C4.90605 1.2014 4.89196 1.19985 4.87865 1.19546C4.86534 1.19106 4.8531 1.18392 4.84273 1.17449C4.83236 1.16506 4.82408 1.15356 4.81845 1.14072C4.81281 1.12789 4.80993 1.11401 4.81 1.1C4.81 0.999995 5.02 0.999995 5.02 1.1C5.02 1.11313 5.01741 1.12613 5.01239 1.13826C5.00736 1.1504 5 1.16142 4.99071 1.17071C4.98142 1.17999 4.9704 1.18736 4.95827 1.19238C4.94613 1.19741 4.93313 1.2 4.92 1.2ZM4.92 1.02C4.90817 1.01861 4.89618 1.01958 4.88473 1.02286C4.87327 1.02614 4.86259 1.03166 4.85329 1.0391C4.84398 1.04655 4.83625 1.05576 4.83054 1.06621C4.82482 1.07666 4.82124 1.08815 4.82 1.1C4.82 1.19 5.01 1.19 5.01 1.1C5.01352 1.08708 5.01374 1.07349 5.01064 1.06046C5.00755 1.04744 5.00123 1.0354 4.99228 1.02545C4.98332 1.01549 4.97201 1.00795 4.95938 1.0035C4.94676 0.999057 4.93321 0.997851 4.92 0.999995V1.02Z" fill="#DC1F34"/>
<path id="Vector_173" d="M4.61996 2.66001C4.6372 2.66194 4.65352 2.66881 4.66695 2.6798C4.68038 2.69078 4.69034 2.70542 4.69565 2.72194C4.70095 2.73846 4.70137 2.75616 4.69685 2.77291C4.69233 2.78966 4.68306 2.80474 4.67017 2.81635C4.65727 2.82796 4.64129 2.83559 4.62416 2.83833C4.60703 2.84106 4.58947 2.83879 4.5736 2.83178C4.55773 2.82477 4.54422 2.81333 4.5347 2.79882C4.52519 2.78431 4.52007 2.76736 4.51996 2.75001C4.51988 2.7373 4.5225 2.72472 4.52763 2.71309C4.53277 2.70147 4.5403 2.69106 4.54975 2.68256C4.5592 2.67406 4.57034 2.66765 4.58244 2.66376C4.59454 2.65988 4.60733 2.6586 4.61996 2.66001Z" fill="white"/>
<path id="Vector_174" d="M4.62001 2.84001C4.60687 2.84139 4.59358 2.84015 4.58092 2.83637C4.56825 2.83258 4.55647 2.82632 4.54624 2.81795C4.53601 2.80959 4.52754 2.79927 4.52132 2.78761C4.5151 2.77595 4.51126 2.76317 4.51001 2.75001C4.51001 2.64001 4.73001 2.64001 4.73001 2.75001C4.72876 2.76317 4.72491 2.77595 4.7187 2.78761C4.71248 2.79927 4.70401 2.80959 4.69378 2.81795C4.68355 2.82632 4.67177 2.83258 4.6591 2.83637C4.64644 2.84015 4.63315 2.84139 4.62001 2.84001ZM4.62001 2.66001C4.59614 2.66001 4.57325 2.66949 4.55637 2.68637C4.53949 2.70325 4.53001 2.72614 4.53001 2.75001C4.53001 2.83001 4.72001 2.83001 4.72001 2.75001C4.72009 2.7373 4.71747 2.72472 4.71234 2.71309C4.7072 2.70147 4.69967 2.69106 4.69022 2.68256C4.68077 2.67406 4.66963 2.66765 4.65753 2.66376C4.64543 2.65988 4.63264 2.6586 4.62001 2.66001Z" fill="#DC1F34"/>
<path id="Vector_175" d="M5.18001 2.66C5.19357 2.65528 5.20807 2.65387 5.22228 2.6559C5.2365 2.65792 5.25003 2.66332 5.26173 2.67164C5.27344 2.67996 5.28298 2.69096 5.28957 2.70372C5.29615 2.71649 5.29959 2.73064 5.29959 2.745C5.29959 2.75936 5.29615 2.77351 5.28957 2.78627C5.28298 2.79903 5.27344 2.81003 5.26173 2.81835C5.25003 2.82667 5.2365 2.83207 5.22228 2.8341C5.20807 2.83612 5.19357 2.83472 5.18001 2.83C5.12001 2.83 5.07001 2.83 5.07001 2.75C5.07126 2.73684 5.0751 2.72406 5.08132 2.7124C5.08754 2.70074 5.09601 2.69042 5.10624 2.68206C5.11646 2.67369 5.12825 2.66743 5.14091 2.66364C5.15358 2.65986 5.16686 2.65862 5.18001 2.66Z" fill="white"/>
<path id="Vector_176" d="M5.18 2.84001C5.12 2.84001 5.06 2.84001 5.06 2.75001C5.06 2.66001 5.29 2.64001 5.29 2.75001C5.28875 2.76317 5.2849 2.77595 5.27869 2.78761C5.27247 2.79927 5.264 2.80959 5.25377 2.81795C5.24354 2.82632 5.23175 2.83258 5.21909 2.83637C5.20643 2.84015 5.19314 2.84139 5.18 2.84001ZM5.18 2.66001C5.16737 2.6586 5.15458 2.65988 5.14248 2.66376C5.13038 2.66765 5.11924 2.67406 5.10979 2.68256C5.10034 2.69106 5.0928 2.70147 5.08767 2.71309C5.08253 2.72472 5.07992 2.7373 5.08 2.75001C5.08 2.83001 5.27 2.83001 5.27 2.75001C5.27 2.72614 5.26052 2.70325 5.24364 2.68637C5.22676 2.66949 5.20387 2.66001 5.18 2.66001Z" fill="#DC1F34"/>
<path id="Vector_177" d="M4.65997 2.51001H5.13997L4.89997 2.77001L4.65997 2.51001Z" fill="white"/>
<path id="Vector_178" d="M4.89996 2.79L4.64996 2.52H5.13996L4.89996 2.8V2.79ZM5.12996 2.51H4.65996L4.89996 2.75L5.12996 2.5V2.51Z" fill="#DC1F34"/>
<path id="Vector_179" d="M4.89999 2.59999C4.92287 2.60392 4.94413 2.6144 4.96118 2.63016C4.97822 2.64593 4.99033 2.6663 4.99603 2.68881C5.00173 2.71131 5.00078 2.73499 4.99329 2.75697C4.9858 2.77895 4.9721 2.79828 4.95384 2.81263C4.93559 2.82697 4.91356 2.83571 4.89043 2.83779C4.86731 2.83986 4.84408 2.83519 4.82356 2.82432C4.80304 2.81346 4.78611 2.79687 4.77483 2.77658C4.76354 2.75629 4.75839 2.73316 4.75999 2.70999C4.76495 2.67729 4.78219 2.6477 4.8082 2.62727C4.83421 2.60683 4.86704 2.59708 4.89999 2.59999Z" fill="white"/>
<path id="Vector_180" d="M4.9 2.84C4.88161 2.84136 4.86312 2.83908 4.84561 2.83327C4.82811 2.82747 4.81192 2.81826 4.79798 2.80618C4.78404 2.7941 4.77263 2.77938 4.76439 2.76288C4.75616 2.74637 4.75127 2.7284 4.75 2.71C4.75498 2.67464 4.77329 2.64252 4.80117 2.62022C4.82906 2.59791 4.86441 2.5871 4.9 2.59C4.92742 2.59647 4.952 2.61167 4.97003 2.63331C4.98807 2.65495 4.99858 2.68187 5 2.71C5.00005 2.72795 4.99639 2.74571 4.98924 2.76217C4.98209 2.77863 4.97161 2.79344 4.95846 2.80565C4.94531 2.81786 4.92977 2.82722 4.91283 2.83313C4.89588 2.83904 4.87789 2.84138 4.86 2.84H4.9ZM4.9 2.61C4.82 2.61 4.77 2.66 4.77 2.71C4.77 2.76 5.03 2.84 5.03 2.71C5.02507 2.67995 5.00889 2.6529 4.98475 2.63433C4.96061 2.61576 4.93031 2.60706 4.9 2.61Z" fill="#DC1F34"/>
<path id="Vector_181" d="M4.39996 3.57999H5.06996V3.68999H4.39996V3.60999V3.57999Z" fill="white"/>
<path id="Vector_182" d="M5.06996 3.77H4.39996V3.61H5.06996V3.72V3.77ZM4.39996 3.59V3.72H5.09996V3.61H4.39996V3.59Z" fill="#DC1F34"/>
<path id="Vector_183" d="M5.33998 3.44001C5.31912 3.43693 5.29783 3.4386 5.2777 3.44489C5.25758 3.45119 5.23914 3.46195 5.22375 3.47637C5.20837 3.49079 5.19644 3.50851 5.18886 3.52818C5.18128 3.54786 5.17825 3.569 5.17998 3.59001V3.72001C5.17993 3.74058 5.18412 3.76094 5.19227 3.77982C5.20043 3.7987 5.21238 3.81571 5.22739 3.82978C5.24239 3.84384 5.26013 3.85468 5.2795 3.8616C5.29887 3.86852 5.31946 3.87138 5.33998 3.87001C5.37976 3.87001 5.41791 3.85421 5.44604 3.82608C5.47417 3.79795 5.48998 3.75979 5.48998 3.72001V3.59001C5.49147 3.56993 5.48862 3.54977 5.48161 3.53089C5.4746 3.51201 5.4636 3.49487 5.44936 3.48063C5.43512 3.46639 5.41798 3.45539 5.3991 3.44838C5.38023 3.44137 5.36006 3.43852 5.33998 3.44001ZM5.33998 3.50001C5.27998 3.50001 5.23998 3.50001 5.23998 3.62001V3.69001C5.23998 3.76001 5.23998 3.81001 5.33998 3.81001C5.43998 3.81001 5.42998 3.76001 5.42998 3.69001V3.62001C5.42998 3.55001 5.42998 3.50001 5.33998 3.50001Z" fill="white"/>
<path id="Vector_184" d="M5.33998 3.88C5.31815 3.88137 5.29626 3.87824 5.27568 3.87082C5.2551 3.86339 5.23626 3.85182 5.22032 3.83683C5.20439 3.82183 5.1917 3.80372 5.18304 3.78363C5.17439 3.76354 5.16994 3.74188 5.16998 3.72V3.59C5.16994 3.56812 5.17439 3.54646 5.18304 3.52637C5.1917 3.50628 5.20439 3.48817 5.22032 3.47318C5.23626 3.45818 5.2551 3.44661 5.27568 3.43918C5.29626 3.43176 5.31815 3.42863 5.33998 3.43C5.38339 3.42993 5.42518 3.44646 5.45679 3.47621C5.4884 3.50596 5.50743 3.54667 5.50998 3.59V3.72C5.50743 3.76333 5.4884 3.80405 5.45679 3.83379C5.42518 3.86354 5.38339 3.88008 5.33998 3.88ZM5.33998 3.45C5.32028 3.44864 5.30049 3.45119 5.28177 3.4575C5.26305 3.46381 5.24576 3.47375 5.2309 3.48676C5.21603 3.49977 5.20388 3.51558 5.19514 3.5333C5.1864 3.55102 5.18125 3.57029 5.17998 3.59V3.72C5.18125 3.73971 5.1864 3.75898 5.19514 3.7767C5.20388 3.79442 5.21603 3.81023 5.2309 3.82324C5.24576 3.83625 5.26305 3.84619 5.28177 3.8525C5.30049 3.85881 5.32028 3.86136 5.33998 3.86C5.37809 3.86008 5.4148 3.84566 5.44266 3.81966C5.47052 3.79366 5.48744 3.75802 5.48998 3.72V3.59C5.48744 3.55198 5.47052 3.51634 5.44266 3.49034C5.4148 3.46434 5.37809 3.44992 5.33998 3.45ZM5.33998 3.82C5.3242 3.81874 5.30883 3.81437 5.29475 3.80715C5.28067 3.79992 5.26815 3.78998 5.25793 3.77789C5.2477 3.76581 5.23997 3.75182 5.23517 3.73674C5.23038 3.72165 5.22861 3.70577 5.22998 3.69V3.62C5.22861 3.60423 5.23038 3.58835 5.23517 3.57326C5.23997 3.55818 5.2477 3.54419 5.25793 3.53211C5.26815 3.52002 5.28067 3.51008 5.29475 3.50286C5.30883 3.49563 5.3242 3.49126 5.33998 3.49C5.33998 3.49 5.43998 3.49 5.43998 3.62V3.69C5.43998 3.77 5.38998 3.82 5.33998 3.82ZM5.33998 3.5C5.32552 3.50126 5.31144 3.50536 5.29857 3.51209C5.2857 3.51881 5.27428 3.52801 5.26498 3.53917C5.25569 3.55032 5.24869 3.56321 5.2444 3.57708C5.24011 3.59096 5.23861 3.60554 5.23998 3.62V3.69C5.23505 3.70502 5.23374 3.721 5.23617 3.73662C5.23861 3.75224 5.24471 3.76706 5.25398 3.77987C5.26325 3.79267 5.27543 3.8031 5.28951 3.81029C5.30359 3.81748 5.31917 3.82123 5.33498 3.82123C5.35079 3.82123 5.36638 3.81748 5.38046 3.81029C5.39454 3.8031 5.40671 3.79267 5.41598 3.77987C5.42526 3.76706 5.43136 3.75224 5.43379 3.73662C5.43622 3.721 5.43492 3.70502 5.42998 3.69V3.62C5.42998 3.55 5.42998 3.5 5.33998 3.5Z" fill="#DC1F34"/>
<path id="Vector_185" d="M4.49002 3.47001C4.49002 3.47001 4.40002 3.47001 4.40002 3.59001V3.72001C4.40002 3.79001 4.40002 3.84001 4.49002 3.84001C4.58002 3.84001 4.59002 3.84001 4.59002 3.72001V3.59001C4.59002 3.52001 4.59002 3.47001 4.49002 3.47001ZM4.49002 3.41001C4.44926 3.40993 4.41001 3.42541 4.38027 3.45328C4.35054 3.48116 4.33256 3.51933 4.33002 3.56001V3.75001C4.33256 3.79069 4.35054 3.82886 4.38027 3.85673C4.41001 3.88461 4.44926 3.90009 4.49002 3.90001C4.53184 3.9003 4.57231 3.88516 4.60367 3.85748C4.63504 3.82981 4.6551 3.79154 4.66002 3.75001V3.56001C4.6551 3.51847 4.63504 3.48021 4.60367 3.45253C4.57231 3.42486 4.53184 3.40972 4.49002 3.41001Z" fill="white"/>
<path id="Vector_186" d="M4.49001 3.91C4.4466 3.91007 4.40481 3.89354 4.3732 3.86379C4.34159 3.83404 4.32256 3.79333 4.32001 3.75V3.56C4.32256 3.51667 4.34159 3.47595 4.3732 3.44621C4.40481 3.41646 4.4466 3.39992 4.49001 3.4C4.51234 3.39865 4.53472 3.40172 4.55587 3.40903C4.57701 3.41635 4.5965 3.42776 4.61323 3.44263C4.62995 3.45749 4.64357 3.47551 4.65332 3.49565C4.66306 3.5158 4.66873 3.53766 4.67001 3.56V3.75C4.66873 3.77234 4.66306 3.7942 4.65332 3.81434C4.64357 3.83449 4.62995 3.85251 4.61323 3.86737C4.5965 3.88223 4.57701 3.89365 4.55587 3.90097C4.53472 3.90828 4.51234 3.91135 4.49001 3.91ZM4.49001 3.42C4.4519 3.41991 4.41519 3.43434 4.38733 3.46034C4.35947 3.48634 4.34255 3.52198 4.34001 3.56V3.75C4.34255 3.78802 4.35947 3.82366 4.38733 3.84966C4.41519 3.87566 4.4519 3.89008 4.49001 3.89C4.50971 3.89136 4.5295 3.88881 4.54822 3.8825C4.56694 3.87619 4.58423 3.86625 4.59909 3.85324C4.61396 3.84023 4.62611 3.82442 4.63485 3.8067C4.64359 3.78898 4.64874 3.76971 4.65001 3.75V3.56C4.64874 3.54029 4.64359 3.52102 4.63485 3.5033C4.62611 3.48558 4.61396 3.46977 4.59909 3.45676C4.58423 3.44375 4.56694 3.43381 4.54822 3.4275C4.5295 3.42119 4.50971 3.41864 4.49001 3.42ZM4.49001 3.85C4.45995 3.84507 4.4329 3.82889 4.41433 3.80475C4.39576 3.78061 4.38707 3.75031 4.39001 3.72V3.59C4.38486 3.57353 4.38367 3.55608 4.38651 3.53907C4.38936 3.52205 4.39617 3.50594 4.40639 3.49205C4.41661 3.47815 4.42996 3.46685 4.44535 3.45906C4.46074 3.45127 4.47775 3.44721 4.49501 3.44721C4.51226 3.44721 4.52927 3.45127 4.54466 3.45906C4.56006 3.46685 4.57341 3.47815 4.58363 3.49205C4.59385 3.50594 4.60065 3.52205 4.6035 3.53907C4.60635 3.55608 4.60515 3.57353 4.60001 3.59V3.72C4.60138 3.73577 4.59961 3.75165 4.59482 3.76674C4.59002 3.78182 4.58229 3.79581 4.57206 3.80789C4.56184 3.81998 4.54932 3.82992 4.53524 3.83714C4.52116 3.84437 4.50579 3.84874 4.49001 3.85ZM4.49001 3.47C4.49001 3.47 4.41001 3.53 4.41001 3.59V3.72C4.40529 3.73356 4.40388 3.74806 4.40591 3.76227C4.40793 3.77649 4.41333 3.79002 4.42165 3.80172C4.42997 3.81343 4.44097 3.82297 4.45373 3.82956C4.46649 3.83614 4.48065 3.83958 4.49501 3.83958C4.50937 3.83958 4.52352 3.83614 4.53628 3.82956C4.54904 3.82297 4.56004 3.81343 4.56836 3.80172C4.57668 3.79002 4.58208 3.77649 4.58411 3.76227C4.58613 3.74806 4.58473 3.73356 4.58001 3.72V3.59C4.58001 3.53 4.58001 3.47 4.49001 3.47Z" fill="#DC1F34"/>
<path id="Vector_187" d="M4.24001 3.52C4.22554 3.52125 4.21146 3.52536 4.19859 3.53208C4.18572 3.53881 4.17431 3.54801 4.16501 3.55917C4.15571 3.57032 4.14872 3.58321 4.14443 3.59708C4.14013 3.61096 4.13863 3.62554 4.14001 3.64C4.14001 3.71 4.14001 3.76 4.24001 3.76C4.34001 3.76 4.33001 3.76 4.33001 3.64C4.33001 3.58 4.33001 3.52 4.24001 3.52ZM4.24001 3.52C4.21899 3.51864 4.19791 3.52145 4.17797 3.52826C4.15804 3.53508 4.13965 3.54576 4.12386 3.55969C4.10806 3.57363 4.09517 3.59055 4.08593 3.60948C4.07669 3.62841 4.07128 3.64897 4.07001 3.67V3.7C4.07256 3.74333 4.09159 3.78404 4.1232 3.81379C4.15481 3.84354 4.1966 3.86007 4.24001 3.86C4.28244 3.86 4.32314 3.84314 4.35314 3.81314C4.38315 3.78313 4.40001 3.74243 4.40001 3.7V3.62C4.40005 3.59943 4.39587 3.57907 4.38771 3.56019C4.37956 3.54131 4.3676 3.5243 4.3526 3.51024C4.33759 3.49617 4.31985 3.48534 4.30049 3.47841C4.28112 3.47149 4.26053 3.46863 4.24001 3.47V3.52Z" fill="white"/>
<path id="Vector_188" d="M4.24001 3.86C4.21817 3.86137 4.19628 3.85824 4.1757 3.85081C4.15512 3.84339 4.13628 3.83182 4.12035 3.81682C4.10442 3.80183 4.09173 3.78372 4.08307 3.76363C4.07441 3.74354 4.06996 3.72188 4.07001 3.7V3.62C4.06996 3.59812 4.07441 3.57646 4.08307 3.55637C4.09173 3.53627 4.10442 3.51817 4.12035 3.50317C4.13628 3.48818 4.15512 3.47661 4.1757 3.46918C4.19628 3.46176 4.21817 3.45863 4.24001 3.46C4.28341 3.45992 4.32521 3.47646 4.35681 3.5062C4.38842 3.53595 4.40745 3.57667 4.41001 3.62V3.7C4.40745 3.74333 4.38842 3.78404 4.35681 3.81379C4.32521 3.84354 4.28341 3.86007 4.24001 3.86ZM4.24001 3.47C4.19925 3.46992 4.16 3.4854 4.13026 3.51327C4.10053 3.54115 4.08255 3.57932 4.08001 3.62V3.7C4.08255 3.74068 4.10053 3.77885 4.13026 3.80673C4.16 3.8346 4.19925 3.85008 4.24001 3.85C4.25971 3.85 4.27921 3.84612 4.29741 3.83858C4.31561 3.83104 4.33214 3.81999 4.34607 3.80607C4.36 3.79214 4.37105 3.7756 4.37859 3.7574C4.38613 3.7392 4.39001 3.7197 4.39001 3.7V3.62C4.39001 3.6003 4.38613 3.5808 4.37859 3.5626C4.37105 3.5444 4.36 3.52786 4.34607 3.51393C4.33214 3.5 4.31561 3.48896 4.29741 3.48142C4.27921 3.47388 4.25971 3.47 4.24001 3.47ZM4.24001 3.8C4.22468 3.80006 4.20951 3.79692 4.19547 3.79078C4.18143 3.78464 4.16882 3.77563 4.15846 3.76433C4.14811 3.75303 4.14023 3.73969 4.13533 3.72517C4.13043 3.71065 4.12861 3.69526 4.13001 3.68C4.13001 3.47 4.34001 3.5 4.34001 3.68C4.34001 3.86 4.34001 3.84 4.24001 3.84V3.8ZM4.24001 3.53C4.22685 3.53125 4.21407 3.53509 4.20241 3.54131C4.19075 3.54753 4.18043 3.556 4.17206 3.56623C4.1637 3.57646 4.15744 3.58824 4.15365 3.60091C4.14987 3.61357 4.14863 3.62686 4.15001 3.64C4.15001 3.83 4.32001 3.8 4.32001 3.64C4.32001 3.48 4.32001 3.49 4.24001 3.49V3.53Z" fill="#DC1F34"/>
<path id="Vector_189" d="M3.85 3.45C3.75 3.45 3.67 3.45 3.67 3.58V3.73C3.67 3.8 3.75 3.86 3.85 3.86C3.95 3.86 4 3.8 4 3.73V3.58C4 3.5 3.92 3.45 3.83 3.45H3.85ZM3.85 3.38C3.69 3.38 3.56 3.46 3.56 3.55V3.76C3.56 3.85 3.69 3.93 3.85 3.93C4.01 3.93 4.14 3.85 4.14 3.76V3.55C4.14 3.46 4.01 3.38 3.85 3.38Z" fill="white"/>
<path id="Vector_190" d="M3.84999 3.94C3.67999 3.94 3.54999 3.86 3.54999 3.76V3.55C3.54999 3.45 3.67999 3.37 3.84999 3.37C4.01999 3.37 4.14999 3.45 4.14999 3.55V3.76C4.14999 3.86 4.00999 3.94 3.84999 3.94ZM3.84999 3.39C3.68999 3.39 3.56999 3.46 3.56999 3.55V3.76C3.56999 3.85 3.68999 3.92 3.84999 3.92C4.00999 3.92 4.12999 3.85 4.12999 3.76V3.55C4.12999 3.46 4.00999 3.39 3.84999 3.39ZM3.84999 3.88C3.82764 3.88278 3.80496 3.8811 3.78326 3.87505C3.76157 3.86899 3.7413 3.85869 3.72362 3.84473C3.70594 3.83078 3.69121 3.81345 3.68029 3.79375C3.66936 3.77405 3.66246 3.75238 3.65999 3.73V3.58C3.66246 3.55761 3.66936 3.53594 3.68029 3.51624C3.69121 3.49654 3.70594 3.47922 3.72362 3.46526C3.7413 3.4513 3.76157 3.441 3.78326 3.43495C3.80496 3.42889 3.82764 3.42721 3.84999 3.43C3.88829 3.43429 3.924 3.45147 3.95125 3.47873C3.97851 3.50598 3.99569 3.54169 3.99999 3.58V3.73C3.99495 3.77331 3.97346 3.81304 3.93996 3.84096C3.90645 3.86888 3.8635 3.88285 3.81999 3.88H3.84999ZM3.84999 3.45C3.75999 3.45 3.67999 3.51 3.67999 3.58V3.73C3.67999 3.8 3.75999 3.86 3.84999 3.86C3.93999 3.86 3.99999 3.8 3.99999 3.73V3.58C3.99999 3.51 3.91999 3.45 3.82999 3.45H3.84999Z" fill="#DC1F34"/>
<path id="Vector_191" d="M5.99996 3.47C5.97947 3.46721 5.95862 3.46869 5.93873 3.47434C5.91883 3.47999 5.90032 3.48969 5.88436 3.50284C5.86839 3.51599 5.85532 3.5323 5.84596 3.55074C5.8366 3.56918 5.83115 3.58936 5.82996 3.61V3.76C5.82996 3.83 5.89996 3.89 5.99996 3.89C6.09996 3.89 6.17996 3.83 6.17996 3.76V3.61C6.17749 3.58893 6.17086 3.56855 6.16044 3.55006C6.15002 3.53157 6.13603 3.51534 6.11928 3.50231C6.10252 3.48928 6.08335 3.47972 6.06286 3.47417C6.04238 3.46862 6.021 3.46721 5.99996 3.47ZM5.99996 3.41C5.83996 3.41 5.70996 3.48 5.70996 3.58V3.79C5.70996 3.88 5.83996 3.96 5.99996 3.96C6.15996 3.96 6.28996 3.88 6.28996 3.79V3.58C6.28996 3.48 6.16996 3.41 5.99996 3.41Z" fill="white"/>
<path id="Vector_192" d="M6.00001 3.99999C5.83001 3.99999 5.70001 3.92999 5.70001 3.82999V3.57999C5.70001 3.47999 5.83001 3.39999 6.00001 3.39999C6.17001 3.39999 6.30001 3.47999 6.30001 3.57999V3.78999C6.30001 3.88999 6.17001 3.95999 6.00001 3.95999V3.99999ZM6.00001 3.45999C5.84001 3.45999 5.72001 3.52999 5.72001 3.61999V3.82999C5.72001 3.91999 5.84001 3.98999 6.00001 3.98999C6.16001 3.98999 6.28001 3.91999 6.28001 3.82999V3.57999C6.28001 3.48999 6.16001 3.41999 6.00001 3.41999V3.45999ZM6.00001 3.89999C5.97898 3.90279 5.95759 3.90137 5.93711 3.89583C5.91662 3.89028 5.89745 3.88071 5.8807 3.86769C5.86395 3.85466 5.84995 3.83843 5.83953 3.81994C5.82912 3.80145 5.82248 3.78107 5.82001 3.75999V3.60999C5.83274 3.57234 5.85695 3.53963 5.88924 3.51646C5.92153 3.49328 5.96027 3.48082 6.00001 3.48082C6.03976 3.48082 6.0785 3.49328 6.11079 3.51646C6.14308 3.53963 6.16729 3.57234 6.18001 3.60999V3.75999C6.17754 3.78107 6.17091 3.80145 6.16049 3.81994C6.15007 3.83843 6.13608 3.85466 6.11933 3.86769C6.10258 3.88071 6.0834 3.89028 6.06292 3.89583C6.04243 3.90137 6.02105 3.90279 6.00001 3.89999ZM6.00001 3.48082C5.96178 3.47794 5.9239 3.48897 5.89414 3.51315C5.86438 3.53733 5.84502 3.57198 5.84001 3.60999V3.75999C5.84001 3.82999 5.91001 3.87999 6.00001 3.87999C6.09001 3.87999 6.17001 3.87999 6.17001 3.75999V3.60999C6.17001 3.53999 6.09001 3.48082 6.00001 3.48082Z" fill="#DC1F34"/>
<path id="Vector_193" d="M5.41998 3.57999H5.76998V3.68999H5.41998V3.60999V3.57999Z" fill="white"/>
<path id="Vector_194" d="M5.76998 3.77H5.41998V3.61H5.77998V3.73L5.76998 3.77ZM5.41998 3.59V3.72H5.77998V3.61H5.41998V3.59Z" fill="#DC1F34"/>
<path id="Vector_195" d="M5.06 3.54999H5.26V3.70999H5.06V3.58999V3.54999Z" fill="white"/>
<path id="Vector_196" d="M5.26 3.79H5.06V3.59H5.26V3.75V3.79ZM5.06 3.56V3.75H5.27V3.59H5.07L5.06 3.56Z" fill="#DC1F34"/>
<path id="Vector_197" d="M4 3.54999H4.2V3.70999H4V3.58999V3.54999Z" fill="white"/>
<path id="Vector_198" d="M4.19 3.79H4V3.59H4.2V3.75L4.19 3.79ZM4 3.56V3.75H4.21V3.59H4.01L4 3.56Z" fill="#DC1F34"/>
<path id="Vector_199" d="M3.28998 3.51999H3.68998V3.70999V3.75999H3.28998C3.28998 3.75999 3.28998 3.75999 3.28998 3.70999V3.56999V3.51999Z" fill="white"/>
<path id="Vector_200" d="M3.68998 3.82H3.28998C3.28998 3.82 3.28998 3.82 3.28998 3.76V3.57H3.68998V3.76V3.82ZM3.28998 3.53V3.72H3.68998V3.57L3.28998 3.53Z" fill="#DC1F34"/>
<path id="Vector_201" d="M6.09998 3.54999H6.47998C6.47998 3.54999 6.47998 3.54999 6.47998 3.60999V3.78999H6.09998V3.60999V3.54999Z" fill="white"/>
<path id="Vector_202" d="M6.47998 3.85001H6.09998C6.09998 3.85001 6.09998 3.85001 6.09998 3.79001V3.61001V3.54001H6.47998C6.47998 3.54001 6.47998 3.54001 6.47998 3.61001V3.79001V3.85001ZM6.09998 3.56001V3.74001H6.47998V3.61001L6.09998 3.56001Z" fill="#DC1F34"/>
</g>
</g>
</g>
</g>
</g>
</g>
</g>
</g>
<rect x="0.5" y="0.5" width="32.56" height="18.58" stroke="#D7D7D7"/>
</g>
<defs>
<clipPath id="clip0_77_89454">
<rect width="33.56" height="19.58" fill="white"/>
</clipPath>
</defs>
</svg>
