<svg xmlns="http://www.w3.org/2000/svg" width="21" height="21" viewBox="0 0 21 21" fill="none">
  <g clip-path="url(#clip0_796_56267)">
    <path d="M11.75 4.03418H15.5V7.24043C15.5 7.38464 15.4427 7.52295 15.3407 7.62492C15.2388 7.72689 15.1005 7.78418 14.9562 7.78418H12.2938C12.1495 7.78418 12.0112 7.72689 11.9093 7.62492C11.8073 7.52295 11.75 7.38464 11.75 7.24043V4.03418Z" fill="#383838"/>
    <path d="M18.625 17.1592H8.625C8.12772 17.1592 7.65081 16.9616 7.29917 16.61C6.94754 16.2584 6.75 15.7815 6.75 15.2842V5.28418C6.75 4.7869 6.94754 4.30999 7.29917 3.95835C7.65081 3.60672 8.12772 3.40918 8.625 3.40918H18.625C19.1223 3.40918 19.5992 3.60672 19.9508 3.95835C20.3025 4.30999 20.5 4.7869 20.5 5.28418V15.2842C20.5 15.7815 20.3025 16.2584 19.9508 16.61C19.5992 16.9616 19.1223 17.1592 18.625 17.1592ZM8.625 4.65918C8.45924 4.65918 8.30027 4.72503 8.18306 4.84224C8.06585 4.95945 8 5.11842 8 5.28418V15.2842C8 15.4499 8.06585 15.6089 8.18306 15.7261C8.30027 15.8433 8.45924 15.9092 8.625 15.9092H18.625C18.7908 15.9092 18.9497 15.8433 19.0669 15.7261C19.1842 15.6089 19.25 15.4499 19.25 15.2842V5.28418C19.25 5.11842 19.1842 4.95945 19.0669 4.84224C18.9497 4.72503 18.7908 4.65918 18.625 4.65918H8.625Z" fill="#383838"/>
    <path d="M11.125 14.6592H9.875C9.70924 14.6592 9.55027 14.5933 9.43306 14.4761C9.31585 14.3589 9.25 14.1999 9.25 14.0342C9.25 13.8684 9.31585 13.7094 9.43306 13.5922C9.55027 13.475 9.70924 13.4092 9.875 13.4092H11.125C11.2908 13.4092 11.4497 13.475 11.5669 13.5922C11.6842 13.7094 11.75 13.8684 11.75 14.0342C11.75 14.1999 11.6842 14.3589 11.5669 14.4761C11.4497 14.5933 11.2908 14.6592 11.125 14.6592Z" fill="#383838"/>
    <path d="M4.875 10.9092H3.625C3.45924 10.9092 3.30027 10.8433 3.18306 10.7261C3.06585 10.6089 3 10.4499 3 10.2842C3 10.1184 3.06585 9.95945 3.18306 9.84224C3.30027 9.72503 3.45924 9.65918 3.625 9.65918H4.875C5.04076 9.65918 5.19973 9.72503 5.31694 9.84224C5.43415 9.95945 5.5 10.1184 5.5 10.2842C5.5 10.4499 5.43415 10.6089 5.31694 10.7261C5.19973 10.8433 5.04076 10.9092 4.875 10.9092Z" fill="#383838"/>
    <path d="M4.875 8.40918H2.375C2.20924 8.40918 2.05027 8.34333 1.93306 8.22612C1.81585 8.10891 1.75 7.94994 1.75 7.78418C1.75 7.61842 1.81585 7.45945 1.93306 7.34224C2.05027 7.22503 2.20924 7.15918 2.375 7.15918H4.875C5.04076 7.15918 5.19973 7.22503 5.31694 7.34224C5.43415 7.45945 5.5 7.61842 5.5 7.78418C5.5 7.94994 5.43415 8.10891 5.31694 8.22612C5.19973 8.34333 5.04076 8.40918 4.875 8.40918Z" fill="#383838"/>
    <path d="M4.875 5.90918H1.125C0.95924 5.90918 0.800269 5.84333 0.683058 5.72612C0.565848 5.60891 0.5 5.44994 0.5 5.28418C0.5 5.11842 0.565848 4.95945 0.683058 4.84224C0.800269 4.72503 0.95924 4.65918 1.125 4.65918H4.875C5.04076 4.65918 5.19973 4.72503 5.31694 4.84224C5.43415 4.95945 5.5 5.11842 5.5 5.28418C5.5 5.44994 5.43415 5.60891 5.31694 5.72612C5.19973 5.84333 5.04076 5.90918 4.875 5.90918Z" fill="#383838"/>
  </g>
  <defs>
    <clipPath id="clip0_796_56267">
      <rect width="20" height="20" fill="white" transform="translate(0.5 0.28418)"/>
    </clipPath>
  </defs>
</svg>