<svg xmlns="http://www.w3.org/2000/svg" width="21" height="21" viewBox="0 0 21 21" fill="none">
  <g clip-path="url(#clip0_796_56275)">
    <path d="M9.25 6.53418H11.75V8.40918C11.75 8.57494 11.6842 8.73391 11.5669 8.85112C11.4497 8.96833 11.2908 9.03418 11.125 9.03418H9.875C9.70924 9.03418 9.55027 8.96833 9.43306 8.85112C9.31585 8.73391 9.25 8.57494 9.25 8.40918V6.53418Z" fill="#383838"/>
    <path d="M13 14.6592H8C7.50272 14.6592 7.02581 14.4616 6.67417 14.11C6.32254 13.7584 6.125 13.2815 6.125 12.7842V7.78418C6.125 7.2869 6.32254 6.80998 6.67417 6.45835C7.02581 6.10672 7.50272 5.90918 8 5.90918H13C13.4973 5.90918 13.9742 6.10672 14.3258 6.45835C14.6775 6.80998 14.875 7.2869 14.875 7.78418V12.7842C14.875 13.2815 14.6775 13.7584 14.3258 14.11C13.9742 14.4616 13.4973 14.6592 13 14.6592ZM8 7.15918C7.83424 7.15918 7.67527 7.22503 7.55806 7.34224C7.44085 7.45945 7.375 7.61842 7.375 7.78418V12.7842C7.375 12.9499 7.44085 13.1089 7.55806 13.2261C7.67527 13.3433 7.83424 13.4092 8 13.4092H13C13.1658 13.4092 13.3247 13.3433 13.4419 13.2261C13.5592 13.1089 13.625 12.9499 13.625 12.7842V7.78418C13.625 7.61842 13.5592 7.45945 13.4419 7.34224C13.3247 7.22503 13.1658 7.15918 13 7.15918H8Z" fill="#383838"/>
    <path d="M9.875 12.1592H9.25C9.08424 12.1592 8.92527 12.0933 8.80806 11.9761C8.69085 11.8589 8.625 11.6999 8.625 11.5342C8.625 11.3684 8.69085 11.2094 8.80806 11.0922C8.92527 10.975 9.08424 10.9092 9.25 10.9092H9.875C10.0408 10.9092 10.1997 10.975 10.3169 11.0922C10.4342 11.2094 10.5 11.3684 10.5 11.5342C10.5 11.6999 10.4342 11.8589 10.3169 11.9761C10.1997 12.0933 10.0408 12.1592 9.875 12.1592Z" fill="#383838"/>
    <path d="M19.25 15.4343L18.625 17.9343C18.5982 18.0413 18.5437 18.1392 18.4668 18.2182C18.39 18.2973 18.2936 18.3546 18.1875 18.3843C18.127 18.404 18.0635 18.4124 18 18.4093C17.9177 18.4098 17.8362 18.3941 17.7601 18.363C17.6839 18.3318 17.6147 18.286 17.5563 18.2281L17.1063 17.7843C16.5924 18.2448 16.0309 18.6492 15.4313 18.9906L15.1125 19.1593C13.6889 19.9027 12.106 20.2888 10.5 20.2843C7.84784 20.2843 5.3043 19.2308 3.42893 17.3554C1.55357 15.48 0.5 12.9365 0.5 10.2843C0.49976 9.50328 0.59207 8.72494 0.775 7.96559C0.823213 7.81593 0.926069 7.68993 1.06306 7.61273C1.20004 7.53554 1.3611 7.51281 1.51409 7.54909C1.66709 7.58537 1.8008 7.67798 1.88854 7.80847C1.97628 7.93895 2.01162 8.09771 1.9875 8.25309C1.83011 8.91872 1.75041 9.60036 1.75 10.2843C1.74955 11.815 2.15064 13.319 2.91323 14.6462C3.67581 15.9734 4.77321 17.0773 6.09585 17.8477C7.41849 18.6182 8.9201 19.0282 10.4507 19.0368C11.9814 19.0454 13.4875 18.6523 14.8188 17.8968L14.875 17.8593C15.3559 17.5843 15.8082 17.2618 16.225 16.8968L15.6813 16.3531C15.6009 16.2729 15.5439 16.1724 15.5164 16.0623C15.4889 15.9522 15.4918 15.8366 15.525 15.7281C15.5548 15.622 15.6121 15.5256 15.6911 15.4488C15.7701 15.3719 15.8681 15.3174 15.975 15.2906L18.475 14.6656C18.5819 14.6348 18.6951 14.6331 18.8029 14.6606C18.9107 14.6882 19.0092 14.7441 19.0882 14.8224C19.1672 14.9008 19.2238 14.9988 19.2523 15.1064C19.2807 15.214 19.2799 15.3272 19.25 15.4343Z" fill="#383838"/>
    <path d="M20.5 10.2841C20.5002 11.0652 20.4079 11.8435 20.225 12.6029C20.192 12.7427 20.1119 12.8669 19.998 12.9545C19.8842 13.0422 19.7436 13.0879 19.6 13.0841C19.5523 13.0906 19.504 13.0906 19.4563 13.0841C19.2957 13.0455 19.157 12.945 19.0704 12.8045C18.9837 12.664 18.9562 12.4949 18.9938 12.3341C19.1589 11.6631 19.2449 10.9751 19.25 10.2841C19.2505 8.75344 18.8494 7.24943 18.0868 5.92225C17.3242 4.59506 16.2268 3.49114 14.9042 2.72071C13.5815 1.95028 12.0799 1.54028 10.5493 1.53167C9.01861 1.52305 7.51249 1.91611 6.18126 2.67161C5.67909 2.95768 5.20784 3.29489 4.77501 3.67786L5.31876 4.21536C5.3991 4.29553 5.45609 4.39606 5.48361 4.50617C5.51114 4.61628 5.50817 4.73181 5.47501 4.84036C5.44524 4.94649 5.38793 5.04285 5.3089 5.11969C5.22987 5.19652 5.13193 5.25109 5.02501 5.27786L2.52501 5.90286L2.37501 5.90911C2.29275 5.90958 2.21121 5.89382 2.13506 5.86271C2.05892 5.83161 1.98966 5.78578 1.93126 5.72786C1.84983 5.64835 1.79167 5.54811 1.76303 5.43797C1.73439 5.32783 1.73637 5.21196 1.76876 5.10286L2.39376 2.60286C2.42149 2.49708 2.47649 2.40044 2.55326 2.32257C2.63003 2.2447 2.72589 2.18834 2.83126 2.15911C2.9398 2.12595 3.05533 2.12297 3.16544 2.1505C3.27555 2.17803 3.37608 2.23502 3.45626 2.31536L3.88751 2.78411C4.40544 2.3277 4.9688 1.9256 5.56876 1.58411C7.09004 0.721785 8.81086 0.273463 10.5595 0.283869C12.3082 0.294275 14.0235 0.763046 15.5344 1.64341C17.0454 2.52378 18.299 3.78496 19.1703 5.30112C20.0416 6.81728 20.5001 8.53542 20.5 10.2841Z" fill="#383838"/>
  </g>
  <defs>
    <clipPath id="clip0_796_56275">
      <rect width="20" height="20" fill="white" transform="translate(0.5 0.28418)"/>
    </clipPath>
  </defs>
</svg>