<svg xmlns="http://www.w3.org/2000/svg" width="26" height="15" viewBox="0 0 26 15" fill="none">
  <g clip-path="url(#clip0_348_22543)">
    <mask id="mask0_348_22543" style="mask-type:luminance" maskUnits="userSpaceOnUse" x="0" y="0" width="26" height="15">
      <path d="M25.123 0H0.123047V15H25.123V0Z" fill="white"/>
    </mask>
    <g mask="url(#mask0_348_22543)">
      <path d="M25.123 0H0.123047V15H25.123V0Z" fill="#3D9635"/>
      <mask id="mask1_348_22543" style="mask-type:luminance" maskUnits="userSpaceOnUse" x="0" y="0" width="26" height="15">
        <path d="M25.123 0H0.123047V15H25.123V0Z" fill="white"/>
      </mask>
      <g mask="url(#mask1_348_22543)">
        <path d="M7.19987 4.25184C7.19987 4.60424 7.14027 5.22477 7.4308 5.28606C7.72132 5.34734 7.58723 4.67319 7.71387 4.51997C7.84051 4.36675 7.78092 4.46634 7.78837 4.51997V5.06389C7.78678 5.12556 7.80592 5.1859 7.84256 5.23474C7.8792 5.28359 7.9311 5.31794 7.9895 5.33202C8.07889 5.33202 8.13849 5.33202 8.17573 5.41629L8.22043 6.36624C8.22043 6.36624 8.42901 6.42753 8.44391 5.82998C8.42832 5.59532 8.42832 5.35984 8.44391 5.12518C8.44391 5.05623 8.52585 5.04857 8.58545 5.12518C8.64504 5.20179 8.71953 5.27073 8.86107 5.24009C9.00261 5.20945 9.20374 5.07155 9.21119 4.89535C9.18632 4.73235 9.13601 4.57454 9.0622 4.42804C9.0622 4.42804 9.0622 4.32079 9.0622 4.29014C9.0622 4.2595 9.15904 4.35143 9.17394 4.29014C9.14557 4.17217 9.0801 4.06714 8.98771 3.99137C8.91322 3.92242 8.79403 3.93774 8.75678 4.09096C8.7513 4.28143 8.81504 4.46716 8.93556 4.6119C8.97108 4.69362 8.98643 4.78309 8.98026 4.87237C8.95501 4.89352 8.92344 4.90507 8.89087 4.90507C8.8583 4.90507 8.82673 4.89352 8.80148 4.87237C8.80148 4.87237 8.63014 4.73447 8.63014 4.71149C8.67349 4.57196 8.67349 4.42201 8.63014 4.28248C8.60572 4.20077 8.56514 4.12514 8.51095 4.06032C8.50638 4.0468 8.49782 4.03507 8.48648 4.02678C8.47513 4.01849 8.46155 4.01403 8.44763 4.01403C8.43371 4.01403 8.42014 4.01849 8.40879 4.02678C8.39744 4.03507 8.38889 4.0468 8.38431 4.06032C8.31772 4.2378 8.31772 4.43442 8.38431 4.6119C8.42156 4.73447 8.48115 4.81108 8.45881 4.81108C8.43646 4.81108 8.38431 4.85705 8.34707 4.81108C8.30877 4.62482 8.29872 4.43359 8.31727 4.24418C8.31727 4.10628 8.31727 3.81517 8.19808 3.74622C8.07889 3.67727 8.07144 3.74622 8.04164 3.74622C8.03041 3.8762 8.03041 4.00695 8.04164 4.13692C8.09145 4.34338 8.12631 4.55336 8.14593 4.76512C8.14593 5.05623 7.98205 4.89535 7.9895 4.76512C8.0323 4.57871 8.0323 4.38462 7.9895 4.19821C7.9895 4.1216 7.9299 4.10628 7.86286 4.1216C7.79582 4.13692 7.66173 4.27482 7.62448 4.53529C7.60231 4.62063 7.58735 4.70777 7.57978 4.79576C7.57978 4.926 7.46804 5.02559 7.40845 4.79576C7.34885 4.56593 7.32651 4.15991 7.23711 4.26716" fill="white"/>
        <path d="M8.15357 5.69204L7.2373 6.12871C7.29795 5.96884 7.39895 5.82849 7.52988 5.72211C7.66082 5.61573 7.81697 5.54717 7.98224 5.5235C8.16847 5.5235 8.12378 5.60011 8.17592 5.67672" fill="white"/>
        <path d="M9.31552 3.70789H9.25593C9.23369 3.71404 9.21288 3.72474 9.19475 3.73935C9.17663 3.75396 9.16155 3.77218 9.15042 3.79292C9.1393 3.81366 9.13235 3.83649 9.13 3.86005C9.12765 3.88361 9.12994 3.90742 9.13674 3.93005C9.21868 4.48163 9.27828 4.89532 9.36767 5.46223C9.37086 5.47891 9.37065 5.4961 9.36703 5.51269C9.36342 5.52928 9.35649 5.54492 9.34668 5.55861C9.33687 5.5723 9.3244 5.58374 9.31006 5.59221C9.29572 5.60067 9.27982 5.60598 9.26338 5.60778C9.14419 5.52351 9.11439 5.36264 8.92071 5.3703C8.84117 5.38128 8.76691 5.4174 8.70819 5.47367C8.64947 5.52994 8.6092 5.60357 8.59294 5.68439C8.56674 5.8029 8.56674 5.92595 8.59294 6.04445C8.63285 6.09097 8.68556 6.12393 8.74409 6.13898C8.80261 6.15403 8.8642 6.15045 8.92071 6.12872C9.00265 6.12872 9.07714 5.99849 9.10694 6.02147C9.10694 6.02147 9.10694 6.34323 8.70468 6.56539C8.4514 6.67265 8.25772 6.70329 8.14598 6.49645C8.03424 6.2896 8.14598 5.86825 7.98954 5.98317C7.51278 7.25487 9.11439 7.43873 9.29318 6.03679C9.29318 6.03679 9.34532 5.96018 9.36767 5.96784C9.39002 5.97551 9.36767 5.96784 9.36767 6.02147C9.36767 7.28552 8.13108 7.36979 7.9225 6.97142C7.87192 6.83462 7.8491 6.68862 7.85545 6.54241C7.85545 6.4658 7.85545 6.41984 7.80331 6.40451C7.75116 6.38919 7.69157 6.4658 7.67667 6.63434C7.66572 6.73618 7.66572 6.83894 7.67667 6.94078C7.73626 7.95201 9.28573 7.51534 9.539 6.68797C9.58645 6.43572 9.60148 6.17815 9.5837 5.92188C9.74014 6.09042 9.95617 5.92188 10.0009 5.92188C10.016 5.90734 10.036 5.89926 10.0567 5.89926C10.0775 5.89926 10.0974 5.90734 10.1126 5.92188C10.1427 5.94453 10.1773 5.95986 10.214 5.96671C10.2506 5.97356 10.2883 5.97175 10.3242 5.96142C10.3601 5.95108 10.3932 5.9325 10.4211 5.90707C10.4489 5.88164 10.4708 5.85003 10.4851 5.81463C10.5185 5.63236 10.5408 5.44815 10.5521 5.26304C10.4918 5.2764 10.4339 5.29968 10.3808 5.33199V5.46223C10.3759 5.4686 10.3697 5.47375 10.3626 5.4773C10.3555 5.48084 10.3477 5.48268 10.3398 5.48268C10.3319 5.48268 10.3241 5.48084 10.317 5.4773C10.3099 5.47375 10.3037 5.4686 10.2988 5.46223C10.2988 5.28603 10.1126 5.26304 10.0158 5.53117C9.94872 5.5848 9.83698 5.59246 9.82953 5.53117C9.82208 5.46989 9.76993 5.32433 9.6284 5.4086L9.49431 4.3514C9.5539 4.3514 9.60605 4.39736 9.65819 4.3514C9.5986 4.15988 9.47941 3.77683 9.40492 3.74619H9.36767M8.93561 5.71504C8.94442 5.71279 8.95359 5.7124 8.96256 5.7139C8.97152 5.71541 8.98009 5.71877 8.98776 5.72378C8.99542 5.7288 9.00201 5.73536 9.00713 5.74308C9.01226 5.75079 9.0158 5.7595 9.01755 5.76866C9.0254 5.78264 9.02953 5.79849 9.02953 5.81463C9.02953 5.83076 9.0254 5.84662 9.01755 5.86059C9.01755 5.86059 8.9654 5.86059 8.93561 5.86059C8.92294 5.86731 8.90889 5.87082 8.89464 5.87082C8.88038 5.87082 8.86633 5.86731 8.85366 5.86059C8.85366 5.82229 8.85366 5.79164 8.85366 5.76866H8.90581" fill="white"/>
        <path d="M10.3957 3.67727C10.3589 3.66845 10.3207 3.66845 10.2839 3.67727C10.2463 3.71244 10.2219 3.76016 10.2151 3.81201C10.2082 3.86387 10.2194 3.91653 10.2467 3.96072C10.3137 3.96072 10.3733 4.05265 10.3286 4.09096C10.1573 4.27482 9.71034 4.59658 9.68799 4.6502C9.79923 4.66557 9.91197 4.66557 10.0232 4.6502C10.2128 4.48586 10.3896 4.30657 10.5521 4.11394V4.06031C10.5521 4.06031 10.5521 4.01435 10.5521 3.99137C10.5724 3.97411 10.5888 3.95247 10.6 3.92797C10.6112 3.90347 10.617 3.87672 10.617 3.84964C10.617 3.82256 10.6112 3.79581 10.6 3.77131C10.5888 3.74681 10.5724 3.72516 10.5521 3.70791C10.5084 3.69428 10.4617 3.69428 10.418 3.70791M10.418 3.87645C10.418 3.87645 10.4776 3.87645 10.5 3.93774C10.5223 3.99903 10.5 4.01435 10.5 4.02201C10.5 4.02967 10.4329 4.02201 10.418 3.96072C10.4031 3.89944 10.418 3.88411 10.418 3.87645Z" fill="white"/>
        <path d="M7.26711 6.59604C7.1906 6.71583 7.14264 6.85248 7.1271 6.9949C7.11157 7.13733 7.12891 7.28151 7.17771 7.41575C7.1999 7.44547 7.23008 7.46784 7.2645 7.48009C7.29893 7.49235 7.33609 7.49395 7.3714 7.4847C7.422 7.44364 7.46061 7.38901 7.48295 7.32683C7.5053 7.26465 7.51052 7.19733 7.49803 7.1323C7.49803 7.07101 7.43844 7.06335 7.40119 7.1323C7.36395 7.20125 7.2969 7.17826 7.28945 7.08633C7.2737 6.93867 7.2737 6.78967 7.28945 6.642C7.28945 6.51943 7.28945 6.55773 7.25221 6.642" fill="white"/>
        <path d="M14.5897 6.12875C14.4259 5.76102 14.1949 5.40096 14.1279 5.26307C14.0608 5.12517 13.5319 4.31312 13.4202 4.22119C13.2414 3.99902 13.7107 4.31312 13.3606 3.87645L13.1073 3.65428C13.0552 3.65428 12.9136 3.53937 12.8913 3.65428C12.8722 3.73999 12.8722 3.82904 12.8913 3.91475C12.9255 3.99672 12.9734 4.0719 13.0328 4.13692C13.6026 4.93164 14.1013 5.77779 14.5227 6.66501C14.6046 6.66501 14.5823 6.19769 14.5227 6.13641" fill="white"/>
        <path d="M13.8672 7.36979C13.83 7.4081 13.9492 7.56898 14.0907 7.56898C14.2374 7.54457 14.3754 7.48169 14.4916 7.38642C14.6077 7.29114 14.698 7.16668 14.7537 7.02505C14.8341 6.8982 14.8851 6.75404 14.9027 6.60371C14.9317 5.89468 14.8766 5.18466 14.7388 4.4893C14.7302 4.43862 14.7302 4.38677 14.7388 4.33609C14.7388 4.33609 14.8059 4.33609 14.8357 4.29012C14.8655 4.24416 14.7239 3.88409 14.642 3.73854C14.56 3.59298 14.5973 3.63895 14.5451 3.73854C14.4834 3.86129 14.4551 3.99894 14.4632 4.1369C14.5749 4.97194 14.6122 5.70738 14.6941 6.53476C14.7037 6.62119 14.6825 6.70828 14.6345 6.77991C14.4289 7.02586 14.1751 7.22429 13.8896 7.36213" fill="white"/>
        <path d="M17.1819 7.36212C17.0032 7.46937 17.0032 7.59195 17.1819 7.59195C17.3255 7.60108 17.469 7.57288 17.5992 7.50995C17.7294 7.44703 17.8421 7.3514 17.9269 7.23189C17.9793 7.08211 18.0045 6.92372 18.0014 6.76457C18.0312 5.99581 17.9862 5.2259 17.8673 4.46631C17.862 4.39491 17.862 4.32321 17.8673 4.25181C17.8673 4.25181 17.9641 4.25181 17.9939 4.25181C18.0237 4.25181 17.7853 3.87642 17.6959 3.73853C17.6066 3.60063 17.6959 3.63127 17.6066 3.73853C17.5488 3.86234 17.5305 4.00177 17.5544 4.13689C17.6903 4.99113 17.7724 5.85349 17.8002 6.71861C17.7946 6.79182 17.7795 6.86394 17.7555 6.93311C17.6873 7.04151 17.6045 7.13951 17.5097 7.22423C17.4352 7.28551 17.2639 7.33914 17.2043 7.38511" fill="white"/>
        <path d="M17.3162 6.55006C17.3162 6.34322 17.3162 6.15936 17.3162 5.99848C17.3162 5.8376 17.2417 5.23239 17.2194 5.12514C17.197 5.01789 17.1747 4.80338 17.1374 4.65017C17.1251 4.56124 17.1251 4.47096 17.1374 4.38204C17.1374 4.33607 17.2045 4.38204 17.2343 4.33607C17.2009 4.10038 17.1224 3.87384 17.0033 3.66957C16.9661 3.60829 16.9065 3.62361 16.832 3.73086C16.7575 3.83811 16.7873 3.94537 16.832 4.09092C17.0054 5.01442 17.0803 5.9546 17.0555 6.8948C17.0555 6.97141 17.3162 6.66498 17.3162 6.51942" fill="white"/>
        <path d="M16.0124 5.36266C15.9007 5.36266 15.6697 5.14049 15.6027 5.01792C15.579 4.95639 15.579 4.88792 15.6027 4.8264C15.6399 4.8264 15.707 4.76511 15.7517 4.8264C15.7964 4.88768 15.8038 4.89534 15.7889 4.903C15.774 4.91067 15.8783 4.903 15.8858 4.903C15.8932 4.903 15.8858 4.83406 15.8858 4.78043C15.8902 4.7551 15.9013 4.73154 15.9181 4.7124C15.9348 4.69327 15.9564 4.67933 15.9804 4.67216C16.0044 4.66498 16.0299 4.66486 16.054 4.67181C16.0781 4.67876 16.0998 4.6925 16.1167 4.71148C16.1599 4.78243 16.1807 4.86538 16.1763 4.94897C16.1763 4.98727 16.1167 4.94897 16.0869 4.94897C16.072 4.95667 16.0597 4.96886 16.0518 4.98392C16.0438 4.99898 16.0404 5.01618 16.0422 5.03324C16.0422 5.13283 16.0422 5.28605 16.0422 5.40096" fill="white"/>
        <path d="M13.9643 6.78754C13.9834 6.44052 13.9834 6.09267 13.9643 5.74566C13.9643 5.33963 13.8824 4.56588 13.86 4.43565C13.8228 4.1905 13.9568 4.43565 13.9345 4.32074C13.8748 4.08775 13.7625 3.87252 13.6067 3.69254C13.5546 3.61593 13.562 3.60061 13.4801 3.69254C13.4279 3.85156 13.4279 4.02382 13.4801 4.18284C13.5805 4.6522 13.6477 5.12842 13.6812 5.60776C13.7118 6.11801 13.7118 6.6297 13.6812 7.13994C13.7632 7.13994 13.8973 6.99438 13.9419 6.78754" fill="white"/>
        <path d="M17.6962 6.3279C17.5025 5.99082 17.2046 5.56181 17.1226 5.45456C17.0407 5.34731 16.3777 4.32075 16.2957 4.22882C16.0499 3.96835 16.4075 4.18286 16.2511 3.98367C16.164 3.87678 16.0667 3.77924 15.9605 3.69256C15.9009 3.65426 15.8637 3.58531 15.8488 3.69256C15.8414 3.80224 15.8414 3.9123 15.8488 4.02198C15.8624 4.09636 15.8959 4.16535 15.9456 4.22116C16.6003 5.05919 17.1835 5.95372 17.6888 6.89481C17.7633 6.89481 17.7409 6.42749 17.6888 6.36621" fill="white"/>
        <path d="M15.3272 10.3116C15.2951 10.3178 15.2656 10.3338 15.2424 10.3574C15.2192 10.381 15.2033 10.4112 15.1969 10.4441C15.1905 10.4771 15.1938 10.5112 15.2064 10.5422C15.219 10.5732 15.2403 10.5996 15.2676 10.618C13.4425 10.618 10.6416 10.618 10.0531 10.618C9.71785 10.618 8.65259 10.5797 8.6377 10.5797C8.75433 10.7308 8.90654 10.8489 9.07992 10.9226C9.25329 10.9963 9.4421 11.0233 9.62846 11.0011H15.2602C15.2343 11.0686 15.2269 11.1421 15.2387 11.2137C15.2505 11.2852 15.2811 11.3521 15.3272 11.4071C15.4017 11.4071 15.4315 11.3688 15.4538 11.3305C15.7268 11.3458 16.0003 11.3458 16.2733 11.3305C16.318 11.3918 16.3552 11.4454 16.4297 11.4377C16.5042 11.4301 16.6681 11.3918 16.6755 11.116C16.6755 11.116 16.6755 10.641 16.3552 10.6716H16.087C15.8561 10.6716 15.6848 10.6716 15.424 10.6257C15.424 10.6257 15.4836 10.4725 15.424 10.4265C15.3645 10.3805 15.424 10.4265 15.3645 10.4265C15.3645 10.4265 15.3645 10.3652 15.3645 10.3499M15.4836 11.024C15.7444 11.024 15.9976 11.024 16.2658 11.024C16.2803 11.0439 16.2882 11.0681 16.2882 11.093C16.2882 11.1179 16.2803 11.1421 16.2658 11.1619H15.9902C15.9902 11.093 15.8189 11.1007 15.7891 11.1619C15.6751 11.1734 15.5603 11.1734 15.4464 11.1619C15.4464 11.1619 15.4464 11.047 15.4464 11.024" fill="white"/>
        <path d="M10.7087 3.96834C10.5299 4.48928 10.8055 5.06385 10.9992 5.01022C11.1929 4.9566 11.2301 4.78806 11.2897 4.48928C11.2897 4.40501 11.3568 4.39735 11.3791 4.43566C11.3791 4.84168 11.3791 4.92595 11.5057 5.04853C11.5631 5.10129 11.6374 5.13046 11.7143 5.13046C11.7913 5.13046 11.8655 5.10129 11.9229 5.04853L12.1017 4.87233C12.1107 4.86235 12.1217 4.8544 12.1339 4.84896C12.1461 4.84352 12.1592 4.84072 12.1725 4.84072C12.1857 4.84072 12.1989 4.84352 12.211 4.84896C12.2232 4.8544 12.2342 4.86235 12.2432 4.87233C12.2954 4.91829 12.2879 5.01022 12.3997 5.06385C12.4595 5.08308 12.5232 5.08613 12.5845 5.07271C12.6458 5.05929 12.7027 5.02986 12.7498 4.98724C12.8168 4.87999 12.8243 4.84168 12.8541 4.79572C12.8839 4.74975 12.9807 4.79572 12.9807 4.79572C12.9807 4.79572 12.9286 4.86466 12.9807 4.92595C13.0329 4.98724 13.0478 4.92595 13.0775 4.92595C13.1073 4.92595 13.2787 4.61952 13.2787 4.61952C13.2787 4.61952 13.234 4.53525 13.1967 4.55057L13.085 4.59653C13.0329 4.59653 12.9211 4.63484 12.869 4.55057C12.8168 4.4663 12.787 4.32074 12.787 4.22115C12.787 4.12156 12.72 4.06027 12.787 4.05261C12.8541 4.04495 12.8913 4.05261 12.8988 4.05261C12.9062 4.05261 12.8243 3.82279 12.7498 3.73852C12.7344 3.72058 12.7155 3.70622 12.6943 3.69638C12.6731 3.68654 12.6501 3.68145 12.6269 3.68145C12.6036 3.68145 12.5806 3.68654 12.5594 3.69638C12.5382 3.70622 12.5193 3.72058 12.504 3.73852C12.4444 3.79214 12.4518 3.86109 12.4369 3.92238C12.4282 3.96643 12.429 4.01192 12.4393 4.05561C12.4496 4.0993 12.4691 4.14012 12.4965 4.17519C12.5976 4.32227 12.6451 4.50129 12.6306 4.6808C12.6134 4.71344 12.5873 4.74022 12.5556 4.75791C12.5238 4.77559 12.4878 4.7834 12.4518 4.7804C12.4071 4.7804 12.3252 4.7804 12.2879 4.43566C12.3003 4.17694 12.2701 3.91793 12.1985 3.66957C12.1613 3.57764 12.1389 3.48571 12.0495 3.66957C12.0137 3.71956 11.9903 3.77776 11.9812 3.83915C11.9721 3.90054 11.9777 3.96328 11.9974 4.02197C12.0633 4.20012 12.0838 4.39262 12.057 4.58121L11.9527 4.73443C11.92 4.75817 11.881 4.77092 11.841 4.77092C11.8009 4.77092 11.7619 4.75817 11.7292 4.73443C11.6948 4.71519 11.6653 4.68777 11.6433 4.65446C11.6213 4.62115 11.6073 4.5829 11.6026 4.54291C11.6243 4.33923 11.6243 4.13372 11.6026 3.93004C11.5933 3.91417 11.5802 3.90105 11.5645 3.89193C11.5489 3.88282 11.5312 3.87803 11.5132 3.87803C11.4952 3.87803 11.4775 3.88282 11.4618 3.89193C11.4462 3.90105 11.4331 3.91417 11.4238 3.93004C11.2512 4.12185 11.1372 4.36162 11.096 4.61952C11.0439 4.78806 10.9917 4.74209 10.9545 4.67314C10.9172 4.60419 10.8502 3.90706 10.7459 4.00665" fill="white"/>
        <path d="M11.2971 5.04852C11.2803 5.06979 11.2602 5.08794 11.2375 5.10215C11.2124 5.13237 11.1946 5.16823 11.1856 5.20683C11.1765 5.24542 11.1764 5.28567 11.1853 5.32431C11.237 5.48819 11.2966 5.64927 11.3641 5.80695C11.4318 6.0165 11.4547 6.23863 11.4311 6.45812C11.2914 6.7456 11.0708 6.98318 10.7979 7.13994C10.756 7.16038 10.7102 7.17099 10.6639 7.17099C10.6175 7.17099 10.5717 7.16038 10.5298 7.13994C10.5056 7.12134 10.4862 7.09698 10.4732 7.06896C10.4602 7.04093 10.4541 7.01008 10.4553 6.97906C10.7324 6.82916 10.9566 6.59328 11.0959 6.30491C11.1543 6.14699 11.1543 5.97252 11.0959 5.81461C11.0785 5.72938 11.04 5.65022 10.9842 5.58478C11.0214 5.58478 11.1183 5.63841 11.1332 5.58478C11.1014 5.45513 11.0372 5.33628 10.9469 5.24004C10.933 5.22374 10.9158 5.21068 10.8965 5.20174C10.8772 5.1928 10.8563 5.18817 10.8352 5.18817C10.8141 5.18817 10.7932 5.1928 10.7739 5.20174C10.7546 5.21068 10.7374 5.22374 10.7235 5.24004C10.6415 5.28601 10.6266 5.43923 10.6639 5.58478C10.7011 5.73034 10.8203 5.6997 10.8948 5.9142C10.9171 5.98649 10.9171 6.06408 10.8948 6.13637C10.7508 6.30793 10.5884 6.46213 10.4106 6.59602V6.51941C10.4106 6.45812 10.4106 6.32023 10.4106 6.28959C10.2765 6.38152 10.2318 6.66497 10.202 6.74158C9.85878 6.9395 9.53454 7.17036 9.23358 7.43106C9.11439 7.62258 10.053 7.20889 10.1573 7.16293C10.1573 7.16293 10.1573 7.26252 10.2392 7.33913C10.299 7.41427 10.3786 7.47012 10.4684 7.50001C10.5582 7.5299 10.6545 7.53256 10.7458 7.50766C11.0519 7.38361 11.3125 7.16389 11.4907 6.87947C11.4955 6.86928 11.5022 6.86018 11.5104 6.8527C11.5187 6.84523 11.5283 6.83954 11.5387 6.83596C11.5491 6.83239 11.5602 6.83101 11.5711 6.8319C11.5821 6.8328 11.5927 6.83595 11.6025 6.84117C11.7098 7.02189 11.8628 7.16932 12.0451 7.26779C12.2275 7.36626 12.4323 7.41209 12.6379 7.40041C12.7571 7.25486 12.6975 7.17825 12.6379 7.15526C12.5783 7.13228 12.3847 7.04801 12.3474 6.94842C12.3102 6.84883 12.3474 6.78754 12.4964 6.72625C12.8194 6.69352 13.1387 6.62939 13.4499 6.53473C13.4654 6.41701 13.5007 6.30296 13.5542 6.19765C13.5787 6.16489 13.6126 6.14079 13.651 6.12871H13.5989H12.556C12.8093 6.12871 13.2488 6.01379 13.3009 5.57712C13.3116 5.52471 13.3108 5.47051 13.2985 5.41846C13.2863 5.36641 13.2629 5.31783 13.23 5.27626C13.1972 5.23469 13.1558 5.20117 13.1088 5.17815C13.0617 5.15513 13.0103 5.14318 12.9583 5.14318C12.9062 5.14318 12.8548 5.15513 12.8077 5.17815C12.7607 5.20117 12.7193 5.23469 12.6865 5.27626C12.6536 5.31783 12.6302 5.36641 12.618 5.41846C12.6057 5.47051 12.6049 5.52471 12.6156 5.57712C12.6156 5.63841 12.6156 5.75332 12.6156 5.76865C12.2282 5.80695 11.8111 6.0521 11.7962 6.2283C11.7773 6.21867 11.762 6.203 11.7526 6.18365C11.7432 6.1643 11.7402 6.14232 11.744 6.12105C11.7259 5.79723 11.6341 5.48231 11.4758 5.20174C11.4237 5.14811 11.4013 5.12513 11.3864 5.12513M12.8763 5.51584C12.8893 5.51015 12.9032 5.50721 12.9173 5.50721C12.9314 5.50721 12.9453 5.51015 12.9583 5.51584C13.003 5.54648 13.0253 5.57712 13.0253 5.60777C13.0086 5.61867 12.9892 5.62446 12.9694 5.62446C12.9496 5.62446 12.9303 5.61867 12.9136 5.60777C12.8793 5.60581 12.8471 5.59042 12.8235 5.56477C12.8 5.53912 12.7869 5.50515 12.7869 5.46987M11.8185 6.37385C11.964 6.39831 12.1107 6.41366 12.258 6.41982C12.3772 6.41982 12.4368 6.52707 12.3251 6.57304C12.2133 6.619 12.1016 6.63432 12.1016 6.80286C12.1016 6.9714 12.1016 6.9331 12.1016 6.94842L12.042 6.89479C11.9649 6.84895 11.8988 6.78593 11.8485 6.71036C11.7983 6.6348 11.7651 6.54861 11.7515 6.45812C11.7504 6.44341 11.7524 6.42863 11.7572 6.41472C11.7619 6.40081 11.7695 6.38807 11.7792 6.37728C11.789 6.3665 11.8009 6.35791 11.814 6.35204C11.8272 6.34618 11.8414 6.34317 11.8558 6.34321" fill="white"/>
        <path d="M8.51123 3.96837C8.63042 4.02965 8.8539 4.00667 8.84645 3.80749V3.71556C8.84222 3.70383 8.83459 3.69371 8.82461 3.68657C8.81462 3.67943 8.80275 3.6756 8.79058 3.6756C8.77842 3.6756 8.76654 3.67943 8.75655 3.68657C8.74657 3.69371 8.73894 3.70383 8.73471 3.71556C8.73471 3.71556 8.73471 3.76152 8.73471 3.77684C8.73471 3.79217 8.68257 3.77684 8.69001 3.72322C8.69416 3.70819 8.69416 3.69228 8.69001 3.67725C8.69001 3.67725 8.69001 3.67725 8.69001 3.63129C8.62297 3.63129 8.62297 3.71556 8.62297 3.7462C8.61821 3.78061 8.62345 3.81569 8.63803 3.84704C8.65261 3.8784 8.67588 3.90461 8.70491 3.9224" fill="white"/>
        <path d="M12.042 5.50053C12.1612 5.56182 12.4517 5.50053 12.3772 5.33199C12.3809 5.30146 12.3809 5.27059 12.3772 5.24006C12.3772 5.22584 12.3717 5.2122 12.3619 5.20214C12.3522 5.19208 12.3389 5.18643 12.3251 5.18643C12.3112 5.18643 12.298 5.19208 12.2882 5.20214C12.2784 5.2122 12.2729 5.22584 12.2729 5.24006C12.2729 5.24006 12.2729 5.29369 12.2729 5.30901C12.2729 5.32433 12.2282 5.30901 12.2282 5.25538C12.2324 5.24036 12.2324 5.22444 12.2282 5.20942C12.2282 5.20942 12.2282 5.20942 12.2282 5.16345C12.1612 5.16345 12.1612 5.24772 12.1612 5.27837C12.1612 5.30901 12.1612 5.41626 12.2431 5.45457" fill="white"/>
        <path d="M14.0835 4.87232C14.2027 4.92594 14.4262 4.87232 14.4187 4.70378C14.4187 4.70378 14.4187 4.62717 14.4187 4.61185C14.4197 4.60229 14.4188 4.59263 14.4162 4.58341C14.4135 4.5742 14.4091 4.56561 14.4033 4.55814C14.3974 4.55067 14.3901 4.54447 14.3819 4.53988C14.3737 4.53529 14.3647 4.53241 14.3554 4.53141C14.3461 4.5304 14.3367 4.53129 14.3277 4.53402C14.3188 4.53674 14.3104 4.54126 14.3032 4.54731C14.2959 4.55335 14.2899 4.56081 14.2854 4.56926C14.281 4.5777 14.2782 4.58697 14.2772 4.59653C14.2772 4.59653 14.2772 4.65015 14.2772 4.65781C14.2772 4.66547 14.2325 4.65781 14.2325 4.60419C14.2366 4.58916 14.2366 4.57325 14.2325 4.55822C14.2325 4.55822 14.2325 4.55822 14.2325 4.60419C14.2325 4.60419 14.2325 4.60419 14.2325 4.55822C14.1729 4.55822 14.1654 4.63483 14.1729 4.66547C14.1685 4.70093 14.1739 4.73694 14.1883 4.76943C14.2028 4.80193 14.2258 4.8296 14.2548 4.84933" fill="white"/>
        <path d="M15.1412 6.45815C15.0653 6.56843 15.0192 6.69737 15.0074 6.83191C14.9956 6.96645 15.0186 7.1018 15.0741 7.22424C15.1199 7.35443 15.2099 7.46324 15.3274 7.53067C15.3454 7.54943 15.3669 7.56433 15.3905 7.5745C15.4142 7.58466 15.4396 7.5899 15.4652 7.5899C15.4909 7.5899 15.5163 7.58466 15.5399 7.5745C15.5636 7.56433 15.585 7.54943 15.603 7.53067C15.7222 7.40044 15.7297 7.06336 15.7818 7.00207C15.7737 6.97645 15.7745 6.94869 15.7842 6.92366C15.794 6.89862 15.812 6.8779 15.835 6.86511C15.8581 6.85233 15.8848 6.8483 15.9105 6.85373C15.9362 6.85916 15.9592 6.87371 15.9755 6.89482C16.0193 6.96173 16.0781 7.0169 16.1468 7.0557C16.2008 7.10317 16.2695 7.12926 16.3405 7.12926C16.4116 7.12926 16.4802 7.10317 16.5342 7.0557C16.5838 7.03025 16.6278 6.99473 16.6637 6.95128C16.6995 6.90783 16.7265 6.85734 16.7428 6.80289C16.783 6.293 16.783 5.7806 16.7428 5.27071L16.6236 4.64252C16.6236 4.64252 16.6236 4.34375 16.6236 4.2748C16.6236 4.20585 16.6236 4.23649 16.6236 4.23649C16.6236 4.23649 16.6236 4.2748 16.6757 4.2748C16.7279 4.2748 16.7353 4.22883 16.713 4.17521L16.4299 3.63895C16.4299 3.63895 16.3778 3.58532 16.3405 3.63895C16.3167 3.65743 16.298 3.682 16.2862 3.71022C16.2744 3.73844 16.2701 3.76933 16.2735 3.79982C16.2735 3.9224 16.2735 4.06029 16.2735 4.18287L16.3852 4.84936C16.4225 5.31668 16.4299 5.74569 16.4672 6.22066C16.471 6.38971 16.4298 6.55661 16.348 6.7033C16.348 6.7033 16.2586 6.75692 16.199 6.7033C16.1211 6.61294 16.0512 6.5155 15.9904 6.41218C15.9786 6.3963 15.9634 6.38343 15.9459 6.37457C15.9285 6.36571 15.9093 6.3611 15.8898 6.3611C15.8704 6.3611 15.8512 6.36571 15.8338 6.37457C15.8163 6.38343 15.8011 6.3963 15.7893 6.41218C15.6382 6.6257 15.5177 6.86049 15.4317 7.10932C15.4317 7.15529 15.32 7.20125 15.2231 7.10932C15.1052 6.90407 15.0604 6.66301 15.0965 6.42751" fill="white"/>
        <path d="M14.1352 3.71556C14.1906 3.75886 14.2341 3.81622 14.2616 3.88202C14.289 3.94781 14.2993 4.0198 14.2916 4.09094C14.2916 4.22884 14.2171 4.3744 14.1724 4.35141C14.1277 4.32843 14.1724 4.22118 14.1724 4.0986C14.1724 3.97603 14.0085 3.86878 14.0234 3.83047C14.0383 3.79217 14.083 3.69258 14.1501 3.71556" fill="white"/>
        <path d="M15.4912 6.59601C15.5084 6.39722 15.5084 6.19726 15.4912 5.99846C15.4912 5.84525 15.3124 4.55822 15.2826 4.46629C15.2528 4.37436 15.4465 4.46629 15.4167 4.30541C15.3869 4.14453 15.1783 3.89172 15.1187 3.75383C15.0591 3.61593 15.1187 3.63125 15.0294 3.75383C14.964 3.93208 14.941 4.12383 14.9623 4.31307C15.1708 5.19883 15.2807 6.10608 15.2901 7.01736C15.372 7.01736 15.4689 6.82584 15.5136 6.63432" fill="white"/>
        <path d="M17.3239 4.02963C17.4207 4.08326 17.4803 4.36671 17.4729 4.44332C17.4654 4.51993 17.3984 4.74976 17.3611 4.72677C17.3239 4.70379 17.3611 4.51227 17.3611 4.45098C17.3611 4.3897 17.2121 4.20583 17.2196 4.15987C17.2132 4.14243 17.2117 4.12351 17.2153 4.10524C17.2188 4.08698 17.2273 4.07011 17.2397 4.05654C17.2521 4.04298 17.268 4.03327 17.2855 4.02851C17.303 4.02375 17.3215 4.02414 17.3388 4.02963" fill="white"/>
        <path d="M10.0455 6.08277C10.1349 6.08277 10.187 6.32792 10.1796 6.3892C10.1721 6.45049 10.1125 6.60371 10.0753 6.59605C10.038 6.58838 10.0753 6.43517 10.0753 6.3892C10.0753 6.34324 9.93375 6.22066 9.9412 6.1747C9.94865 6.12873 9.99335 6.07511 10.0529 6.08277" fill="white"/>
        <path d="M7.5726 3.64659C7.71414 3.64659 7.72159 3.8994 7.71414 3.96069C7.70669 4.02198 7.63965 4.19052 7.60985 4.17519C7.58005 4.15987 7.60985 4.00666 7.60985 3.96069C7.60985 3.91472 7.47576 3.77683 7.48321 3.73852C7.49066 3.70022 7.53535 3.63127 7.59495 3.64659" fill="white"/>
        <path d="M10.269 4.63483C10.2421 4.65138 10.2186 4.67324 10.1998 4.69916C10.1811 4.72507 10.1676 4.75454 10.1599 4.78586C10.1523 4.81718 10.1508 4.84974 10.1555 4.88166C10.1601 4.91359 10.1709 4.94426 10.1871 4.97191C10.2075 4.99697 10.2346 5.01539 10.265 5.02492C10.2954 5.03444 10.3279 5.03465 10.3584 5.02553C10.4627 5.02553 10.5223 4.82635 10.5223 4.82635C10.5223 4.82635 10.5223 4.76506 10.4031 4.87997C10.2839 4.99489 10.3435 4.87997 10.3361 4.87997C10.325 4.85334 10.3193 4.82467 10.3193 4.79571C10.3193 4.76674 10.325 4.73807 10.3361 4.71144C10.3361 4.65781 10.3361 4.63483 10.2541 4.71144" fill="white"/>
        <path d="M11.0662 3.56233C11.0208 3.59481 10.9827 3.63691 10.9544 3.6858C10.9262 3.73469 10.9084 3.78924 10.9023 3.84578C10.9023 3.91473 10.9023 3.91473 10.9023 3.96836C10.9023 4.02198 10.9694 4.00666 11.0364 3.96836C11.0531 3.95851 11.0676 3.94529 11.0791 3.92948C11.0907 3.91368 11.099 3.89563 11.1035 3.87643C11.1035 3.79216 11.0215 3.91473 11.0066 3.8228C10.9917 3.73087 11.0066 3.70023 11.1109 3.61596C11.2152 3.53169 11.1109 3.51637 11.0364 3.56233" fill="white"/>
        <path d="M11.7068 3.67722C11.6812 3.7852 11.6662 3.89557 11.6621 4.00664C11.6621 4.09091 11.7441 4.12155 11.7887 4.00664C11.8324 3.89155 11.8575 3.76995 11.8632 3.64658C11.8632 3.524 11.759 3.53166 11.7068 3.64658" fill="white"/>
        <path d="M15.767 5.79928L16.3182 5.36261C16.3704 5.36261 16.3629 5.56945 16.3182 5.56945C16.1473 5.74391 15.9481 5.88648 15.7297 5.9908C15.7297 5.9908 15.6776 5.82992 15.7297 5.78396" fill="white"/>
        <path d="M16.2511 5.79164C16.3554 5.84527 16.3926 6.13638 16.3777 6.22065C16.3628 6.30492 16.2883 6.49644 16.2511 6.48112C16.2138 6.4658 16.2511 6.2896 16.2511 6.22065C16.2511 6.15171 16.1393 5.9755 16.1542 5.92954C16.1467 5.91247 16.1439 5.89356 16.1464 5.87497C16.1488 5.85638 16.1563 5.83888 16.168 5.82447C16.1796 5.81006 16.195 5.79934 16.2124 5.79353C16.2297 5.78772 16.2483 5.78707 16.266 5.79164" fill="white"/>
        <path d="M12.9508 7.06336C12.9928 6.99807 13.0458 6.941 13.1073 6.89483C13.1225 6.8836 13.1407 6.87756 13.1594 6.87756C13.1781 6.87756 13.1964 6.8836 13.2116 6.89483C13.2116 6.94845 13.2116 7.00208 13.2116 7.07869C13.2116 7.1553 13.2116 7.14763 13.2861 7.13231C13.321 7.10258 13.3615 7.08046 13.4051 7.06729C13.4486 7.05412 13.4943 7.05018 13.5393 7.0557C13.6064 7.0557 13.6138 7.17062 13.5393 7.17062C13.4187 7.20184 13.3014 7.24547 13.1892 7.30085C13.1745 7.31331 13.1561 7.32012 13.1371 7.32012C13.118 7.32012 13.0996 7.31331 13.0849 7.30085C13.0849 7.30085 13.0849 7.30085 13.0849 7.1936C13.0849 7.08635 13.0849 7.10167 13.0104 7.10933C12.9359 7.11699 12.9434 7.10933 12.9285 7.10933C12.9136 7.10933 12.9285 7.0557 12.9285 7.04038" fill="white"/>
        <path d="M16.8395 7.22422C16.8395 7.22422 16.8395 7.27784 16.8395 7.33147L16.7278 7.43106C16.7278 7.43106 16.7278 7.50767 16.7278 7.52299C16.7278 7.53831 17.0704 7.39276 17.0704 7.38509C17.0809 7.37371 17.0867 7.35863 17.0867 7.34296C17.0867 7.32729 17.0809 7.31221 17.0704 7.30082C17.0704 7.30082 16.9959 7.30082 16.9661 7.30082C16.9363 7.30082 16.8916 7.30082 16.9214 7.23954C16.9407 7.21411 16.9558 7.18565 16.9661 7.15527C16.9661 7.11696 16.9661 7.09398 16.9065 7.071C16.8575 7.0595 16.8066 7.0595 16.7576 7.071C16.7576 7.071 16.7129 7.071 16.7054 7.13995C16.698 7.20889 16.7427 7.20123 16.7874 7.23188" fill="white"/>
      </g>
    </g>
  </g>
  <defs>
    <clipPath id="clip0_348_22543">
      <rect width="25" height="15" fill="white" transform="translate(0.123047)"/>
    </clipPath>
  </defs>
</svg>