<svg xmlns="http://www.w3.org/2000/svg" width="23" height="24" viewBox="0 0 23 24" fill="none">
  <path d="M19.1007 16.47C19.1007 18.0752 17.818 19.3765 16.2356 19.3765C14.6533 19.3765 13.3706 18.0752 13.3706 16.47C13.3706 14.8648 14.6533 13.5635 16.2356 13.5635C17.818 13.5635 19.1007 14.8648 19.1007 16.47Z" stroke="#fff" stroke-width="1.45324"/>
  <path d="M13.3706 5.8129C13.3706 4.74276 14.2257 3.87524 15.2806 3.87524H17.1907C18.2456 3.87524 19.1007 4.74276 19.1007 5.8129V7.75056C19.1007 8.8207 18.2456 9.68822 17.1907 9.68822H15.2806C14.2257 9.68822 13.3706 8.8207 13.3706 7.75056V5.8129Z" stroke="#fff" stroke-width="1.45324"/>
  <path d="M3.82031 5.8129C3.82031 4.74276 4.67547 3.87524 5.73036 3.87524H7.64041C8.6953 3.87524 9.55046 4.74276 9.55046 5.8129V7.75056C9.55046 8.8207 8.6953 9.68822 7.64041 9.68822H5.73036C4.67547 9.68822 3.82031 8.8207 3.82031 7.75056V5.8129Z" stroke="#fff" stroke-width="1.45324"/>
  <path d="M3.82031 15.5012C3.82031 14.431 4.67547 13.5635 5.73036 13.5635H7.64041C8.6953 13.5635 9.55046 14.431 9.55046 15.5012V17.4388C9.55046 18.509 8.6953 19.3765 7.64041 19.3765H5.73036C4.67547 19.3765 3.82031 18.509 3.82031 17.4388V15.5012Z" stroke="#fff" stroke-width="1.45324"/>
</svg>