<svg xmlns="http://www.w3.org/2000/svg" width="21" height="21" viewBox="0 0 21 21" fill="none">
  <g clip-path="url(#clip0_796_56282)">
    <path d="M11.8311 14.8659C11.476 14.7294 11.0768 14.9066 10.9403 15.2623C10.8038 15.6174 10.981 16.0166 11.3361 16.1531C11.4181 16.184 11.5015 16.1993 11.5836 16.1993C11.8607 16.1993 12.122 16.031 12.2275 15.7566C12.364 15.4016 12.1868 15.0031 11.8311 14.8659Z" fill="#383838"/>
    <path d="M12.4999 13.1286C12.1441 12.992 11.7456 13.1693 11.6092 13.525C11.4719 13.88 11.6492 14.2792 12.0049 14.4157C12.0863 14.4468 12.1697 14.4619 12.2524 14.4619C12.5295 14.4619 12.7901 14.2936 12.8957 14.0193C13.0321 13.6642 12.855 13.265 12.4999 13.1286Z" fill="#383838"/>
    <path d="M16.056 13.3885L14.9942 12.9802C14.6391 12.8436 14.24 13.0208 14.1033 13.3762C13.9666 13.7316 14.1439 14.1305 14.4993 14.2672L15.561 14.6756C15.6425 14.7069 15.7261 14.7217 15.8084 14.7217C16.0854 14.7217 16.3466 14.5535 16.452 14.2795C16.5887 13.9241 16.4113 13.5252 16.056 13.3885Z" fill="#383838"/>
    <path d="M20.0579 12.4903C19.6625 12.3383 19.3501 12.0413 19.1781 11.6544C19.0061 11.2673 18.9951 10.8365 19.1471 10.4412C19.2128 10.2705 19.2079 10.0808 19.1337 9.9137C19.0724 9.77599 18.9679 9.66366 18.8376 9.59147C19.064 9.46669 19.324 9.39551 19.6002 9.39551C19.981 9.39551 20.2897 9.08683 20.2897 8.70609V4.15592C20.2897 3.77518 19.981 3.46649 19.6002 3.46649C18.7259 3.46649 18.0146 2.75518 18.0146 1.88083C18.0146 1.50009 17.7059 1.19141 17.3252 1.19141H3.67479C3.29405 1.19141 2.98536 1.50009 2.98536 1.88083C2.98536 2.75518 2.27405 3.46649 1.39971 3.46649C1.01897 3.46649 0.710281 3.77518 0.710281 4.15592V8.70609C0.710281 8.95774 0.845567 9.1772 1.04691 9.2976L0.546173 10.5996C0.409405 10.9549 0.586779 11.3538 0.942132 11.4905C1.75809 11.8043 2.16671 12.7236 1.85284 13.5396C1.71614 13.895 1.89351 14.2939 2.24887 14.4305L14.9894 19.3307C15.0708 19.362 15.1545 19.3769 15.2367 19.3769C15.5137 19.3769 15.7749 19.2088 15.8803 18.9348C16.1143 18.3264 16.7093 17.9177 17.3608 17.9177C17.5548 17.9177 17.7462 17.9535 17.9295 18.024C18.1002 18.0897 18.2899 18.0848 18.457 18.0105C18.6242 17.9363 18.7549 17.7987 18.8204 17.628L20.4538 13.3812C20.5905 13.0259 20.4132 12.627 20.0579 12.4903ZM2.08914 4.76434C3.17116 4.50568 4.02462 3.65215 4.28328 2.57019H16.7167C16.9754 3.65221 17.8289 4.50568 18.9109 4.76434V8.09747C17.8289 8.35612 16.9754 9.20959 16.7167 10.2916H4.28328C4.02462 9.20959 3.17116 8.35612 2.08914 8.09747V4.76434ZM17.7521 16.5649C17.6227 16.5476 17.4921 16.5389 17.3607 16.5389C16.3778 16.5389 15.4639 17.0364 14.9179 17.826L3.3117 13.362C3.45863 12.2593 2.96846 11.1563 2.05149 10.5266L2.36119 9.7213C2.74025 10.0113 2.98536 10.468 2.98536 10.981C2.98536 11.3618 3.29405 11.6705 3.67479 11.6705H12.3356C12.3129 11.707 12.293 11.746 12.2771 11.7876C12.1399 12.1427 12.3178 12.5418 12.6728 12.6783C12.7542 12.7094 12.8384 12.7245 12.9203 12.7245C13.1975 12.7245 13.4588 12.5563 13.5635 12.2819C13.6446 12.0723 13.6151 11.8477 13.5048 11.6705H17.3252C17.469 11.6705 17.6024 11.6264 17.7129 11.5511C17.7552 11.7767 17.8225 11.9992 17.9181 12.2143C18.1442 12.7229 18.5 13.1483 18.9483 13.4549L17.7521 16.5649Z" fill="#383838"/>
    <path d="M12.7749 4.38179C13.1561 4.38179 13.4643 4.07296 13.4643 3.69236C13.4643 3.31182 13.1561 3.00293 12.7749 3.00293C12.3943 3.00293 12.0854 3.31182 12.0854 3.69236C12.0854 4.07296 12.3943 4.38179 12.7749 4.38179Z" fill="#383838"/>
    <path d="M12.7749 6.24311C13.1561 6.24311 13.4643 5.93429 13.4643 5.55369C13.4643 5.17241 13.1561 4.86426 12.7749 4.86426C12.3943 4.86426 12.0854 5.17241 12.0854 5.55369C12.0854 5.93429 12.3943 6.24311 12.7749 6.24311Z" fill="#383838"/>
    <path d="M12.7749 9.96626C13.1561 9.96626 13.4643 9.65744 13.4643 9.27683C13.4643 8.89629 13.1561 8.5874 12.7749 8.5874C12.3943 8.5874 12.0854 8.89629 12.0854 9.27683C12.0854 9.65744 12.3943 9.96626 12.7749 9.96626Z" fill="#383838"/>
    <path d="M12.7749 8.10493C13.1561 8.10493 13.4643 7.79611 13.4643 7.4155C13.4643 7.03496 13.1561 6.72607 12.7749 6.72607C12.3943 6.72607 12.0854 7.03496 12.0854 7.4155C12.0854 7.79611 12.3943 8.10493 12.7749 8.10493Z" fill="#383838"/>
    <path d="M15.0503 7.12055H16.1878C16.5685 7.12055 16.8772 6.81187 16.8772 6.43113C16.8772 6.05039 16.5685 5.7417 16.1878 5.7417H15.0503C14.6695 5.7417 14.3608 6.05039 14.3608 6.43113C14.3608 6.81187 14.6695 7.12055 15.0503 7.12055Z" fill="#383838"/>
  </g>
  <defs>
    <clipPath id="clip0_796_56282">
      <rect width="20" height="20" fill="white" transform="translate(0.5 0.28418)"/>
    </clipPath>
  </defs>
</svg>