<svg xmlns="http://www.w3.org/2000/svg" width="20" height="21" viewBox="0 0 20 21" fill="none">
  <g clip-path="url(#clip0_796_56315)">
    <path d="M17.0106 3.22268C16.0937 2.29888 15.0023 1.56661 13.7999 1.06843C12.5974 0.570259 11.3078 0.31615 10.0063 0.320865C8.26629 0.322566 6.5572 0.781403 5.05029 1.65142C3.54339 2.52144 2.29153 3.77211 1.42006 5.27816C0.548593 6.78423 0.0881301 8.49286 0.084753 10.2328C0.0813884 11.9729 0.535247 13.6832 1.40088 15.1927L0 20.3334L5.25328 18.9575C6.70388 19.7645 8.33383 20.1947 9.99375 20.2083C12.6325 20.2084 15.1645 19.1662 17.0384 17.3085C18.9124 15.451 19.9769 12.9283 20 10.2896C19.9912 8.97291 19.7226 7.6709 19.2096 6.45821C18.6967 5.24552 17.9493 4.14601 17.0106 3.22268ZM10.0063 18.4947C8.52746 18.4957 7.07569 18.0982 5.80363 17.344L5.50344 17.1564L2.38899 17.9819L3.21451 14.9425L3.01438 14.6298C1.95028 12.9121 1.55315 10.8637 1.89821 8.87272C2.24328 6.88179 3.30658 5.08654 4.88668 3.82709C6.46679 2.56763 8.45391 1.93145 10.4717 2.03905C12.4894 2.14664 14.3977 2.99056 15.8349 4.41092C17.4059 5.94712 18.3052 8.04258 18.3365 10.2396C18.3167 12.4358 17.4303 14.5354 15.8702 16.0815C14.3102 17.6274 12.2026 18.4949 10.0063 18.4947ZM14.5216 12.3159C14.2714 12.1908 13.0582 11.5904 12.833 11.5154C12.6079 11.4403 12.4328 11.3903 12.2702 11.6405C12.0255 11.9758 11.7624 12.2972 11.4822 12.6036C11.3446 12.7787 11.1945 12.7912 10.9443 12.6036C9.51807 12.04 8.32983 11.0018 7.57974 9.66422C7.31707 9.22644 7.82989 9.25146 8.30519 8.31337C8.34034 8.24571 8.3586 8.17066 8.3586 8.09449C8.3586 8.01831 8.34034 7.94327 8.30519 7.8756C8.30519 7.75051 7.74234 6.52474 7.54221 6.03694C7.34209 5.54913 7.14196 5.62418 6.97936 5.61167H6.49156C6.36517 5.61361 6.24065 5.64252 6.12633 5.69644C6.01201 5.75036 5.91052 5.82807 5.82864 5.92437C5.54799 6.19726 5.32909 6.52714 5.18669 6.89177C5.04429 7.2564 4.9817 7.64732 5.00313 8.0382C5.08155 8.97391 5.43393 9.86572 6.01626 10.6023C7.08218 12.1981 8.54296 13.4907 10.2564 14.3547C11.1551 14.8792 12.1995 15.0986 13.2333 14.98C13.5775 14.9117 13.9036 14.7718 14.1901 14.5692C14.4768 14.3667 14.7176 14.106 14.8968 13.8043C15.0629 13.4361 15.1152 13.0267 15.0469 12.6286C14.9343 12.5035 14.7717 12.441 14.5216 12.3159Z" fill="#383838"/>
  </g>
  <defs>
    <clipPath id="clip0_796_56315">
      <rect width="20" height="20" fill="white" transform="translate(0 0.320801)"/>
    </clipPath>
  </defs>
</svg>