<svg width="127" height="127" viewBox="0 0 127 127" fill="none" xmlns="http://www.w3.org/2000/svg">
<rect width="127" height="127" rx="63.5" fill="#07368A"/>
<path d="M66.1323 42.137C65.7076 42.137 65.4953 41.9203 65.4953 41.487C65.4953 41.0623 65.7076 40.85 66.1323 40.85C66.5483 40.85 66.7563 41.0623 66.7563 41.487C66.7563 41.9203 66.5483 42.137 66.1323 42.137ZM70.8773 46.947H71.7353V48H70.7473C70.2966 48 69.9066 47.909 69.5773 47.727C69.4733 48.611 69.0876 49.3 68.4203 49.794C67.8223 50.2447 67.0813 50.47 66.1973 50.47C65.0706 50.47 64.1953 50.0713 63.5713 49.274C63.0946 48.6587 62.8563 47.9307 62.8563 47.09C62.8563 46.362 63.0383 45.738 63.4023 45.218L64.4813 44.984C64.0913 45.5993 63.8963 46.2623 63.8963 46.973C63.8963 47.701 64.1216 48.299 64.5723 48.767C64.997 49.2003 65.5386 49.417 66.1973 49.417C66.96 49.417 67.5493 49.196 67.9653 48.754C68.312 48.3813 68.4853 47.896 68.4853 47.298V42.956L69.6033 42.358V45.647C69.6033 46.5137 70.028 46.947 70.8773 46.947ZM73.0828 44.477C73.0828 43.723 73.3082 43.138 73.7588 42.722C74.1575 42.3667 74.6775 42.189 75.3188 42.189C76.1422 42.189 76.7748 42.4923 77.2168 43.099C77.5982 43.6103 77.7888 44.2777 77.7888 45.101C77.7888 46.037 77.5462 46.7693 77.0608 47.298C76.6362 47.766 76.0815 48 75.3968 48C74.6168 48 74.0232 47.7833 73.6158 47.35C73.1998 47.7833 72.6408 48 71.9388 48H70.9508V46.947H71.8088C72.6582 46.947 73.0828 46.5137 73.0828 45.647V44.477ZM74.2008 45.738C74.2008 46.544 74.5952 46.947 75.3838 46.947C75.7912 46.947 76.1075 46.7823 76.3328 46.453C76.5668 46.1237 76.6838 45.6643 76.6838 45.075C76.6838 44.4943 76.5625 44.0437 76.3198 43.723C76.0772 43.3937 75.7435 43.229 75.3188 43.229C74.5735 43.229 74.2008 43.6623 74.2008 44.529V45.738ZM90.9798 46.947H91.8378V48H90.8498C90.3818 48 89.9614 47.896 89.5888 47.688C89.4674 48.5807 89.0644 49.2827 88.3798 49.794C87.7731 50.2447 87.0234 50.47 86.1308 50.47C84.9694 50.47 84.0724 50.08 83.4398 49.3C82.9544 48.6933 82.7118 47.9697 82.7118 47.129C82.7118 46.3923 82.8894 45.764 83.2448 45.244L84.3628 44.997C83.9641 45.6123 83.7648 46.284 83.7648 47.012C83.7648 47.7313 83.9944 48.3207 84.4538 48.78C84.8784 49.2047 85.4374 49.417 86.1308 49.417C86.9194 49.417 87.5261 49.183 87.9508 48.715C88.3148 48.3163 88.4968 47.805 88.4968 47.181V40.213L89.6278 39.615V45.647C89.6278 46.5137 90.0784 46.947 90.9798 46.947ZM94.4532 40.876C94.0285 40.876 93.8162 40.6593 93.8162 40.226C93.8162 39.8013 94.0285 39.589 94.4532 39.589C94.8692 39.589 95.0772 39.8013 95.0772 40.226C95.0772 40.6593 94.8692 40.876 94.4532 40.876ZM96.1042 40.876C95.6795 40.876 95.4672 40.6593 95.4672 40.226C95.4672 39.8013 95.6795 39.589 96.1042 39.589C96.5202 39.589 96.7282 39.8013 96.7282 40.226C96.7282 40.6593 96.5202 40.876 96.1042 40.876ZM91.0602 48V46.947H93.4002C93.0015 46.505 92.8022 45.8897 92.8022 45.101C92.8022 44.1563 93.0492 43.4197 93.5432 42.891C93.9765 42.423 94.5529 42.189 95.2722 42.189C96.0089 42.189 96.5809 42.4187 96.9882 42.878C97.3349 43.2853 97.5082 43.8183 97.5082 44.477V45.712C97.4995 46.4313 97.2872 46.999 96.8712 47.415C96.4639 47.805 95.9222 48 95.2462 48H91.0602ZM96.3902 44.529C96.3902 43.6623 96.0175 43.229 95.2722 43.229C94.8475 43.229 94.5139 43.3937 94.2712 43.723C94.0285 44.0437 93.9072 44.4943 93.9072 45.075C93.9072 45.647 94.0242 46.102 94.2582 46.44C94.4922 46.778 94.8042 46.947 95.1942 46.947C95.9915 46.947 96.3902 46.531 96.3902 45.699V44.529ZM99.0279 39.433L99.3269 38.874H99.6779C99.5912 38.718 99.5479 38.5577 99.5479 38.393C99.5479 38.133 99.6432 37.912 99.8339 37.73C100.025 37.5393 100.25 37.444 100.51 37.444C100.727 37.444 100.935 37.5133 101.134 37.652V38.224C100.943 38.0767 100.761 38.003 100.588 38.003C100.267 38.003 100.107 38.146 100.107 38.432C100.107 38.5793 100.168 38.7267 100.289 38.874H101.472L101.173 39.433H99.0279ZM99.7169 48V40.733L100.835 40.135V48H99.7169Z" fill="white"/>
<path d="M34.9434 69.676C34.9434 72.0653 34.1221 73.988 32.4794 75.444C31.0234 76.7133 29.1941 77.348 26.9914 77.348C24.3407 77.348 22.2874 76.4707 20.8314 74.716C19.7114 73.372 19.1514 71.776 19.1514 69.928C19.1514 68.472 19.4874 67.184 20.1594 66.064L23.6314 65.28C22.8661 66.4933 22.4834 67.884 22.4834 69.452C22.4834 70.8333 22.8847 71.9253 23.6874 72.728C24.5087 73.5493 25.6101 73.96 26.9914 73.96C28.3541 73.96 29.4367 73.5773 30.2394 72.812C31.0421 72.0467 31.4434 71.0013 31.4434 69.676V55.816L34.9434 53.94V69.676ZM45.1251 72C43.4265 72 42.1105 71.4587 41.1771 70.376C40.3745 69.4427 39.9731 68.2387 39.9731 66.764V55.788L43.5011 53.94V66.596C43.5011 67.324 43.6505 67.8467 43.9491 68.164C44.2478 68.4627 44.7518 68.612 45.4611 68.612H47.9811V72H45.1251ZM46.2928 72V68.612H48.8128C49.5221 68.612 50.0261 68.4627 50.3248 68.164C50.6235 67.8467 50.7728 67.324 50.7728 66.596V61.416L54.3008 59.568V66.764C54.3008 68.4627 53.7781 69.788 52.7328 70.74C51.8181 71.58 50.6235 72 49.1488 72H46.2928ZM47.8048 78.244C47.2448 78.244 46.7968 78.076 46.4608 77.74C46.1248 77.404 45.9568 76.9467 45.9568 76.368C45.9568 75.1547 46.5728 74.548 47.8048 74.548C48.3648 74.548 48.8035 74.7067 49.1208 75.024C49.4568 75.36 49.6248 75.808 49.6248 76.368C49.6248 77.6187 49.0181 78.244 47.8048 78.244ZM52.1168 78.244C51.5568 78.244 51.1088 78.076 50.7728 77.74C50.4368 77.404 50.2688 76.9467 50.2688 76.368C50.2688 75.1547 50.8848 74.548 52.1168 74.548C52.6768 74.548 53.1155 74.7067 53.4328 75.024C53.7688 75.36 53.9368 75.808 53.9368 76.368C53.9368 77.6187 53.3301 78.244 52.1168 78.244ZM66.2045 70.264C66.2045 72.4293 65.6072 74.184 64.4125 75.528C63.3112 76.7787 61.8552 77.404 60.0445 77.404C58.8685 77.404 57.7205 77.1053 56.6005 76.508V73.428C57.5712 73.9693 58.5232 74.24 59.4565 74.24C60.4832 74.24 61.2765 73.904 61.8365 73.232C62.4152 72.5787 62.7045 71.664 62.7045 70.488V61.444L66.2045 59.568V70.264ZM82.8809 72.42V66.12C82.3023 66.3627 81.7049 66.484 81.0889 66.484C80.5663 66.484 80.0716 66.3907 79.6049 66.204C77.4956 65.4947 76.4409 63.8613 76.4409 61.304C76.4409 59.4933 76.9916 58.0933 78.0929 57.104C79.0076 56.2827 80.1649 55.872 81.5649 55.872C83.0396 55.872 84.2343 56.348 85.1489 57.3C85.9889 58.196 86.4089 59.372 86.4089 60.828V70.516L82.8809 72.42ZM82.8809 60.716C82.8809 59.6147 82.4049 59.064 81.4529 59.064C80.9489 59.064 80.5383 59.26 80.2209 59.652C79.9223 60.044 79.7729 60.5573 79.7729 61.192C79.7729 62.536 80.2956 63.2547 81.3409 63.348C81.3969 63.348 81.4343 63.348 81.4529 63.348C81.9569 63.348 82.4329 63.1893 82.8809 62.872V60.716ZM95.6505 72.42V66.12C95.0718 66.3627 94.4745 66.484 93.8585 66.484C93.3358 66.484 92.8411 66.3907 92.3745 66.204C90.2651 65.4947 89.2105 63.8613 89.2105 61.304C89.2105 59.4933 89.7611 58.0933 90.8625 57.104C91.7771 56.2827 92.9345 55.872 94.3345 55.872C95.8091 55.872 97.0038 56.348 97.9185 57.3C98.7585 58.196 99.1785 59.372 99.1785 60.828V70.516L95.6505 72.42ZM95.6505 60.716C95.6505 59.6147 95.1745 59.064 94.2225 59.064C93.7185 59.064 93.3078 59.26 92.9905 59.652C92.6918 60.044 92.5425 60.5573 92.5425 61.192C92.5425 62.536 93.0651 63.2547 94.1105 63.348C94.1665 63.348 94.2038 63.348 94.2225 63.348C94.7265 63.348 95.2025 63.1893 95.6505 62.872V60.716Z" fill="white"/>
</svg>
