<svg width="127" height="127" viewBox="0 0 127 127" fill="none" xmlns="http://www.w3.org/2000/svg">
<rect width="127" height="127" rx="63.5" fill="#07368A"/>
<path d="M73.1323 42.137C72.7076 42.137 72.4953 41.9203 72.4953 41.487C72.4953 41.0623 72.7076 40.85 73.1323 40.85C73.5483 40.85 73.7563 41.0623 73.7563 41.487C73.7563 41.9203 73.5483 42.137 73.1323 42.137ZM77.8773 46.947H78.7353V48H77.7473C77.2966 48 76.9066 47.909 76.5773 47.727C76.4733 48.611 76.0876 49.3 75.4203 49.794C74.8223 50.2447 74.0813 50.47 73.1973 50.47C72.0706 50.47 71.1953 50.0713 70.5713 49.274C70.0946 48.6587 69.8563 47.9307 69.8563 47.09C69.8563 46.362 70.0383 45.738 70.4023 45.218L71.4813 44.984C71.0913 45.5993 70.8963 46.2623 70.8963 46.973C70.8963 47.701 71.1216 48.299 71.5723 48.767C71.997 49.2003 72.5386 49.417 73.1973 49.417C73.96 49.417 74.5493 49.196 74.9653 48.754C75.312 48.3813 75.4853 47.896 75.4853 47.298V42.956L76.6033 42.358V45.647C76.6033 46.5137 77.028 46.947 77.8773 46.947ZM80.0828 44.477C80.0828 43.723 80.3082 43.138 80.7588 42.722C81.1575 42.3667 81.6775 42.189 82.3188 42.189C83.1422 42.189 83.7748 42.4923 84.2168 43.099C84.5982 43.6103 84.7888 44.2777 84.7888 45.101C84.7888 46.037 84.5462 46.7693 84.0608 47.298C83.6362 47.766 83.0815 48 82.3968 48C81.6168 48 81.0232 47.7833 80.6158 47.35C80.1998 47.7833 79.6408 48 78.9388 48H77.9508V46.947H78.8088C79.6582 46.947 80.0828 46.5137 80.0828 45.647V44.477ZM81.2008 45.738C81.2008 46.544 81.5952 46.947 82.3838 46.947C82.7912 46.947 83.1075 46.7823 83.3328 46.453C83.5668 46.1237 83.6838 45.6643 83.6838 45.075C83.6838 44.4943 83.5625 44.0437 83.3198 43.723C83.0772 43.3937 82.7435 43.229 82.3188 43.229C81.5735 43.229 81.2008 43.6623 81.2008 44.529V45.738ZM97.9798 46.947H98.8378V48H97.8498C97.3818 48 96.9614 47.896 96.5888 47.688C96.4674 48.5807 96.0644 49.2827 95.3798 49.794C94.7731 50.2447 94.0234 50.47 93.1308 50.47C91.9694 50.47 91.0724 50.08 90.4398 49.3C89.9544 48.6933 89.7118 47.9697 89.7118 47.129C89.7118 46.3923 89.8894 45.764 90.2448 45.244L91.3628 44.997C90.9641 45.6123 90.7648 46.284 90.7648 47.012C90.7648 47.7313 90.9944 48.3207 91.4538 48.78C91.8784 49.2047 92.4374 49.417 93.1308 49.417C93.9194 49.417 94.5261 49.183 94.9508 48.715C95.3148 48.3163 95.4968 47.805 95.4968 47.181V40.213L96.6278 39.615V45.647C96.6278 46.5137 97.0784 46.947 97.9798 46.947ZM101.453 40.876C101.029 40.876 100.816 40.6593 100.816 40.226C100.816 39.8013 101.029 39.589 101.453 39.589C101.869 39.589 102.077 39.8013 102.077 40.226C102.077 40.6593 101.869 40.876 101.453 40.876ZM103.104 40.876C102.68 40.876 102.467 40.6593 102.467 40.226C102.467 39.8013 102.68 39.589 103.104 39.589C103.52 39.589 103.728 39.8013 103.728 40.226C103.728 40.6593 103.52 40.876 103.104 40.876ZM98.0602 48V46.947H100.4C100.002 46.505 99.8022 45.8897 99.8022 45.101C99.8022 44.1563 100.049 43.4197 100.543 42.891C100.977 42.423 101.553 42.189 102.272 42.189C103.009 42.189 103.581 42.4187 103.988 42.878C104.335 43.2853 104.508 43.8183 104.508 44.477V45.712C104.5 46.4313 104.287 46.999 103.871 47.415C103.464 47.805 102.922 48 102.246 48H98.0602ZM103.39 44.529C103.39 43.6623 103.018 43.229 102.272 43.229C101.848 43.229 101.514 43.3937 101.271 43.723C101.029 44.0437 100.907 44.4943 100.907 45.075C100.907 45.647 101.024 46.102 101.258 46.44C101.492 46.778 101.804 46.947 102.194 46.947C102.992 46.947 103.39 46.531 103.39 45.699V44.529ZM106.028 39.433L106.327 38.874H106.678C106.591 38.718 106.548 38.5577 106.548 38.393C106.548 38.133 106.643 37.912 106.834 37.73C107.025 37.5393 107.25 37.444 107.51 37.444C107.727 37.444 107.935 37.5133 108.134 37.652V38.224C107.943 38.0767 107.761 38.003 107.588 38.003C107.267 38.003 107.107 38.146 107.107 38.432C107.107 38.5793 107.168 38.7267 107.289 38.874H108.472L108.173 39.433H106.028ZM106.717 48V40.733L107.835 40.135V48H106.717Z" fill="white"/>
<path d="M35.5059 69.676C35.5059 72.0653 34.6846 73.988 33.0419 75.444C31.5859 76.7133 29.7566 77.348 27.5539 77.348C24.9032 77.348 22.8499 76.4707 21.3939 74.716C20.2739 73.372 19.7139 71.776 19.7139 69.928C19.7139 68.472 20.0499 67.184 20.7219 66.064L24.1939 65.28C23.4286 66.4933 23.0459 67.884 23.0459 69.452C23.0459 70.8333 23.4472 71.9253 24.2499 72.728C25.0712 73.5493 26.1726 73.96 27.5539 73.96C28.9166 73.96 29.9992 73.5773 30.8019 72.812C31.6046 72.0467 32.0059 71.0013 32.0059 69.676V55.816L35.5059 53.94V69.676ZM45.6876 72C43.989 72 42.673 71.4587 41.7396 70.376C40.937 69.4427 40.5356 68.2387 40.5356 66.764V55.788L44.0636 53.94V66.596C44.0636 67.324 44.213 67.8467 44.5116 68.164C44.8103 68.4627 45.3143 68.612 46.0236 68.612H48.5436V72H45.6876ZM46.8553 72V68.612H49.3753C50.0846 68.612 50.5886 68.4627 50.8873 68.164C51.186 67.8467 51.3353 67.324 51.3353 66.596V61.416L54.8633 59.568V66.764C54.8633 68.4627 54.3406 69.788 53.2953 70.74C52.3806 71.58 51.186 72 49.7113 72H46.8553ZM48.3673 78.244C47.8073 78.244 47.3593 78.076 47.0233 77.74C46.6873 77.404 46.5193 76.9467 46.5193 76.368C46.5193 75.1547 47.1353 74.548 48.3673 74.548C48.9273 74.548 49.366 74.7067 49.6833 75.024C50.0193 75.36 50.1873 75.808 50.1873 76.368C50.1873 77.6187 49.5806 78.244 48.3673 78.244ZM52.6793 78.244C52.1193 78.244 51.6713 78.076 51.3353 77.74C50.9993 77.404 50.8313 76.9467 50.8313 76.368C50.8313 75.1547 51.4473 74.548 52.6793 74.548C53.2393 74.548 53.678 74.7067 53.9953 75.024C54.3313 75.36 54.4993 75.808 54.4993 76.368C54.4993 77.6187 53.8926 78.244 52.6793 78.244ZM66.767 70.264C66.767 72.4293 66.1697 74.184 64.975 75.528C63.8737 76.7787 62.4177 77.404 60.607 77.404C59.431 77.404 58.283 77.1053 57.163 76.508V73.428C58.1337 73.9693 59.0857 74.24 60.019 74.24C61.0457 74.24 61.839 73.904 62.399 73.232C62.9777 72.5787 63.267 71.664 63.267 70.488V61.444L66.767 59.568V70.264ZM77.9834 72.42V56.18H81.5114V70.544L77.9834 72.42ZM90.8809 72.42V66.12C90.3023 66.3627 89.7049 66.484 89.0889 66.484C88.5663 66.484 88.0716 66.3907 87.6049 66.204C85.4956 65.4947 84.4409 63.8613 84.4409 61.304C84.4409 59.4933 84.9916 58.0933 86.0929 57.104C87.0076 56.2827 88.1649 55.872 89.5649 55.872C91.0396 55.872 92.2343 56.348 93.1489 57.3C93.9889 58.196 94.4089 59.372 94.4089 60.828V70.516L90.8809 72.42ZM90.8809 60.716C90.8809 59.6147 90.4049 59.064 89.4529 59.064C88.9489 59.064 88.5383 59.26 88.2209 59.652C87.9223 60.044 87.7729 60.5573 87.7729 61.192C87.7729 62.536 88.2956 63.2547 89.3409 63.348C89.3969 63.348 89.4343 63.348 89.4529 63.348C89.9569 63.348 90.4329 63.1893 90.8809 62.872V60.716ZM103.65 72.42V66.12C103.072 66.3627 102.474 66.484 101.858 66.484C101.336 66.484 100.841 66.3907 100.374 66.204C98.2651 65.4947 97.2105 63.8613 97.2105 61.304C97.2105 59.4933 97.7611 58.0933 98.8625 57.104C99.7771 56.2827 100.934 55.872 102.334 55.872C103.809 55.872 105.004 56.348 105.918 57.3C106.758 58.196 107.178 59.372 107.178 60.828V70.516L103.65 72.42ZM103.65 60.716C103.65 59.6147 103.174 59.064 102.222 59.064C101.718 59.064 101.308 59.26 100.99 59.652C100.692 60.044 100.542 60.5573 100.542 61.192C100.542 62.536 101.065 63.2547 102.11 63.348C102.166 63.348 102.204 63.348 102.222 63.348C102.726 63.348 103.202 63.1893 103.65 62.872V60.716Z" fill="white"/>
</svg>
