<svg width="146" height="43" viewBox="0 0 146 43" fill="none" xmlns="http://www.w3.org/2000/svg">
<g id="Group">
<path id="BG" d="M145.026 38.0418C145.026 40.2846 143.171 42.1014 140.877 42.1014H5.11466C2.82181 42.1014 0.960693 40.2846 0.960693 38.0418L0.960693 5.66791C0.960693 3.42613 2.82181 1.60303 5.11466 1.60303L140.876 1.60303C143.171 1.60303 145.025 3.42613 145.025 5.66791L145.026 38.0418Z" fill="white"/>
<path id="Border" d="M140.44 1.65205C142.938 1.65205 144.971 3.63407 144.971 6.06982V37.6347C144.971 40.0705 142.938 42.0525 140.44 42.0525H5.54707C3.04886 42.0525 1.01603 40.0705 1.01603 37.6347V6.06982C1.01603 3.63407 3.04886 1.65205 5.54707 1.65205H140.44ZM140.44 0.809011H5.54707C2.58078 0.809011 0.151367 3.17769 0.151367 6.06982L0.151367 37.6347C0.151367 40.5268 2.58078 42.8955 5.54707 42.8955H140.44C143.406 42.8955 145.835 40.5268 145.835 37.6347V6.06982C145.835 3.17769 143.406 0.809011 140.44 0.809011Z" fill="#A6A6A6"/>
<g id="Icon">
<g id="Vector">
<path d="M32.6638 21.6249C32.6325 18.2338 35.5116 16.584 35.6433 16.5072C34.0127 14.1893 31.4854 13.8726 30.5972 13.8473C28.4746 13.6295 26.4156 15.0857 25.3343 15.0857C24.2314 15.0857 22.5663 13.8684 20.7716 13.9041C18.4623 13.9389 16.3018 15.2425 15.1169 17.2668C12.6716 21.3945 14.4954 27.4602 16.8382 30.7966C18.0101 32.4306 19.3796 34.2551 21.172 34.1909C22.9256 34.1204 23.5807 33.1008 25.6968 33.1008C27.7936 33.1008 28.4087 34.1909 30.2368 34.1498C32.1188 34.1204 33.3037 32.5085 34.4347 30.8597C35.789 28.9869 36.3329 27.1424 36.3544 27.0478C36.3102 27.033 32.6994 25.6894 32.6638 21.6249Z" fill="black"/>
<path d="M29.2105 11.6525C30.1537 10.5025 30.799 8.93793 30.6199 7.35022C29.2548 7.40914 27.5476 8.27086 26.5645 9.39562C25.6947 10.3868 24.9177 12.0113 25.1184 13.539C26.6519 13.6506 28.2264 12.7846 29.2105 11.6525Z" fill="black"/>
</g>
</g>
<g id="Download on the">
<path id="D" d="M53.0832 11.3401C53.0832 12.5785 52.7023 13.5107 51.9415 14.1367C51.2368 14.7144 50.2354 15.0037 48.9383 15.0037C48.2951 15.0037 47.7447 14.9763 47.2839 14.9216V8.15518C47.885 8.06048 48.5325 8.01208 49.2318 8.01208C50.4674 8.01208 51.3987 8.27407 52.0268 8.79805C52.7304 9.39042 53.0832 10.2374 53.0832 11.3401ZM51.8908 11.3706C51.8908 10.5678 51.6728 9.95227 51.2368 9.52299C50.8009 9.09476 50.1642 8.88012 49.3257 8.88012C48.9696 8.88012 48.6663 8.90327 48.4149 8.95167V14.0957C48.5541 14.1167 48.8088 14.1262 49.1789 14.1262C50.0444 14.1262 50.7124 13.8916 51.1829 13.4223C51.6534 12.953 51.8908 12.2691 51.8908 11.3706Z" fill="black"/>
<path id="o" d="M59.4059 12.4218C59.4059 13.1846 59.1825 13.8096 58.7357 14.2999C58.2674 14.8039 57.6469 15.0553 56.872 15.0553C56.1253 15.0553 55.5307 14.8144 55.0871 14.3304C54.6447 13.8474 54.4235 13.2382 54.4235 12.5038C54.4235 11.7357 54.6512 11.1055 55.1087 10.6162C55.5663 10.127 56.1814 9.88184 56.9562 9.88184C57.703 9.88184 58.303 10.1228 58.7573 10.6057C59.189 11.075 59.4059 11.681 59.4059 12.4218ZM58.2328 12.4575C58.2328 11.9998 58.1314 11.6074 57.9296 11.2802C57.6922 10.8845 57.3544 10.6867 56.9152 10.6867C56.4609 10.6867 56.1156 10.8845 55.8781 11.2802C55.6753 11.6074 55.5749 12.0062 55.5749 12.4775C55.5749 12.9352 55.6763 13.3277 55.8781 13.6549C56.1231 14.0505 56.4641 14.2483 56.9044 14.2483C57.3361 14.2483 57.6749 14.0473 57.9188 13.6444C58.1282 13.3108 58.2328 12.9152 58.2328 12.4575Z" fill="black"/>
<path id="w" d="M67.8836 9.98279L66.2919 14.9427H65.2559L64.5965 12.7889C64.4293 12.2513 64.2933 11.7168 64.1875 11.1865H64.167C64.0688 11.7315 63.9329 12.2649 63.758 12.7889L63.0577 14.9427H62.0098L60.5131 9.98279H61.6753L62.2505 12.3407C62.3897 12.8983 62.5041 13.4297 62.5958 13.9326H62.6163C62.7005 13.5181 62.8397 12.9899 63.0361 12.3512L63.758 9.98384H64.6796L65.3714 12.3007C65.5386 12.8657 65.6746 13.4097 65.7793 13.9337H65.8106C65.8872 13.4234 66.0026 12.8794 66.1559 12.3007L66.7732 9.98384H67.8836V9.98279Z" fill="black"/>
<path id="n" d="M73.7466 14.9427H72.6157V12.1019C72.6157 11.2265 72.2746 10.7888 71.5905 10.7888C71.2549 10.7888 70.984 10.9087 70.7736 11.1497C70.5653 11.3906 70.4595 11.6747 70.4595 11.9998V14.9417H69.3286V11.4001C69.3286 10.9645 69.3146 10.4921 69.2876 9.98072H70.2815L70.3344 10.7562H70.3657C70.4973 10.5152 70.6937 10.3164 70.9516 10.1575C71.2581 9.9723 71.6013 9.87866 71.9768 9.87866C72.4516 9.87866 72.8466 10.0281 73.1606 10.3279C73.5513 10.6951 73.7466 11.2433 73.7466 11.9714V14.9427Z" fill="black"/>
<path id="l" d="M76.8653 14.9426H75.7355V7.70691H76.8653V14.9426Z" fill="black"/>
<path id="o_2" d="M83.5237 12.4218C83.5237 13.1846 83.3003 13.8096 82.8535 14.2999C82.3852 14.8039 81.7636 15.0553 80.9898 15.0553C80.242 15.0553 79.6474 14.8144 79.2049 14.3304C78.7625 13.8474 78.5413 13.2382 78.5413 12.5038C78.5413 11.7357 78.769 11.1055 79.2265 10.6162C79.6841 10.127 80.2992 9.88184 81.0729 9.88184C81.8208 9.88184 82.4197 10.1228 82.8751 10.6057C83.3067 11.075 83.5237 11.681 83.5237 12.4218ZM82.3495 12.4575C82.3495 11.9998 82.2481 11.6074 82.0463 11.2802C81.81 10.8845 81.4711 10.6867 81.033 10.6867C80.5776 10.6867 80.2323 10.8845 79.9959 11.2802C79.7931 11.6074 79.6927 12.0062 79.6927 12.4775C79.6927 12.9352 79.7941 13.3277 79.9959 13.6549C80.2409 14.0505 80.5819 14.2483 81.0222 14.2483C81.4539 14.2483 81.7916 14.0473 82.0355 13.6444C82.2459 13.3108 82.3495 12.9152 82.3495 12.4575Z" fill="black"/>
<path id="a" d="M88.997 14.9427H87.9815L87.8973 14.3714H87.866C87.5185 14.827 87.0232 15.0553 86.38 15.0553C85.8998 15.0553 85.5113 14.9049 85.2189 14.606C84.9534 14.3346 84.8207 13.9968 84.8207 13.596C84.8207 12.9899 85.0797 12.528 85.6009 12.2082C86.121 11.8883 86.8527 11.7315 87.7948 11.7389V11.6463C87.7948 10.9929 87.443 10.6667 86.7383 10.6667C86.2365 10.6667 85.7941 10.7899 85.4121 11.034L85.1822 10.3101C85.6549 10.0249 86.2387 9.88184 86.9272 9.88184C88.2567 9.88184 88.9236 10.5657 88.9236 11.9336V13.7601C88.9236 14.2557 88.9484 14.6502 88.997 14.9427ZM87.8228 13.2382V12.4733C86.5754 12.4523 85.9516 12.7858 85.9516 13.4729C85.9516 13.7317 86.0228 13.9253 86.1685 14.0547C86.3142 14.1841 86.4998 14.2483 86.721 14.2483C86.9692 14.2483 87.2013 14.1715 87.4128 14.0189C87.6254 13.8653 87.7559 13.6707 87.8045 13.4318C87.8164 13.3782 87.8228 13.3129 87.8228 13.2382Z" fill="black"/>
<path id="d" d="M95.4233 14.9426H94.4197L94.3668 14.1461H94.3355C94.015 14.7522 93.4689 15.0552 92.7017 15.0552C92.0887 15.0552 91.5783 14.8206 91.1736 14.3513C90.7689 13.8821 90.5671 13.2728 90.5671 12.5248C90.5671 11.722 90.7862 11.0717 91.2265 10.5751C91.6528 10.1122 92.1751 9.88068 92.7966 9.88068C93.4797 9.88068 93.9578 10.1048 94.2297 10.5541H94.2513V7.70691H95.3833V13.6064C95.3833 14.0893 95.3963 14.5344 95.4233 14.9426ZM94.2513 12.8509V12.0239C94.2513 11.8808 94.2405 11.7651 94.22 11.6767C94.1564 11.4116 94.0193 11.1885 93.811 11.0086C93.6006 10.8287 93.347 10.7382 93.0545 10.7382C92.6326 10.7382 92.3024 10.9013 92.0596 11.2285C91.8189 11.5557 91.697 11.9734 91.697 12.4837C91.697 12.974 91.8125 13.3718 92.0445 13.6779C92.2894 14.0041 92.6197 14.1672 93.033 14.1672C93.4042 14.1672 93.701 14.0315 93.9265 13.7589C94.1445 13.5075 94.2513 13.2045 94.2513 12.8509Z" fill="black"/>
<path id="o_3" d="M105.096 12.4218C105.096 13.1846 104.872 13.8096 104.426 14.2999C103.957 14.8039 103.338 15.0553 102.562 15.0553C101.816 15.0553 101.222 14.8144 100.777 14.3304C100.335 13.8474 100.113 13.2382 100.113 12.5038C100.113 11.7357 100.341 11.1055 100.799 10.6162C101.256 10.127 101.871 9.88184 102.647 9.88184C103.393 9.88184 103.994 10.1228 104.447 10.6057C104.879 11.075 105.096 11.681 105.096 12.4218ZM103.924 12.4575C103.924 11.9998 103.822 11.6074 103.62 11.2802C103.382 10.8845 103.045 10.6867 102.605 10.6867C102.152 10.6867 101.806 10.8845 101.568 11.2802C101.365 11.6074 101.265 12.0062 101.265 12.4775C101.265 12.9352 101.366 13.3277 101.568 13.6549C101.813 14.0505 102.154 14.2483 102.594 14.2483C103.026 14.2483 103.366 14.0473 103.61 13.6444C103.818 13.3108 103.924 12.9152 103.924 12.4575Z" fill="black"/>
<path id="n_2" d="M111.177 14.9427H110.047V12.1019C110.047 11.2265 109.706 10.7888 109.021 10.7888C108.685 10.7888 108.414 10.9087 108.205 11.1497C107.995 11.3906 107.891 11.6747 107.891 11.9998V14.9417H106.759V11.4001C106.759 10.9645 106.746 10.4921 106.719 9.98072H107.712L107.764 10.7562H107.796C107.928 10.5152 108.125 10.3164 108.382 10.1575C108.689 9.9723 109.031 9.87866 109.408 9.87866C109.882 9.87866 110.277 10.0281 110.591 10.3279C110.982 10.6951 111.177 11.2433 111.177 11.9714V14.9427Z" fill="black"/>
<path id="t" d="M118.788 10.8087H117.542V13.2182C117.542 13.8306 117.764 14.1367 118.202 14.1367C118.405 14.1367 118.573 14.1199 118.706 14.0852L118.735 14.9216C118.512 15.0037 118.218 15.0448 117.856 15.0448C117.41 15.0448 117.062 14.9122 116.811 14.647C116.558 14.3819 116.433 13.9358 116.433 13.3097V10.8087H115.69V9.9828H116.433V9.07373L117.541 8.74756V9.98175H118.787V10.8087H118.788Z" fill="black"/>
<path id="h" d="M124.775 14.9426H123.643V12.1228C123.643 11.2338 123.302 10.7887 122.619 10.7887C122.094 10.7887 121.736 11.0465 121.54 11.562C121.506 11.6704 121.487 11.803 121.487 11.9587V14.9416H120.357V7.70691H121.487V10.6961H121.508C121.864 10.1521 122.375 9.88068 123.036 9.88068C123.505 9.88068 123.892 10.0301 124.2 10.33C124.583 10.7035 124.775 11.259 124.775 11.9934V14.9426Z" fill="black"/>
<path id="e" d="M130.951 12.2281C130.951 12.4259 130.936 12.5922 130.909 12.7279H127.517C127.532 13.2182 127.694 13.5917 128.008 13.8505C128.295 14.082 128.665 14.1978 129.118 14.1978C129.62 14.1978 130.078 14.1199 130.49 13.9631L130.667 14.7291C130.185 14.9332 129.617 15.0353 128.96 15.0353C128.172 15.0353 127.551 14.8091 127.103 14.3566C126.651 13.9042 126.428 13.2971 126.428 12.5353C126.428 11.7873 126.636 11.1644 127.056 10.6677C127.494 10.1375 128.087 9.87231 128.835 9.87231C129.566 9.87231 130.122 10.1375 130.498 10.6677C130.801 11.0886 130.951 11.6094 130.951 12.2281ZM129.872 11.943C129.88 11.6157 129.806 11.3338 129.653 11.096C129.456 10.7898 129.157 10.6362 128.753 10.6362C128.384 10.6362 128.082 10.7856 127.853 11.0855C127.665 11.3243 127.554 11.6094 127.517 11.943H129.872Z" fill="black"/>
</g>
<g id="App Store">
<path id="A" d="M58.0419 33.9562H55.5911L54.2487 29.8433H49.5825L48.3037 33.9562H45.9177L50.5408 19.954H53.3962L58.0419 33.9562ZM53.844 28.1177L52.63 24.4614C52.5016 24.0879 52.2609 23.2083 51.9059 21.8237H51.8627C51.7213 22.4192 51.4936 23.2988 51.1807 24.4614L49.9882 28.1177H53.844Z" fill="black"/>
<path id="p" d="M69.9307 28.7839C69.9307 30.501 69.4548 31.8583 68.503 32.8547C67.6505 33.7417 66.5919 34.1846 65.3282 34.1846C63.9641 34.1846 62.9843 33.7069 62.3875 32.7516H62.3444V38.0702H60.0436V27.1835C60.0436 26.104 60.0145 24.9961 59.9584 23.8597H61.9818L62.1102 25.4601H62.1533C62.9206 24.2543 64.085 23.6525 65.6476 23.6525C66.8692 23.6525 67.889 24.1228 68.7048 25.0645C69.5228 26.0072 69.9307 27.2467 69.9307 28.7839ZM67.5868 28.8659C67.5868 27.8832 67.3602 27.073 66.9048 26.4354C66.4073 25.7705 65.7393 25.438 64.9019 25.438C64.3343 25.438 63.8185 25.6232 63.3577 25.9883C62.8958 26.3565 62.5936 26.8374 62.4523 27.4329C62.381 27.7107 62.3454 27.9379 62.3454 28.1168V29.8003C62.3454 30.5347 62.5764 31.1544 63.0382 31.6605C63.5001 32.1666 64.1001 32.4191 64.8382 32.4191C65.7048 32.4191 66.3793 32.0929 66.8616 31.4427C67.3451 30.7914 67.5868 29.9328 67.5868 28.8659Z" fill="black"/>
<path id="p_2" d="M81.8413 28.7839C81.8413 30.501 81.3654 31.8583 80.4125 32.8547C79.561 33.7417 78.5024 34.1846 77.2387 34.1846C75.8747 34.1846 74.8948 33.7069 74.2991 32.7516H74.256V38.0702H71.9552V27.1835C71.9552 26.104 71.9261 24.9961 71.87 23.8597H73.8934L74.0218 25.4601H74.065C74.8312 24.2543 75.9956 23.6525 77.5592 23.6525C78.7797 23.6525 79.7995 24.1228 80.6175 25.0645C81.4323 26.0072 81.8413 27.2467 81.8413 28.7839ZM79.4974 28.8659C79.4974 27.8832 79.2697 27.073 78.8143 26.4354C78.3168 25.7705 77.651 25.438 76.8125 25.438C76.2438 25.438 75.729 25.6232 75.2671 25.9883C74.8053 26.3565 74.5042 26.8374 74.3628 27.4329C74.2927 27.7107 74.256 27.9379 74.256 28.1168V29.8003C74.256 30.5347 74.4869 31.1544 74.9466 31.6605C75.4085 32.1655 76.0085 32.4191 76.7488 32.4191C77.6153 32.4191 78.2898 32.0929 78.7722 31.4427C79.2556 30.7914 79.4974 29.9328 79.4974 28.8659Z" fill="black"/>
<path id="S" d="M95.1578 30.0296C95.1578 31.2206 94.7337 32.1897 93.8823 32.9378C92.9466 33.7553 91.6441 34.1635 89.9704 34.1635C88.425 34.1635 87.1862 33.8731 86.2484 33.2913L86.7815 31.4216C87.7916 32.0171 88.8999 32.3159 90.1074 32.3159C90.974 32.3159 91.6484 32.1244 92.133 31.7436C92.6153 31.3627 92.856 30.8513 92.856 30.2137C92.856 29.6455 92.6574 29.1668 92.2592 28.7786C91.8632 28.3903 91.2017 28.0294 90.2779 27.6959C87.7635 26.7816 86.5074 25.4422 86.5074 23.6808C86.5074 22.5298 86.9477 21.586 87.8294 20.8516C88.7078 20.1161 89.8797 19.7489 91.3452 19.7489C92.652 19.7489 93.7377 19.9709 94.6042 20.4139L94.029 22.2425C93.2197 21.8132 92.3046 21.5986 91.2804 21.5986C90.4711 21.5986 89.8387 21.7933 89.3855 22.1805C89.0024 22.5266 88.8103 22.9485 88.8103 23.4483C88.8103 24.0017 89.0294 24.4594 89.4696 24.8193C89.8527 25.1518 90.5488 25.5116 91.5589 25.8998C92.7945 26.3849 93.702 26.952 94.2859 27.6022C94.8675 28.2504 95.1578 29.0616 95.1578 30.0296Z" fill="black"/>
<path id="t_2" d="M102.765 25.5432H100.229V30.4452C100.229 31.692 100.675 32.3149 101.571 32.3149C101.982 32.3149 102.323 32.2802 102.593 32.2107L102.657 33.9142C102.203 34.0794 101.607 34.1625 100.867 34.1625C99.9589 34.1625 99.2488 33.8921 98.7362 33.3523C98.2258 32.8115 97.9689 31.9046 97.9689 30.6304V25.5411H96.4581V23.8576H97.9689V22.009L100.229 21.344V23.8576H102.765V25.5432Z" fill="black"/>
<path id="o_4" d="M114.207 28.8248C114.207 30.3768 113.751 31.6509 112.843 32.6473C111.89 33.6732 110.625 34.1845 109.049 34.1845C107.529 34.1845 106.319 33.6932 105.417 32.7105C104.515 31.7277 104.064 30.4872 104.064 28.9921C104.064 27.4275 104.528 26.146 105.459 25.1496C106.388 24.1522 107.642 23.6534 109.219 23.6534C110.738 23.6534 111.961 24.1448 112.884 25.1286C113.767 26.0829 114.207 27.315 114.207 28.8248ZM111.82 28.8974C111.82 27.9663 111.616 27.1677 111.202 26.5016C110.72 25.6957 110.031 25.2938 109.137 25.2938C108.212 25.2938 107.51 25.6967 107.027 26.5016C106.614 27.1687 106.41 27.9799 106.41 28.9395C106.41 29.8707 106.614 30.6693 107.027 31.3342C107.525 32.1402 108.22 32.5421 109.117 32.5421C109.995 32.5421 110.684 32.1318 111.182 31.3132C111.606 30.6345 111.82 29.8275 111.82 28.8974Z" fill="black"/>
<path id="r" d="M121.685 25.8325C121.458 25.7915 121.215 25.7705 120.96 25.7705C120.151 25.7705 119.525 26.0682 119.084 26.6648C118.701 27.1909 118.509 27.8559 118.509 28.6587V33.9563H116.21L116.231 27.0394C116.231 25.8757 116.202 24.8162 116.145 23.8608H118.149L118.233 25.7926H118.297C118.54 25.1287 118.923 24.5942 119.447 24.1933C119.96 23.8324 120.513 23.6525 121.11 23.6525C121.323 23.6525 121.515 23.6672 121.685 23.6935V25.8325Z" fill="black"/>
<path id="e_2" d="M131.975 28.4302C131.975 28.8322 131.948 29.171 131.891 29.4477H124.989C125.016 30.4451 125.349 31.2079 125.99 31.734C126.572 32.2043 127.324 32.44 128.248 32.44C129.269 32.44 130.202 32.2811 131.04 31.9623L131.401 33.5195C130.421 33.9362 129.264 34.1435 127.929 34.1435C126.323 34.1435 125.063 33.6826 124.146 32.762C123.231 31.8413 122.772 30.605 122.772 29.0542C122.772 27.5317 123.198 26.2638 124.052 25.2527C124.945 24.1732 126.153 23.6334 127.672 23.6334C129.165 23.6334 130.295 24.1732 131.062 25.2527C131.669 26.1102 131.975 27.1708 131.975 28.4302ZM129.781 27.8484C129.796 27.1834 129.646 26.6089 129.334 26.1239C128.936 25.5 128.324 25.1885 127.501 25.1885C126.749 25.1885 126.137 25.4926 125.669 26.1028C125.286 26.5879 125.059 27.1697 124.989 27.8473H129.781V27.8484Z" fill="black"/>
</g>
</g>
</svg>
