<svg width="147" height="43" viewBox="0 0 147 43" fill="none" xmlns="http://www.w3.org/2000/svg">
<g id="Group">
<path id="BG" d="M140.724 42.5686H5.558C2.5857 42.5686 0.151367 40.1951 0.151367 37.2971L0.151367 5.66834C0.151367 2.77035 2.5857 0.396873 5.558 0.396873H140.724C143.696 0.396873 146.13 2.77035 146.13 5.66834V37.2971C146.13 40.1951 143.696 42.5686 140.724 42.5686Z" fill="white"/>
<path id="Border" d="M140.724 1.24162C143.227 1.24162 145.264 3.22765 145.264 5.66834V37.2971C145.264 39.7378 143.227 41.7239 140.724 41.7239H5.558C3.05473 41.7239 1.01778 39.7378 1.01778 37.2971V5.66834C1.01778 3.22765 3.05473 1.24162 5.558 1.24162H140.724ZM140.724 0.396873H5.558C2.5857 0.396873 0.151367 2.77035 0.151367 5.66834L0.151367 37.2971C0.151367 40.1951 2.5857 42.5686 5.558 42.5686H140.724C143.696 42.5686 146.13 40.1951 146.13 37.2971V5.66834C146.13 2.77035 143.696 0.396873 140.724 0.396873Z" fill="#A6A6A6"/>
<g id="Icon">
<path id="Vector" d="M11.4351 8.34483C11.1174 8.66903 10.9336 9.17377 10.9336 9.82743V33.1431C10.9336 33.7968 11.1174 34.3015 11.4351 34.6257L11.5135 34.6969L24.9138 21.6368V21.3285L11.5135 8.2684L11.4351 8.34483Z" fill="url(#paint0_linear_49_228)"/>
<path id="Vector_2" d="M29.3755 25.9924L24.9137 21.6369V21.3285L29.3809 16.973L29.4809 17.0296L34.7713 19.9645C36.2811 20.7974 36.2811 22.168 34.7713 23.0061L29.4809 25.9358L29.3755 25.9924Z" fill="url(#paint1_linear_49_228)"/>
<path id="Vector_3" d="M29.481 25.9357L24.9138 21.4827L11.4351 34.6257C11.9365 35.1397 12.7543 35.2016 13.6842 34.6877L29.481 25.9357Z" fill="url(#paint2_linear_49_228)"/>
<path id="Vector_4" d="M29.481 17.0297L13.6842 8.27777C12.7543 7.76907 11.9365 7.83101 11.4351 8.34498L24.9138 21.4828L29.481 17.0297Z" fill="url(#paint3_linear_49_228)"/>
</g>
<g id="GET IT ON">
<path id="G" d="M51.4251 11.1967C51.4251 12.077 51.1547 12.7821 50.6222 13.3079C50.0099 13.9313 49.2124 14.2449 48.2352 14.2449C47.3012 14.2449 46.5037 13.926 45.8495 13.2974C45.1939 12.6595 44.8668 11.8767 44.8668 10.9397C44.8668 10.0027 45.1939 9.21992 45.8495 8.58734C46.5037 7.95345 47.3012 7.63452 48.2352 7.63452C48.7001 7.63452 49.1435 7.72809 49.5665 7.90205C49.9883 8.07732 50.3316 8.31454 50.5803 8.60711L50.0153 9.16325C49.5814 8.66378 48.9907 8.41734 48.2352 8.41734C47.5539 8.41734 46.9632 8.64928 46.4618 9.11712C45.9657 9.58628 45.717 10.1938 45.717 10.9397C45.717 11.6856 45.9657 12.2984 46.4618 12.7676C46.9632 13.2302 47.5539 13.4674 48.2352 13.4674C48.9583 13.4674 49.5665 13.2302 50.0464 12.7623C50.3627 12.4526 50.5424 12.0257 50.5897 11.4801H48.2352V10.7183H51.3764C51.4143 10.8831 51.4251 11.0425 51.4251 11.1967Z" fill="black" stroke="black" stroke-width="0.129759" stroke-miterlimit="10"/>
<path id="E" d="M56.4087 8.55564H53.458V10.5588H56.1181V11.3205H53.458V13.3237H56.4087V14.0999H52.6227V7.77942H56.4087V8.55564Z" fill="black" stroke="black" stroke-width="0.129759" stroke-miterlimit="10"/>
<path id="T" d="M59.9257 14.0999H59.0904V8.55564H57.2805V7.77942H61.7369V8.55564H59.9257V14.0999Z" fill="black" stroke="black" stroke-width="0.129759" stroke-miterlimit="10"/>
<path id="I" d="M64.9619 14.0999V7.77942H65.7959V14.0999H64.9619Z" fill="black" stroke="black" stroke-width="0.129759" stroke-miterlimit="10"/>
<path id="T_2" d="M69.4927 14.0999H68.6642V8.55564H66.8475V7.77942H71.3093V8.55564H69.4927V14.0999Z" fill="black" stroke="black" stroke-width="0.129759" stroke-miterlimit="10"/>
<path id="O" d="M79.7464 13.2869C79.1071 13.926 78.315 14.2449 77.3702 14.2449C76.42 14.2449 75.6279 13.926 74.9886 13.2869C74.3506 12.649 74.033 11.8662 74.033 10.9397C74.033 10.0133 74.3506 9.23046 74.9886 8.59261C75.6279 7.95345 76.42 7.63452 77.3702 7.63452C78.3096 7.63452 79.1017 7.95345 79.741 8.59788C80.3844 9.241 80.702 10.0185 80.702 10.9397C80.702 11.8662 80.3844 12.649 79.7464 13.2869ZM75.6063 12.7571C76.0875 13.2302 76.6727 13.4674 77.3702 13.4674C78.0623 13.4674 78.6529 13.2302 79.1287 12.7571C79.6086 12.284 79.8518 11.6764 79.8518 10.9397C79.8518 10.203 79.6086 9.59551 79.1287 9.12239C78.6529 8.64928 78.0623 8.41206 77.3702 8.41206C76.6727 8.41206 76.0875 8.64928 75.6063 9.12239C75.1265 9.59551 74.8832 10.203 74.8832 10.9397C74.8832 11.6764 75.1265 12.284 75.6063 12.7571Z" fill="black" stroke="black" stroke-width="0.129759" stroke-miterlimit="10"/>
<path id="N" d="M81.8739 14.0999V7.77942H82.8876L86.0397 12.6951H86.0762L86.0397 11.48V7.77942H86.8737V14.0999H86.0032L82.7025 8.94178H82.666L82.7025 10.1621V14.0999H81.8739Z" fill="black" stroke="black" stroke-width="0.129759" stroke-miterlimit="10"/>
</g>
<g id="Google Play">
<path id="Google Play_2" d="M73.8275 23.3304C71.2877 23.3304 69.2129 25.215 69.2129 27.8151C69.2129 30.3942 71.2877 32.2985 73.8275 32.2985C76.3726 32.2985 78.4474 30.3942 78.4474 27.8151C78.4474 25.215 76.3726 23.3304 73.8275 23.3304ZM73.8275 30.5326C72.4339 30.5326 71.235 29.4111 71.235 27.8151C71.235 26.1981 72.4339 25.0964 73.8275 25.0964C75.221 25.0964 76.4253 26.1981 76.4253 27.8151C76.4253 29.4111 75.221 30.5326 73.8275 30.5326ZM63.759 23.3304C61.2138 23.3304 59.1444 25.215 59.1444 27.8151C59.1444 30.3942 61.2138 32.2985 63.759 32.2985C66.3028 32.2985 68.3735 30.3942 68.3735 27.8151C68.3735 25.215 66.3028 23.3304 63.759 23.3304ZM63.759 30.5326C62.364 30.5326 61.1611 29.4111 61.1611 27.8151C61.1611 26.1981 62.364 25.0964 63.759 25.0964C65.1525 25.0964 66.3514 26.1981 66.3514 27.8151C66.3514 29.4111 65.1525 30.5326 63.759 30.5326ZM51.7779 24.705V26.6106H56.4451C56.3086 27.6754 55.9437 28.4582 55.3841 29.0038C54.7029 29.6628 53.6418 30.3942 51.7779 30.3942C48.9056 30.3942 46.6564 28.134 46.6564 25.3336C46.6564 22.5331 48.9056 20.273 51.7779 20.273C53.3309 20.273 54.4609 20.8647 55.2949 21.6317L56.6722 20.2888C55.5057 19.2029 53.954 18.3687 51.7779 18.3687C47.8391 18.3687 44.5289 21.4933 44.5289 25.3336C44.5289 29.1738 47.8391 32.2985 51.7779 32.2985C53.9067 32.2985 55.5057 31.6185 56.7628 30.3428C58.0509 29.0869 58.4524 27.3209 58.4524 25.895C58.4524 25.4522 58.4145 25.045 58.3469 24.705H51.7779ZM100.77 26.1823C100.39 25.1794 99.2183 23.3304 96.8313 23.3304C94.4659 23.3304 92.4966 25.1478 92.4966 27.8151C92.4966 30.327 94.4456 32.2985 97.0584 32.2985C99.171 32.2985 100.39 31.0426 100.892 30.3112L99.3238 29.2925C98.8007 30.0384 98.0884 30.5326 97.0584 30.5326C96.0352 30.5326 95.3012 30.0753 94.8309 29.1738L100.982 26.6923L100.77 26.1823ZM94.4984 27.6754C94.4456 25.9464 95.8757 25.0608 96.9003 25.0608C97.7031 25.0608 98.3844 25.4522 98.6115 26.0123L94.4984 27.6754ZM89.4986 32.0257H91.5207V18.847H89.4986V32.0257ZM86.187 24.3294H86.1194C85.6653 23.8049 84.7989 23.3304 83.7013 23.3304C81.3981 23.3304 79.2922 25.302 79.2922 27.8296C79.2922 30.3428 81.3981 32.2985 83.7013 32.2985C84.7989 32.2985 85.6653 31.8201 86.1194 31.2798H86.187V31.9229C86.187 33.6375 85.2476 34.5586 83.7324 34.5586C82.497 34.5586 81.7306 33.6889 81.4143 32.9574L79.6558 33.673C80.1627 34.8618 81.5049 36.3246 83.7324 36.3246C86.1032 36.3246 88.1037 34.9645 88.1037 31.6554V23.6032H86.187V24.3294ZM83.8743 30.5326C82.4808 30.5326 81.3143 29.3952 81.3143 27.8296C81.3143 26.2495 82.4808 25.0964 83.8743 25.0964C85.2476 25.0964 86.3303 26.2495 86.3303 27.8296C86.3303 29.3952 85.2476 30.5326 83.8743 30.5326ZM110.237 18.847H105.401V32.0257H107.417V27.0323H110.237C112.477 27.0323 114.673 25.4522 114.673 22.939C114.673 20.4272 112.471 18.847 110.237 18.847ZM110.29 25.1992H107.417V20.6802H110.29C111.796 20.6802 112.655 21.8992 112.655 22.939C112.655 23.959 111.796 25.1992 110.29 25.1992ZM122.756 23.3054C121.299 23.3054 119.784 23.9327 119.161 25.323L120.95 26.0545C121.336 25.323 122.044 25.0858 122.793 25.0858C123.839 25.0858 124.9 25.6986 124.916 26.7806V26.919C124.551 26.7134 123.77 26.409 122.809 26.409C120.881 26.409 118.917 27.4435 118.917 29.3742C118.917 31.1401 120.496 32.2774 122.271 32.2774C123.628 32.2774 124.377 31.6804 124.847 30.9859H124.916V32.0046H126.864V26.9493C126.864 24.6127 125.074 23.3054 122.756 23.3054ZM122.513 30.5273C121.853 30.5273 120.934 30.2084 120.934 29.4111C120.934 28.391 122.08 27.9996 123.072 27.9996C123.96 27.9996 124.377 28.1907 124.916 28.4424C124.758 29.6628 123.681 30.5273 122.513 30.5273ZM133.96 23.594L131.642 29.3069H131.573L129.176 23.594H127.002L130.602 31.5776L128.548 36.0202H130.655L136.204 23.594H133.96ZM115.782 32.0257H117.804V18.847H115.782V32.0257Z" fill="black"/>
</g>
</g>
<defs>
<linearGradient id="paint0_linear_49_228" x1="23.724" y1="33.3859" x2="6.0361" y2="15.2445" gradientUnits="userSpaceOnUse">
<stop stop-color="#00A0FF"/>
<stop offset="0.0066" stop-color="#00A1FF"/>
<stop offset="0.2601" stop-color="#00BEFF"/>
<stop offset="0.5122" stop-color="#00D2FF"/>
<stop offset="0.7604" stop-color="#00DFFF"/>
<stop offset="1" stop-color="#00E3FF"/>
</linearGradient>
<linearGradient id="paint1_linear_49_228" x1="36.7374" y1="21.4812" x2="10.5726" y2="21.4812" gradientUnits="userSpaceOnUse">
<stop stop-color="#FFE000"/>
<stop offset="0.4087" stop-color="#FFBD00"/>
<stop offset="0.7754" stop-color="#FFA500"/>
<stop offset="1" stop-color="#FF9C00"/>
</linearGradient>
<linearGradient id="paint2_linear_49_228" x1="26.9975" y1="19.0619" x2="3.01127" y2="-5.53937" gradientUnits="userSpaceOnUse">
<stop stop-color="#FF3A44"/>
<stop offset="1" stop-color="#C31162"/>
</linearGradient>
<linearGradient id="paint3_linear_49_228" x1="8.04218" y1="42.3829" x2="18.7531" y2="31.3974" gradientUnits="userSpaceOnUse">
<stop stop-color="#32A071"/>
<stop offset="0.0685" stop-color="#2DA771"/>
<stop offset="0.4762" stop-color="#15CF74"/>
<stop offset="0.8009" stop-color="#06E775"/>
<stop offset="1" stop-color="#00F076"/>
</linearGradient>
</defs>
</svg>
