<svg width="20" height="20" viewBox="0 0 20 20" fill="none" xmlns="http://www.w3.org/2000/svg">
<path d="M10 0C12.6522 0 15.1957 1.05357 17.0711 2.92893C18.9464 4.8043 20 7.34784 20 10C20 12.6522 18.9464 15.1957 17.0711 17.0711C15.1957 18.9464 12.6522 20 10 20C7.34784 20 4.8043 18.9464 2.92893 17.0711C1.05357 15.1957 0 12.6522 0 10C0 7.34784 1.05357 4.8043 2.92893 2.92893C4.8043 1.05357 7.34784 0 10 0ZM11.3275 5.39C11.3275 5.05848 11.1958 4.74054 10.9614 4.50612C10.727 4.2717 10.409 4.14 10.0775 4.14C9.74598 4.14 9.42804 4.2717 9.19362 4.50612C8.9592 4.74054 8.8275 5.05848 8.8275 5.39V8.8275H5.39C5.05848 8.8275 4.74054 8.9592 4.50612 9.19362C4.2717 9.42804 4.14 9.74598 4.14 10.0775C4.14 10.409 4.2717 10.727 4.50612 10.9614C4.74054 11.1958 5.05848 11.3275 5.39 11.3275H8.8275V14.765C8.8275 15.0965 8.9592 15.4145 9.19362 15.6489C9.42804 15.8833 9.74598 16.015 10.0775 16.015C10.409 16.015 10.727 15.8833 10.9614 15.6489C11.1958 15.4145 11.3275 15.0965 11.3275 14.765V11.3275H14.765C15.0965 11.3275 15.4145 11.1958 15.6489 10.9614C15.8833 10.727 16.015 10.409 16.015 10.0775C16.015 9.74598 15.8833 9.42804 15.6489 9.19362C15.4145 8.9592 15.0965 8.8275 14.765 8.8275H11.3275V5.39Z" fill="#F39406"/>
</svg>
