<svg width="26" height="25" viewBox="0 0 26 25" fill="none" xmlns="http://www.w3.org/2000/svg">
<g id="Group">
<path id="Vector" d="M24.066 0H1.50354C0.830443 0 0.28479 0.545653 0.28479 1.21875V23.7812C0.28479 24.4543 0.830443 25 1.50354 25H24.066C24.7391 25 25.2848 24.4543 25.2848 23.7812V1.21875C25.2848 0.545653 24.7391 0 24.066 0Z" fill="black"/>
<g id="Mask group">
<mask id="mask0_294_10572" style="mask-type:luminance" maskUnits="userSpaceOnUse" x="0" y="0" width="26" height="25">
<g id="Group_2">
<path id="Vector_2" d="M24.066 0H1.50354C0.830443 0 0.28479 0.545653 0.28479 1.21875V23.7812C0.28479 24.4543 0.830443 25 1.50354 25H24.066C24.7391 25 25.2848 24.4543 25.2848 23.7812V1.21875C25.2848 0.545653 24.7391 0 24.066 0Z" fill="white"/>
</g>
</mask>
<g mask="url(#mask0_294_10572)">
<path id="Vector_3" d="M0.28479 0H8.61812V8.33333H0.28479V0Z" fill="black"/>
</g>
</g>
<g id="Mask group_2">
<mask id="mask1_294_10572" style="mask-type:luminance" maskUnits="userSpaceOnUse" x="0" y="0" width="26" height="25">
<g id="Group_3">
<path id="Vector_4" d="M24.066 0H1.50354C0.830443 0 0.28479 0.545653 0.28479 1.21875V23.7812C0.28479 24.4543 0.830443 25 1.50354 25H24.066C24.7391 25 25.2848 24.4543 25.2848 23.7812V1.21875C25.2848 0.545653 24.7391 0 24.066 0Z" fill="white"/>
</g>
</mask>
<g mask="url(#mask1_294_10572)">
<path id="Vector_5" d="M0.28479 8.33337H8.61812V16.6667H0.28479V8.33337Z" fill="#100F11"/>
</g>
</g>
<g id="Mask group_3">
<mask id="mask2_294_10572" style="mask-type:luminance" maskUnits="userSpaceOnUse" x="0" y="0" width="26" height="25">
<g id="Group_4">
<path id="Vector_6" d="M24.066 0H1.50354C0.830443 0 0.28479 0.545653 0.28479 1.21875V23.7812C0.28479 24.4543 0.830443 25 1.50354 25H24.066C24.7391 25 25.2848 24.4543 25.2848 23.7812V1.21875C25.2848 0.545653 24.7391 0 24.066 0Z" fill="white"/>
</g>
</mask>
<g mask="url(#mask2_294_10572)">
<path id="Vector_7" d="M8.61816 0H16.9515V8.33333H8.61816V0Z" fill="#211F1F"/>
</g>
</g>
<g id="Mask group_4">
<mask id="mask3_294_10572" style="mask-type:luminance" maskUnits="userSpaceOnUse" x="0" y="0" width="26" height="25">
<g id="Group_5">
<path id="Vector_8" d="M24.066 0H1.50354C0.830443 0 0.28479 0.545653 0.28479 1.21875V23.7812C0.28479 24.4543 0.830443 25 1.50354 25H24.066C24.7391 25 25.2848 24.4543 25.2848 23.7812V1.21875C25.2848 0.545653 24.7391 0 24.066 0Z" fill="white"/>
</g>
</mask>
<g mask="url(#mask3_294_10572)">
<path id="Vector_9" d="M8.61816 8.33337H16.9515V16.6667H8.61816V8.33337Z" fill="#2A2626"/>
</g>
</g>
<g id="Mask group_5">
<mask id="mask4_294_10572" style="mask-type:luminance" maskUnits="userSpaceOnUse" x="0" y="0" width="26" height="25">
<g id="Group_6">
<path id="Vector_10" d="M24.066 0H1.50354C0.830443 0 0.28479 0.545653 0.28479 1.21875V23.7812C0.28479 24.4543 0.830443 25 1.50354 25H24.066C24.7391 25 25.2848 24.4543 25.2848 23.7812V1.21875C25.2848 0.545653 24.7391 0 24.066 0Z" fill="white"/>
</g>
</mask>
<g mask="url(#mask4_294_10572)">
<path id="Vector_11" d="M16.9514 0H25.2847V8.33333H16.9514V0Z" fill="#2F2E2E"/>
</g>
</g>
<g id="Mask group_6">
<mask id="mask5_294_10572" style="mask-type:luminance" maskUnits="userSpaceOnUse" x="0" y="0" width="26" height="25">
<g id="Group_7">
<path id="Vector_12" d="M24.066 0H1.50354C0.830443 0 0.28479 0.545653 0.28479 1.21875V23.7812C0.28479 24.4543 0.830443 25 1.50354 25H24.066C24.7391 25 25.2848 24.4543 25.2848 23.7812V1.21875C25.2848 0.545653 24.7391 0 24.066 0Z" fill="white"/>
</g>
</mask>
<g mask="url(#mask5_294_10572)">
<path id="Vector_13" d="M16.9514 8.33337H25.2847V16.6667H16.9514V8.33337Z" fill="#212029"/>
</g>
</g>
<g id="Mask group_7">
<mask id="mask6_294_10572" style="mask-type:luminance" maskUnits="userSpaceOnUse" x="0" y="0" width="26" height="25">
<g id="Group_8">
<path id="Vector_14" d="M24.066 0H1.50354C0.830443 0 0.28479 0.545653 0.28479 1.21875V23.7812C0.28479 24.4543 0.830443 25 1.50354 25H24.066C24.7391 25 25.2848 24.4543 25.2848 23.7812V1.21875C25.2848 0.545653 24.7391 0 24.066 0Z" fill="white"/>
</g>
</mask>
<g mask="url(#mask6_294_10572)">
<path id="Vector_15" d="M0.28479 16.6666H8.61812V25H0.28479V16.6666Z" fill="#222429"/>
</g>
</g>
<g id="Mask group_8">
<mask id="mask7_294_10572" style="mask-type:luminance" maskUnits="userSpaceOnUse" x="0" y="0" width="26" height="25">
<g id="Group_9">
<path id="Vector_16" d="M24.066 0H1.50354C0.830443 0 0.28479 0.545653 0.28479 1.21875V23.7812C0.28479 24.4543 0.830443 25 1.50354 25H24.066C24.7391 25 25.2848 24.4543 25.2848 23.7812V1.21875C25.2848 0.545653 24.7391 0 24.066 0Z" fill="white"/>
</g>
</mask>
<g mask="url(#mask7_294_10572)">
<path id="Vector_17" d="M8.61816 16.6666H16.9515V25H8.61816V16.6666Z" fill="#2E2E36"/>
</g>
</g>
<g id="Mask group_9">
<mask id="mask8_294_10572" style="mask-type:luminance" maskUnits="userSpaceOnUse" x="0" y="0" width="26" height="25">
<g id="Group_10">
<path id="Vector_18" d="M24.066 0H1.50354C0.830443 0 0.28479 0.545653 0.28479 1.21875V23.7812C0.28479 24.4543 0.830443 25 1.50354 25H24.066C24.7391 25 25.2848 24.4543 25.2848 23.7812V1.21875C25.2848 0.545653 24.7391 0 24.066 0Z" fill="white"/>
</g>
</mask>
<g mask="url(#mask8_294_10572)">
<path id="Vector_19" d="M16.9514 16.6666H25.2847V25H16.9514V16.6666Z" fill="#161313"/>
</g>
</g>
</g>
</svg>
