<svg width="26" height="25" viewBox="0 0 26 25" fill="none" xmlns="http://www.w3.org/2000/svg">
<g id="pink.svg" clip-path="url(#clip0_294_10768)">
<g id="Group">
<path id="Vector" d="M24.4965 0H1.93396C1.26086 0 0.71521 0.545653 0.71521 1.21875V23.7812C0.71521 24.4543 1.26086 25 1.93396 25H24.4965C25.1696 25 25.7152 24.4543 25.7152 23.7812V1.21875C25.7152 0.545653 25.1696 0 24.4965 0Z" fill="black"/>
<g id="Mask group">
<mask id="mask0_294_10768" style="mask-type:luminance" maskUnits="userSpaceOnUse" x="0" y="0" width="26" height="25">
<g id="Group_2">
<path id="Vector_2" d="M24.4965 0H1.93396C1.26086 0 0.71521 0.545653 0.71521 1.21875V23.7812C0.71521 24.4543 1.26086 25 1.93396 25H24.4965C25.1696 25 25.7152 24.4543 25.7152 23.7812V1.21875C25.7152 0.545653 25.1696 0 24.4965 0Z" fill="white"/>
</g>
</mask>
<g mask="url(#mask0_294_10768)">
<path id="Vector_3" fill-rule="evenodd" clip-rule="evenodd" d="M0.71521 0H9.04854V8.33333H0.71521V0Z" fill="#B943AC"/>
</g>
</g>
<g id="Mask group_2">
<mask id="mask1_294_10768" style="mask-type:luminance" maskUnits="userSpaceOnUse" x="0" y="0" width="26" height="25">
<g id="Group_3">
<path id="Vector_4" d="M24.4965 0H1.93396C1.26086 0 0.71521 0.545653 0.71521 1.21875V23.7812C0.71521 24.4543 1.26086 25 1.93396 25H24.4965C25.1696 25 25.7152 24.4543 25.7152 23.7812V1.21875C25.7152 0.545653 25.1696 0 24.4965 0Z" fill="white"/>
</g>
</mask>
<g mask="url(#mask1_294_10768)">
<path id="Vector_5" fill-rule="evenodd" clip-rule="evenodd" d="M0.71521 8.33337H9.04854V16.6667H0.71521V8.33337Z" fill="#C811B5"/>
</g>
</g>
<g id="Mask group_3">
<mask id="mask2_294_10768" style="mask-type:luminance" maskUnits="userSpaceOnUse" x="0" y="0" width="26" height="25">
<g id="Group_4">
<path id="Vector_6" d="M24.4965 0H1.93396C1.26086 0 0.71521 0.545653 0.71521 1.21875V23.7812C0.71521 24.4543 1.26086 25 1.93396 25H24.4965C25.1696 25 25.7152 24.4543 25.7152 23.7812V1.21875C25.7152 0.545653 25.1696 0 24.4965 0Z" fill="white"/>
</g>
</mask>
<g mask="url(#mask2_294_10768)">
<path id="Vector_7" fill-rule="evenodd" clip-rule="evenodd" d="M9.04858 0H17.3819V8.33333H9.04858V0Z" fill="#FF9FF5"/>
</g>
</g>
<g id="Mask group_4">
<mask id="mask3_294_10768" style="mask-type:luminance" maskUnits="userSpaceOnUse" x="0" y="0" width="26" height="25">
<g id="Group_5">
<path id="Vector_8" d="M24.4965 0H1.93396C1.26086 0 0.71521 0.545653 0.71521 1.21875V23.7812C0.71521 24.4543 1.26086 25 1.93396 25H24.4965C25.1696 25 25.7152 24.4543 25.7152 23.7812V1.21875C25.7152 0.545653 25.1696 0 24.4965 0Z" fill="white"/>
</g>
</mask>
<g mask="url(#mask3_294_10768)">
<path id="Vector_9" d="M9.04858 8.33337H17.3819V16.6667H9.04858V8.33337Z" fill="#FF0FE6"/>
</g>
</g>
<g id="Mask group_5">
<mask id="mask4_294_10768" style="mask-type:luminance" maskUnits="userSpaceOnUse" x="0" y="0" width="26" height="25">
<g id="Group_6">
<path id="Vector_10" d="M24.4965 0H1.93396C1.26086 0 0.71521 0.545653 0.71521 1.21875V23.7812C0.71521 24.4543 1.26086 25 1.93396 25H24.4965C25.1696 25 25.7152 24.4543 25.7152 23.7812V1.21875C25.7152 0.545653 25.1696 0 24.4965 0Z" fill="white"/>
</g>
</mask>
<g mask="url(#mask4_294_10768)">
<path id="Vector_11" fill-rule="evenodd" clip-rule="evenodd" d="M17.3818 0H25.7152V8.33333H17.3818V0Z" fill="#FF6DF0"/>
</g>
</g>
<g id="Mask group_6">
<mask id="mask5_294_10768" style="mask-type:luminance" maskUnits="userSpaceOnUse" x="0" y="0" width="26" height="25">
<g id="Group_7">
<path id="Vector_12" d="M24.4965 0H1.93396C1.26086 0 0.71521 0.545653 0.71521 1.21875V23.7812C0.71521 24.4543 1.26086 25 1.93396 25H24.4965C25.1696 25 25.7152 24.4543 25.7152 23.7812V1.21875C25.7152 0.545653 25.1696 0 24.4965 0Z" fill="white"/>
</g>
</mask>
<g mask="url(#mask5_294_10768)">
<path id="Vector_13" fill-rule="evenodd" clip-rule="evenodd" d="M17.3818 8.33337H25.7152V16.6667H17.3818V8.33337Z" fill="#FF0FE6"/>
</g>
</g>
<g id="Mask group_7">
<mask id="mask6_294_10768" style="mask-type:luminance" maskUnits="userSpaceOnUse" x="0" y="0" width="26" height="25">
<g id="Group_8">
<path id="Vector_14" d="M24.4965 0H1.93396C1.26086 0 0.71521 0.545653 0.71521 1.21875V23.7812C0.71521 24.4543 1.26086 25 1.93396 25H24.4965C25.1696 25 25.7152 24.4543 25.7152 23.7812V1.21875C25.7152 0.545653 25.1696 0 24.4965 0Z" fill="white"/>
</g>
</mask>
<g mask="url(#mask6_294_10768)">
<path id="Vector_15" fill-rule="evenodd" clip-rule="evenodd" d="M0.71521 16.6666H9.04854V25H0.71521V16.6666Z" fill="#830075"/>
</g>
</g>
<g id="Mask group_8">
<mask id="mask7_294_10768" style="mask-type:luminance" maskUnits="userSpaceOnUse" x="0" y="0" width="26" height="25">
<g id="Group_9">
<path id="Vector_16" d="M24.4965 0H1.93396C1.26086 0 0.71521 0.545653 0.71521 1.21875V23.7812C0.71521 24.4543 1.26086 25 1.93396 25H24.4965C25.1696 25 25.7152 24.4543 25.7152 23.7812V1.21875C25.7152 0.545653 25.1696 0 24.4965 0Z" fill="white"/>
</g>
</mask>
<g mask="url(#mask7_294_10768)">
<path id="Vector_17" fill-rule="evenodd" clip-rule="evenodd" d="M9.04858 16.6666H17.3819V25H9.04858V16.6666Z" fill="#FF39EA"/>
</g>
</g>
<g id="Mask group_9">
<mask id="mask8_294_10768" style="mask-type:luminance" maskUnits="userSpaceOnUse" x="0" y="0" width="26" height="25">
<g id="Group_10">
<path id="Vector_18" d="M24.4965 0H1.93396C1.26086 0 0.71521 0.545653 0.71521 1.21875V23.7812C0.71521 24.4543 1.26086 25 1.93396 25H24.4965C25.1696 25 25.7152 24.4543 25.7152 23.7812V1.21875C25.7152 0.545653 25.1696 0 24.4965 0Z" fill="white"/>
</g>
</mask>
<g mask="url(#mask8_294_10768)">
<path id="Vector_19" fill-rule="evenodd" clip-rule="evenodd" d="M17.3818 16.6666H25.7152V25H17.3818V16.6666Z" fill="#BD18AC"/>
</g>
</g>
</g>
</g>
<defs>
<clipPath id="clip0_294_10768">
<rect width="25" height="25" fill="white" transform="translate(0.71521)"/>
</clipPath>
</defs>
</svg>
