<svg width="26" height="25" viewBox="0 0 26 25" fill="none" xmlns="http://www.w3.org/2000/svg">
<g id="silver.svg" clip-path="url(#clip0_294_10817)">
<g id="Group">
<path id="Vector" d="M23.9269 0H1.36438C0.691283 0 0.14563 0.545653 0.14563 1.21875V23.7812C0.14563 24.4543 0.691283 25 1.36438 25H23.9269C24.6 25 25.1456 24.4543 25.1456 23.7812V1.21875C25.1456 0.545653 24.6 0 23.9269 0Z" fill="black"/>
<g id="Mask group">
<mask id="mask0_294_10817" style="mask-type:luminance" maskUnits="userSpaceOnUse" x="0" y="0" width="26" height="25">
<g id="Group_2">
<path id="Vector_2" d="M23.9269 0H1.36438C0.691283 0 0.14563 0.545653 0.14563 1.21875V23.7812C0.14563 24.4543 0.691283 25 1.36438 25H23.9269C24.6 25 25.1456 24.4543 25.1456 23.7812V1.21875C25.1456 0.545653 24.6 0 23.9269 0Z" fill="white"/>
</g>
</mask>
<g mask="url(#mask0_294_10817)">
<path id="Vector_3" fill-rule="evenodd" clip-rule="evenodd" d="M0.14563 0H8.47896V8.33333H0.14563V0Z" fill="url(#paint0_linear_294_10817)"/>
</g>
</g>
<g id="Mask group_2">
<mask id="mask1_294_10817" style="mask-type:luminance" maskUnits="userSpaceOnUse" x="0" y="0" width="26" height="25">
<g id="Group_3">
<path id="Vector_4" d="M23.9269 0H1.36438C0.691283 0 0.14563 0.545653 0.14563 1.21875V23.7812C0.14563 24.4543 0.691283 25 1.36438 25H23.9269C24.6 25 25.1456 24.4543 25.1456 23.7812V1.21875C25.1456 0.545653 24.6 0 23.9269 0Z" fill="white"/>
</g>
</mask>
<g mask="url(#mask1_294_10817)">
<path id="Vector_5" fill-rule="evenodd" clip-rule="evenodd" d="M0.14563 8.33337H8.47896V16.6667H0.14563V8.33337Z" fill="url(#paint1_linear_294_10817)"/>
</g>
</g>
<g id="Mask group_3">
<mask id="mask2_294_10817" style="mask-type:luminance" maskUnits="userSpaceOnUse" x="0" y="0" width="26" height="25">
<g id="Group_4">
<path id="Vector_6" d="M23.9269 0H1.36438C0.691283 0 0.14563 0.545653 0.14563 1.21875V23.7812C0.14563 24.4543 0.691283 25 1.36438 25H23.9269C24.6 25 25.1456 24.4543 25.1456 23.7812V1.21875C25.1456 0.545653 24.6 0 23.9269 0Z" fill="white"/>
</g>
</mask>
<g mask="url(#mask2_294_10817)">
<path id="Vector_7" fill-rule="evenodd" clip-rule="evenodd" d="M8.479 0H16.8123V8.33333H8.479V0Z" fill="url(#paint2_linear_294_10817)"/>
</g>
</g>
<g id="Mask group_4">
<mask id="mask3_294_10817" style="mask-type:luminance" maskUnits="userSpaceOnUse" x="0" y="0" width="26" height="25">
<g id="Group_5">
<path id="Vector_8" d="M23.9269 0H1.36438C0.691283 0 0.14563 0.545653 0.14563 1.21875V23.7812C0.14563 24.4543 0.691283 25 1.36438 25H23.9269C24.6 25 25.1456 24.4543 25.1456 23.7812V1.21875C25.1456 0.545653 24.6 0 23.9269 0Z" fill="white"/>
</g>
</mask>
<g mask="url(#mask3_294_10817)">
<path id="Vector_9" fill-rule="evenodd" clip-rule="evenodd" d="M8.479 8.33337H16.8123V16.6667H8.479V8.33337Z" fill="url(#paint3_linear_294_10817)"/>
</g>
</g>
<g id="Mask group_5">
<mask id="mask4_294_10817" style="mask-type:luminance" maskUnits="userSpaceOnUse" x="0" y="0" width="26" height="25">
<g id="Group_6">
<path id="Vector_10" d="M23.9269 0H1.36438C0.691283 0 0.14563 0.545653 0.14563 1.21875V23.7812C0.14563 24.4543 0.691283 25 1.36438 25H23.9269C24.6 25 25.1456 24.4543 25.1456 23.7812V1.21875C25.1456 0.545653 24.6 0 23.9269 0Z" fill="white"/>
</g>
</mask>
<g mask="url(#mask4_294_10817)">
<path id="Vector_11" fill-rule="evenodd" clip-rule="evenodd" d="M16.8123 0H25.1456V8.33333H16.8123V0Z" fill="url(#paint4_linear_294_10817)"/>
</g>
</g>
<g id="Mask group_6">
<mask id="mask5_294_10817" style="mask-type:luminance" maskUnits="userSpaceOnUse" x="0" y="0" width="26" height="25">
<g id="Group_7">
<path id="Vector_12" d="M23.9269 0H1.36438C0.691283 0 0.14563 0.545653 0.14563 1.21875V23.7812C0.14563 24.4543 0.691283 25 1.36438 25H23.9269C24.6 25 25.1456 24.4543 25.1456 23.7812V1.21875C25.1456 0.545653 24.6 0 23.9269 0Z" fill="white"/>
</g>
</mask>
<g mask="url(#mask5_294_10817)">
<path id="Vector_13" fill-rule="evenodd" clip-rule="evenodd" d="M16.8123 8.33337H25.1456V16.6667H16.8123V8.33337Z" fill="url(#paint5_linear_294_10817)"/>
</g>
</g>
<g id="Mask group_7">
<mask id="mask6_294_10817" style="mask-type:luminance" maskUnits="userSpaceOnUse" x="0" y="0" width="26" height="25">
<g id="Group_8">
<path id="Vector_14" d="M23.9269 0H1.36438C0.691283 0 0.14563 0.545653 0.14563 1.21875V23.7812C0.14563 24.4543 0.691283 25 1.36438 25H23.9269C24.6 25 25.1456 24.4543 25.1456 23.7812V1.21875C25.1456 0.545653 24.6 0 23.9269 0Z" fill="white"/>
</g>
</mask>
<g mask="url(#mask6_294_10817)">
<path id="Vector_15" fill-rule="evenodd" clip-rule="evenodd" d="M0.14563 16.6666H8.47896V25H0.14563V16.6666Z" fill="url(#paint6_linear_294_10817)"/>
</g>
</g>
<g id="Mask group_8">
<mask id="mask7_294_10817" style="mask-type:luminance" maskUnits="userSpaceOnUse" x="0" y="0" width="26" height="25">
<g id="Group_9">
<path id="Vector_16" d="M23.9269 0H1.36438C0.691283 0 0.14563 0.545653 0.14563 1.21875V23.7812C0.14563 24.4543 0.691283 25 1.36438 25H23.9269C24.6 25 25.1456 24.4543 25.1456 23.7812V1.21875C25.1456 0.545653 24.6 0 23.9269 0Z" fill="white"/>
</g>
</mask>
<g mask="url(#mask7_294_10817)">
<path id="Vector_17" fill-rule="evenodd" clip-rule="evenodd" d="M8.479 16.6666H16.8123V25H8.479V16.6666Z" fill="url(#paint7_linear_294_10817)"/>
</g>
</g>
<g id="Mask group_9">
<mask id="mask8_294_10817" style="mask-type:luminance" maskUnits="userSpaceOnUse" x="0" y="0" width="26" height="25">
<g id="Group_10">
<path id="Vector_18" d="M23.9269 0H1.36438C0.691283 0 0.14563 0.545653 0.14563 1.21875V23.7812C0.14563 24.4543 0.691283 25 1.36438 25H23.9269C24.6 25 25.1456 24.4543 25.1456 23.7812V1.21875C25.1456 0.545653 24.6 0 23.9269 0Z" fill="white"/>
</g>
</mask>
<g mask="url(#mask8_294_10817)">
<path id="Vector_19" fill-rule="evenodd" clip-rule="evenodd" d="M16.8123 16.6666H25.1456V25H16.8123V16.6666Z" fill="url(#paint8_linear_294_10817)"/>
</g>
</g>
</g>
</g>
<defs>
<linearGradient id="paint0_linear_294_10817" x1="416.812" y1="0" x2="416.812" y2="833.333" gradientUnits="userSpaceOnUse">
<stop stop-color="#CBCBCB"/>
<stop offset="1" stop-color="#D8D8D8"/>
</linearGradient>
<linearGradient id="paint1_linear_294_10817" x1="416.812" y1="8.33337" x2="416.812" y2="841.667" gradientUnits="userSpaceOnUse">
<stop stop-color="#DDDDDD"/>
<stop offset="1" stop-color="#9B9B9B"/>
</linearGradient>
<linearGradient id="paint2_linear_294_10817" x1="425.146" y1="0" x2="425.146" y2="833.333" gradientUnits="userSpaceOnUse">
<stop stop-color="white"/>
<stop offset="1" stop-color="#9B9B9B"/>
</linearGradient>
<linearGradient id="paint3_linear_294_10817" x1="425.146" y1="8.33337" x2="425.146" y2="841.667" gradientUnits="userSpaceOnUse">
<stop stop-color="#999999"/>
<stop offset="1" stop-color="#BDBDBD"/>
</linearGradient>
<linearGradient id="paint4_linear_294_10817" x1="433.479" y1="0" x2="433.479" y2="833.333" gradientUnits="userSpaceOnUse">
<stop stop-color="#7E7E7E"/>
<stop offset="1" stop-color="#B7B7B7"/>
</linearGradient>
<linearGradient id="paint5_linear_294_10817" x1="433.479" y1="8.33337" x2="433.479" y2="841.667" gradientUnits="userSpaceOnUse">
<stop stop-color="#BABABA"/>
<stop offset="1" stop-color="#9B9B9B"/>
</linearGradient>
<linearGradient id="paint6_linear_294_10817" x1="416.812" y1="16.6666" x2="416.812" y2="850" gradientUnits="userSpaceOnUse">
<stop stop-color="#E3E3E3"/>
<stop offset="1" stop-color="#E6E6E6"/>
</linearGradient>
<linearGradient id="paint7_linear_294_10817" x1="425.146" y1="16.6666" x2="425.146" y2="850" gradientUnits="userSpaceOnUse">
<stop stop-color="#E5E5E5"/>
<stop offset="1" stop-color="#C0C0C0"/>
</linearGradient>
<linearGradient id="paint8_linear_294_10817" x1="433.479" y1="16.6666" x2="433.479" y2="850" gradientUnits="userSpaceOnUse">
<stop stop-color="#D9D9D9"/>
<stop offset="1" stop-color="#B3B3B3"/>
</linearGradient>
<clipPath id="clip0_294_10817">
<rect width="25" height="25" fill="white" transform="translate(0.14563)"/>
</clipPath>
</defs>
</svg>
