<svg width="24" height="25" viewBox="0 0 24 25" fill="none" xmlns="http://www.w3.org/2000/svg">
<path d="M22.0135 12.4898C22.0135 9.88975 20.9893 7.52893 19.3223 5.78877M22.0135 12.4898C22.0135 15.0898 20.9893 17.4507 19.3223 19.1908M22.0135 12.4898H2.63696M12.3252 22.1781C15.0759 22.1781 17.5588 21.0318 19.3223 19.1908M12.3252 22.1781C9.5746 22.1781 7.09169 21.0318 5.32815 19.1908M12.3252 22.1781V2.80151M2.63696 12.4898C2.63696 9.88975 3.66118 7.52893 5.32815 5.78877M2.63696 12.4898C2.63696 15.0898 3.66118 17.4507 5.32815 19.1908M12.3252 2.80151C15.0759 2.80151 17.5588 3.94781 19.3223 5.78877M12.3252 2.80151C9.5746 2.80151 7.09169 3.94781 5.32815 5.78877M19.3223 5.78877C17.6554 7.52893 16.6312 9.88975 16.6312 12.4898C16.6312 15.0898 17.6554 17.4507 19.3223 19.1908M5.32815 5.78877C6.99513 7.52893 8.01934 9.88975 8.01934 12.4898C8.01934 15.0898 6.99513 17.4507 5.32815 19.1908" stroke="#666464" stroke-width="1.45324" stroke-linecap="round"/>
</svg>
