<svg width="24" height="24" viewBox="0 0 24 24" fill="none" xmlns="http://www.w3.org/2000/svg">
<path d="M5.54345 8.60427C6.76977 8.79419 8.13776 9.10993 9.41876 9.6053M5.54345 12.4796C6.163 12.5755 6.81872 12.7036 7.48111 12.8707M12.3252 6.47162V20.2766M4.56913 3.52435C6.71835 3.76721 9.60587 4.42056 11.6634 5.8623C12.0588 6.13939 12.5917 6.13939 12.9871 5.8623C15.0446 4.42056 17.9321 3.76721 20.0814 3.52435C21.1451 3.40415 22.0135 4.29239 22.0135 5.38829V16.3019C22.0135 17.3978 21.1451 18.2864 20.0814 18.4066C17.9321 18.6494 15.0446 19.3028 12.9871 20.7445C12.5917 21.0216 12.0588 21.0216 11.6634 20.7445C9.60587 19.3028 6.71835 18.6494 4.56913 18.4066C3.50544 18.2864 2.63696 17.3978 2.63696 16.3019V5.38829C2.63696 4.29239 3.50544 3.40415 4.56913 3.52435Z" stroke="#666464" stroke-width="1.45324" stroke-linecap="round"/>
</svg>
