<svg width="24" height="25" viewBox="0 0 24 25" fill="none" xmlns="http://www.w3.org/2000/svg">
<path d="M14.3853 3.81165H17.1225C17.7109 3.81165 18.2713 4.06645 18.6622 4.51179L21.4932 7.73685C22.1502 8.48529 22.1893 9.60088 21.5863 10.3946L13.9581 20.4364C13.1335 21.5219 11.517 21.5219 10.6924 20.4364L3.06417 10.3946C2.46122 9.60088 2.50032 8.48529 3.15731 7.73685L5.98832 4.51179C6.37925 4.06645 6.93959 3.81165 7.52801 3.81165H10.4941M14.3853 3.81165L16.4453 9.02671M14.3853 3.81165H10.4941M16.4453 9.02671H21.5954M16.4453 9.02671L12.3252 21.0214L8.20517 9.02671M16.4453 9.02671H8.20517M10.4941 3.81165L8.20517 9.02671M3.05507 9.02671H8.20517" stroke="#666464" stroke-width="1.45324" stroke-linecap="round" stroke-linejoin="round"/>
</svg>
