<svg width="24" height="24" viewBox="0 0 24 24" fill="none" xmlns="http://www.w3.org/2000/svg">
<g id="Dress">
<path id="Vector" d="M20.5 23H3.5C3.4168 23.0031 3.3341 22.9859 3.25912 22.9497C3.18413 22.9135 3.11914 22.8596 3.06982 22.7925C3.0205 22.7254 2.98835 22.6473 2.97618 22.5649C2.96401 22.4826 2.97219 22.3985 3 22.32L7.48 11L5.48 2.65C5.45551 2.581 5.44679 2.5074 5.45449 2.43459C5.46218 2.36179 5.48609 2.29163 5.52446 2.22928C5.56283 2.16693 5.61468 2.11397 5.67621 2.07429C5.73774 2.03461 5.80737 2.00923 5.88 2L9.88 0.999998C9.91941 0.990255 9.96059 0.990255 10 0.999998H14C14.0394 0.990255 14.0806 0.990255 14.12 0.999998L18.12 2C18.1832 2.01415 18.243 2.04068 18.2958 2.07807C18.3487 2.11546 18.3937 2.16296 18.4281 2.21783C18.4625 2.27269 18.4857 2.33383 18.4963 2.39771C18.5069 2.46159 18.5048 2.52695 18.49 2.59L16.49 10.94L21 22.32C21.0269 22.3961 21.0354 22.4774 21.0247 22.5574C21.0141 22.6374 20.9846 22.7137 20.9387 22.7801C20.8929 22.8465 20.8319 22.901 20.7608 22.9392C20.6898 22.9775 20.6107 22.9983 20.53 23H20.5ZM4.23 22H19.77L15.53 11.18C15.505 11.0849 15.505 10.985 15.53 10.89L17.42 2.89L13.94 2H10.06L6.6 2.87L8.49 10.87C8.515 10.965 8.515 11.0649 8.49 11.16L4.23 22Z" fill="#666464" stroke="#666464" stroke-width="0.3"/>
<path id="Vector_2" d="M12 4.5C11.6714 4.50113 11.3458 4.43721 11.042 4.31192C10.7382 4.18663 10.4623 4.00245 10.23 3.77C10.1358 3.67585 10.083 3.54815 10.083 3.415C10.083 3.28185 10.1358 3.15415 10.23 3.06C10.3242 2.96585 10.4518 2.91295 10.585 2.91295C10.7182 2.91295 10.8458 2.96585 10.94 3.06C11.225 3.33378 11.6048 3.48669 12 3.48669C12.3952 3.48669 12.775 3.33378 13.06 3.06C13.3414 2.77897 13.4997 2.39769 13.5 2C13.5 1.86739 13.5527 1.74021 13.6464 1.64645C13.7402 1.55268 13.8674 1.5 14 1.5C14.1326 1.5 14.2598 1.55268 14.3536 1.64645C14.4473 1.74021 14.5 1.86739 14.5 2C14.5013 2.32868 14.4376 2.65436 14.3124 2.95827C14.1872 3.26218 14.0031 3.53831 13.7707 3.77072C13.5383 4.00313 13.2622 4.18722 12.9583 4.31239C12.6544 4.43756 12.3287 4.50132 12 4.5ZM16 11.5H12C11.8674 11.5 11.7402 11.4473 11.6464 11.3536C11.5527 11.2598 11.5 11.1326 11.5 11C11.5 10.8674 11.5527 10.7402 11.6464 10.6464C11.7402 10.5527 11.8674 10.5 12 10.5H16C16.1326 10.5 16.2598 10.5527 16.3536 10.6464C16.4473 10.7402 16.5 10.8674 16.5 11C16.5 11.1326 16.4473 11.2598 16.3536 11.3536C16.2598 11.4473 16.1326 11.5 16 11.5Z" fill="#666464"/>
</g>
</svg>
