<svg width="24" height="24" viewBox="0 0 24 24" fill="none" xmlns="http://www.w3.org/2000/svg">
<path d="M16.6451 2.947L16.2004 3.3894L15.7557 2.947C14.5276 1.72535 12.5366 1.72535 11.3085 2.947C10.0804 4.16864 10.0804 6.14933 11.3085 7.37097L15.311 11.3526C15.8022 11.8412 16.5986 11.8412 17.0899 11.3526L21.0923 7.37097C22.3204 6.14933 22.3204 4.16864 21.0923 2.947C19.8643 1.72535 17.8732 1.72535 16.6451 2.947Z" stroke="#666464" stroke-width="1.45324" stroke-linejoin="round"/>
<path d="M2.63696 9.78125H4.57462L10.6417 12.4356C11.5735 12.8433 12.002 13.9263 11.6014 14.8612V14.8612C11.1985 15.8011 10.1101 16.2365 9.17018 15.8337L7.48111 15.1098" stroke="#666464" stroke-width="1.45324" stroke-linecap="round" stroke-linejoin="round"/>
<path d="M2.96192 17.8508C2.60298 17.6713 2.16652 17.8168 1.98705 18.1758C1.80759 18.5347 1.95307 18.9712 2.31201 19.1506L2.96192 17.8508ZM11.6814 14.9443L11.0315 14.6194L10.3816 15.9192L11.0315 16.2441L11.6814 14.9443ZM6.81342 20.589L6.48847 21.2389L6.81342 20.589ZM14.0044 16.9182L13.6794 17.5681L14.0044 16.9182ZM16.604 18.2585H18.1382V16.8053H16.604V18.2585ZM18.1382 20.6806H10.2796V22.1338H18.1382V20.6806ZM7.13838 19.939L2.96192 17.8508L2.31201 19.1506L6.48847 21.2389L7.13838 19.939ZM14.3293 16.2683L11.6814 14.9443L11.0315 16.2441L13.6794 17.5681L14.3293 16.2683ZM10.2796 20.6806C9.18917 20.6806 8.1137 20.4267 7.13838 19.939L6.48847 21.2389C7.66558 21.8274 8.96356 22.1338 10.2796 22.1338V20.6806ZM19.3493 19.4696C19.3493 20.1384 18.8071 20.6806 18.1382 20.6806V22.1338C19.6097 22.1338 20.8025 20.941 20.8025 19.4696H19.3493ZM18.1382 18.2585C18.8071 18.2585 19.3493 18.8007 19.3493 19.4696H20.8025C20.8025 17.9981 19.6097 16.8053 18.1382 16.8053V18.2585ZM16.604 16.8053C15.8144 16.8053 15.0356 16.6214 14.3293 16.2683L13.6794 17.5681C14.5875 18.0221 15.5888 18.2585 16.604 18.2585V16.8053Z" fill="#666464"/>
</svg>
