<svg width="24" height="24" viewBox="0 0 24 24" fill="none" xmlns="http://www.w3.org/2000/svg">
<g id="Hijab Woman" clip-path="url(#clip0_1_47)">
<path id="Vector" d="M19.6425 14.715C19.5557 14.4344 19.453 14.159 19.335 13.89C19.2269 13.6426 19.1318 13.3898 19.05 13.1325C18.8483 12.3935 18.735 11.6332 18.7125 10.8675C18.6825 10.23 18.6975 9.57 18.705 8.9325C18.7125 8.6025 18.7125 8.2725 18.7125 7.935C18.7173 7.3516 18.6923 6.76834 18.6375 6.1875C18.36 3.4575 17.2575 1.7025 15.18 0.667498C14.2302 0.228304 13.1951 0.00458532 12.1487 0.012365C11.1023 0.0201448 10.0706 0.259231 9.1275 0.712498C7.1625 1.6425 5.895 3.495 5.355 6.2175C5.21373 7.0348 5.14596 7.86311 5.1525 8.6925C5.1375 9.1575 5.13 9.63 5.0925 10.095C4.96603 11.5304 4.74555 12.956 4.4325 14.3625C4.41 14.4675 4.3875 14.58 4.3725 14.685C3.30077 15.0874 2.37712 15.8069 1.72459 16.7475C1.07205 17.6881 0.72163 18.8052 0.720001 19.95V22.125C0.720001 22.6223 0.917545 23.0992 1.26918 23.4508C1.62081 23.8025 2.09772 24 2.595 24H21.345C21.8419 23.9986 22.318 23.8006 22.6693 23.4493C23.0206 23.098 23.2186 22.6219 23.22 22.125V19.95C23.2146 18.8199 22.8709 17.7174 22.2333 16.7844C21.5957 15.8514 20.6934 15.1306 19.6425 14.715ZM5.0475 15.255C5.0716 15.0101 5.11168 14.7671 5.1675 14.5275C5.175 14.505 5.175 14.4757 5.1825 14.4532C5.84058 15.1188 6.63257 15.637 7.506 15.9735C8.27053 16.266 9.08218 16.416 9.90075 16.416C10.1133 16.416 10.325 16.406 10.536 16.386C10.5851 16.3813 10.6327 16.3669 10.6762 16.3438C10.7197 16.3207 10.7582 16.2892 10.7896 16.2511C10.8209 16.2131 10.8444 16.1693 10.8588 16.1222C10.8733 16.075 10.8782 16.0255 10.8735 15.9765C10.8688 15.9274 10.8544 15.8798 10.8313 15.8363C10.8082 15.7928 10.7767 15.7543 10.7386 15.7229C10.7006 15.6916 10.6568 15.6681 10.6097 15.6537C10.5625 15.6393 10.5131 15.6343 10.464 15.639C9.5253 15.73 8.57845 15.595 7.70257 15.2453C6.82668 14.8957 6.0472 14.3414 5.42925 13.629C5.40516 13.6042 5.37763 13.583 5.3475 13.566C5.57074 12.4385 5.73347 11.2999 5.835 10.155C5.8725 9.675 5.8875 9.195 5.9025 8.7075C5.89601 7.92101 5.95875 7.13548 6.09 6.36C6.5775 3.885 7.71 2.2125 9.45 1.3875C10.3296 0.972885 11.29 0.757757 12.2625 0.757498C13.1561 0.750646 14.0392 0.950879 14.8425 1.3425C15.712 1.75641 16.4456 2.40938 16.9575 3.225C17.4963 4.1533 17.8169 5.19201 17.895 6.2625C17.9674 7.14554 17.9874 8.03209 17.955 8.9175C17.9475 9.57 17.9325 10.2375 17.9625 10.905C17.9912 11.7289 18.1146 12.5468 18.33 13.3425C18.4125 13.62 18.5325 13.8975 18.645 14.175C18.6825 14.265 18.72 14.3625 18.765 14.4525C18.876 14.7195 18.9541 14.9991 18.9975 15.285C19.0123 15.3362 19.0199 15.3892 19.02 15.4425C19.0492 15.758 19.0101 16.076 18.9053 16.375C18.8004 16.674 18.6324 16.9469 18.4125 17.175C16.995 18.705 13.6125 18.9 12.225 18.915C10.4568 19.0157 8.68515 18.792 6.9975 18.255C5.505 17.6775 4.8975 16.7625 5.0475 15.255ZM22.47 22.125C22.4692 22.4231 22.3504 22.7088 22.1396 22.9196C21.9288 23.1304 21.6431 23.2492 21.345 23.25H2.595C2.44721 23.2502 2.30083 23.2212 2.16425 23.1648C2.02767 23.1083 1.90357 23.0254 1.79907 22.9209C1.69456 22.8164 1.6117 22.6923 1.55523 22.5558C1.49877 22.4192 1.4698 22.2728 1.47 22.125V19.95C1.47286 19.0249 1.73789 18.1197 2.23436 17.3391C2.73083 16.5586 3.4384 15.9347 4.275 15.54C4.2375 17.1825 5.0475 18.3 6.7275 18.9525C8.34799 19.4935 10.0528 19.7374 11.76 19.6725C11.9175 19.6725 12.075 19.6725 12.2325 19.665C14.0775 19.65 17.4 19.365 18.96 17.685C19.4961 17.1246 19.7899 16.3755 19.7775 15.6C20.584 16.006 21.2624 16.6273 21.7377 17.395C22.2129 18.1628 22.4663 19.0471 22.47 19.95V22.125ZM12 20.4045C11.9258 20.4045 11.8533 20.4265 11.7917 20.4677C11.73 20.5089 11.6819 20.5675 11.6535 20.636C11.6252 20.7045 11.6177 20.7799 11.6322 20.8527C11.6467 20.9254 11.6824 20.9922 11.7348 21.0447C11.7873 21.0971 11.8541 21.1328 11.9268 21.1473C11.9996 21.1618 12.075 21.1543 12.1435 21.126C12.212 21.0976 12.2706 21.0495 12.3118 20.9878C12.353 20.9262 12.375 20.8537 12.375 20.7795C12.375 20.68 12.3355 20.5847 12.2652 20.5143C12.1948 20.444 12.0995 20.4045 12 20.4045ZM12 21.9045C11.9258 21.9045 11.8533 21.9265 11.7917 21.9677C11.73 22.0089 11.6819 22.0675 11.6535 22.136C11.6252 22.2045 11.6177 22.2799 11.6322 22.3527C11.6467 22.4254 11.6824 22.4922 11.7348 22.5447C11.7873 22.5971 11.8541 22.6328 11.9268 22.6473C11.9996 22.6618 12.075 22.6543 12.1435 22.626C12.212 22.5976 12.2706 22.5495 12.3118 22.4878C12.353 22.4262 12.375 22.3537 12.375 22.2795C12.375 22.18 12.3355 22.0847 12.2652 22.0143C12.1948 21.944 12.0995 21.9045 12 21.9045ZM11.3738 13.7587C12.0065 13.9572 12.6658 14.0584 13.329 14.0587C13.6752 14.059 14.0209 14.0307 14.3625 13.974C14.9719 13.8719 15.5631 13.6814 16.1175 13.4085C16.1617 13.3867 16.2012 13.3565 16.2338 13.3194C16.2663 13.2824 16.2912 13.2393 16.3071 13.1927C16.323 13.146 16.3295 13.0967 16.3263 13.0475C16.3231 12.9983 16.3103 12.9502 16.2885 12.906C16.2667 12.8618 16.2365 12.8223 16.1994 12.7897C16.1624 12.7572 16.1193 12.7323 16.0727 12.7164C16.026 12.7005 15.9767 12.694 15.9275 12.6972C15.8783 12.7004 15.8302 12.7132 15.786 12.735C15.2975 12.9756 14.7765 13.1436 14.2395 13.2337C14.1503 13.2487 14.0595 13.2517 13.9688 13.2622C14.3828 13.0185 14.7588 12.7152 15.0848 12.3622C16.1004 11.2721 16.6614 9.83519 16.653 8.34525C17.0015 7.75661 17.1941 7.08881 17.2125 6.405C17.2293 5.50856 16.9542 4.63095 16.4288 3.9045C16.3704 3.82394 16.2824 3.76987 16.1841 3.75419C16.0859 3.7385 15.9854 3.76249 15.9049 3.82087C15.8243 3.87925 15.7702 3.96725 15.7546 4.06549C15.7389 4.16374 15.7629 4.26419 15.8213 4.34475C16.2512 4.93748 16.4763 5.65414 16.4625 6.38625C16.4556 6.60291 16.4264 6.81829 16.3755 7.029C15.9911 6.15819 15.4593 5.36024 14.8035 4.67025L14.658 4.5C13.8608 3.567 13.107 2.68575 12.0015 2.682H11.994C10.8045 2.682 10.002 3.66675 9.153 4.7085C8.277 5.7825 7.4505 6.79725 7.34775 8.223C7.30779 9.75287 7.87388 11.2366 8.92275 12.351C9.56392 13.0718 10.4221 13.5645 11.3678 13.755L11.3738 13.7587ZM8.09625 8.27625C8.181 7.0875 8.901 6.20475 9.73425 5.1825C10.5 4.2435 11.1608 3.432 11.9948 3.432H11.9985C12.7605 3.435 13.3463 4.11975 14.088 4.9875L14.235 5.1585C15.1159 5.98863 15.7018 7.08356 15.9038 8.277C15.937 9.60228 15.4453 10.887 14.5358 11.8515C14.22 12.2184 13.8317 12.5159 13.3953 12.7253C12.9588 12.9346 12.4838 13.0513 12 13.068C11.5168 13.0486 11.0429 12.9295 10.608 12.7182C10.173 12.5069 9.78645 12.208 9.4725 11.8402C8.56218 10.8802 8.06759 9.59969 8.09625 8.277V8.27625Z" fill="#666464" stroke="#666464" stroke-width="0.3"/>
</g>
<defs>
<clipPath id="clip0_1_47">
<rect width="24" height="24" fill="white"/>
</clipPath>
</defs>
</svg>
