<svg width="23" height="23" viewBox="0 0 23 23" fill="none" xmlns="http://www.w3.org/2000/svg">
<g id="UniqIcons/smart house/outline/home-filter 01">
<path id="Vector" d="M8.57716 21.4355H16.5895C18.8021 21.4355 20.5957 19.7238 20.5957 17.6125V12.938C20.5957 12.2592 20.5957 11.8779 21.3811 11.1284C22.5464 10.0164 22.3949 8.17409 21.0622 7.24917L15.9683 3.71391C15.2986 3.24909 14.5026 3.00003 13.6873 3.00002C13.052 3.00001 12.5625 2.99998 11.4805 2.99998C10.6653 2.99999 9.86815 3.24907 9.19846 3.71384L4.10448 7.24917C2.77179 8.17409 2.62031 10.0164 3.78553 11.1284C4.28846 11.6083 4.57099 12.2592 4.57099 12.938V17.6125C4.57099 19.7238 6.36462 21.4355 8.57716 21.4355Z" stroke="#6E6969" stroke-width="1.5" stroke-linecap="round"/>
<g id="Vector_2">
<path d="M10.6692 6.34615C10.7231 6.40385 10.7769 6.46154 10.8577 6.46154C10.9385 6.46154 11.0192 6.43269 11.0731 6.375L11.6115 5.79808L10.6154 15.9519C10.6154 16.0385 10.6423 16.125 10.6962 16.1827L12.3115 17.9135C12.3654 17.9712 12.4462 18 12.5 18C12.5538 18 12.6346 17.9712 12.6885 17.9135L14.3038 16.1827C14.3577 16.125 14.3846 16.0385 14.3846 15.9519L13.8192 10.1538C13.7923 10.0096 13.5769 8.86757 13.6075 8.74038C13.5407 8.7547 13.0464 8.04132 13.0812 8.40279C13.1192 8.86757 13.2808 10.1389 13.2808 10.2115L13.8462 15.8654L12.5 17.3077L11.1538 15.8654L12.2308 5.16346L12.5 4.875L12.7692 5.16346L13.1192 8.79808C13.1462 8.94231 13.2808 8.86757 13.4154 8.86757V9.05769C13.55 9.02885 13.8192 10.3269 13.8192 10.1538L13.3615 5.79808L13.9 6.375C13.9538 6.43269 14.0077 6.46154 14.0885 6.46154H14.1154C14.1962 6.46154 14.2769 6.40385 14.3038 6.34615L15.9192 4.03846C15.9731 3.98077 16 3.92308 16 3.86538C16 3.375 15.65 3 15.1923 3H9.80769C9.35 3 9 3.375 9 3.86538C9 3.92308 9.02692 3.98077 9.05385 4.03846L10.6692 6.34615ZM9.80769 3.57692H15.1923C15.3269 3.57692 15.4077 3.66346 15.4615 3.77885L14.0885 5.74038L12.6885 4.24038C12.6346 4.18269 12.5808 4.15385 12.5 4.15385C12.4192 4.15385 12.3654 4.18269 12.3115 4.24038L10.9115 5.74038L9.53846 3.77885C9.59231 3.66346 9.67308 3.57692 9.80769 3.57692Z" fill="#6E6969"/>
<path d="M13.8192 10.1538L14.3846 15.9519C14.3846 16.0385 14.3577 16.125 14.3038 16.1827L12.6885 17.9135C12.6346 17.9712 12.5538 18 12.5 18C12.4462 18 12.3654 17.9712 12.3115 17.9135L10.6962 16.1827C10.6423 16.125 10.6154 16.0385 10.6154 15.9519L11.6115 5.79808L11.0731 6.375C11.0192 6.43269 10.9385 6.46154 10.8577 6.46154C10.7769 6.46154 10.7231 6.40385 10.6692 6.34615L9.05385 4.03846C9.02692 3.98077 9 3.92308 9 3.86538C9 3.375 9.35 3 9.80769 3H15.1923C15.65 3 16 3.375 16 3.86538C16 3.92308 15.9731 3.98077 15.9192 4.03846L14.3038 6.34615C14.2769 6.40385 14.1962 6.46154 14.1154 6.46154H14.0885C14.0077 6.46154 13.9538 6.43269 13.9 6.375L13.3615 5.79808L13.8192 10.1538ZM13.8192 10.1538C13.7923 10.0096 13.5769 8.86757 13.6075 8.74038C13.5407 8.7547 13.0464 8.04132 13.0812 8.40279C13.1192 8.86757 13.2808 10.1389 13.2808 10.2115L13.8462 15.8654L12.5 17.3077L11.1538 15.8654L12.2308 5.16346L12.5 4.875L12.7692 5.16346L13.1192 8.79808C13.1462 8.94231 13.2808 8.86757 13.4154 8.86757V9.05769C13.55 9.02885 13.8192 10.3269 13.8192 10.1538ZM9.80769 3.57692H15.1923C15.3269 3.57692 15.4077 3.66346 15.4615 3.77885L14.0885 5.74038L12.6885 4.24038C12.6346 4.18269 12.5808 4.15385 12.5 4.15385C12.4192 4.15385 12.3654 4.18269 12.3115 4.24038L10.9115 5.74038L9.53846 3.77885C9.59231 3.66346 9.67308 3.57692 9.80769 3.57692Z" stroke="#6E6969" stroke-width="0.5"/>
</g>
</g>
</svg>
