<svg width="24" height="24" viewBox="0 0 24 24" fill="none" xmlns="http://www.w3.org/2000/svg">
<path d="M8.44993 16.223C11.5226 17.5266 13.2324 17.503 16.2006 16.223M16.3753 22.036H8.2752C6.03843 22.036 4.22516 20.3056 4.22516 18.1711V13.4454C4.22516 12.7593 3.93953 12.1012 3.4311 11.616C2.25312 10.4919 2.40626 8.62939 3.75354 7.69434L9.94313 3.39864C11.3633 2.41302 13.2872 2.41302 14.7074 3.39864L20.897 7.69434C22.2442 8.62939 22.3974 10.4919 21.2194 11.616C20.711 12.1012 20.4253 12.7593 20.4253 13.4454V18.1711C20.4253 20.3056 18.6121 22.036 16.3753 22.036Z" stroke="#666464" stroke-width="1.45324" stroke-linecap="round"/>
</svg>
