<svg width="22" height="22" viewBox="0 0 22 22" fill="none" xmlns="http://www.w3.org/2000/svg">
<g id="Parfume">
<g id="Group 321">
<path id="Vector" d="M4.10588 9.10413H4.10588V9.10345C4.10588 8.63435 4.38062 8.27399 4.85527 7.99341C5.33194 7.71163 5.99594 7.52021 6.73521 7.39162C8.2122 7.13473 9.9521 7.13448 11.0002 7.13448C12.0484 7.13448 13.7883 7.13473 15.2653 7.39162C16.0046 7.52021 16.6686 7.71163 17.1452 7.99341C17.6199 8.27399 17.8946 8.63435 17.8946 9.10345L17.8946 9.10402L17.8971 9.54212L17.8971 9.54241C17.9059 10.5556 17.9192 12.1077 17.6456 13.7046C17.3719 15.3026 16.8127 16.9329 15.6857 18.1103C14.5742 19.2712 13.0026 19.8655 11.0002 19.8655C8.99787 19.8655 7.42582 19.2712 6.31483 18.1103L6.31481 18.1103C5.18759 16.9329 4.62827 15.3026 4.35443 13.7045C4.08078 12.1076 4.09413 10.5553 4.10288 9.5419L4.10288 9.54172L4.10588 9.10413ZM3.19253 14.0365C3.5055 15.7815 4.14782 17.6059 5.4604 18.9769C6.81186 20.3892 8.67961 21.1 11.0002 21.1C13.3204 21.1 15.1881 20.3887 16.5396 18.9769C17.8522 17.6059 18.4945 15.7815 18.8075 14.0365C19.1205 12.2912 19.1058 10.6145 19.0963 9.53198L19.0963 9.53166L19.0963 9.53136L19.0938 9.10345C19.0938 9.10336 19.0938 9.10328 19.0938 9.10319C19.0937 8.29326 18.7394 7.68397 18.1721 7.23112C17.6087 6.78131 16.8362 6.48598 15.9927 6.29051C14.3075 5.9 12.3001 5.9 11.0047 5.9H11.0002H10.9958C9.7004 5.9 7.69297 5.9 6.0078 6.29051C5.16432 6.48598 4.39181 6.78131 3.82838 7.23112C3.26115 7.68395 2.90679 8.29321 2.90668 9.1031C2.90668 9.10321 2.90668 9.10333 2.90668 9.10345L2.90369 9.53136L2.90369 9.53154L2.90369 9.532C2.8942 10.6146 2.8795 12.2912 3.19253 14.0365ZM17.9971 9.54155L17.9946 9.10345L15.7579 18.1795C18.051 15.7837 18.0146 11.5692 17.9971 9.54306L17.9971 9.54155Z" fill="#6E6969" stroke="#6E6969" stroke-width="0.2"/>
<g id="Group 320">
<path id="Vector_2" d="M12.2498 6.0874H8.81229C8.76145 6.08737 8.71126 6.07607 8.66532 6.0543C8.61937 6.03253 8.57883 6.00084 8.54661 5.96152C8.51439 5.9222 8.49129 5.87622 8.47898 5.82689C8.46667 5.77757 8.46545 5.72613 8.47542 5.67628L8.81917 3.95753C8.83474 3.87963 8.87681 3.80953 8.93822 3.75914C8.99964 3.70876 9.0766 3.6812 9.15604 3.68115H11.906C11.9855 3.6812 12.0624 3.70876 12.1239 3.75914C12.1853 3.80953 12.2273 3.87963 12.2429 3.95753L12.5867 5.67628C12.5966 5.72613 12.5954 5.77757 12.5831 5.82689C12.5708 5.87622 12.5477 5.9222 12.5155 5.96152C12.4833 6.00084 12.4427 6.03253 12.3968 6.0543C12.3508 6.07607 12.3006 6.08737 12.2498 6.0874ZM9.23167 5.3999H11.8304L11.6242 4.36865H9.43792L9.23167 5.3999Z" fill="#6E6969"/>
<path id="Vector_3" d="M11.2188 4.36865H9.84375C9.75258 4.36865 9.66515 4.33244 9.60068 4.26797C9.53622 4.20351 9.5 4.11607 9.5 4.0249V1.9624C9.5 1.87123 9.53622 1.7838 9.60068 1.71933C9.66515 1.65487 9.75258 1.61865 9.84375 1.61865H11.2188C11.3099 1.61865 11.3974 1.65487 11.4618 1.71933C11.5263 1.7838 11.5625 1.87123 11.5625 1.9624V4.0249C11.5625 4.11607 11.5263 4.20351 11.4618 4.26797C11.3974 4.33244 11.3099 4.36865 11.2188 4.36865ZM10.1875 3.68115H10.875V2.30615H10.1875V3.68115Z" fill="#6E6969"/>
<path id="Vector_4" d="M9.84375 3.3374H8.46875C8.37758 3.3374 8.29015 3.30119 8.22568 3.23672C8.16122 3.17225 8.125 3.08482 8.125 2.99365C8.125 2.90248 8.16122 2.81505 8.22568 2.75058C8.29015 2.68612 8.37758 2.6499 8.46875 2.6499H9.84375C9.93492 2.6499 10.0224 2.68612 10.0868 2.75058C10.1513 2.81505 10.1875 2.90248 10.1875 2.99365C10.1875 3.08482 10.1513 3.17225 10.0868 3.23672C10.0224 3.30119 9.93492 3.3374 9.84375 3.3374Z" fill="#6E6969"/>
<path id="Vector_5" d="M6.40625 4.9875C5.07937 4.9875 4 4.09341 4 2.99375C4 1.89409 5.07937 1 6.40625 1C7.73312 1 8.8125 1.89444 8.8125 2.99375C8.8125 4.09306 7.73312 4.9875 6.40625 4.9875ZM6.40625 1.6875C5.45853 1.6875 4.6875 2.27359 4.6875 2.99375C4.6875 3.71391 5.45853 4.3 6.40625 4.3C7.35397 4.3 8.125 3.71425 8.125 2.99375C8.125 2.27325 7.35362 1.6875 6.40625 1.6875Z" fill="#6E6969"/>
</g>
</g>
</g>
</svg>
