<svg width="24" height="24" viewBox="0 0 24 24" fill="none" xmlns="http://www.w3.org/2000/svg">
<path d="M20.0757 12.1184V17.9314C20.0757 20.0717 18.3407 21.8067 16.2004 21.8067H8.44978C6.3095 21.8067 4.57446 20.0717 4.57446 17.9314V12.1184" stroke="#666464" stroke-width="1.45324"/>
<path d="M16.9451 2.43005H7.70492C5.94422 2.43005 4.3609 3.63601 3.70699 5.47513L2.97264 7.5405C2.75034 8.16571 2.59668 8.83473 2.75882 9.47816C3.14281 11.002 4.3886 12.1183 5.86616 12.1183C7.64972 12.1183 9.09559 10.4917 9.09559 8.48523C9.09559 10.4917 10.5415 12.1183 12.325 12.1183C14.1086 12.1183 15.5544 10.4917 15.5544 8.48523C15.5544 10.4917 17.0003 12.1183 18.7839 12.1183C20.2614 12.1183 21.5072 11.002 21.8912 9.47816C22.0534 8.83473 21.8997 8.16571 21.6774 7.5405L20.943 5.47513C20.2891 3.63601 18.7058 2.43005 16.9451 2.43005Z" stroke="#666464" stroke-width="1.45324" stroke-linejoin="round"/>
<path d="M9.4187 16.9625C11.7014 18.2611 12.9526 18.2475 15.2317 16.9625" stroke="#666464" stroke-width="1.45324" stroke-linecap="round" stroke-linejoin="round"/>
</svg>
