<svg width="25" height="21" viewBox="0 0 25 21" fill="none" xmlns="http://www.w3.org/2000/svg">
<path d="M20.1121 7.11602C20.2468 6.9845 20.4626 6.98708 20.5941 7.12178C21.4826 8.03177 22.138 9.12145 22.5275 10.3851C24.2031 15.8211 20.6959 19.5286 12.3249 19.5286C3.9539 19.5286 0.446648 15.8211 2.12224 10.3851C2.50483 9.14384 3.14403 8.07034 4.00891 7.17003C4.13934 7.03426 4.35513 7.02993 4.4909 7.16036C4.62667 7.29078 4.631 7.50657 4.50057 7.64234C3.70867 8.46669 3.12465 9.44751 2.77376 10.5859C1.24694 15.5393 4.37586 18.8469 12.3249 18.8469C20.2739 18.8469 23.4028 15.5393 21.876 10.5859C21.5188 9.427 20.92 8.43141 20.1063 7.59807C19.9748 7.46337 19.9774 7.24755 20.1121 7.11602Z" fill="#666464" stroke="#666464" stroke-width="0.968829"/>
<path d="M24.2138 12.3727C24.4006 12.3493 24.5709 12.4818 24.5943 12.6686C24.616 12.8421 24.5033 13.0014 24.3375 13.042L24.2983 13.0492L21.5712 13.3901C21.3844 13.4134 21.2141 13.2809 21.1907 13.0941C21.169 12.9206 21.2817 12.7613 21.4475 12.7208L21.4867 12.7135L24.2138 12.3727ZM21.2012 14.3217C21.2492 14.1536 21.4153 14.0512 21.5838 14.0789L21.6226 14.0876L24.0088 14.7693C24.1898 14.8211 24.2946 15.0097 24.2429 15.1908C24.1949 15.3588 24.0288 15.4612 23.8604 15.4336L23.8215 15.4249L21.4353 14.7431C21.2543 14.6914 21.1495 14.5027 21.2012 14.3217Z" fill="#666464"/>
<path d="M0.437639 12.3728C0.250929 12.3487 0.0799971 12.4805 0.0558522 12.6672C0.0334315 12.8406 0.145461 13.0003 0.31107 13.0416L0.350202 13.049L2.98621 13.3899C3.17292 13.414 3.34385 13.2822 3.368 13.0955C3.39042 12.9221 3.27839 12.7624 3.11278 12.7211L3.07365 12.7137L0.437639 12.3728Z" fill="#666464"/>
<path d="M3.26607 14.3185C3.21629 14.1509 3.04912 14.0503 2.88099 14.0797L2.84223 14.0888L0.547109 14.7706C0.366638 14.8242 0.263797 15.0139 0.317405 15.1944C0.367185 15.362 0.53436 15.4626 0.702483 15.4332L0.741245 15.4241L3.03637 14.7423C3.21684 14.6887 3.31968 14.499 3.26607 14.3185Z" fill="#666464"/>
<path d="M19.094 1.12437C19.2191 1.10627 19.344 1.15888 19.4184 1.26106C20.6153 2.90452 20.9693 5.26492 20.5025 8.33074C20.4742 8.51686 20.3003 8.64476 20.1142 8.61642C19.9281 8.58808 19.8002 8.41423 19.8285 8.22811C20.2515 5.45044 19.97 3.3308 19.0034 1.85909L18.986 1.83365L18.9544 1.83989C17.5821 2.11366 16.4154 3.0163 15.4464 4.57062L15.3638 4.70545C15.2883 4.83105 15.1408 4.89428 14.9978 4.86245C13.9989 4.6403 13.1077 4.5297 12.3252 4.5297C11.5426 4.5297 10.6515 4.6403 9.65258 4.86245C9.50948 4.89428 9.36206 4.83105 9.28649 4.70545C8.32961 3.11517 7.17549 2.17615 5.81639 1.86565L5.66395 1.83365L5.64698 1.85909C4.70228 3.29735 4.41202 5.35443 4.79408 8.03974L4.82183 8.22811C4.85017 8.41423 4.72227 8.58808 4.53615 8.61642C4.35003 8.64476 4.17617 8.51686 4.14783 8.33074C3.68099 5.26492 4.03505 2.90452 5.23193 1.26106C5.30635 1.15888 5.4312 1.10627 5.5563 1.12437C7.20599 1.36308 8.59069 2.35758 9.70187 4.08277L9.74161 4.14552L9.94592 4.10445C10.7433 3.94787 11.476 3.8628 12.1445 3.84971L12.3252 3.84793C13.0417 3.84793 13.8345 3.93363 14.7044 4.10445L14.9084 4.14552L14.9485 4.08277C16.0311 2.40182 17.3735 1.41456 18.9677 1.14422L19.094 1.12437Z" fill="#666464" stroke="#666464" stroke-width="0.968829"/>
<path d="M7.21155 13.0519C7.58808 13.0519 7.89332 12.7467 7.89332 12.3701C7.89332 11.9936 7.58808 11.6884 7.21155 11.6884C6.83502 11.6884 6.52979 11.9936 6.52979 12.3701C6.52979 12.7467 6.83502 13.0519 7.21155 13.0519Z" fill="#666464"/>
<path d="M16.7567 13.0519C17.1332 13.0519 17.4385 12.7467 17.4385 12.3701C17.4385 11.9936 17.1332 11.6884 16.7567 11.6884C16.3802 11.6884 16.075 11.9936 16.075 12.3701C16.075 12.7467 16.3802 13.0519 16.7567 13.0519Z" fill="#666464"/>
<path d="M17.0973 10.3247C18.0386 10.3247 18.8017 11.0878 18.8017 12.0291C18.8017 12.9705 18.0386 13.7335 17.0973 13.7335C16.156 13.7335 15.3929 12.9705 15.3929 12.0291C15.3929 11.0878 16.156 10.3247 17.0973 10.3247ZM17.0973 11.0065C16.5325 11.0065 16.0747 11.4643 16.0747 12.0291C16.0747 12.5939 16.5325 13.0518 17.0973 13.0518C17.6621 13.0518 18.12 12.5939 18.12 12.0291C18.12 11.4643 17.6621 11.0065 17.0973 11.0065ZM7.55256 10.3247C8.49389 10.3247 9.25698 11.0878 9.25698 12.0291C9.25698 12.9705 8.49389 13.7335 7.55256 13.7335C6.61124 13.7335 5.84814 12.9705 5.84814 12.0291C5.84814 11.0878 6.61124 10.3247 7.55256 10.3247ZM7.55256 11.0065C6.98777 11.0065 6.52991 11.4643 6.52991 12.0291C6.52991 12.5939 6.98777 13.0518 7.55256 13.0518C8.11736 13.0518 8.57522 12.5939 8.57522 12.0291C8.57522 11.4643 8.11736 11.0065 7.55256 11.0065ZM10.9341 16.2534C10.8602 16.4266 10.66 16.5071 10.4868 16.4333C10.3136 16.3595 10.2331 16.1592 10.307 15.986C10.7142 15.031 11.4677 15.986 12.3249 15.986C13.1822 15.986 13.9357 15.031 14.3429 15.986C14.4168 16.1592 14.3362 16.3595 14.1631 16.4333C13.9899 16.5071 13.7896 16.4266 13.7158 16.2534C13.407 15.5293 12.878 16.7206 12.3249 16.7206C11.7719 16.7206 11.2429 15.5293 10.9341 16.2534Z" fill="#666464" stroke="#666464" stroke-width="0.484414"/>
</svg>
