<svg width="24" height="24" viewBox="0 0 24 24" fill="none" xmlns="http://www.w3.org/2000/svg">
<path d="M13.2939 8.10071L10.3875 11.976H14.2628L11.3563 15.8513" stroke="#666464" stroke-width="1.45324" stroke-linecap="round" stroke-linejoin="round"/>
<path d="M5.4746 5.12512C3.72136 6.87836 2.63696 9.30043 2.63696 11.9758C2.63696 14.6511 3.72136 17.0732 5.4746 18.8264M8.21486 7.86538C7.16292 8.91732 6.51228 10.3706 6.51228 11.9758C6.51228 13.581 7.16292 15.0342 8.21486 16.0862M19.1759 18.8264C20.9291 17.0732 22.0135 14.6511 22.0135 11.9758C22.0135 9.30043 20.9291 6.87836 19.1759 5.12512M16.4356 16.0862C17.4876 15.0342 18.1382 13.581 18.1382 11.9758C18.1382 10.3706 17.4876 8.91732 16.4356 7.86538" stroke="#666464" stroke-width="1.45324" stroke-linecap="round" stroke-linejoin="round"/>
</svg>
