<svg width="23" height="23" viewBox="0 0 23 23" fill="none" xmlns="http://www.w3.org/2000/svg">
<circle cx="11.5" cy="11.5" r="11.5" fill="white"/>
<path d="M17.4377 9.52116L16.8757 7.45887C16.6587 6.66324 16.5503 6.26583 16.3278 5.96578C16.106 5.66769 15.8048 5.43806 15.4586 5.30316C15.1102 5.16699 14.6986 5.16699 13.8752 5.16699M5.56274 9.52116L6.12483 7.45887C6.34174 6.66324 6.4502 6.26583 6.67266 5.96578C6.89447 5.66769 7.19571 5.43806 7.54191 5.30316C7.89024 5.16699 8.30191 5.16699 9.12524 5.16699" stroke="#545454" stroke-width="1.1875"/>
<path d="M9.12524 5.16667C9.12524 4.9567 9.20865 4.75534 9.35712 4.60687C9.50558 4.45841 9.70695 4.375 9.91691 4.375H13.0836C13.2935 4.375 13.4949 4.45841 13.6434 4.60687C13.7918 4.75534 13.8752 4.9567 13.8752 5.16667C13.8752 5.37663 13.7918 5.57799 13.6434 5.72646C13.4949 5.87493 13.2935 5.95833 13.0836 5.95833H9.91691C9.70695 5.95833 9.50558 5.87493 9.35712 5.72646C9.20865 5.57799 9.12524 5.37663 9.12524 5.16667Z" stroke="#545454" stroke-width="1.1875"/>
<path d="M8.33374 12.292V15.4587M14.6671 12.292V15.4587M11.5004 12.292V15.4587" stroke="#545454" stroke-width="1.1875" stroke-linecap="round" stroke-linejoin="round"/>
<path d="M5.05936 15.0269C5.49161 16.7551 5.70773 17.6188 6.35136 18.1223C6.99578 18.625 7.8864 18.625 9.66765 18.625H13.3331C15.1143 18.625 16.0049 18.625 16.6501 18.1223C17.2938 17.6188 17.5099 16.7551 17.9414 15.0269C18.6206 12.3099 18.9602 10.9522 18.2477 10.0386C17.5344 9.125 16.134 9.125 13.3339 9.125H9.66765C6.86673 9.125 5.46707 9.125 4.75378 10.0386C4.33498 10.5745 4.27878 11.2641 4.44186 12.2917" stroke="#545454" stroke-width="1.1875" stroke-linecap="round"/>
</svg>
